<svg xmlns="http://www.w3.org/2000/svg" width="1080.000000pt" height="1080.000000pt" viewBox="0 0 1080.000000 1080.000000" preserveAspectRatio="xMidYMid meet"><metadata>
Created by potrace 1.16, written by Peter Selinger 2001-2019
</metadata><g transform="translate(0.000000,1080.000000) scale(0.100000,-0.100000)" fill="#000000" stroke="none"><path d="M4717 10683 c-15 -2 -25 -9 -22 -14 4 -5 -20 -9 -57 -9 -36 0 -75 -6 -92 -15 -16 -9 -55 -15 -93 -15 -35 0 -62 -4 -59 -9 3 -4 -20 -11 -51 -14 -31 -3 -61 -11 -66 -16 -6 -6 -33 -11 -59 -11 -26 0 -48 -4 -48 -10 0 -5 -12 -10 -27 -10 -16 0 -41 -7 -57 -15 -15 -8 -46 -15 -67 -15 -22 0 -39 -4 -39 -10 0 -5 -10 -10 -22 -10 -13 0 -36 -7 -52 -15 -15 -8 -44 -15 -63 -15 -20 0 -32 -4 -28 -10 3 -5 -12 -12 -35 -16 -22 -4 -40 -10 -40 -15 0 -5 -18 -9 -41 -9 -23 0 -38 -4 -34 -9 3 -6 -10 -13 -30 -17 -19 -3 -35 -10 -35 -15 0 -5 -15 -9 -34 -9 -21 0 -36 -6 -40 -15 -3 -8 -17 -15 -31 -15 -14 0 -25 -4 -25 -10 0 -5 -16 -10 -36 -10 -21 0 -33 -4 -29 -10 4 -6 -7 -13 -25 -16 -17 -4 -33 -11 -36 -15 -3 -5 -18 -9 -35 -9 -18 0 -28 -5 -26 -12 1 -8 -10 -14 -25 -16 -16 -2 -28 -8 -28 -13 0 -5 -14 -9 -31 -9 -18 0 -28 -4 -24 -10 3 -6 -2 -13 -12 -16 -10 -3 -26 -10 -35 -15 -10 -5 -27 -9 -38 -9 -11 0 -19 -6 -18 -12 2 -7 -7 -14 -19 -16 -13 -2 -23 -8 -23 -13 0 -5 -14 -9 -30 -9 -18 0 -29 -5 -28 -12 2 -7 -7 -14 -19 -16 -13 -2 -23 -8 -23 -13 0 -5 -11 -9 -24 -9 -13 0 -26 -7 -30 -15 -3 -8 -12 -15 -21 -15 -8 0 -15 -4 -15 -10 0 -5 -11 -10 -25 -10 -16 0 -25 -6 -25 -15 0 -8 -9 -15 -20 -15 -11 0 -20 -4 -20 -10 0 -5 -11 -10 -25 -10 -14 0 -24 -5 -23 -12 2 -7 -7 -14 -19 -16 -13 -2 -23 -8 -23 -13 0 -5 -9 -9 -20 -9 -11 0 -20 -7 -20 -15 0 -8 -9 -15 -20 -15 -11 0 -20 -4 -20 -10 0 -5 -7 -10 -15 -10 -9 0 -18 -7 -21 -15 -4 -8 -12 -15 -20 -15 -8 0 -14 -4 -14 -9 0 -5 -8 -11 -17 -15 -24 -7 -66 -35 -98 -63 -7 -7 -18 -13 -23 -13 -6 0 -12 -7 -16 -15 -3 -8 -12 -15 -21 -15 -8 0 -15 -4 -15 -10 0 -5 -4 -10 -9 -10 -6 0 -22 -11 -37 -25 -15 -14 -31 -25 -35 -25 -4 0 -20 -11 -35 -25 -15 -14 -33 -25 -41 -25 -8 0 -12 -4 -8 -9 3 -5 -4 -12 -15 -16 -11 -3 -20 -11 -20 -16 0 -5 -5 -9 -10 -9 -6 0 -21 -11 -34 -25 -13 -14 -26 -25 -30 -25 -4 0 -17 -11 -30 -25 -13 -14 -31 -25 -40 -25 -10 0 -15 -4 -12 -8 6 -9 -29 -42 -44 -42 -6 0 -10 -7 -10 -15 0 -8 -7 -15 -15 -15 -8 0 -15 -4 -15 -10 0 -5 -7 -10 -16 -10 -8 0 -13 -4 -10 -8 7 -11 -30 -42 -50 -42 -8 0 -13 -4 -10 -8 4 -8 -27 -42 -39 -42 -5 0 -205 -202 -251 -254 -17 -19 -29 -38 -26 -41 3 -3 -2 -5 -11 -5 -9 0 -17 -4 -17 -10 0 -5 -8 -19 -18 -31 -9 -11 -26 -31 -37 -44 l-20 -24 3 197 c2 134 -1 192 -8 182 -8 -12 -10 -11 -10 7 0 12 -6 28 -14 35 -7 8 -17 24 -20 36 -4 12 -12 22 -17 22 -5 0 -9 5 -9 11 0 14 -25 39 -39 39 -6 0 -11 7 -11 15 0 8 -9 15 -20 15 -11 0 -20 4 -20 9 0 5 -14 11 -31 15 -17 3 -28 10 -24 16 4 6 -35 10 -113 10 -97 0 -121 -3 -126 -15 -3 -8 -15 -15 -26 -15 -11 0 -20 -4 -20 -10 0 -5 -9 -10 -20 -10 -11 0 -20 -7 -20 -15 0 -8 -5 -15 -11 -15 -14 0 -39 -25 -39 -39 0 -6 -7 -11 -15 -11 -9 0 -15 -9 -15 -25 0 -16 -6 -25 -15 -25 -10 0 -15 -10 -15 -34 0 -19 -4 -38 -10 -41 -14 -9 -14 -1455 0 -1455 6 0 10 -16 10 -35 0 -22 6 -38 15 -41 8 -4 15 -12 15 -20 0 -8 5 -14 11 -14 5 0 8 -4 5 -8 -3 -5 4 -15 15 -22 10 -8 19 -20 19 -27 0 -7 7 -13 15 -13 8 0 15 -4 15 -9 0 -5 9 -13 20 -16 11 -4 18 -11 15 -16 -4 -5 3 -9 14 -9 12 0 21 -4 21 -10 0 -5 9 -10 19 -10 28 0 52 -11 45 -21 -3 -5 60 -9 148 -8 92 1 143 4 128 9 -21 7 -22 8 -5 10 42 4 440 22 650 29 121 4 207 8 190 10 -50 6 67 19 183 20 61 1 102 5 102 11 0 6 16 10 36 10 19 0 33 4 29 9 -3 6 11 18 32 28 43 20 103 78 103 99 0 8 4 14 9 14 5 0 12 11 15 25 4 14 11 23 16 20 6 -4 10 12 10 37 0 24 5 49 11 55 8 8 8 22 0 49 -6 22 -11 56 -11 77 0 20 -4 37 -10 37 -5 0 -10 4 -10 10 0 5 -8 19 -17 31 -10 11 -28 33 -40 47 -13 15 -23 30 -23 35 0 4 -7 7 -15 7 -9 0 -18 7 -21 15 -4 8 -15 15 -25 15 -10 0 -19 5 -19 10 0 6 -13 10 -30 10 -20 0 -30 5 -30 15 0 13 -27 15 -187 15 -107 0 -182 -4 -175 -9 24 -15 -25 -21 -170 -21 -78 0 -138 4 -138 9 0 5 11 18 23 28 13 10 26 23 28 28 12 29 56 85 66 85 7 0 12 3 11 8 -2 4 10 21 25 37 48 53 77 90 77 98 0 4 7 7 15 7 8 0 14 4 12 8 -1 5 19 29 46 55 26 25 47 51 47 57 0 5 5 10 11 10 14 0 39 25 39 39 0 6 5 11 10 11 6 0 48 38 94 85 46 47 89 85 95 85 6 0 11 7 11 15 0 8 5 15 11 15 7 0 22 11 35 25 13 14 26 25 29 25 3 0 16 11 29 25 13 14 27 25 31 25 4 0 18 11 31 25 13 14 25 25 28 25 3 0 17 11 32 25 15 14 33 25 41 25 8 0 12 4 8 9 -3 5 4 12 15 16 11 3 20 11 20 16 0 5 9 9 21 9 12 0 17 4 14 11 -4 6 2 13 14 16 12 3 21 9 21 14 0 5 9 9 21 9 11 0 18 4 14 9 -3 5 4 12 15 16 11 3 20 11 20 16 0 5 9 9 21 9 11 0 18 4 14 9 -3 5 4 12 15 16 11 3 20 11 20 16 0 5 9 9 19 9 10 0 21 7 25 15 3 8 12 15 21 15 8 0 15 5 15 10 0 6 12 10 26 10 15 0 23 4 19 11 -4 6 2 13 14 16 12 3 21 9 21 14 0 5 12 9 26 9 15 0 23 4 19 11 -4 6 2 13 14 16 12 3 21 9 21 14 0 5 12 9 26 9 14 0 22 4 19 10 -3 5 6 12 20 16 14 3 25 10 25 15 0 5 11 9 24 9 13 0 26 7 30 15 3 8 15 15 26 15 11 0 20 5 20 10 0 6 12 10 26 10 14 0 23 4 19 10 -4 6 7 13 24 16 17 4 31 10 31 15 0 5 12 9 26 9 14 0 23 4 19 10 -4 6 7 13 24 16 17 4 31 10 31 15 0 5 13 9 30 9 19 0 29 5 27 13 -1 7 10 13 26 15 15 2 27 8 27 13 0 5 17 9 38 9 24 0 32 3 24 9 -11 7 -10 10 3 15 9 3 25 6 36 6 10 0 19 5 19 10 0 6 10 10 23 10 12 0 31 7 41 15 11 8 30 15 43 15 13 0 23 5 23 10 0 6 10 10 23 10 13 0 32 7 43 15 10 8 31 15 47 15 15 0 27 5 27 10 0 6 13 10 28 10 16 0 37 7 48 15 10 8 34 15 52 15 17 0 32 5 32 10 0 6 15 10 33 10 18 0 42 7 53 15 10 8 38 15 62 15 26 0 41 4 37 10 -4 6 9 10 32 10 21 0 51 7 67 15 15 8 53 15 83 15 30 0 52 4 49 9 -3 4 25 11 61 14 37 4 71 11 77 17 5 5 48 10 94 10 46 0 81 4 78 9 -3 4 52 11 121 15 70 4 134 11 144 17 25 13 562 12 576 -2 6 -6 71 -13 147 -16 79 -4 132 -10 124 -14 -7 -5 25 -9 77 -9 63 0 96 -5 109 -15 12 -9 43 -15 80 -15 43 0 57 -3 46 -10 -11 -7 3 -10 46 -10 37 0 68 -6 80 -15 10 -8 41 -15 67 -15 30 0 46 -4 42 -10 -4 -6 9 -10 32 -10 22 0 48 -7 59 -15 10 -8 36 -15 57 -15 23 0 36 -4 32 -10 -4 -6 9 -10 33 -10 23 0 45 -6 52 -15 7 -8 28 -15 47 -15 19 0 32 -4 29 -9 -3 -5 13 -11 36 -14 24 -3 44 -11 46 -16 2 -6 16 -11 32 -11 16 0 30 -4 32 -10 2 -5 16 -11 32 -12 15 -1 31 -8 33 -15 3 -7 18 -13 35 -13 16 0 27 -4 24 -9 -3 -5 12 -11 35 -15 22 -4 37 -11 34 -16 -4 -6 7 -10 24 -10 17 0 31 -4 31 -9 0 -5 15 -11 33 -15 25 -5 29 -9 17 -16 -11 -7 -5 -10 23 -10 20 0 37 -4 37 -9 0 -5 14 -13 31 -16 23 -5 28 -9 18 -16 -10 -6 -2 -9 24 -9 20 0 37 -4 37 -9 0 -5 12 -12 27 -16 21 -5 24 -8 12 -16 -10 -6 -5 -9 19 -9 17 0 32 -4 32 -9 0 -5 11 -12 25 -15 14 -4 23 -11 20 -16 -3 -6 5 -10 19 -10 14 0 26 -4 26 -9 0 -5 10 -11 23 -13 12 -2 21 -9 19 -16 -1 -7 9 -12 23 -12 14 0 25 -4 25 -9 0 -5 9 -11 21 -14 12 -3 18 -10 14 -16 -3 -7 2 -11 14 -11 25 0 83 -34 74 -43 -3 -4 3 -7 15 -7 12 0 22 -4 22 -9 0 -5 11 -12 25 -15 14 -4 23 -11 20 -16 -3 -6 1 -10 10 -10 9 0 23 -6 30 -12 33 -30 45 -38 55 -38 5 0 10 -4 10 -10 0 -5 7 -10 15 -10 7 0 18 -6 22 -12 4 -7 22 -21 38 -30 17 -10 29 -22 28 -28 -2 -5 6 -10 17 -10 11 0 20 -4 20 -10 0 -5 5 -10 11 -10 10 0 23 -10 80 -62 10 -10 22 -18 25 -18 4 0 17 -11 30 -25 13 -14 26 -25 30 -25 4 0 17 -11 30 -25 13 -14 26 -25 29 -25 3 0 16 -11 29 -25 13 -14 28 -25 35 -25 6 0 11 -7 11 -15 0 -8 4 -15 10 -15 15 0 50 -33 44 -42 -3 -4 0 -8 7 -8 6 0 26 -16 45 -35 18 -19 37 -35 43 -35 6 0 11 -5 11 -11 0 -14 25 -39 39 -39 6 0 11 -5 11 -11 0 -14 25 -39 39 -39 6 0 11 -5 11 -10 0 -6 20 -30 45 -54 25 -25 45 -47 45 -51 0 -3 12 -17 26 -30 15 -14 24 -25 21 -25 -3 0 14 -20 39 -44 24 -25 44 -47 44 -50 0 -6 7 -14 58 -70 12 -14 22 -30 22 -36 0 -5 5 -10 10 -10 6 0 10 -7 10 -16 0 -8 5 -12 10 -9 6 3 10 0 10 -7 0 -7 14 -27 30 -45 17 -18 30 -35 30 -38 0 -4 6 -13 13 -20 29 -33 37 -45 37 -55 0 -5 5 -10 10 -10 6 0 10 -7 10 -15 0 -8 3 -15 8 -15 4 0 16 -17 27 -37 11 -21 24 -43 30 -50 5 -7 15 -18 21 -26 6 -7 15 -23 18 -35 4 -12 12 -22 17 -22 5 0 9 -7 9 -15 0 -8 5 -15 10 -15 6 0 10 -9 10 -20 0 -11 6 -23 14 -26 7 -3 19 -23 26 -44 7 -22 16 -37 20 -35 5 3 11 -6 14 -20 4 -14 11 -25 16 -25 6 0 10 -11 10 -25 0 -16 6 -25 15 -25 9 0 15 -9 15 -25 0 -14 5 -25 10 -25 6 0 10 -9 10 -20 0 -11 7 -23 15 -26 8 -4 15 -12 15 -20 0 -7 11 -33 25 -58 14 -25 25 -52 25 -60 0 -9 5 -16 10 -16 6 0 10 -13 10 -30 0 -19 5 -29 13 -27 7 1 13 -10 15 -25 2 -16 8 -28 13 -28 5 0 9 -9 9 -21 0 -11 7 -27 15 -35 8 -9 15 -26 15 -40 0 -13 5 -24 10 -24 6 0 10 -8 10 -19 0 -10 7 -32 15 -47 8 -16 15 -37 15 -46 0 -10 5 -18 10 -18 6 0 10 -10 10 -23 0 -13 7 -32 15 -43 8 -10 15 -34 15 -51 0 -18 4 -33 9 -33 5 0 11 -12 14 -27 15 -75 30 -123 38 -123 5 0 9 -12 9 -27 0 -16 7 -50 15 -77 8 -27 15 -70 16 -95 1 -38 2 -42 9 -21 l8 25 1 -27 c1 -15 8 -53 16 -85 8 -31 16 -87 16 -123 2 -59 3 -61 9 -25 l7 40 2 -46 c0 -25 6 -60 12 -76 5 -17 14 -100 18 -184 6 -121 9 -138 11 -79 3 73 4 71 11 -40 4 -63 10 -189 13 -280 8 -212 15 -292 27 -285 5 4 9 -5 9 -20 0 -14 7 -28 15 -31 8 -4 15 -12 15 -20 0 -8 4 -14 9 -14 5 0 12 -9 16 -19 3 -10 15 -21 26 -24 12 -3 18 -10 14 -16 -3 -7 2 -11 14 -11 12 0 21 -4 21 -10 0 -5 9 -10 20 -10 11 0 20 -7 20 -15 0 -11 12 -15 45 -15 25 0 45 -4 45 -10 0 -5 23 -10 50 -10 28 0 50 5 50 10 0 6 20 10 45 10 33 0 45 4 45 15 0 9 9 15 25 15 14 0 25 5 25 10 0 6 7 10 15 10 8 0 15 5 15 11 0 13 25 39 38 39 5 0 13 11 16 25 4 14 13 25 21 25 22 0 22 881 0 903 -9 10 -15 34 -15 64 -1 26 -7 66 -15 88 -8 22 -15 64 -15 93 0 34 -5 59 -15 68 -9 10 -15 34 -15 64 0 27 -4 52 -10 55 -5 3 -10 26 -10 51 0 27 -6 52 -15 60 -8 9 -15 33 -15 55 0 21 -4 39 -10 39 -5 0 -10 23 -10 50 0 38 -4 50 -15 50 -10 0 -15 11 -15 35 0 19 -4 35 -10 35 -5 0 -10 16 -10 36 0 19 -7 42 -15 50 -8 9 -15 29 -15 45 0 16 -4 29 -10 29 -5 0 -10 14 -10 31 0 17 -7 37 -15 45 -8 9 -15 26 -15 39 0 13 -4 27 -10 30 -5 3 -10 22 -10 41 0 24 -5 34 -15 34 -9 0 -15 9 -15 25 0 14 -4 25 -10 25 -5 0 -10 16 -10 35 0 22 -6 38 -15 41 -8 4 -15 17 -15 30 0 13 -4 24 -10 24 -5 0 -10 9 -10 21 0 11 -7 27 -15 35 -8 9 -15 26 -15 40 0 13 -4 24 -10 24 -5 0 -10 11 -10 25 0 16 -6 25 -15 25 -9 0 -15 9 -15 25 0 14 -4 25 -10 25 -5 0 -10 11 -10 25 0 16 -6 25 -15 25 -9 0 -15 9 -15 24 0 13 -6 26 -14 29 -9 4 -12 14 -9 26 4 15 1 21 -11 21 -10 0 -16 9 -16 24 0 13 -7 26 -15 30 -8 3 -12 12 -9 19 3 8 -2 17 -10 20 -9 4 -16 13 -16 22 0 8 -4 15 -9 15 -5 0 -12 11 -15 25 -4 14 -11 25 -16 25 -6 0 -10 11 -10 25 0 16 -6 25 -16 25 -9 0 -14 6 -12 12 4 12 0 20 -32 57 -8 9 -17 25 -18 36 -2 11 -12 26 -21 35 -10 8 -21 25 -25 38 -4 12 -12 22 -17 22 -5 0 -9 7 -9 15 0 8 -4 15 -10 15 -5 0 -12 11 -16 25 -3 14 -10 25 -15 25 -5 0 -9 7 -9 16 0 8 -4 13 -9 10 -5 -3 -12 5 -15 19 -4 14 -11 25 -16 25 -6 0 -10 6 -10 14 0 8 -7 16 -15 20 -8 3 -15 14 -15 24 0 10 -11 25 -25 32 -14 7 -25 19 -25 26 0 7 -5 14 -10 16 -6 2 -12 13 -13 26 0 12 -5 22 -10 22 -4 0 -17 9 -29 20 -12 11 -19 20 -15 20 4 0 -2 9 -13 20 -12 12 -18 25 -15 30 4 6 1 10 -5 10 -14 0 -40 25 -40 39 0 6 -6 11 -13 11 -8 0 -20 11 -27 25 -7 14 -17 25 -22 25 -4 0 -8 7 -8 15 0 8 -29 43 -65 79 -36 35 -65 69 -65 75 0 6 -7 11 -16 11 -8 0 -12 5 -9 10 3 6 -1 10 -9 10 -9 0 -16 6 -16 13 0 7 -11 21 -25 31 -13 10 -22 22 -19 27 3 5 0 9 -6 9 -14 0 -40 25 -40 39 0 6 -5 11 -11 11 -14 0 -39 25 -39 39 0 6 -4 11 -10 11 -15 0 -50 33 -44 42 3 4 -2 8 -10 8 -9 0 -16 5 -16 10 0 6 -7 10 -15 10 -8 0 -15 7 -15 15 0 8 -5 15 -11 15 -14 0 -39 25 -39 39 0 6 -5 11 -11 11 -6 0 -33 23 -60 50 -27 28 -54 50 -60 50 -7 0 -22 11 -35 25 -13 14 -25 25 -28 25 -12 0 -45 34 -40 42 3 4 -1 8 -9 8 -8 0 -26 11 -41 25 -15 14 -30 25 -33 25 -3 0 -16 11 -29 25 -13 14 -30 25 -39 25 -8 0 -15 5 -15 10 0 6 -7 10 -15 10 -8 0 -15 7 -15 15 0 8 -6 15 -14 15 -7 0 -24 11 -38 24 -14 12 -32 26 -39 30 -41 21 -58 33 -52 39 3 4 -1 7 -11 7 -10 0 -24 6 -31 13 -34 29 -45 37 -55 37 -6 0 -13 7 -16 15 -4 8 -15 15 -25 15 -10 0 -19 4 -19 9 0 5 -9 11 -21 14 -12 3 -18 10 -14 16 4 7 -4 11 -19 11 -14 0 -26 4 -26 9 0 5 -9 11 -21 14 -12 3 -18 10 -14 16 4 7 -4 11 -19 11 -14 0 -26 4 -26 9 0 5 -10 11 -22 13 -13 2 -22 9 -21 16 2 7 -8 12 -22 12 -14 0 -25 5 -25 10 0 6 -7 10 -15 10 -9 0 -18 7 -21 15 -4 8 -17 15 -30 15 -13 0 -24 4 -24 9 0 5 -10 11 -22 13 -13 2 -22 9 -20 16 1 7 -9 12 -23 12 -14 0 -25 4 -25 9 0 5 -12 11 -27 13 -16 2 -27 8 -25 16 1 7 -9 12 -28 12 -16 0 -30 4 -30 9 0 5 -10 11 -22 13 -13 2 -22 9 -20 16 1 7 -10 12 -28 12 -16 0 -30 4 -30 9 0 5 -14 11 -31 15 -17 3 -28 10 -24 16 4 6 -8 10 -29 10 -20 0 -36 4 -36 9 0 5 -14 11 -31 15 -17 3 -28 10 -24 16 4 6 -8 10 -29 10 -20 0 -36 5 -36 10 0 6 -11 10 -25 10 -14 0 -28 7 -31 15 -4 9 -19 15 -40 15 -19 0 -34 4 -34 9 0 5 -16 12 -35 15 -19 4 -35 11 -35 16 0 6 -16 10 -35 10 -19 0 -35 4 -35 9 0 5 -18 11 -40 15 -22 3 -40 11 -40 16 0 6 -16 10 -36 10 -19 0 -42 7 -50 15 -9 8 -29 15 -45 15 -16 0 -29 5 -29 10 0 6 -19 10 -42 10 -24 0 -52 7 -62 15 -11 8 -37 15 -59 15 -23 0 -36 4 -32 10 4 6 -14 10 -47 10 -31 1 -61 7 -72 15 -11 8 -39 15 -63 15 -24 0 -43 5 -43 10 0 6 -30 10 -69 10 -52 0 -70 4 -75 15 -4 11 -23 15 -80 15 -51 0 -76 4 -78 13 -4 9 -152 12 -694 13 -379 1 -701 -1 -717 -3z"></path><path d="M6570 8830 c0 -5 -16 -10 -35 -10 -19 0 -35 -4 -35 -10 0 -5 -11 -12 -25 -16 -14 -3 -25 -10 -25 -15 0 -5 -4 -9 -9 -9 -5 0 -54 -45 -108 -100 -54 -55 -104 -100 -111 -100 -7 0 -11 -4 -8 -8 6 -10 -29 -42 -45 -42 -5 0 -8 -4 -5 -8 6 -10 -29 -42 -45 -42 -5 0 -8 -4 -5 -8 6 -10 -29 -42 -45 -42 -5 0 -8 -4 -5 -8 6 -10 -29 -42 -45 -42 -5 0 -8 -4 -5 -8 6 -10 -29 -42 -45 -42 -5 0 -8 -4 -5 -8 6 -9 -29 -42 -44 -42 -6 0 -9 -4 -7 -8 3 -11 -506 -522 -521 -522 -7 0 -11 -3 -10 -7 3 -17 -15 -43 -30 -43 -8 0 -13 -3 -9 -6 7 -7 -29 -44 -45 -44 -6 0 -9 -3 -5 -6 7 -7 -29 -44 -45 -44 -6 0 -9 -3 -5 -6 7 -7 -29 -44 -44 -44 -5 0 -8 -4 -5 -8 6 -9 -29 -42 -44 -42 -6 0 -10 -5 -10 -11 0 -14 -26 -39 -40 -39 -6 0 -9 -4 -6 -8 6 -9 -29 -42 -44 -42 -6 0 -10 -5 -10 -11 0 -14 -25 -39 -39 -39 -6 0 -11 -5 -11 -11 0 -14 -25 -39 -39 -39 -6 0 -11 -4 -11 -10 0 -13 -258 -270 -272 -270 -6 0 -9 -3 -5 -6 7 -7 -29 -44 -45 -44 -6 0 -9 -3 -5 -6 7 -7 -29 -44 -45 -44 -6 0 -9 -3 -5 -6 7 -7 -29 -44 -45 -44 -6 0 -9 -3 -5 -6 7 -7 -29 -44 -45 -44 -6 0 -9 -3 -5 -6 7 -7 -29 -44 -45 -44 -6 0 -9 -3 -5 -6 7 -7 -29 -44 -44 -44 -5 0 -8 -4 -5 -8 6 -10 -29 -42 -45 -42 -5 0 -8 -4 -5 -8 6 -10 -29 -42 -45 -42 -5 0 -8 -4 -5 -8 6 -10 -29 -42 -45 -42 -5 0 -8 -4 -5 -8 6 -9 -29 -42 -44 -42 -6 0 -10 -5 -10 -11 0 -6 -6 -17 -14 -25 -8 -8 -19 -14 -25 -14 -6 0 -11 -5 -11 -11 0 -6 -6 -17 -14 -25 -8 -8 -19 -14 -25 -14 -6 0 -11 -4 -11 -10 0 -13 -258 -270 -272 -270 -6 0 -9 -3 -5 -6 7 -7 -29 -44 -45 -44 -6 0 -9 -3 -6 -6 8 -7 -28 -44 -44 -44 -6 0 -9 -3 -5 -6 7 -7 -29 -44 -45 -44 -6 0 -9 -3 -6 -6 8 -7 -28 -44 -43 -44 -5 0 -8 -4 -5 -8 6 -10 -29 -42 -45 -42 -5 0 -8 -4 -5 -8 6 -10 -29 -42 -45 -42 -5 0 -8 -4 -5 -8 6 -10 -29 -42 -45 -42 -5 0 -8 -4 -5 -8 6 -10 -29 -42 -45 -42 -5 0 -8 -4 -5 -8 6 -10 -29 -42 -45 -42 -5 0 -8 -4 -5 -8 6 -9 -29 -42 -44 -42 -6 0 -10 -5 -10 -10 0 -6 -9 -20 -20 -32 -11 -12 -20 -28 -20 -36 0 -8 -7 -20 -16 -26 -24 -18 -24 -234 0 -252 9 -6 16 -20 16 -30 0 -11 9 -26 20 -34 11 -8 20 -18 20 -23 0 -13 60 -67 75 -67 8 0 15 -4 15 -10 0 -5 11 -10 25 -10 16 0 25 -6 25 -15 0 -10 11 -15 35 -15 19 0 35 -4 35 -10 0 -5 16 -10 35 -10 22 0 38 -6 41 -15 4 -9 19 -15 38 -15 18 0 36 -4 42 -9 5 -5 23 -11 39 -13 17 -2 29 -8 28 -15 -2 -9 10 -13 36 -13 22 0 43 -4 46 -10 3 -5 20 -10 36 -10 17 0 32 -6 35 -15 4 -9 19 -15 39 -15 19 0 37 -4 40 -10 3 -5 20 -10 36 -10 17 0 32 -6 35 -15 4 -9 19 -15 39 -15 19 0 37 -4 40 -10 3 -6 20 -10 36 -10 17 0 32 -6 35 -15 4 -9 19 -15 39 -15 19 0 37 -4 40 -10 3 -5 20 -10 36 -10 17 0 32 -6 35 -15 4 -9 19 -15 39 -15 19 0 37 -4 40 -10 3 -6 20 -10 36 -10 17 0 32 -6 35 -15 4 -9 19 -15 39 -15 19 0 37 -4 40 -10 3 -6 17 -10 30 -10 13 0 30 -7 39 -15 8 -8 28 -15 45 -15 16 0 33 -4 36 -10 3 -5 17 -10 30 -10 13 0 30 -7 39 -15 8 -8 28 -15 45 -15 16 0 33 -4 36 -10 3 -5 19 -10 35 -10 29 0 53 -21 32 -28 -7 -2 -12 -15 -12 -28 0 -15 -6 -24 -15 -24 -9 0 -15 -9 -15 -25 0 -14 -4 -25 -10 -25 -5 0 -10 -11 -10 -25 0 -16 -6 -25 -15 -25 -9 0 -15 -9 -15 -25 0 -14 -4 -25 -10 -25 -5 0 -10 -11 -10 -25 0 -16 -6 -25 -15 -25 -9 0 -15 -9 -15 -25 0 -14 -4 -25 -10 -25 -5 0 -10 -11 -10 -25 0 -16 -6 -25 -15 -25 -9 0 -15 -9 -15 -25 0 -14 -4 -25 -10 -25 -5 0 -10 -11 -10 -24 0 -13 -7 -26 -15 -30 -8 -3 -15 -15 -15 -26 0 -11 -4 -20 -10 -20 -5 0 -10 -11 -10 -24 0 -13 -7 -26 -15 -30 -8 -3 -15 -15 -15 -26 0 -11 -4 -20 -10 -20 -5 0 -10 -11 -10 -24 0 -13 -7 -26 -15 -30 -8 -3 -15 -14 -15 -25 0 -11 -4 -23 -10 -26 -5 -3 -10 -14 -10 -25 0 -10 -7 -20 -15 -24 -8 -3 -15 -14 -15 -25 0 -11 -4 -23 -10 -26 -5 -3 -10 -15 -10 -26 0 -11 -7 -22 -15 -25 -8 -4 -15 -15 -15 -26 0 -11 -7 -26 -15 -35 -8 -8 -13 -19 -9 -24 3 -5 -2 -12 -10 -15 -9 -3 -16 -15 -16 -26 0 -11 -7 -26 -15 -35 -8 -8 -13 -19 -9 -24 3 -5 -2 -12 -10 -15 -9 -3 -16 -16 -16 -29 0 -13 -7 -25 -15 -29 -8 -3 -15 -15 -15 -26 0 -11 -4 -20 -10 -20 -5 0 -10 -11 -10 -24 0 -13 -7 -26 -15 -30 -8 -3 -15 -15 -15 -26 0 -11 -4 -20 -10 -20 -5 0 -10 -11 -10 -25 0 -14 -4 -25 -10 -25 -5 0 -12 -11 -16 -25 -3 -14 -10 -25 -15 -25 -5 0 -9 -11 -9 -24 0 -13 -7 -26 -15 -30 -8 -3 -15 -15 -15 -26 0 -11 -4 -20 -10 -20 -5 0 -10 -11 -10 -24 0 -13 -7 -26 -15 -30 -8 -3 -15 -15 -15 -26 0 -11 -4 -20 -10 -20 -5 0 -10 -11 -10 -24 0 -13 -7 -26 -15 -30 -8 -3 -15 -15 -15 -26 0 -11 -4 -20 -10 -20 -5 0 -10 -11 -10 -25 0 -16 -6 -25 -15 -25 -9 0 -15 -9 -15 -25 0 -14 -4 -25 -10 -25 -5 0 -10 -11 -10 -24 0 -13 -7 -26 -15 -30 -8 -3 -15 -15 -15 -26 0 -11 -4 -20 -10 -20 -5 0 -10 -11 -10 -24 0 -13 -7 -26 -15 -30 -8 -3 -15 -14 -15 -25 0 -11 -5 -23 -10 -26 -6 -3 -10 -14 -10 -25 0 -10 -7 -20 -15 -24 -8 -3 -15 -14 -15 -25 0 -11 -4 -22 -9 -25 -4 -3 -11 -19 -15 -36 -3 -18 -10 -29 -16 -25 -6 4 -10 -8 -10 -29 0 -20 -5 -36 -11 -36 -7 0 -9 -26 -6 -78 7 -100 17 -153 28 -146 5 3 9 -2 9 -11 0 -8 9 -23 19 -32 11 -9 18 -20 15 -25 -3 -4 0 -8 6 -8 13 0 40 -25 40 -37 0 -5 18 -16 40 -26 22 -9 40 -21 40 -27 0 -5 15 -10 34 -10 19 0 38 -4 41 -10 3 -5 33 -10 66 -10 33 0 59 4 59 10 0 6 18 10 41 10 23 0 38 4 34 10 -3 5 6 12 20 16 14 3 25 10 25 15 0 5 5 9 11 9 7 0 22 11 35 25 13 14 29 25 35 25 7 0 10 3 6 6 -7 7 29 44 45 44 6 0 9 3 5 6 -7 7 29 44 45 44 6 0 9 3 5 6 -7 7 29 44 45 44 6 0 9 3 5 6 -7 7 29 44 45 44 6 0 9 3 5 6 -7 7 29 44 44 44 5 0 8 4 5 8 -6 10 29 42 45 42 5 0 8 4 5 8 -6 9 29 42 44 42 6 0 10 5 10 11 0 14 25 39 39 39 6 0 11 5 11 11 0 14 25 39 39 39 6 0 11 5 11 11 0 14 25 39 39 39 6 0 11 4 11 10 0 13 308 320 322 320 6 0 9 3 5 6 -7 7 29 44 45 44 6 0 9 3 6 6 -8 7 28 44 44 44 6 0 9 2 6 6 -8 7 56 74 71 74 6 0 11 5 11 10 0 6 7 10 16 10 8 0 13 4 10 8 -6 10 29 42 45 42 5 0 8 4 5 8 -6 10 29 42 45 42 5 0 8 4 5 8 -6 10 29 42 45 42 5 0 8 4 5 8 -6 10 29 42 45 42 5 0 8 4 5 8 -6 10 29 42 45 42 5 0 8 4 5 8 -6 9 29 42 44 42 6 0 9 4 7 8 -3 11 558 572 572 572 7 0 10 4 7 8 -6 10 29 42 45 42 5 0 8 4 5 8 -6 10 29 42 45 42 5 0 8 4 5 8 -6 10 29 42 45 42 5 0 8 4 5 8 -6 10 29 42 45 42 5 0 8 4 5 8 -6 10 29 42 45 42 5 0 8 4 5 8 -6 9 29 42 44 42 6 0 9 4 7 8 -3 12 657 672 672 672 7 0 10 4 7 8 -6 10 29 42 45 42 5 0 8 4 5 8 -6 10 29 42 45 42 5 0 8 4 5 8 -6 9 29 42 44 42 6 0 9 4 7 8 -1 4 9 19 23 34 41 42 58 65 65 87 3 12 11 19 16 16 5 -4 9 14 9 39 0 25 5 46 10 46 6 0 10 23 10 50 0 28 -4 50 -10 50 -5 0 -10 21 -10 46 0 25 -4 43 -9 39 -5 -3 -13 5 -17 17 -3 12 -15 30 -25 41 -10 11 -16 24 -13 29 3 4 0 8 -5 8 -16 0 -51 32 -45 42 3 4 -4 8 -15 8 -12 0 -21 5 -21 10 0 6 -9 10 -20 10 -11 0 -23 7 -26 15 -4 9 -19 15 -40 15 -19 0 -34 4 -34 9 0 6 -17 11 -37 13 -24 2 -37 8 -35 16 1 8 -11 12 -38 12 -22 0 -40 4 -40 9 0 6 -17 11 -37 13 -24 2 -37 8 -35 16 1 8 -11 12 -38 12 -22 0 -40 4 -40 9 0 6 -17 11 -37 13 -24 2 -37 8 -35 16 1 8 -11 12 -38 12 -22 0 -40 5 -40 10 0 6 -16 10 -35 10 -22 0 -38 6 -41 15 -4 9 -19 15 -40 15 -19 0 -34 4 -34 9 0 6 -17 11 -37 13 -24 2 -37 8 -35 16 1 8 -11 12 -37 12 -22 0 -43 5 -46 10 -3 6 -20 10 -36 10 -17 0 -32 6 -35 15 -4 9 -19 15 -39 15 -19 0 -37 5 -40 10 -3 6 -20 10 -36 10 -17 0 -32 6 -35 15 -4 9 -19 15 -39 15 -19 0 -37 5 -40 10 -3 6 -20 10 -36 10 -17 0 -32 6 -35 15 -4 9 -19 15 -39 15 -19 0 -37 5 -40 10 -3 6 -20 10 -36 10 -17 0 -32 6 -35 15 -4 9 -19 15 -39 15 -19 0 -37 5 -40 10 -3 6 -18 10 -33 10 -34 0 -62 17 -46 28 6 4 14 17 18 30 4 12 12 22 17 22 5 0 9 11 9 25 0 14 4 25 9 25 5 0 12 11 15 25 4 14 11 25 16 25 6 0 10 11 10 25 0 14 4 25 9 25 5 0 12 11 15 25 4 14 11 25 16 25 6 0 10 11 10 25 0 14 4 25 9 25 5 0 12 11 15 25 4 14 11 25 16 25 6 0 10 11 10 25 0 14 4 25 9 25 5 0 12 11 15 25 4 14 11 25 16 25 6 0 10 11 10 25 0 14 4 25 9 25 5 0 12 11 15 25 4 14 11 25 16 25 6 0 10 11 10 25 0 14 4 25 9 25 5 0 12 11 15 25 4 14 11 25 16 25 6 0 10 11 10 24 0 13 3 26 8 28 10 4 42 67 42 83 0 7 3 15 8 17 4 2 15 20 25 41 9 20 25 54 35 75 9 20 20 39 25 40 4 2 7 10 7 17 0 16 32 79 43 83 4 2 7 10 7 17 0 16 32 79 43 83 4 2 7 15 7 28 0 13 4 24 10 24 5 0 12 11 16 25 3 14 10 25 15 25 5 0 9 11 9 24 0 13 7 26 15 30 8 3 15 15 15 26 0 11 5 20 10 20 6 0 10 11 10 24 0 13 7 26 15 30 8 3 15 15 15 26 0 11 5 20 10 20 6 0 10 11 10 25 0 16 6 25 15 25 9 0 15 9 15 25 0 14 5 25 10 25 6 0 10 11 10 25 0 16 6 25 15 25 9 0 15 9 15 25 0 14 5 25 10 25 6 0 10 11 10 25 0 16 6 25 15 25 9 0 15 9 15 25 0 14 5 25 10 25 6 0 10 11 10 25 0 16 6 25 15 25 9 0 15 9 15 25 0 14 5 25 10 25 6 0 10 11 10 25 0 16 6 25 15 25 9 0 15 9 15 25 0 14 5 25 10 25 6 0 10 11 10 25 0 16 6 25 15 25 9 0 15 9 15 25 0 14 5 25 10 25 6 0 10 11 10 25 0 16 6 25 15 25 11 0 15 11 15 40 0 22 5 40 10 40 6 0 10 35 10 85 0 50 -4 85 -10 85 -5 0 -10 15 -10 34 0 24 -7 38 -25 52 -14 10 -25 23 -25 28 0 5 -11 19 -24 31 -14 13 -22 26 -19 29 4 3 -3 6 -15 6 -12 0 -22 5 -22 10 0 6 -7 10 -15 10 -9 0 -18 7 -21 15 -4 9 -19 15 -39 15 -19 0 -37 5 -40 10 -3 6 -37 10 -76 10 -39 0 -69 -4 -69 -10z"></path><path d="M395 5740 c-3 -5 -28 -10 -55 -10 -33 0 -50 -5 -54 -15 -3 -8 -12 -15 -21 -15 -8 0 -15 -4 -15 -10 0 -5 -7 -10 -15 -10 -14 0 -51 -34 -100 -91 -19 -23 -20 -41 -23 -450 -2 -351 0 -429 11 -441 8 -7 17 -48 21 -93 4 -44 11 -81 17 -83 5 -2 9 -33 9 -69 0 -44 5 -69 15 -79 9 -9 15 -34 15 -59 0 -24 5 -47 10 -50 6 -3 10 -31 10 -61 0 -39 4 -56 15 -60 10 -4 15 -20 15 -49 0 -24 5 -47 10 -50 6 -3 10 -24 10 -46 0 -22 4 -38 9 -35 10 7 21 -27 21 -66 0 -16 5 -28 10 -28 6 0 10 -18 10 -39 0 -25 5 -41 15 -45 9 -3 15 -18 15 -36 0 -16 5 -30 10 -30 6 0 10 -18 10 -40 0 -29 4 -40 15 -40 10 0 15 -11 15 -35 0 -19 5 -35 10 -35 6 0 10 -12 10 -26 0 -14 7 -32 15 -40 8 -9 15 -26 15 -40 0 -13 5 -24 10 -24 6 0 10 -14 10 -31 0 -17 4 -28 10 -24 5 3 12 -12 16 -35 4 -22 10 -40 15 -40 5 0 9 -9 9 -20 0 -11 7 -23 15 -26 8 -4 15 -17 15 -30 0 -13 5 -24 10 -24 6 0 10 -14 10 -31 0 -16 4 -28 9 -25 10 7 21 -17 21 -45 0 -10 5 -19 10 -19 6 0 10 -11 10 -25 0 -16 6 -25 15 -25 9 0 15 -9 15 -24 0 -13 7 -26 15 -30 8 -3 12 -12 9 -19 -3 -8 2 -17 10 -20 9 -4 16 -13 16 -21 0 -8 5 -16 10 -18 6 -2 12 -13 13 -25 0 -13 7 -25 14 -27 7 -3 13 -15 13 -26 0 -11 4 -20 9 -20 5 0 12 -11 15 -25 4 -14 11 -25 16 -25 6 0 10 -6 10 -14 0 -8 7 -22 16 -30 8 -9 12 -20 9 -26 -3 -5 1 -10 9 -10 9 0 16 -9 16 -20 0 -11 6 -23 14 -26 8 -3 17 -16 20 -29 3 -13 14 -31 23 -41 10 -9 18 -24 20 -33 1 -8 7 -17 12 -19 6 -2 11 -10 11 -18 0 -8 4 -14 9 -14 5 0 13 -10 17 -22 4 -13 16 -31 28 -41 12 -10 21 -23 21 -27 0 -5 6 -15 13 -21 6 -7 12 -19 12 -26 0 -7 7 -13 15 -13 8 0 15 -7 15 -15 0 -8 5 -15 11 -15 5 0 7 -4 4 -10 -3 -5 3 -15 15 -22 11 -7 20 -18 20 -25 0 -7 5 -13 10 -13 6 0 10 -5 10 -10 0 -12 15 -32 42 -57 9 -9 15 -20 12 -25 -3 -4 1 -8 8 -8 13 -1 68 -73 68 -90 0 -6 5 -10 11 -10 14 0 39 -25 39 -39 0 -6 5 -11 10 -11 6 0 10 -5 10 -10 0 -12 34 -51 118 -137 34 -35 62 -66 62 -69 0 -10 28 -34 39 -34 6 0 11 -5 11 -11 0 -14 25 -39 39 -39 6 0 11 -5 11 -11 0 -14 25 -39 39 -39 6 0 11 -5 11 -11 0 -14 25 -39 39 -39 6 0 11 -7 11 -15 0 -8 5 -15 11 -15 14 0 39 -25 39 -39 0 -6 4 -11 10 -11 15 0 50 -33 44 -42 -3 -4 0 -8 7 -8 6 0 22 -11 35 -25 13 -14 26 -25 30 -25 4 0 17 -11 30 -25 13 -14 28 -25 34 -25 5 0 10 -4 10 -10 0 -5 7 -10 15 -10 8 0 15 -7 15 -15 0 -8 5 -15 11 -15 7 0 21 -10 33 -22 12 -13 35 -31 52 -40 16 -10 28 -22 27 -28 -2 -5 3 -10 10 -10 7 0 24 -11 39 -25 15 -14 32 -25 38 -25 5 0 10 -4 10 -10 0 -5 7 -10 15 -10 9 0 18 -7 21 -15 4 -8 12 -15 20 -15 8 0 14 -4 14 -10 0 -5 7 -10 15 -10 9 0 18 -7 21 -15 4 -8 12 -15 19 -15 7 0 16 -7 19 -16 3 -8 10 -12 16 -9 6 3 13 -1 16 -9 3 -9 11 -16 18 -16 6 0 23 -11 38 -25 15 -14 34 -25 41 -25 8 0 17 -7 21 -15 3 -8 12 -15 21 -15 8 0 15 -4 15 -10 0 -5 9 -10 20 -10 11 0 20 -7 20 -15 0 -8 9 -15 20 -15 11 0 20 -4 20 -9 0 -5 10 -11 23 -13 12 -2 21 -9 20 -16 -2 -7 8 -12 22 -12 14 0 25 -4 25 -9 0 -5 9 -11 21 -14 12 -3 18 -10 14 -16 -4 -7 4 -11 19 -11 14 0 26 -4 26 -10 0 -5 9 -10 20 -10 11 0 23 -7 26 -15 4 -8 17 -15 30 -15 13 0 24 -4 24 -10 0 -5 7 -10 15 -10 9 0 18 -7 21 -15 4 -8 17 -15 30 -15 13 0 24 -4 24 -10 0 -5 9 -10 20 -10 11 0 23 -7 26 -15 4 -8 17 -15 30 -15 13 0 24 -4 24 -9 0 -5 14 -11 31 -15 17 -3 28 -10 24 -16 -4 -6 6 -10 24 -10 17 0 31 -4 31 -9 0 -5 12 -11 28 -13 15 -2 26 -8 25 -15 -2 -8 8 -13 27 -13 17 0 30 -4 30 -10 0 -5 9 -10 19 -10 28 0 52 -11 45 -21 -3 -5 9 -9 25 -9 17 0 31 -4 31 -10 0 -5 9 -10 19 -10 28 0 52 -11 45 -21 -3 -5 8 -9 24 -9 16 0 43 -7 58 -15 16 -8 37 -15 47 -15 10 0 15 -4 12 -10 -4 -6 8 -10 29 -10 19 0 37 -4 40 -9 4 -5 24 -12 46 -16 22 -4 38 -11 34 -16 -3 -5 13 -9 35 -9 22 0 42 -4 45 -9 4 -5 24 -12 46 -16 22 -4 40 -11 40 -16 0 -5 17 -9 39 -9 21 0 52 -7 67 -15 16 -8 44 -15 62 -15 20 0 31 -4 27 -10 -4 -6 15 -10 49 -10 30 0 56 -5 58 -10 2 -6 29 -14 61 -17 31 -3 57 -10 57 -14 0 -5 28 -9 63 -9 35 0 68 -5 75 -12 6 -6 47 -13 91 -16 45 -2 79 -8 76 -12 -3 -4 12 -10 33 -14 48 -8 1350 -8 1379 0 13 4 20 10 17 15 -3 5 26 9 63 9 45 0 76 5 89 15 12 9 42 14 82 15 34 0 62 4 62 9 0 5 26 11 57 13 31 3 59 10 61 16 2 7 26 12 58 12 34 0 53 4 49 10 -4 6 9 10 32 10 22 0 48 7 59 15 10 8 38 15 62 15 24 0 41 4 38 9 -3 5 13 11 36 14 24 3 44 11 46 16 2 6 19 11 39 11 19 0 41 7 49 15 9 8 29 15 45 15 16 0 29 5 29 10 0 6 14 10 31 10 17 0 37 7 45 15 9 8 26 15 40 15 13 0 24 5 24 10 0 6 16 10 36 10 19 0 33 4 30 9 -7 10 17 21 45 21 10 0 19 5 19 10 0 6 16 10 35 10 23 0 34 4 33 13 -2 7 9 13 25 15 15 2 27 8 27 13 0 5 13 9 29 9 16 0 31 6 35 15 3 8 14 15 25 15 11 0 23 5 26 10 3 6 17 10 30 10 12 0 25 7 29 15 3 8 15 15 26 15 11 0 20 5 20 10 0 6 14 10 30 10 18 0 29 5 28 12 -2 7 7 14 20 16 12 2 22 8 22 13 0 5 11 9 24 9 13 0 26 7 30 15 3 8 15 15 26 15 11 0 20 5 20 10 0 6 11 10 25 10 14 0 24 5 23 12 -2 7 7 14 20 16 12 2 22 8 22 13 0 5 11 9 25 9 14 0 24 5 23 12 -2 7 7 14 20 16 12 2 22 8 22 13 0 5 12 9 26 9 15 0 23 4 19 11 -4 6 2 13 14 16 12 3 21 9 21 14 0 5 9 9 19 9 10 0 21 7 25 15 3 8 12 15 21 15 8 0 15 5 15 10 0 6 9 10 20 10 11 0 20 7 20 15 0 8 7 15 16 15 8 0 22 6 29 12 34 30 45 38 55 38 6 0 21 11 34 25 13 14 29 25 35 25 7 0 24 11 39 25 15 14 30 25 34 25 4 0 19 11 34 25 15 14 33 25 40 25 8 0 14 7 14 15 0 8 7 15 15 15 8 0 15 5 15 10 0 6 10 10 22 10 12 0 18 3 15 6 -7 8 36 44 52 44 6 0 10 5 9 10 -2 6 10 18 26 28 17 9 40 27 52 39 12 13 26 23 33 23 6 0 11 7 11 15 0 8 4 15 8 15 5 0 25 16 45 35 20 19 43 35 52 35 9 0 14 4 11 8 -5 8 28 42 40 42 3 0 15 11 28 25 13 14 29 25 35 25 7 0 10 4 7 8 -6 10 29 42 45 42 5 0 8 4 5 8 -6 10 29 42 45 42 5 0 8 4 5 8 -6 9 29 42 44 42 6 0 9 4 8 8 -2 5 25 36 58 69 34 33 70 75 80 92 10 17 24 31 31 31 7 0 12 5 11 11 -2 6 3 14 9 16 10 4 13 -37 13 -181 0 -117 4 -186 10 -186 6 0 10 -6 10 -14 0 -8 7 -16 15 -20 8 -3 15 -12 15 -20 0 -17 54 -76 70 -76 5 0 10 -6 10 -13 0 -11 23 -24 73 -41 10 -3 15 -10 12 -16 -4 -6 39 -10 124 -10 100 0 130 3 129 13 -2 7 9 13 25 15 15 2 27 8 27 13 0 5 7 9 15 9 8 0 15 7 15 15 0 8 5 15 11 15 14 0 39 25 39 39 0 6 7 11 15 11 9 0 15 10 15 26 0 19 4 25 15 20 12 -4 15 3 15 34 0 22 5 40 10 40 7 0 10 250 10 730 0 480 -3 730 -10 730 -5 0 -10 18 -10 40 0 29 -4 40 -15 40 -9 0 -15 9 -15 25 0 16 -6 25 -15 25 -8 0 -15 4 -15 9 0 12 -58 71 -71 71 -5 0 -7 5 -4 10 3 6 -3 10 -14 10 -12 0 -21 4 -21 9 0 5 -14 11 -31 15 -17 3 -28 10 -24 16 4 7 -61 10 -192 9 -120 0 -190 -4 -178 -9 11 -5 18 -9 15 -10 -7 -3 -392 -19 -655 -28 -121 -4 -211 -9 -200 -11 39 -7 -38 -19 -127 -20 -48 0 -90 -5 -93 -11 -3 -5 -20 -10 -36 -10 -17 0 -28 -4 -24 -9 3 -5 -4 -12 -15 -16 -11 -3 -20 -11 -20 -16 0 -5 -9 -9 -21 -9 -11 0 -18 -4 -15 -8 5 -9 -28 -42 -42 -42 -4 0 -14 -16 -21 -36 -7 -19 -19 -38 -27 -41 -8 -3 -14 -19 -14 -38 0 -19 -4 -37 -10 -40 -5 -3 -10 -33 -10 -66 0 -33 4 -59 10 -59 6 0 10 -16 10 -35 0 -24 8 -45 25 -63 14 -15 25 -31 25 -35 0 -12 57 -67 69 -67 6 0 11 -7 11 -15 0 -8 9 -15 20 -15 11 0 20 -4 20 -9 0 -5 12 -11 28 -13 15 -2 26 -8 24 -15 -1 -10 45 -13 209 -13 121 0 208 4 205 9 -10 16 24 21 151 21 95 0 124 -3 120 -12 -2 -7 -10 -12 -16 -10 -6 1 -11 -5 -11 -13 0 -8 -4 -15 -10 -15 -5 0 -10 -5 -10 -10 0 -6 -10 -21 -22 -34 -32 -33 -58 -65 -58 -72 0 -10 -28 -34 -40 -34 -6 0 -9 -4 -6 -9 3 -4 -7 -19 -22 -33 -33 -30 -82 -90 -82 -100 0 -5 -7 -8 -15 -8 -8 0 -15 -5 -15 -10 0 -15 -126 -140 -140 -140 -6 0 -9 -4 -6 -8 6 -9 -29 -42 -44 -42 -6 0 -10 -5 -10 -11 0 -14 -25 -39 -39 -39 -6 0 -11 -7 -11 -15 0 -8 -5 -15 -11 -15 -7 0 -22 -11 -35 -25 -13 -14 -26 -25 -30 -25 -3 0 -15 -11 -26 -25 -11 -14 -26 -25 -34 -25 -8 0 -13 -5 -12 -11 2 -6 -13 -19 -32 -30 -19 -10 -31 -19 -26 -19 5 0 -3 -9 -17 -20 -14 -11 -28 -20 -32 -20 -3 0 -16 -11 -29 -25 -13 -14 -26 -25 -30 -25 -4 0 -19 -11 -34 -25 -15 -14 -30 -25 -35 -25 -4 0 -18 -11 -31 -25 -13 -14 -28 -25 -34 -25 -6 0 -23 -11 -38 -25 -15 -14 -36 -25 -46 -25 -11 0 -16 -5 -13 -11 4 -6 -2 -13 -14 -16 -12 -3 -21 -9 -21 -14 0 -5 -7 -9 -14 -9 -8 0 -27 -11 -42 -25 -15 -14 -33 -25 -40 -25 -7 0 -25 -11 -40 -25 -15 -14 -35 -25 -45 -25 -11 0 -19 -7 -19 -15 0 -8 -9 -15 -20 -15 -11 0 -20 -4 -20 -10 0 -5 -15 -10 -32 -10 -24 0 -29 -3 -19 -9 12 -8 9 -11 -12 -16 -15 -4 -27 -11 -27 -16 0 -5 -11 -9 -25 -9 -14 0 -24 -5 -23 -12 2 -7 -7 -14 -19 -16 -13 -2 -23 -8 -23 -13 0 -5 -14 -9 -30 -9 -18 0 -29 -5 -28 -12 2 -7 -7 -14 -19 -16 -13 -2 -23 -8 -23 -13 0 -5 -14 -9 -30 -9 -18 0 -29 -5 -28 -12 2 -7 -7 -14 -19 -16 -13 -2 -23 -8 -23 -13 0 -5 -13 -9 -30 -9 -16 0 -30 -4 -30 -10 0 -5 -11 -12 -25 -16 -14 -3 -25 -10 -25 -15 0 -5 -16 -9 -35 -9 -23 0 -34 -4 -33 -12 2 -8 -9 -14 -24 -16 -16 -2 -28 -8 -28 -13 0 -5 -13 -9 -29 -9 -16 0 -34 -7 -41 -15 -7 -8 -23 -15 -36 -15 -13 0 -24 -4 -24 -10 0 -5 -11 -10 -24 -10 -13 0 -37 -7 -52 -15 -16 -8 -39 -15 -51 -15 -13 0 -23 -4 -23 -10 0 -5 -15 -10 -34 -10 -21 0 -36 -6 -40 -15 -3 -8 -9 -15 -13 -14 -4 1 -26 1 -48 0 -30 -1 -36 -4 -25 -11 11 -7 6 -10 -21 -10 -19 0 -44 -7 -55 -15 -10 -8 -41 -15 -67 -15 -27 0 -46 -4 -43 -9 3 -5 -18 -11 -46 -13 -29 -3 -54 -11 -56 -17 -2 -6 -28 -11 -63 -11 -33 0 -59 -4 -59 -10 0 -5 -20 -10 -45 -10 -25 0 -62 -7 -82 -15 -21 -9 -67 -15 -115 -15 -43 0 -77 -4 -74 -9 3 -4 -51 -10 -120 -13 -75 -3 -130 -10 -136 -16 -16 -16 -560 -17 -588 -2 -11 6 -76 13 -144 17 -69 3 -123 10 -120 15 3 4 -30 8 -73 8 -43 0 -96 7 -118 15 -22 8 -59 14 -82 15 -24 0 -43 5 -43 10 0 6 -24 10 -54 10 -29 0 -67 7 -82 15 -16 8 -44 15 -62 15 -20 0 -31 4 -27 10 4 6 -9 10 -33 10 -22 0 -56 7 -75 15 -20 8 -48 15 -62 15 -15 0 -24 4 -20 10 4 6 -7 10 -27 10 -18 1 -44 7 -58 15 -14 8 -38 14 -53 15 -16 0 -26 4 -22 10 4 6 -6 10 -22 10 -16 0 -38 7 -49 15 -10 8 -32 15 -47 15 -16 0 -26 4 -22 10 4 6 -8 10 -30 10 -22 0 -38 6 -41 15 -4 9 -19 15 -35 15 -16 0 -29 4 -29 9 0 5 -12 11 -27 13 -16 2 -27 8 -26 16 2 8 -9 12 -33 12 -19 0 -33 4 -30 9 3 5 -11 12 -31 16 -27 5 -33 9 -22 16 10 6 3 9 -23 9 -21 0 -38 5 -38 10 0 6 -9 10 -20 10 -11 0 -23 7 -26 15 -4 8 -17 15 -30 15 -13 0 -24 5 -24 10 0 6 -9 10 -20 10 -11 0 -23 7 -26 15 -4 8 -17 15 -30 15 -13 0 -24 4 -24 9 0 5 -11 12 -25 15 -14 4 -23 11 -20 16 3 6 -5 10 -19 10 -14 0 -26 5 -26 10 0 6 -7 10 -15 10 -9 0 -18 7 -21 15 -4 8 -17 15 -30 15 -13 0 -24 5 -24 10 0 6 -7 10 -15 10 -9 0 -18 7 -21 15 -4 8 -15 15 -25 15 -10 0 -19 5 -19 10 0 6 -7 10 -15 10 -9 0 -18 7 -21 15 -4 8 -15 15 -25 15 -10 0 -19 5 -19 10 0 6 -7 10 -15 10 -9 0 -18 7 -21 15 -4 8 -15 15 -25 15 -10 0 -19 4 -19 9 0 5 -9 13 -20 16 -11 4 -18 11 -15 16 4 5 -1 9 -10 9 -9 0 -23 6 -30 13 -33 29 -45 37 -55 37 -5 0 -10 4 -10 9 0 5 -9 13 -20 16 -11 4 -18 11 -15 16 4 5 -1 9 -11 9 -9 0 -27 11 -40 25 -13 14 -27 25 -31 25 -5 0 -20 11 -35 25 -15 14 -30 25 -32 25 -12 0 -45 34 -40 42 3 4 -1 8 -8 8 -8 0 -33 18 -57 40 -23 22 -45 40 -47 40 -2 0 -31 27 -64 60 -33 33 -64 60 -70 60 -5 0 -10 7 -10 15 0 8 -5 15 -11 15 -14 0 -39 25 -39 39 0 6 -4 11 -10 11 -15 0 -50 33 -44 42 3 4 0 8 -6 8 -14 0 -40 25 -40 38 0 5 -11 15 -25 22 -14 7 -25 17 -25 22 0 5 -20 28 -45 52 -25 25 -45 47 -45 51 0 3 -12 17 -26 30 -15 14 -23 25 -19 25 4 0 -3 9 -16 21 -13 12 -23 25 -22 30 2 5 -4 9 -12 9 -8 0 -15 3 -15 8 0 4 -13 23 -30 42 -16 19 -28 36 -26 38 2 2 -11 18 -30 36 -19 18 -34 38 -34 44 0 6 -11 22 -25 36 -14 14 -25 30 -25 36 0 5 -4 10 -10 10 -5 0 -12 11 -16 25 -3 14 -10 25 -15 25 -5 0 -9 5 -9 10 0 6 -11 23 -25 38 -14 15 -25 32 -25 39 0 7 -4 13 -10 13 -5 0 -12 11 -16 25 -3 14 -10 25 -15 25 -5 0 -9 7 -9 15 0 8 -4 15 -10 15 -5 0 -12 11 -16 25 -3 14 -10 25 -15 25 -5 0 -9 7 -9 15 0 8 -3 15 -7 15 -10 0 -43 58 -43 75 0 7 -7 15 -15 19 -8 3 -15 15 -15 26 0 11 -4 20 -10 20 -5 0 -10 7 -10 15 0 8 -4 15 -8 15 -11 0 -42 71 -42 95 0 10 -3 15 -7 11 -7 -6 -43 58 -43 76 0 5 -7 16 -15 24 -8 9 -15 24 -15 35 0 10 -4 19 -10 19 -5 0 -10 8 -10 19 0 10 -7 24 -15 31 -8 7 -15 23 -15 36 0 13 -4 24 -10 24 -5 0 -10 14 -10 30 0 17 -4 30 -9 30 -5 0 -12 10 -16 23 -8 27 -23 63 -41 99 -8 14 -14 38 -14 52 0 14 -4 26 -10 26 -5 0 -10 8 -10 18 0 10 -7 27 -15 38 -8 10 -15 31 -15 46 0 15 -4 30 -10 33 -5 3 -10 16 -10 28 0 12 -7 35 -15 51 -8 15 -15 41 -15 57 0 16 -3 29 -8 29 -10 0 -34 95 -40 160 -3 41 -7 50 -13 35 -6 -17 -8 -15 -8 10 -1 17 -8 55 -16 85 -8 30 -15 75 -15 100 0 33 -3 41 -10 30 -7 -11 -10 -5 -10 25 0 22 -7 67 -15 100 -8 33 -15 103 -16 155 -1 63 -4 83 -8 60 -8 -40 -14 45 -31 405 -6 120 -14 222 -19 225 -4 3 -11 16 -14 30 -3 14 -15 35 -27 47 -11 12 -20 27 -20 33 0 5 -5 10 -11 10 -14 0 -39 25 -39 39 0 6 -9 11 -20 11 -11 0 -20 4 -20 9 0 5 -10 11 -22 13 -13 2 -22 9 -20 16 1 8 -14 12 -47 12 -28 0 -53 5 -56 10 -3 6 -15 10 -25 10 -10 0 -22 -4 -25 -10z"></path></g></svg>