<svg xmlns="http://www.w3.org/2000/svg" width="1080.000000pt" height="1080.000000pt" viewBox="0 0 1080.000000 1080.000000" preserveAspectRatio="xMidYMid meet"><metadata>
Created by potrace 1.16, written by Peter Selinger 2001-2019
</metadata><g transform="translate(0.000000,1080.000000) scale(0.100000,-0.100000)" fill="#000000" stroke="none"><path d="M3992 10703 c-18 -2 -30 -8 -27 -13 3 -5 -11 -12 -32 -15 -21 -3 -46 -10 -55 -16 -10 -5 -27 -9 -38 -9 -11 0 -20 -4 -20 -10 0 -5 -14 -10 -31 -10 -18 0 -28 -4 -24 -10 3 -6 -2 -13 -12 -16 -44 -15 -73 -29 -73 -36 0 -5 -7 -8 -14 -8 -8 0 -27 -11 -42 -25 -15 -14 -33 -25 -40 -25 -8 0 -14 -4 -14 -10 0 -5 -4 -10 -10 -10 -15 0 -158 -146 -162 -167 -2 -10 -9 -17 -16 -16 -6 2 -9 -4 -6 -12 4 -9 0 -15 -10 -15 -9 0 -16 -8 -16 -19 0 -11 -4 -23 -10 -26 -5 -3 -10 -14 -10 -25 0 -10 -7 -21 -16 -24 -9 -4 -14 -13 -10 -21 7 -19 -3 -47 -15 -39 -5 3 -9 -9 -9 -25 0 -17 -4 -31 -9 -31 -5 0 -12 -35 -16 -77 -4 -43 -9 -1518 -11 -3278 -3 -2785 -6 -3200 -18 -3207 -8 -5 -22 -15 -30 -23 -8 -8 -17 -15 -21 -15 -3 0 -16 -11 -29 -25 -13 -14 -26 -25 -30 -25 -11 0 -36 -27 -36 -39 0 -6 -3 -11 -7 -11 -10 0 -63 -45 -63 -54 0 -12 -48 -56 -61 -56 -7 0 -9 -3 -6 -6 4 -4 -3 -15 -15 -25 -11 -11 -17 -19 -12 -19 5 0 -3 -11 -18 -24 -16 -13 -28 -31 -28 -40 0 -20 -23 -46 -40 -46 -6 0 -8 -5 -5 -10 3 -6 -1 -13 -9 -16 -9 -3 -16 -15 -16 -25 0 -10 -4 -19 -9 -19 -5 0 -12 -11 -15 -25 -4 -14 -11 -23 -16 -20 -6 3 -10 -1 -10 -9 0 -9 -4 -16 -10 -16 -5 0 -10 -9 -10 -21 0 -11 -6 -27 -12 -34 -32 -36 -38 -46 -38 -65 0 -11 -4 -20 -10 -20 -5 0 -10 -11 -10 -25 0 -14 -4 -25 -10 -25 -5 0 -10 -9 -10 -19 0 -11 -7 -26 -15 -35 -8 -8 -15 -24 -15 -35 0 -12 -4 -21 -10 -21 -5 0 -10 -16 -10 -35 0 -19 -4 -35 -9 -35 -5 0 -11 -17 -14 -38 -8 -60 -25 -116 -36 -120 -6 -2 -11 -31 -11 -67 0 -47 -4 -64 -15 -69 -13 -5 -15 -47 -15 -301 0 -254 2 -296 15 -301 11 -4 15 -21 15 -56 0 -31 6 -55 15 -64 8 -9 15 -31 15 -49 0 -19 4 -36 9 -39 5 -3 11 -23 14 -43 11 -74 19 -103 28 -97 5 3 9 -13 9 -36 0 -23 4 -39 9 -36 5 3 16 -16 25 -42 10 -26 21 -55 27 -64 5 -10 9 -25 9 -33 0 -8 7 -15 15 -15 9 0 15 -9 15 -23 0 -12 9 -29 20 -37 11 -8 20 -25 20 -37 0 -13 6 -23 13 -23 7 0 19 -16 27 -35 8 -19 17 -35 22 -35 4 0 8 -7 8 -15 0 -9 7 -18 15 -21 8 -4 15 -11 15 -18 0 -6 9 -18 20 -26 11 -8 20 -19 20 -25 0 -6 20 -33 45 -58 25 -26 45 -50 45 -53 0 -3 16 -20 35 -38 19 -18 32 -36 28 -40 -3 -3 -1 -6 5 -6 20 0 104 -75 95 -84 -4 -3 1 -6 10 -6 9 0 17 -3 17 -7 0 -5 13 -17 29 -28 16 -10 27 -23 25 -27 -3 -4 4 -8 15 -8 12 0 21 -4 21 -10 0 -5 4 -10 10 -10 15 0 50 -33 44 -42 -3 -4 4 -8 15 -8 12 0 21 -4 21 -10 0 -5 9 -10 20 -10 11 0 20 -4 20 -10 0 -5 7 -10 15 -10 9 0 18 -7 21 -15 4 -8 15 -15 26 -15 10 0 16 -4 13 -10 -4 -6 5 -10 19 -10 14 0 26 -4 26 -10 0 -5 6 -10 14 -10 18 0 76 -32 76 -42 0 -5 11 -8 25 -8 14 0 25 -4 25 -10 0 -5 11 -10 24 -10 14 0 27 -4 30 -9 3 -4 19 -11 36 -15 18 -3 29 -10 25 -16 -4 -6 8 -10 30 -10 22 0 34 -4 30 -10 -4 -6 10 -10 34 -10 22 0 43 -4 46 -10 3 -5 21 -10 38 -10 30 0 74 -18 52 -21 -5 -1 10 -5 35 -10 60 -10 714 -10 765 0 22 5 36 10 30 11 -19 3 30 19 63 19 17 1 32 6 32 11 0 6 18 10 40 10 22 0 40 5 40 10 0 6 13 10 29 10 16 0 31 6 35 15 3 8 17 15 31 15 14 0 25 5 25 10 0 6 11 10 25 10 14 0 25 5 25 10 0 6 11 10 25 10 14 0 25 4 25 8 0 9 70 42 88 42 7 0 12 5 12 10 0 6 9 10 20 10 11 0 20 5 20 10 0 6 9 10 20 10 11 0 20 7 20 15 0 8 7 15 15 15 8 0 15 5 15 10 0 6 9 10 20 10 11 0 20 5 20 10 0 6 9 10 21 10 11 0 18 4 14 9 -3 5 8 18 25 27 16 10 30 22 30 26 0 4 7 8 15 8 9 0 31 16 49 35 19 19 37 35 41 35 3 0 21 16 39 35 19 19 37 35 42 35 5 0 19 13 31 28 12 16 36 43 53 60 16 18 30 34 30 37 0 3 14 20 31 37 17 18 38 45 47 60 9 16 20 28 24 28 4 0 8 5 8 11 0 6 11 20 25 31 14 11 25 28 25 39 0 10 5 19 10 19 6 0 10 9 10 20 0 11 7 20 16 20 8 0 13 4 9 9 -3 5 2 16 10 24 8 9 15 20 15 26 0 6 5 11 10 11 6 0 10 9 10 20 0 11 7 23 15 26 8 4 15 15 15 25 0 10 5 19 10 19 6 0 10 11 10 25 0 14 5 25 10 25 6 0 10 9 10 19 0 28 11 52 21 45 5 -3 9 9 9 25 0 17 5 31 10 31 6 0 10 14 10 30 0 17 5 30 10 30 6 0 10 16 10 35 0 19 5 35 10 35 6 0 10 12 10 28 0 44 11 76 21 60 5 -8 9 8 9 43 0 30 4 59 9 65 17 19 33 343 22 453 -6 57 -11 127 -11 156 0 30 -4 57 -10 60 -5 3 -10 36 -10 72 0 37 -3 63 -7 59 -8 -8 -42 88 -43 121 0 12 -4 25 -10 28 -5 3 -10 20 -10 36 0 18 -4 28 -10 24 -9 -6 -14 14 -11 43 1 7 -5 15 -14 18 -8 3 -15 15 -15 25 0 10 -4 19 -10 19 -5 0 -10 11 -10 25 0 14 -4 25 -10 25 -5 0 -10 9 -10 21 0 11 -6 27 -12 34 -32 36 -38 46 -38 65 0 11 -4 20 -10 20 -5 0 -10 9 -10 20 0 11 -4 20 -10 20 -5 0 -17 15 -26 33 -10 17 -24 37 -33 44 -9 7 -12 13 -8 13 4 0 -4 12 -18 27 -14 15 -25 31 -25 35 0 5 -13 22 -30 39 -16 17 -32 40 -35 50 -4 11 -11 19 -16 19 -10 0 -59 45 -59 54 0 6 -99 106 -105 106 -12 0 -43 34 -39 42 3 4 -4 8 -16 8 -12 0 -18 5 -15 10 3 5 -1 10 -9 10 -9 0 -16 5 -16 10 0 6 -7 10 -15 10 -13 0 -15 367 -19 3202 -2 1762 -7 3238 -11 3281 -4 42 -11 77 -16 77 -5 0 -9 18 -9 41 0 24 -4 38 -10 34 -5 -3 -11 2 -11 12 -3 37 -29 103 -41 103 -4 0 -8 9 -8 20 0 11 -4 20 -10 20 -5 0 -10 5 -10 11 0 6 -6 17 -12 24 -30 33 -38 45 -38 55 0 5 -5 10 -10 10 -12 0 -60 45 -60 55 0 10 -28 35 -39 35 -6 0 -11 5 -11 10 0 6 -7 10 -15 10 -8 0 -15 5 -15 10 0 6 -7 10 -15 10 -9 0 -18 7 -21 15 -4 8 -12 15 -20 15 -8 0 -14 5 -14 10 0 6 -9 10 -20 10 -11 0 -20 4 -20 9 0 5 -10 11 -22 13 -13 2 -22 9 -21 16 2 7 -9 12 -27 12 -17 0 -30 5 -30 10 0 6 -9 10 -20 10 -11 0 -28 4 -38 9 -9 6 -35 13 -56 16 -25 4 -35 9 -27 14 7 5 -6 11 -35 15 -49 6 -816 6 -872 -1z m693 -203 c3 -5 33 -10 65 -10 32 0 62 -4 65 -10 3 -5 19 -10 35 -10 36 0 61 -10 54 -21 -3 -5 9 -9 25 -9 17 0 31 -4 31 -10 0 -5 14 -10 30 -10 17 0 30 -4 30 -10 0 -5 9 -10 20 -10 11 0 20 -7 20 -15 0 -8 9 -15 20 -15 11 0 20 -4 20 -10 0 -5 6 -10 14 -10 8 0 31 -16 50 -35 20 -19 41 -35 46 -35 6 0 10 -6 10 -14 0 -7 7 -19 15 -26 9 -7 13 -15 11 -17 -3 -3 6 -16 20 -30 13 -13 24 -30 24 -38 0 -8 5 -15 10 -15 6 0 10 -11 10 -24 0 -14 5 -28 10 -31 6 -3 10 -26 10 -50 0 -24 5 -47 10 -50 7 -4 10 -1113 10 -3296 0 -2947 2 -3289 15 -3289 9 0 18 -7 21 -15 4 -8 12 -15 20 -15 8 0 14 -4 14 -10 0 -5 4 -10 10 -10 9 0 42 -25 76 -57 7 -7 16 -13 20 -13 8 0 174 -166 174 -175 0 -7 15 -26 58 -70 17 -19 32 -40 32 -47 0 -7 12 -24 25 -37 14 -13 25 -31 25 -40 0 -9 9 -23 20 -31 11 -8 20 -23 20 -33 0 -9 7 -20 15 -23 8 -4 15 -15 15 -25 0 -10 5 -19 10 -19 6 0 10 -11 10 -25 0 -14 5 -25 10 -25 6 0 10 -9 10 -21 0 -11 7 -27 15 -35 8 -9 15 -24 15 -34 0 -10 5 -22 10 -25 6 -3 10 -15 10 -26 0 -10 5 -19 10 -19 6 0 10 -15 10 -34 0 -19 5 -36 12 -38 6 -2 11 -21 10 -41 -1 -25 4 -40 13 -43 10 -4 15 -21 15 -49 0 -24 5 -47 10 -50 6 -3 10 -42 10 -86 0 -51 4 -78 10 -74 7 4 10 -52 10 -159 0 -95 -4 -166 -9 -166 -5 0 -12 -33 -14 -73 -6 -86 -19 -154 -36 -185 -7 -12 -9 -31 -6 -41 3 -11 -1 -26 -10 -34 -8 -9 -15 -25 -15 -36 0 -12 -4 -21 -10 -21 -5 0 -10 -16 -10 -35 0 -19 -4 -35 -9 -35 -5 0 -11 -12 -13 -27 -2 -16 -8 -27 -15 -25 -8 1 -13 -9 -13 -28 0 -16 -4 -30 -10 -30 -5 0 -10 -11 -10 -25 0 -14 -4 -25 -10 -25 -5 0 -12 -11 -16 -25 -3 -14 -10 -22 -15 -19 -5 3 -6 -2 -3 -10 4 -11 0 -16 -10 -16 -10 0 -16 -9 -16 -25 0 -14 -4 -25 -10 -25 -5 0 -10 -9 -10 -20 0 -12 -7 -20 -17 -20 -9 0 -14 -3 -10 -6 3 -3 -5 -18 -18 -32 -13 -15 -24 -31 -24 -35 0 -4 -6 -14 -13 -21 -7 -7 -22 -25 -33 -39 -11 -15 -26 -27 -33 -27 -7 0 -11 -4 -8 -8 6 -10 -107 -132 -122 -132 -7 0 -12 -4 -12 -10 0 -5 -7 -10 -16 -10 -8 0 -13 -4 -10 -8 6 -9 -29 -42 -44 -42 -6 0 -10 -4 -10 -10 0 -5 -5 -10 -10 -10 -6 0 -21 -11 -34 -25 -13 -14 -28 -25 -35 -25 -6 0 -11 -4 -11 -10 0 -5 -7 -10 -14 -10 -8 0 -27 -11 -42 -25 -15 -14 -33 -25 -40 -25 -8 0 -14 -4 -14 -10 0 -5 -9 -10 -20 -10 -11 0 -20 -4 -20 -10 0 -5 -12 -10 -27 -10 -14 0 -23 -3 -19 -7 8 -9 -61 -43 -86 -43 -11 0 -16 -4 -13 -10 4 -6 -8 -10 -30 -10 -22 0 -34 -4 -30 -10 4 -6 -7 -13 -25 -16 -17 -4 -33 -11 -36 -15 -3 -5 -21 -9 -40 -9 -19 0 -34 -4 -34 -10 0 -5 -16 -10 -36 -10 -19 0 -42 -7 -50 -15 -9 -9 -34 -15 -59 -15 -24 0 -47 -5 -50 -10 -4 -6 -53 -10 -115 -10 -62 0 -111 -4 -115 -10 -8 -13 -98 -13 -110 -1 -6 6 -57 12 -115 14 -147 7 -235 21 -225 37 4 6 -12 10 -39 10 -25 0 -46 5 -46 10 0 6 -16 10 -35 10 -19 0 -35 5 -35 10 0 6 -11 10 -25 10 -14 0 -28 7 -31 15 -4 9 -19 15 -35 15 -16 0 -29 5 -29 10 0 6 -11 10 -25 10 -14 0 -25 4 -25 9 0 5 -10 11 -22 13 -13 2 -22 9 -20 16 1 7 -10 12 -29 12 -17 0 -28 4 -24 10 4 6 -5 10 -19 10 -14 0 -26 5 -26 10 0 6 -6 10 -14 10 -7 0 -25 11 -40 25 -15 14 -34 25 -42 25 -7 0 -14 5 -14 10 0 6 -4 10 -10 10 -15 0 -50 33 -44 42 3 4 -4 8 -15 8 -12 0 -21 4 -21 8 0 5 -11 15 -25 22 -14 7 -25 19 -25 27 0 7 -7 13 -16 13 -8 0 -12 5 -9 10 3 6 0 10 -9 10 -8 0 -16 3 -18 8 -1 4 -16 17 -32 30 -16 12 -25 22 -21 22 4 0 -7 13 -24 29 -17 16 -31 32 -31 36 0 4 -16 21 -35 38 -19 16 -32 33 -29 38 3 5 0 9 -7 9 -7 0 -10 3 -6 6 3 4 -8 20 -26 38 -18 17 -33 38 -35 46 -2 8 -8 17 -13 18 -5 2 -9 10 -9 18 0 8 -4 14 -10 14 -5 0 -10 9 -10 20 0 11 -4 20 -9 20 -5 0 -12 11 -15 25 -4 14 -11 25 -16 25 -6 0 -10 9 -10 20 0 11 -4 20 -10 20 -5 0 -10 11 -10 25 0 14 -4 25 -10 25 -5 0 -10 9 -10 20 0 11 -7 20 -15 20 -9 0 -15 9 -15 25 0 14 -4 25 -10 25 -5 0 -10 16 -10 35 0 19 -4 35 -10 35 -5 0 -10 13 -10 28 0 16 -3 32 -7 36 -11 10 -34 101 -40 156 -3 25 -9 49 -14 54 -5 6 -9 64 -9 130 0 82 -3 116 -10 106 -7 -11 -10 2 -10 43 0 31 4 57 10 57 6 0 10 43 10 110 0 61 4 110 9 110 5 0 11 28 14 63 7 72 30 161 40 151 4 -4 7 14 7 39 0 26 5 47 10 47 6 0 10 9 10 20 0 11 5 20 10 20 6 0 10 11 10 24 0 14 7 31 15 40 8 8 15 24 15 35 0 12 5 21 10 21 6 0 10 7 10 15 0 14 25 61 40 75 3 3 6 12 8 20 2 8 8 17 13 18 5 2 9 10 9 17 0 7 5 15 11 17 5 2 11 10 13 18 6 31 19 50 32 50 8 0 14 9 14 20 0 11 5 20 10 20 6 0 10 5 10 10 0 6 10 22 23 35 33 36 47 53 47 60 0 10 28 35 39 35 6 0 10 4 9 8 -4 10 48 62 62 62 5 0 9 4 8 8 -3 8 47 62 57 62 4 0 12 6 19 12 34 33 67 58 76 58 6 0 10 5 10 10 0 6 9 10 21 10 12 0 17 4 14 11 -4 6 2 13 14 16 l21 5 0 3289 c0 2186 3 3289 10 3289 6 0 10 15 10 34 0 19 5 38 10 41 6 3 10 19 10 36 0 16 5 29 10 29 6 0 10 8 10 19 0 10 15 31 34 47 18 16 34 33 34 37 1 16 37 57 50 57 7 0 10 5 7 10 -3 6 3 10 14 10 12 0 20 5 19 10 -2 6 11 18 27 28 17 9 32 20 33 25 2 4 15 7 28 7 14 0 22 4 19 10 -3 5 6 12 20 16 14 3 25 10 25 15 0 5 11 9 25 9 14 0 25 5 25 10 0 6 15 10 34 10 20 0 36 6 39 14 6 15 47 24 142 32 33 3 64 10 70 15 13 13 502 12 510 -1z"></path><path d="M3830 9810 c0 -5 -7 -10 -15 -10 -8 0 -17 -11 -21 -25 -3 -14 -10 -25 -15 -25 -5 0 -9 -16 -9 -35 0 -19 5 -35 10 -35 6 0 10 -9 10 -19 0 -11 9 -23 20 -26 11 -4 18 -11 15 -16 -4 -5 222 -9 579 -9 565 0 587 1 605 19 55 55 53 117 -6 179 -15 16 -1173 18 -1173 2z"></path><path d="M4372 9467 c-76 -70 -83 -87 -62 -142 26 -68 58 -75 367 -75 209 0 268 3 296 15 54 22 77 52 77 98 0 39 -5 46 -74 105 -21 17 -585 17 -604 -1z"></path><path d="M3870 9120 c0 -5 -9 -10 -20 -10 -23 0 -60 -33 -60 -55 0 -8 -4 -15 -10 -15 -5 0 -10 -9 -10 -20 0 -24 21 -70 32 -70 4 0 8 -7 8 -15 0 -8 7 -15 15 -15 8 0 15 -4 15 -10 0 -7 197 -10 570 -10 373 0 570 3 570 10 0 6 5 10 11 10 14 0 39 25 39 39 0 6 5 11 10 11 6 0 10 19 10 43 0 33 -5 46 -25 61 -13 10 -22 22 -19 27 3 5 -9 9 -25 9 -17 0 -31 5 -31 10 0 7 -187 10 -540 10 -353 0 -540 -3 -540 -10z"></path><path d="M4385 8763 c-32 -5 -72 -45 -82 -81 -8 -33 14 -102 33 -102 8 0 17 -7 20 -15 5 -13 50 -15 319 -15 269 0 314 2 319 15 3 8 12 15 19 15 16 0 37 41 37 72 0 33 -23 88 -36 88 -7 0 -14 6 -16 13 -4 9 -72 12 -294 13 -159 1 -302 0 -319 -3z"></path><path d="M3833 8412 c1 -4 -10 -20 -25 -34 -29 -30 -48 -90 -29 -96 6 -2 11 -15 11 -28 0 -14 6 -24 14 -24 8 0 16 -6 18 -12 4 -10 130 -13 588 -13 458 0 584 3 587 13 3 6 11 12 19 12 8 0 14 7 14 15 0 8 5 15 10 15 6 0 10 18 10 41 0 33 -6 47 -34 74 -19 18 -32 36 -29 39 4 3 -255 6 -575 6 -320 0 -581 -4 -579 -8z"></path><path d="M4390 8060 c0 -5 -11 -10 -25 -10 -14 0 -25 -6 -25 -13 0 -7 -9 -19 -20 -27 -14 -10 -20 -26 -20 -55 0 -29 6 -45 20 -55 11 -8 20 -20 20 -27 0 -7 9 -13 21 -13 11 0 17 -4 14 -10 -4 -7 98 -10 299 -10 197 0 306 4 306 10 0 6 7 10 15 10 8 0 15 6 15 13 0 7 9 19 20 27 14 10 20 26 20 55 0 29 -6 45 -20 55 -11 8 -20 20 -20 27 0 7 -11 13 -25 13 -14 0 -25 5 -25 10 0 6 -102 10 -285 10 -183 0 -285 -4 -285 -10z"></path><path d="M4400 7720 l515 -5 -544 -5 c-423 -4 -545 -8 -549 -17 -2 -7 -10 -13 -18 -13 -8 0 -14 -10 -14 -25 0 -14 -4 -25 -10 -25 -15 0 -12 -33 5 -67 33 -66 6 -63 635 -63 313 0 570 3 570 8 0 4 10 12 22 17 31 14 44 65 29 115 -7 23 -18 40 -26 40 -8 0 -15 5 -15 10 0 6 -9 10 -19 10 -28 0 -52 11 -45 21 3 5 -214 8 -523 7 l-528 -3 515 -5z"></path><path d="M4365 7350 c3 -5 -1 -10 -9 -10 -9 0 -16 -6 -16 -13 0 -7 -9 -19 -20 -27 -11 -8 -20 -25 -20 -39 0 -37 22 -91 37 -91 7 0 13 -4 13 -10 0 -6 115 -10 325 -10 210 0 325 4 325 10 0 6 6 10 13 10 16 0 37 47 37 83 0 16 -6 34 -12 41 -7 7 -22 25 -33 39 l-20 27 -313 0 c-206 0 -311 -3 -307 -10z"></path><path d="M3850 7000 c0 -5 -7 -10 -16 -10 -19 0 -36 -17 -52 -53 -15 -34 -16 -67 -2 -67 6 0 10 -7 10 -15 0 -17 35 -55 50 -55 6 0 10 -4 10 -10 0 -7 193 -10 560 -10 367 0 560 3 560 10 0 6 9 10 20 10 11 0 20 6 20 13 0 7 9 19 20 27 15 11 20 26 20 57 0 24 -4 43 -10 43 -5 0 -10 5 -10 11 0 16 -26 39 -44 39 -9 0 -16 5 -16 10 0 7 -193 10 -560 10 -367 0 -560 -3 -560 -10z"></path><path d="M4405 6660 c4 -6 -7 -13 -24 -16 -17 -4 -31 -10 -31 -15 0 -5 -6 -9 -14 -9 -14 0 -36 -49 -36 -81 0 -28 34 -79 53 -79 9 0 17 -4 17 -10 0 -6 107 -10 300 -10 303 0 319 2 358 37 32 30 21 143 -14 143 -8 0 -14 4 -14 9 0 5 -14 11 -31 15 -17 3 -28 10 -24 16 4 7 -86 10 -270 10 -184 0 -274 -3 -270 -10z"></path><path d="M3815 6276 c-11 -12 -26 -32 -32 -44 -15 -26 -17 -72 -3 -72 6 0 10 -11 10 -25 0 -19 5 -25 21 -25 11 0 17 -4 14 -10 -4 -7 193 -10 584 -10 387 0 591 3 591 10 0 6 6 10 13 10 15 0 37 55 37 93 0 15 -4 27 -10 27 -5 0 -10 6 -10 14 0 8 -9 21 -20 29 -11 8 -17 17 -13 20 3 4 -257 7 -578 6 l-584 0 -20 -23z"></path><path d="M4009 5901 c11 -7 5 -11 -22 -16 -21 -4 -40 -11 -43 -16 -3 -5 -14 -9 -25 -9 -10 0 -19 -4 -19 -10 0 -5 -9 -10 -21 -10 -12 0 -17 -4 -14 -11 4 -6 -2 -13 -14 -16 -12 -3 -21 -9 -21 -14 0 -5 -7 -9 -16 -9 -46 0 -44 52 -44 -1304 0 -1128 -2 -1276 -15 -1276 -8 0 -15 -4 -15 -10 0 -5 -9 -10 -20 -10 -11 0 -20 -4 -20 -10 0 -5 -9 -10 -21 -10 -11 0 -18 -4 -15 -8 3 -4 -11 -16 -30 -27 -19 -10 -34 -22 -34 -27 0 -4 -9 -8 -21 -8 -11 0 -18 -4 -15 -8 6 -9 -29 -42 -44 -42 -6 0 -10 -4 -10 -10 0 -5 -6 -10 -13 -10 -7 0 -21 -12 -32 -26 -35 -46 -52 -64 -64 -64 -6 0 -10 -4 -9 -8 2 -5 -12 -23 -29 -39 -18 -17 -33 -34 -33 -38 0 -3 -6 -13 -12 -20 -27 -30 -38 -44 -38 -50 0 -3 -9 -15 -20 -27 -11 -12 -20 -27 -20 -34 0 -6 -7 -14 -15 -18 -8 -3 -15 -15 -15 -26 0 -11 -4 -20 -10 -20 -5 0 -10 -9 -10 -21 0 -11 -6 -27 -12 -34 -32 -36 -38 -46 -38 -65 0 -11 -4 -20 -10 -20 -5 0 -10 -16 -10 -35 0 -19 -4 -35 -10 -35 -5 0 -10 -8 -10 -19 0 -10 -7 -24 -15 -31 -9 -8 -15 -30 -15 -57 0 -27 -4 -42 -10 -38 -6 4 -10 -15 -10 -49 0 -30 -4 -58 -10 -61 -6 -4 -10 -80 -10 -196 0 -119 4 -189 10 -189 6 0 10 -29 10 -66 0 -41 4 -63 10 -59 6 4 10 -9 10 -32 0 -21 7 -47 15 -57 8 -11 15 -30 15 -43 0 -13 5 -23 10 -23 6 0 10 -14 10 -30 0 -17 6 -33 14 -36 8 -3 12 -13 9 -25 -4 -13 0 -19 11 -19 10 0 16 -9 16 -25 0 -14 5 -25 10 -25 6 0 10 -8 10 -17 0 -16 11 -33 60 -90 5 -7 10 -20 10 -30 0 -10 9 -24 20 -30 11 -7 27 -27 35 -43 9 -17 42 -57 73 -88 31 -31 56 -60 55 -64 -2 -4 2 -8 8 -8 6 0 26 -16 45 -35 18 -19 38 -35 44 -35 5 0 10 -4 10 -10 0 -5 7 -10 15 -10 8 0 15 -4 15 -10 0 -5 7 -10 15 -10 8 0 15 -7 15 -15 0 -8 7 -15 15 -15 8 0 15 -4 15 -10 0 -5 9 -10 20 -10 11 0 20 -3 20 -7 0 -5 18 -17 40 -27 22 -10 37 -23 34 -27 -3 -5 6 -9 20 -9 14 0 26 -4 26 -10 0 -5 8 -10 18 -10 9 0 26 -7 36 -15 11 -8 28 -15 39 -15 10 0 15 -4 12 -10 -4 -6 8 -10 29 -10 20 0 36 -4 36 -10 0 -5 13 -10 28 -10 15 0 32 -4 38 -9 5 -5 27 -11 49 -13 25 -2 39 -8 38 -15 -2 -10 16 -13 67 -13 40 0 70 -4 70 -10 0 -6 59 -10 156 -10 101 0 153 3 149 10 -4 6 20 10 63 10 53 0 71 4 76 15 3 9 18 15 40 15 19 0 38 5 41 10 3 6 22 10 41 10 19 0 34 5 34 10 0 6 16 10 36 10 19 0 33 4 30 9 -4 5 7 12 24 16 16 4 32 11 35 16 4 5 15 9 26 9 10 0 19 5 19 10 0 6 9 10 19 10 10 0 21 7 25 15 3 8 11 15 18 15 7 0 24 9 38 20 14 11 33 20 43 20 10 0 15 4 12 10 -3 5 -2 10 4 10 5 0 22 11 37 25 15 14 33 25 40 25 8 0 14 5 14 10 0 6 7 10 15 10 8 0 14 4 12 8 -3 10 49 62 63 62 5 0 10 5 10 10 0 6 26 37 58 69 70 73 82 88 76 94 -3 3 6 14 20 25 15 11 26 26 26 35 0 8 10 25 23 38 21 22 57 90 71 132 3 10 10 15 16 12 6 -4 10 5 10 19 0 14 5 26 10 26 6 0 10 16 10 35 0 19 5 35 10 35 6 0 10 10 10 23 0 12 7 33 16 45 9 13 14 34 11 48 -3 16 0 24 9 24 10 0 14 17 14 64 0 36 4 68 10 71 6 4 10 82 10 201 0 123 -4 194 -10 194 -5 0 -10 25 -10 55 0 30 -4 55 -10 55 -5 0 -10 18 -10 39 0 22 -7 46 -15 55 -8 8 -15 24 -15 35 0 11 -4 23 -10 26 -5 3 -10 20 -10 36 0 18 -4 28 -10 24 -6 -4 -10 6 -10 24 0 16 -6 34 -13 38 -7 4 -19 23 -26 41 -8 17 -17 32 -22 32 -5 0 -9 11 -9 25 0 16 -6 25 -16 25 -8 0 -13 4 -10 9 3 4 -3 18 -13 30 -10 12 -29 37 -42 56 -13 19 -27 35 -31 35 -5 0 -8 5 -8 11 0 6 -15 25 -32 42 -18 16 -32 34 -30 39 1 4 -5 8 -15 8 -9 0 -14 3 -11 6 3 3 -9 20 -27 39 -19 18 -31 36 -28 39 4 3 -3 6 -15 6 -12 0 -22 4 -22 8 0 4 -14 16 -30 26 -17 9 -28 22 -25 27 4 5 -1 9 -9 9 -9 0 -16 5 -16 10 0 6 -7 10 -15 10 -8 0 -15 5 -15 10 0 6 -7 10 -15 10 -9 0 -18 7 -21 15 -4 8 -15 15 -25 15 -10 0 -19 5 -19 10 0 6 -9 10 -20 10 -11 0 -20 5 -20 10 0 6 -7 10 -15 10 -13 0 -15 149 -15 1280 l0 1280 -30 0 c-16 0 -30 -4 -30 -10 0 -5 -7 -10 -15 -10 -8 0 -15 -4 -15 -10 0 -5 -11 -12 -25 -16 -14 -3 -25 -10 -25 -15 0 -5 -16 -9 -36 -9 -21 0 -33 -4 -29 -10 4 -6 -17 -10 -57 -10 -40 0 -58 -4 -49 -9 10 -7 6 -11 -17 -16 -36 -8 -104 3 -96 16 3 5 -18 9 -46 9 -32 0 -49 4 -45 10 4 6 -7 10 -24 10 -17 0 -31 5 -31 10 0 6 -6 10 -14 10 -8 0 -16 7 -20 15 -3 8 -12 15 -21 15 -8 0 -15 5 -15 10 0 6 -9 10 -20 10 -11 0 -20 5 -20 10 0 6 -6 10 -13 10 -7 0 -24 11 -39 25 -15 14 -34 25 -43 25 -8 0 -15 3 -15 8 0 8 -43 28 -83 38 -21 5 -25 9 -15 15 8 5 -24 9 -77 9 -58 0 -85 -4 -76 -9z m1035 -3427 c9 -3 13 -10 10 -15 -3 -5 11 -9 30 -9 20 0 36 -4 36 -10 0 -5 8 -10 18 -10 21 -1 52 -23 52 -39 0 -6 6 -11 13 -11 14 0 57 -72 57 -95 0 -7 6 -15 13 -18 28 -11 26 -215 -3 -225 -6 -2 -10 -12 -10 -23 0 -19 -6 -28 -38 -64 -7 -8 -10 -15 -6 -15 4 0 -2 -9 -14 -20 -12 -11 -26 -20 -32 -20 -5 0 -10 -4 -10 -10 0 -5 -12 -10 -26 -10 -14 0 -22 -4 -19 -10 3 -5 -7 -12 -22 -15 -15 -4 -36 -10 -45 -16 -23 -12 -123 -12 -146 0 -9 6 -30 12 -45 16 -15 3 -25 10 -22 15 3 6 -5 10 -19 10 -14 0 -26 5 -26 10 0 6 -5 10 -10 10 -6 0 -20 9 -32 20 -12 11 -18 20 -14 20 6 0 -2 11 -32 45 -7 8 -14 24 -15 35 -1 11 -7 22 -14 24 -10 4 -13 35 -13 115 0 91 3 110 16 115 9 4 14 13 10 21 -3 8 -1 15 4 15 5 0 12 10 16 22 8 26 28 48 44 48 6 0 9 4 6 9 -7 11 37 41 59 41 8 0 15 5 15 10 0 6 12 10 26 10 14 0 32 7 40 15 16 15 116 21 148 9z"></path><path d="M6940 8585 c0 -8 -4 -15 -10 -15 -7 0 -10 -408 -10 -1205 0 -797 3 -1205 10 -1205 6 0 10 -4 10 -10 0 -6 -117 -11 -317 -12 l-318 -3 -3 -32 c-2 -19 1 -33 7 -33 6 0 11 -5 11 -11 0 -6 7 -17 16 -26 8 -9 13 -22 10 -29 -3 -8 0 -13 7 -11 6 1 13 -8 15 -20 2 -13 8 -23 13 -23 5 0 9 -9 9 -19 0 -10 7 -21 15 -25 9 -3 12 -12 8 -22 -4 -11 -3 -15 5 -10 6 3 13 -3 17 -14 3 -11 11 -20 16 -20 5 0 9 -11 9 -25 0 -14 5 -25 10 -25 6 0 10 -9 10 -20 0 -11 6 -20 13 -20 7 0 19 -16 26 -35 7 -19 17 -35 22 -35 5 0 9 -11 9 -25 0 -14 5 -25 10 -25 6 0 18 -16 27 -35 9 -19 20 -35 25 -35 4 0 8 -9 8 -20 0 -11 5 -20 10 -20 6 0 10 -9 10 -20 0 -10 6 -23 13 -27 7 -4 19 -23 26 -40 8 -18 17 -33 22 -33 5 0 9 -9 9 -20 0 -11 7 -23 15 -26 8 -4 15 -15 15 -25 0 -10 5 -19 10 -19 6 0 10 -7 10 -15 0 -8 5 -15 11 -15 5 0 8 -4 4 -9 -3 -5 1 -16 9 -23 7 -8 17 -24 20 -36 4 -12 12 -22 17 -22 5 0 9 -9 9 -20 0 -11 5 -20 10 -20 6 0 10 -7 10 -15 0 -8 3 -15 8 -15 10 0 42 -58 42 -76 0 -8 3 -14 8 -14 4 0 14 -15 22 -32 13 -32 20 -42 48 -73 6 -7 12 -23 12 -34 0 -12 5 -21 10 -21 6 0 10 -7 10 -15 0 -8 4 -15 8 -15 5 0 17 -18 28 -40 10 -22 22 -40 27 -40 4 0 7 -11 7 -25 0 -16 6 -25 16 -25 11 0 14 -6 9 -21 -5 -14 -3 -19 3 -15 6 3 13 -3 17 -14 3 -11 11 -20 16 -20 5 0 9 -6 9 -13 0 -21 30 -77 41 -77 5 0 9 -7 9 -15 0 -8 5 -15 11 -15 5 0 8 -4 4 -9 -3 -5 2 -16 10 -24 8 -9 15 -23 15 -32 0 -8 7 -18 15 -21 8 -4 15 -17 15 -30 0 -21 3 -24 28 -18 29 7 62 38 62 60 0 8 5 14 10 14 6 0 10 9 10 20 0 11 4 20 8 20 4 0 14 16 21 35 7 19 19 35 27 35 8 0 14 10 14 25 0 14 4 25 9 25 5 0 16 18 25 41 9 22 21 37 26 34 6 -3 10 3 10 14 0 12 5 21 10 21 6 0 10 9 10 21 0 11 6 27 13 34 29 33 37 45 37 55 0 5 5 10 10 10 6 0 10 9 10 20 0 11 5 20 10 20 6 0 10 11 10 25 0 14 4 25 10 25 5 0 12 11 16 25 3 14 10 22 15 19 5 -3 9 2 9 10 0 9 5 16 10 16 6 0 10 6 10 14 0 18 32 76 43 76 4 0 7 9 7 20 0 11 5 20 10 20 6 0 10 7 10 15 0 8 5 15 10 15 6 0 10 9 10 20 0 11 7 23 15 26 8 4 15 15 15 25 0 10 4 19 8 19 5 0 14 16 22 35 7 19 19 36 27 39 7 3 13 15 13 26 0 11 5 20 10 20 6 0 10 9 10 20 0 11 5 20 10 20 6 0 10 6 10 13 0 7 11 24 25 39 14 15 25 34 25 43 0 9 7 23 15 32 8 8 13 19 10 24 -4 5 -1 9 4 9 6 0 11 7 11 15 0 8 7 15 15 15 8 0 15 9 15 20 0 11 5 20 10 20 6 0 10 10 10 23 0 12 9 29 19 37 11 7 18 17 15 22 -3 4 0 8 5 8 6 0 11 7 11 15 0 8 5 15 10 15 6 0 10 6 10 14 0 18 22 59 43 80 9 10 15 22 12 27 -4 5 -1 9 4 9 6 0 11 7 11 15 0 8 5 15 10 15 6 0 10 9 10 21 0 11 6 27 13 34 29 33 37 45 37 53 0 5 7 15 15 22 8 7 15 28 15 46 l0 34 -312 -2 -313 -3 295 -5 295 -5 -297 -3 -298 -2 -2 1238 -3 1237 -367 3 c-323 2 -368 0 -368 -13z"></path></g></svg>