<svg xmlns="http://www.w3.org/2000/svg" width="1080.000000pt" height="1080.000000pt" viewBox="0 0 1080.000000 1080.000000" preserveAspectRatio="xMidYMid meet"><metadata>
Created by potrace 1.16, written by Peter Selinger 2001-2019
</metadata><g transform="translate(0.000000,1080.000000) scale(0.100000,-0.100000)" fill="#000000" stroke="none"><path d="M5724 10705 c-4 -8 -11 -15 -16 -15 -6 0 -24 -16 -41 -35 -16 -19 -35 -35 -41 -35 -6 0 -18 -9 -26 -20 -8 -11 -18 -20 -21 -20 -10 0 -289 -281 -289 -291 0 -5 -18 -28 -40 -51 -22 -24 -40 -46 -40 -50 0 -5 -5 -8 -11 -8 -15 0 -39 -26 -39 -42 0 -7 -25 -40 -55 -72 -30 -32 -55 -63 -55 -69 0 -7 -16 -25 -35 -42 -19 -16 -35 -38 -35 -47 0 -10 -9 -23 -20 -30 -11 -7 -20 -19 -20 -27 0 -7 -11 -23 -23 -35 -13 -12 -27 -34 -31 -49 -3 -15 -13 -27 -21 -27 -9 0 -15 -10 -15 -25 0 -14 -4 -25 -9 -25 -5 0 -14 -13 -21 -29 -6 -16 -18 -32 -26 -35 -8 -3 -14 -15 -14 -26 0 -11 -4 -20 -10 -20 -5 0 -10 -9 -10 -20 0 -11 -4 -20 -10 -20 -5 0 -10 -11 -10 -24 0 -13 -7 -26 -15 -30 -8 -3 -15 -12 -15 -21 0 -8 -4 -15 -10 -15 -5 0 -10 -9 -10 -19 0 -11 -4 -23 -10 -26 -5 -3 -10 -15 -10 -26 0 -10 -4 -19 -10 -19 -5 0 -10 -9 -10 -20 0 -11 -4 -20 -10 -20 -5 0 -10 -9 -10 -20 0 -11 -7 -23 -16 -27 -9 -3 -14 -13 -11 -24 3 -12 0 -19 -9 -19 -9 0 -14 -12 -14 -35 0 -19 -4 -35 -10 -35 -5 0 -10 -9 -10 -20 0 -11 -4 -20 -10 -20 -5 0 -10 -16 -10 -35 0 -19 -4 -35 -9 -35 -5 0 -12 -16 -15 -35 -4 -19 -11 -35 -16 -35 -6 0 -10 -13 -10 -30 0 -16 -4 -30 -10 -30 -5 0 -10 -13 -10 -29 0 -17 -4 -33 -10 -36 -5 -3 -10 -21 -10 -40 0 -19 -4 -37 -10 -40 -5 -3 -10 -25 -10 -48 0 -23 -7 -55 -15 -71 -8 -15 -15 -48 -15 -72 0 -24 -4 -44 -10 -44 -6 0 -10 -37 -10 -90 0 -53 -4 -90 -10 -90 -16 0 -13 -567 3 -573 10 -4 10 -6 0 -6 -15 -1 -18 -31 -3 -31 6 0 10 -33 11 -77 1 -55 3 -70 9 -53 5 17 8 -3 9 -63 1 -66 5 -89 15 -93 9 -3 19 -34 27 -77 7 -40 16 -76 21 -82 4 -5 8 -26 8 -47 0 -21 5 -38 10 -38 6 0 10 -16 10 -35 0 -24 5 -35 15 -35 10 0 15 -11 15 -35 0 -19 5 -35 10 -35 6 0 10 -13 10 -30 0 -16 5 -30 10 -30 6 0 10 -16 10 -35 0 -19 5 -35 10 -35 6 0 10 -9 10 -20 0 -11 5 -20 10 -20 6 0 10 -14 10 -30 0 -18 6 -33 15 -36 9 -4 15 -19 15 -40 0 -19 5 -34 10 -34 6 0 10 -13 10 -30 0 -16 5 -30 10 -30 6 0 10 -16 10 -35 0 -19 5 -35 10 -35 6 0 10 -18 10 -40 0 -25 5 -43 14 -46 8 -3 11 -15 8 -31 -3 -17 -1 -24 6 -19 7 4 13 -14 17 -49 4 -30 11 -55 16 -55 5 0 9 -20 9 -45 0 -25 5 -45 10 -45 6 0 10 -20 10 -45 0 -25 5 -45 10 -45 6 0 10 -25 10 -55 0 -41 4 -55 14 -55 11 0 13 -9 9 -35 -3 -20 -1 -41 6 -48 6 -8 14 -36 17 -63 4 -27 11 -55 17 -62 8 -10 7 -16 -4 -22 -11 -8 -12 -13 -1 -30 6 -11 12 -35 12 -54 0 -19 5 -38 10 -41 6 -3 10 -49 10 -103 0 -66 3 -92 10 -82 7 10 10 -30 10 -122 0 -99 3 -137 12 -140 9 -3 14 -73 16 -276 4 -243 3 -272 -12 -278 -17 -7 -22 -34 -6 -34 6 0 10 -13 10 -30 0 -16 -4 -30 -10 -30 -6 0 -10 -40 -10 -100 0 -62 -5 -108 -12 -121 -10 -17 -10 -23 0 -26 14 -6 16 -33 2 -33 -6 0 -10 -32 -10 -75 0 -43 -4 -75 -10 -75 -5 0 -10 -24 -10 -54 0 -30 -4 -58 -10 -61 -6 -3 -10 -25 -10 -49 0 -24 -7 -57 -16 -75 -9 -18 -14 -46 -12 -63 3 -19 0 -32 -9 -35 -8 -3 -13 -22 -13 -49 0 -24 -4 -44 -10 -44 -17 0 -12 -120 4 -126 9 -3 12 -12 9 -21 -4 -11 -2 -14 5 -9 7 4 12 2 12 -3 0 -6 9 -11 20 -11 11 0 20 -4 20 -10 0 -5 16 -10 35 -10 19 0 35 5 35 10 0 6 9 10 20 10 11 0 20 5 20 10 0 6 7 10 15 10 8 0 15 5 15 10 0 6 5 10 10 10 6 0 21 10 33 23 12 12 34 29 50 36 15 8 27 18 27 23 0 4 7 8 15 8 8 0 15 5 15 10 0 6 7 10 15 10 8 0 15 6 15 13 0 8 11 20 25 27 14 7 25 17 25 22 0 4 7 8 15 8 8 0 15 5 15 10 0 6 7 10 15 10 8 0 15 7 15 15 0 8 3 15 8 15 4 0 26 18 50 40 23 22 44 40 47 40 3 0 25 20 49 45 25 25 48 45 51 45 10 0 35 28 35 39 0 6 7 11 15 11 8 0 15 4 15 8 0 14 36 52 49 52 6 0 11 5 11 10 0 6 10 22 23 35 12 13 36 40 52 60 17 20 51 60 78 88 26 28 47 55 47 59 0 5 16 24 35 44 19 19 35 39 35 45 0 5 10 21 23 34 31 33 57 68 57 77 0 8 7 18 36 51 5 7 23 36 40 64 16 29 33 53 37 53 5 0 6 4 3 9 -3 5 1 14 9 21 8 7 15 19 15 26 0 8 5 14 10 14 6 0 10 9 10 20 0 11 5 20 10 20 6 0 10 6 10 14 0 18 32 76 43 76 4 0 7 12 7 26 0 14 4 23 10 19 6 -4 10 5 10 19 0 14 5 26 10 26 6 0 10 9 10 19 0 11 4 22 8 25 4 3 14 28 22 56 8 29 20 54 27 57 7 3 13 18 13 34 0 16 5 29 10 29 6 0 10 16 10 35 0 19 5 35 10 35 6 0 10 20 10 45 0 25 5 45 10 45 6 0 10 20 10 44 0 31 5 46 16 50 11 4 15 16 13 41 -2 19 2 40 9 47 7 7 12 42 12 91 0 49 4 76 10 72 7 -4 10 93 10 284 0 222 -3 291 -12 294 -10 4 -9 8 2 17 11 9 12 13 3 17 -9 3 -13 27 -13 71 0 47 -3 63 -10 52 -7 -10 -10 7 -10 56 0 55 -4 73 -15 78 -10 3 -15 19 -15 46 0 22 -4 40 -10 40 -5 0 -10 20 -10 45 0 25 -4 45 -10 45 -5 0 -10 16 -10 35 0 19 -4 35 -10 35 -5 0 -10 14 -10 30 0 18 -5 30 -13 30 -9 0 -14 12 -14 32 0 18 -5 34 -11 36 -7 2 -12 17 -12 32 0 16 -4 32 -10 35 -5 3 -10 15 -10 26 0 10 -4 27 -9 37 -5 9 -17 34 -26 55 -9 20 -20 37 -25 37 -6 0 -10 16 -10 35 0 19 -4 35 -10 35 -5 0 -10 9 -10 20 0 11 -4 20 -10 20 -5 0 -10 9 -10 19 0 11 -4 23 -10 26 -5 3 -10 17 -10 29 0 13 -6 29 -14 36 -8 6 -12 18 -9 26 3 7 -2 17 -11 20 -10 4 -16 18 -16 35 0 16 -4 29 -10 29 -5 0 -10 16 -10 35 0 19 -3 35 -7 35 -13 0 -33 52 -33 82 0 18 -5 28 -15 28 -11 0 -13 8 -9 30 5 22 2 31 -10 36 -11 4 -16 18 -16 45 0 21 -4 39 -10 39 -5 0 -10 16 -10 35 0 19 -4 35 -10 35 -5 0 -10 20 -10 45 0 25 -4 45 -10 45 -5 0 -10 18 -10 40 0 27 -5 43 -15 46 -8 4 -15 18 -15 33 0 36 -19 142 -29 161 -4 8 -9 42 -10 75 -1 33 -6 62 -12 63 -5 2 -9 33 -9 68 0 36 -4 64 -10 64 -6 0 -10 40 -10 100 0 55 -4 100 -9 100 -15 0 -22 145 -22 492 0 297 2 344 16 354 16 12 21 59 5 49 -5 -3 -10 3 -10 15 0 12 5 18 10 15 6 -4 10 32 10 99 0 64 4 106 10 106 6 0 10 20 10 45 0 25 5 45 10 45 6 0 10 7 10 15 0 8 -5 15 -12 15 -9 0 -9 3 0 12 7 7 12 27 12 45 0 18 6 42 13 53 10 17 9 22 -3 30 -10 6 -11 10 -2 10 7 0 12 13 12 29 0 17 4 32 9 35 5 3 9 21 9 40 0 55 13 117 23 110 5 -3 9 11 9 30 0 20 5 36 10 36 6 0 10 33 10 80 0 50 -4 80 -11 80 -6 0 -17 7 -25 15 -11 10 -36 15 -80 15 -48 0 -66 -4 -70 -15z"></path><path d="M3100 9990 c0 -5 -9 -10 -20 -10 -11 0 -20 -4 -20 -10 0 -5 -5 -10 -11 -10 -12 0 -59 -50 -59 -62 0 -5 -7 -8 -16 -8 -9 0 -29 -13 -44 -30 -15 -16 -33 -30 -39 -30 -6 0 -11 -5 -11 -10 0 -15 -67 -80 -81 -80 -7 0 -10 -3 -7 -6 7 -7 -88 -104 -102 -104 -5 0 -10 -9 -10 -21 0 -21 -22 -49 -39 -49 -5 0 -13 -9 -16 -20 -3 -11 -13 -20 -21 -20 -8 0 -14 -7 -14 -15 0 -8 -9 -20 -20 -27 -11 -7 -20 -19 -20 -26 0 -8 -20 -33 -45 -58 -25 -24 -45 -48 -45 -54 0 -6 -11 -23 -25 -38 -14 -15 -25 -31 -25 -35 0 -5 -13 -22 -30 -37 -16 -15 -30 -34 -30 -42 -1 -18 -25 -48 -39 -48 -6 0 -11 -8 -11 -18 0 -10 -9 -28 -20 -40 -11 -12 -20 -28 -20 -37 0 -8 -4 -15 -10 -15 -5 0 -12 -11 -16 -25 -3 -14 -10 -22 -15 -19 -5 3 -9 -5 -9 -18 0 -13 -9 -30 -20 -38 -11 -8 -20 -25 -20 -37 0 -13 -4 -23 -10 -23 -5 0 -10 -9 -10 -19 0 -10 -7 -21 -15 -25 -8 -3 -12 -12 -9 -19 3 -8 -2 -17 -10 -20 -9 -4 -16 -16 -16 -27 0 -11 -4 -20 -10 -20 -5 0 -10 -9 -10 -20 0 -11 -4 -20 -10 -20 -5 0 -10 -13 -10 -29 0 -17 -4 -33 -10 -36 -5 -3 -10 -14 -10 -25 0 -10 -7 -20 -15 -24 -9 -3 -15 -18 -15 -36 0 -16 -4 -30 -10 -30 -5 0 -10 -16 -10 -35 0 -19 -4 -35 -10 -35 -5 0 -10 -9 -10 -19 0 -11 -4 -22 -9 -25 -5 -3 -11 -20 -14 -38 -11 -67 -33 -139 -40 -132 -4 4 -7 -11 -7 -34 0 -22 -4 -44 -10 -47 -5 -3 -10 -37 -10 -76 0 -38 -4 -69 -9 -69 -14 0 -22 -118 -27 -397 -3 -176 -1 -263 6 -263 6 0 10 -30 10 -74 0 -41 5 -78 10 -81 6 -3 10 -35 10 -71 0 -36 4 -64 10 -64 6 0 10 -18 10 -40 0 -27 5 -43 15 -46 10 -4 15 -20 15 -50 0 -24 5 -44 10 -44 6 0 10 -13 10 -30 0 -16 5 -30 10 -30 6 0 10 -16 10 -35 0 -19 5 -35 10 -35 6 0 10 -14 10 -30 0 -17 6 -33 14 -36 8 -3 12 -12 9 -21 -4 -9 1 -19 10 -25 10 -5 17 -21 17 -38 0 -17 5 -30 10 -30 6 0 10 -13 10 -30 0 -16 5 -30 10 -30 6 0 10 -16 10 -35 0 -19 5 -35 10 -35 6 0 10 -14 10 -30 0 -18 6 -33 15 -36 10 -4 13 -13 10 -25 -4 -10 1 -29 9 -41 9 -12 16 -37 16 -55 0 -18 5 -33 10 -33 6 0 10 -16 10 -35 0 -19 5 -35 10 -35 6 0 10 -20 10 -45 0 -25 5 -45 10 -45 6 0 10 -23 10 -50 0 -36 4 -52 15 -56 10 -4 15 -21 15 -54 0 -27 4 -52 10 -55 5 -3 10 -24 10 -45 0 -21 5 -42 10 -45 6 -3 10 -28 10 -55 0 -27 5 -52 10 -55 6 -3 10 -42 10 -86 0 -51 4 -78 10 -74 6 4 10 -36 11 -112 0 -68 4 -109 8 -98 16 41 22 -78 23 -419 0 -344 -9 -519 -23 -446 -4 22 -7 -5 -8 -72 0 -59 -5 -110 -11 -113 -5 -3 -10 -35 -10 -71 0 -36 -4 -64 -10 -64 -6 0 -10 -28 -10 -65 0 -37 -4 -65 -10 -65 -5 0 -10 -20 -10 -45 0 -25 -4 -45 -10 -45 -5 0 -10 -25 -10 -55 0 -42 -3 -55 -15 -55 -21 0 -21 -78 0 -86 8 -4 15 -15 15 -25 0 -14 7 -19 25 -19 14 0 25 -4 25 -10 0 -5 16 -10 35 -10 19 0 35 5 35 10 0 6 7 10 15 10 8 0 15 5 15 10 0 6 9 10 21 10 11 0 17 5 14 10 -3 6 3 10 14 10 12 0 21 7 21 15 0 8 7 15 15 15 8 0 15 5 15 10 0 6 6 10 13 10 7 0 19 9 27 20 8 11 20 20 27 20 7 0 13 5 13 10 0 6 5 10 10 10 6 0 30 20 54 45 25 25 47 45 50 45 3 0 15 8 25 18 48 44 82 72 87 72 7 0 34 27 34 35 0 8 47 55 55 55 8 0 55 47 55 55 0 9 71 75 81 75 6 0 8 4 5 8 -3 5 3 16 12 25 29 27 41 45 35 51 -4 3 -1 6 6 6 13 0 41 24 41 35 0 3 10 17 23 30 37 40 48 55 41 55 -4 0 5 11 20 25 14 13 26 29 26 35 0 6 10 22 23 35 37 40 47 54 47 65 0 5 5 10 10 10 6 0 10 9 10 20 0 11 5 20 10 20 6 0 10 7 10 15 0 8 4 15 9 15 5 0 13 9 16 20 4 11 11 17 17 14 7 -5 9 -1 5 9 -3 9 0 23 8 31 8 8 15 22 15 30 0 9 3 16 8 16 4 0 13 15 21 33 7 17 24 49 37 69 13 21 24 46 24 57 0 11 3 21 8 23 12 5 52 88 52 108 0 27 11 51 21 44 5 -3 6 1 3 9 -3 8 2 17 10 20 10 4 16 18 16 37 0 16 5 30 10 30 6 0 10 17 10 38 0 22 6 60 14 86 8 27 12 54 9 62 -3 8 0 14 6 14 6 0 11 19 11 45 0 31 5 47 15 51 12 5 15 27 15 110 0 63 4 104 10 104 6 0 10 65 10 175 0 110 -4 175 -10 175 -6 0 -10 38 -10 95 0 76 -3 97 -15 101 -10 4 -15 21 -15 53 0 26 -4 51 -9 56 -5 6 -12 30 -15 55 -9 81 -18 120 -27 126 -5 3 -9 23 -9 45 0 26 -5 42 -15 45 -9 4 -15 19 -15 35 0 16 -4 29 -8 29 -10 0 -32 60 -32 88 0 12 -4 22 -10 22 -5 0 -10 9 -10 19 0 11 -4 23 -10 26 -5 3 -10 19 -10 36 0 19 -5 29 -15 29 -8 0 -15 5 -15 10 0 6 -9 30 -20 52 -11 23 -20 54 -20 70 0 15 -4 28 -10 28 -5 0 -10 9 -10 20 0 11 -4 20 -10 20 -5 0 -10 7 -10 15 0 8 -6 15 -12 15 -9 0 -8 4 2 11 12 8 12 12 2 16 -16 6 -42 68 -42 99 0 13 -4 24 -10 24 -5 0 -10 13 -10 29 0 17 -4 33 -10 36 -5 3 -10 17 -10 31 0 14 -4 22 -10 19 -6 -4 -10 6 -10 24 0 16 -4 32 -9 35 -5 4 -12 24 -16 46 -4 22 -11 42 -16 46 -5 3 -9 20 -9 39 0 19 -4 37 -10 40 -5 3 -10 24 -10 46 0 21 -4 39 -10 39 -6 0 -10 28 -10 64 0 42 -5 67 -14 75 -14 12 -20 46 -32 171 -3 36 -10 69 -15 74 -5 6 -9 47 -9 92 0 46 -4 86 -10 89 -6 4 -10 70 -10 166 0 99 -4 159 -10 159 -6 0 -9 68 -8 188 1 116 4 168 8 137 5 -33 7 2 8 107 1 92 6 159 12 163 6 3 10 37 10 74 0 38 5 93 11 122 7 30 13 65 14 79 1 14 8 61 16 104 10 60 15 73 20 55 4 -15 7 3 8 46 1 49 4 66 11 55 7 -11 10 -2 10 32 0 26 5 50 10 53 15 9 13 134 -3 148 -36 34 -117 52 -117 27z"></path><path d="M8333 9986 c-13 -6 -23 -14 -23 -18 0 -5 -5 -8 -11 -8 -11 0 -39 -25 -39 -35 0 -9 -27 -35 -37 -35 -5 0 -15 -9 -23 -20 -8 -11 -20 -20 -28 -20 -7 0 -10 -4 -7 -10 3 -5 -1 -10 -9 -10 -9 0 -16 -6 -16 -13 0 -8 -11 -20 -25 -27 -13 -7 -27 -21 -31 -32 -3 -10 -10 -18 -15 -18 -11 0 -59 -45 -59 -55 0 -10 -28 -35 -39 -35 -5 0 -13 -10 -17 -22 -4 -13 -15 -30 -25 -38 -44 -38 -55 -49 -74 -75 -11 -16 -34 -43 -52 -61 -17 -18 -30 -34 -27 -36 2 -3 -14 -24 -36 -47 -22 -23 -47 -55 -55 -71 -8 -16 -27 -41 -40 -55 -14 -14 -23 -25 -19 -25 4 0 -2 -8 -13 -17 -11 -10 -26 -33 -34 -50 -7 -18 -16 -33 -19 -33 -3 0 -14 -16 -24 -35 -10 -19 -23 -32 -27 -29 -5 3 -9 -6 -9 -20 0 -14 -4 -26 -10 -26 -5 0 -10 -7 -10 -15 0 -8 -4 -15 -10 -15 -5 0 -10 -8 -10 -18 0 -23 -34 -64 -44 -54 -5 4 -7 0 -6 -8 4 -28 0 -51 -8 -46 -4 2 -9 -5 -9 -17 -1 -12 -7 -23 -13 -25 -5 -2 -10 -10 -10 -18 0 -8 -3 -14 -8 -14 -8 0 -32 -71 -32 -95 0 -8 -7 -15 -15 -15 -8 0 -15 -9 -15 -20 0 -11 -4 -20 -10 -20 -5 0 -10 -11 -10 -24 0 -14 -4 -28 -10 -31 -5 -3 -10 -17 -10 -31 0 -13 -4 -24 -10 -24 -5 0 -10 -15 -10 -34 0 -19 -5 -36 -11 -38 -6 -2 -11 -16 -11 -30 0 -15 -7 -29 -14 -32 -8 -3 -14 -19 -14 -36 0 -16 -4 -30 -10 -30 -5 0 -10 -20 -10 -44 0 -24 -4 -46 -9 -48 -5 -1 -12 -28 -15 -58 -4 -30 -9 -71 -12 -90 -15 -102 -15 -104 -25 -89 -5 9 -9 -26 -9 -94 0 -70 -4 -106 -10 -102 -7 4 -10 -57 -10 -174 0 -114 4 -181 10 -181 6 0 10 -38 10 -93 0 -60 4 -97 12 -105 7 -7 16 -41 20 -75 14 -116 20 -147 29 -147 5 0 9 -25 9 -55 0 -30 5 -55 10 -55 6 0 10 -15 10 -34 0 -19 5 -36 11 -38 6 -2 13 -22 15 -43 1 -22 7 -41 13 -43 6 -2 11 -12 11 -23 0 -10 5 -19 10 -19 6 0 10 -16 10 -35 0 -19 5 -35 10 -35 6 0 10 -11 10 -25 0 -14 5 -25 10 -25 6 0 10 -16 10 -36 0 -20 4 -33 10 -29 5 3 12 -7 16 -22 3 -15 11 -41 17 -58 6 -16 10 -38 9 -47 -2 -10 2 -18 7 -18 6 0 11 -11 11 -25 0 -14 5 -25 10 -25 6 0 10 -18 10 -39 0 -22 5 -41 11 -43 6 -2 11 -23 11 -46 0 -23 3 -40 8 -37 10 6 20 -19 20 -51 0 -13 5 -24 11 -24 6 0 8 -8 5 -17 -3 -10 1 -31 9 -47 8 -15 15 -53 15 -82 0 -30 5 -54 10 -54 6 0 10 -27 10 -61 0 -37 4 -58 10 -54 10 6 13 -9 10 -61 -1 -17 6 -36 14 -43 10 -8 16 -30 16 -55 0 -23 4 -67 10 -97 5 -30 11 -86 13 -126 1 -40 6 -75 10 -79 4 -4 7 -74 7 -156 0 -92 4 -148 10 -148 6 0 10 -9 10 -20 0 -11 -4 -20 -10 -20 -5 0 -10 -7 -10 -15 0 -8 5 -15 10 -15 6 0 9 -61 8 -167 -1 -122 -3 -150 -8 -103 -4 44 -7 6 -8 -122 -1 -112 -6 -189 -12 -193 -5 -3 -10 -44 -10 -91 0 -46 -4 -84 -9 -84 -4 0 -11 -31 -13 -70 -3 -38 -10 -75 -16 -82 -6 -7 -10 -31 -9 -52 1 -23 -4 -41 -11 -44 -7 -2 -12 -23 -12 -52 0 -27 -4 -52 -10 -55 -5 -3 -10 -21 -10 -40 0 -19 -4 -37 -10 -40 -5 -3 -10 -15 -10 -26 0 -10 5 -19 10 -19 6 0 10 -9 10 -21 0 -26 23 -49 49 -49 12 0 21 -4 21 -10 0 -13 47 -13 55 0 3 6 14 10 23 10 10 0 24 9 32 20 8 11 20 20 28 20 7 0 23 11 36 25 13 14 28 25 35 25 6 0 11 5 11 10 0 6 6 10 13 10 7 0 19 9 27 20 8 11 20 20 27 20 7 0 13 7 13 15 0 8 6 15 14 15 7 0 27 14 44 30 18 17 37 30 42 30 6 0 8 5 5 10 -3 5 -2 10 2 10 5 0 26 16 46 35 20 19 39 35 42 35 10 0 55 49 55 60 0 5 5 10 10 10 6 0 43 34 84 75 40 41 76 71 81 67 4 -4 5 1 3 10 -1 10 7 28 19 40 85 88 113 118 113 123 0 6 14 24 47 59 12 13 19 27 16 30 -4 3 6 16 20 29 15 12 27 29 27 38 0 8 9 21 20 29 11 8 20 21 20 30 0 8 11 24 25 34 14 10 25 25 25 33 0 8 8 23 18 34 11 11 25 37 32 59 7 22 19 40 27 40 7 0 13 9 13 20 0 11 5 20 10 20 6 0 10 11 10 25 0 14 4 25 8 25 4 0 14 20 21 44 7 25 20 47 28 50 10 4 14 15 11 31 -4 17 -1 25 8 25 8 0 14 11 14 25 0 14 5 25 10 25 6 0 10 14 10 30 0 17 5 30 10 30 6 0 10 16 10 35 0 19 5 35 10 35 6 0 10 10 10 23 0 35 11 67 21 61 5 -3 9 19 9 48 0 38 3 49 10 38 7 -11 10 3 10 47 0 34 4 64 9 67 33 21 33 776 0 776 -5 0 -9 25 -9 55 0 30 -4 55 -10 55 -5 0 -10 24 -10 54 0 35 -5 56 -13 59 -7 2 -19 39 -26 81 -8 42 -18 76 -22 76 -5 0 -9 14 -9 30 0 17 -4 30 -10 30 -5 0 -10 16 -10 35 0 19 -4 35 -10 35 -5 0 -10 7 -10 15 0 9 -7 18 -15 21 -9 4 -15 19 -15 40 0 19 -4 34 -10 34 -5 0 -10 9 -10 20 0 11 -4 20 -10 20 -5 0 -10 16 -10 35 0 19 -4 35 -10 35 -5 0 -10 9 -10 20 0 11 -4 20 -9 20 -5 0 -12 11 -15 25 -4 14 -11 25 -16 25 -6 0 -10 13 -10 29 0 17 -4 33 -10 36 -5 3 -10 15 -10 26 0 10 -4 19 -10 19 -5 0 -10 16 -10 35 0 19 -4 35 -10 35 -5 0 -10 14 -10 30 0 20 -5 30 -15 30 -10 0 -15 11 -15 35 0 19 -4 35 -9 35 -5 0 -15 29 -22 65 -7 36 -16 65 -21 65 -4 0 -8 25 -8 55 0 30 -4 55 -10 55 -5 0 -10 18 -10 40 0 21 -6 43 -13 47 -14 9 -37 90 -37 133 0 17 -4 30 -10 30 -5 0 -10 25 -10 55 0 30 -4 55 -10 55 -6 0 -10 35 -11 83 0 55 -3 75 -9 62 -7 -17 -9 -14 -10 15 -3 78 -9 138 -18 190 -6 30 -11 215 -11 414 -1 331 0 360 17 372 14 10 15 15 5 25 -16 16 -17 33 -2 24 7 -5 10 16 8 66 -2 48 2 74 9 77 8 2 12 30 12 78 0 43 4 74 10 74 6 0 10 25 10 55 0 30 5 55 10 55 6 0 10 25 10 55 0 30 4 55 9 55 5 0 9 23 9 50 1 32 7 56 16 66 9 8 16 31 16 50 0 19 5 34 10 34 13 0 13 47 1 52 -5 2 -11 10 -13 18 -10 48 -90 74 -145 46z"></path><path d="M9463 5313 c-12 -2 -36 -18 -52 -36 -26 -25 -31 -39 -31 -76 0 -30 3 -41 9 -33 6 10 10 4 15 -20 3 -18 15 -40 26 -48 11 -8 20 -22 20 -32 0 -10 5 -18 10 -18 6 0 10 -9 10 -21 0 -11 7 -27 15 -35 8 -9 20 -35 26 -60 6 -24 15 -44 20 -44 5 0 9 -9 9 -20 0 -11 5 -20 10 -20 6 0 10 -16 10 -35 0 -19 4 -35 9 -35 5 0 11 -17 14 -37 3 -21 12 -65 21 -98 21 -83 38 -217 37 -295 -2 -89 -19 -239 -32 -271 -5 -14 -9 -30 -8 -35 1 -5 0 -22 -1 -39 -2 -30 -2 -30 -10 -5 -6 20 -8 14 -10 -30 -1 -30 -2 -58 -1 -62 0 -5 -4 -8 -9 -8 -5 0 -10 -8 -10 -17 0 -21 -23 -90 -33 -99 -4 -4 -7 -15 -7 -25 0 -10 -7 -24 -15 -33 -9 -8 -16 -18 -15 -21 1 -21 -1 -25 -10 -20 -5 3 -10 0 -10 -8 0 -7 -9 -32 -20 -55 -11 -22 -20 -46 -20 -52 0 -5 -4 -10 -9 -10 -5 0 -14 -13 -21 -29 -6 -16 -18 -32 -26 -35 -8 -3 -14 -14 -14 -23 0 -10 -9 -25 -20 -33 -11 -8 -20 -22 -20 -32 0 -10 -4 -18 -10 -18 -5 0 -10 -5 -10 -11 0 -14 -25 -39 -39 -39 -6 0 -11 -7 -11 -16 0 -8 -6 -22 -12 -29 -7 -8 -31 -35 -53 -60 -87 -102 -238 -245 -257 -245 -6 0 -9 -3 -5 -6 7 -8 -47 -64 -62 -64 -6 0 -11 -4 -11 -10 0 -5 -7 -10 -15 -10 -8 0 -15 -4 -15 -10 0 -5 -7 -10 -15 -10 -8 0 -15 -5 -15 -11 0 -14 -18 -31 -52 -48 -15 -8 -37 -22 -47 -33 -11 -10 -28 -18 -37 -18 -10 0 -14 -3 -11 -6 7 -8 -36 -44 -52 -44 -6 0 -11 -4 -11 -10 0 -5 -7 -10 -15 -10 -8 0 -15 -4 -15 -10 0 -5 -9 -10 -20 -10 -11 0 -20 -4 -20 -10 0 -5 -4 -10 -9 -10 -6 0 -22 -11 -37 -25 -15 -14 -35 -25 -45 -25 -11 0 -19 -4 -19 -10 0 -5 -7 -10 -15 -10 -8 0 -15 -4 -15 -10 0 -5 -9 -10 -20 -10 -11 0 -20 -4 -20 -8 0 -5 -18 -17 -40 -28 -22 -10 -40 -22 -40 -26 0 -5 -9 -8 -20 -8 -11 0 -20 -4 -20 -10 0 -5 -11 -10 -25 -10 -14 0 -25 -4 -25 -10 0 -5 -12 -10 -27 -10 -14 0 -23 -3 -19 -7 7 -7 -100 -63 -121 -63 -7 0 -13 -4 -13 -10 0 -5 -11 -10 -25 -10 -14 0 -25 -4 -25 -10 0 -5 -13 -10 -30 -10 -16 0 -30 -4 -30 -9 0 -13 -59 -41 -87 -41 -12 0 -23 -4 -23 -10 0 -5 -11 -10 -25 -10 -14 0 -25 -4 -25 -10 0 -5 -17 -10 -37 -10 -28 0 -34 -3 -23 -10 11 -7 8 -10 -16 -10 -19 0 -34 -6 -38 -15 -3 -8 -16 -15 -30 -15 -14 0 -28 -4 -31 -10 -3 -5 -19 -10 -35 -10 -16 0 -32 -4 -35 -10 -3 -5 -26 -10 -51 -10 -28 0 -43 -4 -39 -10 4 -6 -11 -10 -37 -10 -30 0 -39 -3 -29 -9 11 -7 5 -11 -22 -16 -21 -4 -40 -11 -43 -16 -3 -5 -20 -9 -39 -9 -19 0 -37 -4 -40 -10 -3 -5 -24 -10 -46 -10 -21 0 -39 -4 -39 -10 0 -5 -23 -10 -51 -10 -31 0 -48 -4 -44 -10 4 -6 -13 -10 -45 -10 -32 0 -49 -4 -45 -10 4 -6 -7 -10 -27 -10 -18 -1 -51 -7 -73 -15 -22 -8 -59 -15 -82 -15 -24 0 -43 -4 -43 -10 0 -6 -28 -10 -65 -10 -37 0 -65 -4 -65 -10 0 -6 -32 -10 -76 -10 -47 0 -73 -4 -69 -10 4 -6 -27 -10 -85 -10 -58 0 -89 -4 -85 -10 3 -5 0 -10 -7 -11 -7 -1 -60 -5 -118 -11 -58 -5 -187 -12 -287 -14 -101 -3 -183 -9 -183 -14 0 -11 -473 -11 -480 1 -3 4 -82 8 -175 10 -94 1 -175 6 -181 10 -6 5 -57 9 -113 10 -78 1 -104 4 -108 15 -4 10 -26 14 -85 14 -50 0 -77 4 -73 10 4 6 -23 10 -75 10 -52 0 -79 4 -75 10 4 6 -20 10 -64 10 -38 0 -73 5 -76 10 -3 6 -26 10 -50 10 -24 0 -46 4 -49 9 -3 4 -33 11 -66 15 -34 4 -58 11 -55 17 4 5 -15 9 -45 9 -32 0 -49 4 -45 10 4 6 -10 10 -34 10 -22 0 -43 5 -46 10 -3 5 -23 10 -44 10 -20 0 -41 4 -47 10 -5 5 -25 10 -44 11 -19 2 -39 6 -45 10 -5 4 -25 10 -44 14 -24 5 -30 10 -20 16 9 6 -3 9 -34 9 -30 0 -46 4 -42 10 4 6 -8 10 -29 10 -19 0 -38 5 -41 10 -3 5 -19 10 -35 10 -15 0 -30 5 -32 11 -2 5 -17 12 -33 13 -16 2 -31 9 -33 15 -2 6 -17 11 -33 11 -18 0 -28 4 -24 10 4 6 -8 10 -29 10 -20 0 -36 5 -36 10 0 6 -11 10 -25 10 -13 0 -44 11 -69 25 -25 14 -52 25 -61 25 -9 0 -13 5 -10 10 4 6 -7 10 -25 10 -18 0 -29 4 -25 10 4 6 -5 10 -19 10 -14 0 -26 5 -26 10 0 6 -11 10 -24 10 -14 0 -28 5 -31 10 -3 6 -15 10 -26 10 -10 0 -19 4 -19 9 0 5 -11 12 -25 15 -14 4 -23 11 -20 16 3 6 -5 10 -19 10 -14 0 -26 5 -26 10 0 6 -11 10 -25 10 -14 0 -25 5 -25 10 0 6 -9 10 -20 10 -11 0 -20 4 -20 9 0 5 -8 12 -17 15 -33 12 -63 33 -56 39 3 4 -6 7 -20 7 -15 0 -27 5 -27 10 0 6 -7 10 -15 10 -8 0 -15 5 -15 10 0 6 -9 10 -20 10 -11 0 -20 5 -20 10 0 6 -7 10 -15 10 -9 0 -18 7 -21 15 -4 8 -12 15 -20 15 -8 0 -14 5 -14 10 0 6 -9 10 -20 10 -11 0 -20 5 -20 10 0 6 -7 10 -15 10 -8 0 -15 5 -15 10 0 6 -5 10 -11 10 -16 0 -59 36 -52 44 3 3 -1 6 -11 6 -9 0 -26 8 -37 18 -10 11 -32 25 -47 33 -38 20 -62 41 -56 51 3 4 -2 8 -10 8 -9 0 -16 4 -16 8 0 5 -12 15 -27 23 -54 28 -327 300 -391 388 -9 13 -27 35 -39 48 -13 13 -23 28 -23 33 0 6 -4 10 -10 10 -5 0 -10 8 -10 18 0 10 -9 24 -20 32 -11 8 -20 23 -20 33 0 9 -6 20 -14 23 -8 3 -20 19 -26 35 -7 16 -16 29 -21 29 -5 0 -9 11 -9 25 0 14 -4 25 -10 25 -5 0 -10 9 -10 20 0 11 -4 20 -10 20 -5 0 -10 9 -10 19 0 10 -7 22 -16 25 -8 3 -12 10 -9 16 3 5 1 10 -4 10 -6 0 -11 9 -11 19 0 11 -6 26 -13 33 -13 13 -21 36 -34 101 -3 15 -8 27 -12 27 -4 0 -8 14 -9 32 -2 18 -6 35 -11 38 -5 3 -11 23 -14 45 -3 22 -11 72 -16 110 -18 127 -23 179 -23 245 1 88 44 348 53 324 5 -12 8 0 8 34 1 28 6 52 11 52 6 0 10 16 10 35 0 19 5 35 10 35 6 0 10 7 10 16 0 8 7 22 15 30 8 9 15 27 15 40 0 14 4 22 10 19 5 -3 7 0 4 8 -3 8 2 21 10 30 9 9 16 25 16 37 0 12 5 18 10 15 6 -4 10 5 10 19 0 14 4 26 9 26 5 0 16 18 25 40 9 22 20 40 26 40 5 0 10 16 10 35 0 19 -4 35 -10 35 -5 0 -12 11 -16 25 -3 14 -12 25 -20 25 -8 0 -14 5 -14 10 0 6 -24 10 -53 10 -41 0 -56 -4 -67 -20 -8 -11 -23 -20 -33 -20 -10 0 -15 -4 -12 -10 3 -5 1 -10 -5 -10 -6 0 -21 -11 -34 -25 -13 -14 -28 -25 -35 -25 -6 0 -11 -4 -11 -10 0 -5 -5 -10 -10 -10 -6 0 -32 -21 -59 -47 -26 -27 -74 -70 -106 -98 -64 -55 -205 -194 -205 -201 0 -3 -15 -20 -32 -38 -18 -18 -42 -46 -53 -61 -19 -26 -48 -61 -95 -112 -11 -12 -20 -25 -20 -28 0 -4 -7 -13 -15 -22 -8 -8 -13 -19 -10 -24 4 -5 2 -9 -3 -9 -5 0 -15 -11 -22 -25 -7 -14 -19 -25 -27 -25 -7 0 -13 -8 -13 -18 0 -10 -9 -24 -20 -32 -11 -8 -20 -20 -20 -28 0 -14 -29 -63 -45 -74 -6 -5 -6 -8 0 -8 6 0 2 -5 -7 -11 -10 -5 -18 -19 -18 -29 0 -11 -4 -20 -10 -20 -5 0 -10 -9 -10 -20 0 -11 -4 -20 -10 -20 -5 0 -10 -11 -10 -25 0 -14 -4 -25 -10 -25 -5 0 -10 -9 -10 -19 0 -10 -7 -22 -16 -25 -9 -4 -14 -13 -10 -21 3 -9 -1 -18 -9 -21 -9 -4 -15 -19 -15 -35 0 -16 -4 -29 -10 -29 -5 0 -10 -11 -10 -25 0 -14 -4 -25 -10 -25 -5 0 -10 -13 -10 -30 0 -16 -4 -30 -10 -30 -5 0 -10 -16 -10 -35 0 -24 -5 -35 -15 -35 -11 0 -15 -12 -15 -45 0 -25 -4 -45 -10 -45 -5 0 -10 -24 -10 -54 0 -33 -5 -56 -12 -58 -17 -6 -24 -556 -8 -673 7 -49 15 -107 17 -127 3 -21 9 -38 14 -38 5 0 9 -20 9 -45 0 -25 4 -45 9 -45 5 0 12 -10 16 -22 19 -72 29 -104 37 -113 4 -5 8 -22 8 -37 0 -15 5 -28 10 -28 6 0 10 -13 10 -29 0 -16 6 -31 15 -35 8 -3 12 -12 9 -21 -4 -8 1 -17 10 -21 9 -3 16 -15 16 -25 0 -10 5 -19 10 -19 6 0 10 -11 10 -25 0 -14 5 -25 10 -25 6 0 10 -9 10 -20 0 -11 5 -20 10 -20 6 0 10 -9 10 -19 0 -10 7 -22 16 -25 8 -3 12 -10 9 -16 -3 -5 -2 -10 2 -10 5 0 22 -25 38 -55 15 -30 32 -55 37 -55 4 0 8 -9 8 -20 0 -11 6 -20 14 -20 8 0 19 -15 25 -32 6 -18 25 -44 41 -57 17 -13 30 -29 30 -37 0 -7 20 -34 45 -60 25 -25 45 -50 45 -56 0 -5 40 -49 90 -98 49 -49 90 -91 90 -95 0 -8 27 -35 35 -35 4 0 40 -34 81 -75 41 -41 80 -75 87 -75 8 0 20 -11 27 -25 7 -14 17 -25 22 -25 4 0 22 -13 40 -30 17 -16 37 -30 44 -30 8 0 14 -4 14 -10 0 -5 7 -10 15 -10 8 0 15 -5 15 -11 0 -16 26 -39 44 -39 9 0 16 -4 16 -10 0 -5 5 -10 10 -10 6 0 22 -10 35 -22 40 -37 54 -48 64 -48 5 0 11 -3 13 -7 4 -10 57 -42 81 -50 9 -3 17 -12 17 -19 0 -8 7 -14 15 -14 8 0 15 -4 15 -10 0 -5 9 -10 20 -10 11 0 20 -4 20 -10 0 -5 7 -10 15 -10 8 0 15 -4 15 -10 0 -5 9 -10 20 -10 11 0 20 -4 20 -10 0 -5 7 -10 15 -10 9 0 18 -7 21 -15 4 -8 12 -15 20 -15 8 0 14 -4 14 -10 0 -5 9 -10 20 -10 11 0 20 -4 20 -10 0 -5 9 -10 20 -10 11 0 20 -4 20 -10 0 -5 9 -10 20 -10 11 0 20 -4 20 -9 0 -5 11 -12 25 -15 14 -4 25 -11 25 -16 0 -6 7 -10 15 -10 8 0 15 -4 15 -10 0 -5 11 -10 25 -10 14 0 25 -3 25 -7 0 -9 48 -33 66 -33 6 0 14 -7 18 -15 3 -8 17 -15 31 -15 15 0 24 -4 20 -10 -4 -6 5 -10 19 -10 14 0 26 -4 26 -10 0 -5 11 -10 25 -10 14 0 25 -4 25 -10 0 -5 9 -10 20 -10 11 0 20 -4 20 -9 0 -5 12 -11 28 -13 15 -2 26 -8 24 -15 -1 -8 9 -13 28 -13 16 0 30 -4 30 -10 0 -5 11 -10 25 -10 14 0 25 -4 25 -10 0 -5 11 -10 25 -10 14 0 25 -4 25 -10 0 -5 11 -10 24 -10 14 0 28 -5 31 -10 3 -6 17 -10 31 -10 14 0 27 -7 30 -15 4 -9 19 -15 35 -15 16 0 29 -4 29 -10 0 -5 11 -10 24 -10 14 0 28 -4 31 -10 3 -5 19 -10 36 -10 16 0 29 -4 29 -10 0 -5 13 -10 29 -10 16 0 34 -7 41 -15 7 -8 21 -15 31 -15 11 0 19 -4 19 -10 0 -5 18 -10 40 -10 22 0 40 -4 40 -10 0 -5 16 -10 35 -10 19 0 35 -4 35 -10 0 -5 14 -10 30 -10 17 0 30 -4 30 -10 0 -5 18 -10 40 -10 27 0 43 -5 46 -15 4 -9 19 -15 35 -15 16 0 29 -4 29 -10 0 -5 20 -10 45 -10 25 0 45 -4 45 -10 0 -5 18 -10 39 -10 22 0 43 -4 46 -10 3 -5 31 -10 61 -10 30 0 54 -4 54 -10 0 -5 18 -10 40 -10 27 0 43 -5 46 -15 5 -11 21 -15 60 -15 30 0 54 -4 54 -10 0 -5 20 -10 45 -10 25 0 45 -4 45 -10 0 -6 26 -10 59 -10 33 0 63 -4 66 -10 3 -5 33 -10 65 -10 32 0 62 -5 65 -10 3 -6 35 -10 70 -10 69 0 98 -7 89 -21 -3 -5 35 -9 85 -9 54 0 91 -4 91 -10 0 -6 40 -10 99 -10 71 0 101 -4 104 -12 6 -19 1648 -19 1655 0 2 8 34 12 113 12 66 0 109 4 109 10 0 6 36 10 89 10 70 0 90 3 95 15 4 11 21 15 65 15 33 0 63 5 66 10 3 6 33 10 65 10 32 0 62 5 65 10 3 6 28 10 56 10 27 0 49 5 49 10 0 6 28 10 65 10 37 0 65 4 65 10 0 6 20 10 44 10 30 0 46 5 50 15 4 11 20 15 56 15 27 0 50 5 50 10 0 6 18 10 39 10 22 0 43 5 46 10 3 6 24 10 46 10 21 0 39 5 39 10 0 6 18 10 40 10 22 0 40 5 40 10 0 6 18 10 39 10 25 0 41 5 45 15 3 10 19 15 46 15 22 0 40 5 40 10 0 6 16 10 35 10 19 0 35 5 35 10 0 6 14 10 30 10 17 0 30 5 30 10 0 6 16 10 35 10 19 0 35 5 35 10 0 6 13 10 29 10 16 0 34 7 41 15 7 8 23 15 36 15 12 0 26 5 29 10 3 6 19 10 36 10 16 0 29 5 29 10 0 6 14 10 30 10 17 0 30 5 30 10 0 6 13 10 29 10 16 0 31 6 35 15 3 8 14 15 25 15 11 0 23 5 26 10 3 6 17 10 31 10 13 0 24 5 24 10 0 6 11 10 25 10 14 0 25 5 25 10 0 6 11 10 25 10 14 0 25 5 25 10 0 6 14 10 30 10 20 0 30 5 30 15 0 9 9 15 25 15 14 0 25 5 25 10 0 6 9 10 20 10 11 0 20 5 20 10 0 6 11 10 25 10 14 0 25 5 25 10 0 6 11 10 25 10 14 0 25 5 25 10 0 6 9 10 20 10 11 0 23 7 26 15 4 8 15 15 25 15 10 0 19 5 19 10 0 6 11 10 25 10 14 0 25 5 25 10 0 6 9 10 20 10 11 0 20 5 20 10 0 6 7 10 15 10 8 0 15 4 15 10 0 5 11 12 25 16 14 3 25 10 25 15 0 5 9 9 20 9 11 0 20 5 20 10 0 6 9 10 20 10 11 0 20 5 20 10 0 6 9 10 20 10 11 0 20 5 20 10 0 6 7 10 15 10 8 0 15 5 15 10 0 6 18 18 40 27 22 10 40 21 40 25 0 5 7 8 15 8 8 0 15 5 15 10 0 6 9 10 20 10 11 0 20 5 20 10 0 6 4 10 9 10 6 0 22 11 37 25 14 13 39 30 55 37 16 7 29 16 29 20 0 5 5 8 11 8 6 0 17 6 24 12 33 30 45 38 55 38 5 0 10 5 10 10 0 6 7 10 15 10 8 0 15 5 15 10 0 6 7 10 15 10 8 0 15 5 15 10 0 6 6 10 13 10 8 0 20 11 27 25 7 14 19 25 25 25 6 0 21 9 33 20 12 11 23 20 26 20 7 0 60 49 135 123 32 31 61 57 65 57 3 0 37 31 75 70 38 38 67 70 64 70 -3 0 22 26 56 59 33 32 61 64 61 70 0 6 20 32 45 57 25 24 45 51 45 58 0 8 13 24 30 37 16 13 30 31 30 39 1 20 24 50 39 50 6 0 11 7 11 15 0 9 9 25 20 37 11 12 20 28 20 36 0 7 6 20 13 27 30 34 35 43 30 49 -3 3 2 8 11 12 9 3 16 15 16 25 0 10 5 19 10 19 6 0 10 9 10 20 0 11 5 20 10 20 6 0 10 11 10 25 0 14 5 25 10 25 6 0 10 9 10 19 0 10 7 21 15 25 9 3 15 18 15 36 0 16 5 30 10 30 6 0 10 9 10 20 0 11 5 20 10 20 6 0 10 16 10 35 0 19 4 35 8 35 5 0 15 25 22 56 8 31 20 62 27 69 7 8 13 23 13 34 0 12 5 21 10 21 6 0 10 26 10 58 0 33 5 63 13 71 9 9 12 101 12 388 0 292 -3 377 -12 381 -8 2 -13 21 -13 48 0 24 -4 44 -10 44 -5 0 -10 20 -10 45 0 33 -4 45 -15 45 -10 0 -15 11 -15 35 0 19 -4 35 -10 35 -5 0 -10 14 -10 30 0 17 -4 30 -10 30 -5 0 -10 11 -10 25 0 14 -4 25 -10 25 -5 0 -10 11 -10 25 0 14 -4 25 -10 25 -5 0 -10 11 -10 25 0 14 -7 28 -15 31 -8 4 -15 15 -15 25 0 10 -4 19 -10 19 -5 0 -10 11 -10 25 0 14 -4 25 -10 25 -5 0 -10 9 -10 20 0 11 -4 20 -10 20 -5 0 -10 9 -10 20 0 10 -8 24 -17 29 -10 6 -14 11 -10 11 5 0 2 7 -5 15 -30 33 -38 45 -38 55 0 5 -4 10 -10 10 -5 0 -10 10 -10 21 0 12 -11 32 -25 45 -14 13 -25 28 -25 34 0 5 -5 10 -11 10 -5 0 -8 4 -4 9 3 5 -6 21 -20 35 -14 14 -25 30 -25 36 0 5 -20 30 -45 54 -25 25 -45 48 -45 51 0 3 -15 21 -32 40 -63 66 -78 84 -78 92 0 5 -12 17 -27 28 -34 25 -63 54 -88 88 -11 15 -23 27 -27 27 -4 0 -32 25 -63 55 -30 30 -58 55 -61 55 -4 0 -21 16 -40 35 -18 19 -38 35 -44 35 -6 0 -8 5 -5 10 3 6 -1 10 -9 10 -9 0 -16 5 -16 10 0 6 -5 10 -11 10 -7 0 -22 11 -35 25 -13 14 -28 25 -34 25 -6 0 -8 5 -5 10 3 6 -1 10 -11 10 -9 0 -24 8 -33 19 -17 20 -63 31 -98 24z"></path></g></svg>