<svg xmlns="http://www.w3.org/2000/svg" width="1080.000000pt" height="1080.000000pt" viewBox="0 0 1080.000000 1080.000000" preserveAspectRatio="xMidYMid meet"><metadata>
Created by potrace 1.16, written by Peter Selinger 2001-2019
</metadata><g transform="translate(0.000000,1080.000000) scale(0.100000,-0.100000)" fill="#000000" stroke="none"><path d="M3930 10562 c0 -25 -7 -43 -20 -55 -11 -9 -20 -28 -20 -42 0 -16 -6 -25 -15 -25 -10 0 -15 -10 -15 -28 0 -15 -9 -35 -20 -45 -11 -9 -20 -28 -20 -42 0 -16 -6 -25 -15 -25 -10 0 -15 -10 -15 -28 0 -15 -9 -35 -20 -45 -11 -9 -20 -28 -20 -42 0 -16 -6 -25 -15 -25 -10 0 -15 -10 -15 -28 0 -15 -9 -35 -20 -45 -11 -9 -20 -28 -20 -42 0 -16 -6 -25 -15 -25 -10 0 -15 -10 -15 -28 0 -15 -9 -35 -20 -45 -14 -12 -20 -29 -20 -57 l0 -40 106 0 c95 0 105 -2 102 -17 -2 -10 -10 -17 -16 -15 -8 1 -12 -12 -12 -38 0 -28 -4 -40 -14 -40 -15 0 -26 -21 -26 -51 0 -10 -7 -19 -15 -19 -8 0 -15 -7 -15 -15 0 -8 -7 -15 -15 -15 -15 0 -19 -16 -16 -52 2 -12 -5 -18 -18 -18 -14 0 -21 -6 -21 -20 0 -11 -7 -20 -15 -20 -8 0 -17 -14 -21 -35 -3 -20 -12 -35 -20 -35 -8 0 -14 -7 -14 -15 0 -8 -7 -15 -15 -15 -8 0 -17 -14 -21 -35 -3 -20 -12 -35 -20 -35 -8 0 -14 -8 -14 -19 0 -11 -9 -21 -21 -24 -14 -4 -20 -13 -18 -29 3 -29 -10 -60 -22 -52 -5 3 -9 -13 -9 -35 0 -28 -7 -48 -20 -61 -18 -18 -20 -33 -20 -141 0 -112 1 -121 20 -126 17 -5 20 -14 20 -59 0 -47 3 -54 20 -54 16 0 19 -5 13 -31 -5 -25 -2 -31 16 -36 15 -4 21 -13 21 -35 0 -22 6 -31 21 -35 13 -4 19 -12 16 -23 -3 -11 1 -17 12 -16 11 1 17 -9 19 -31 2 -25 8 -33 23 -33 12 0 19 -7 19 -20 0 -11 7 -20 15 -20 10 0 15 -10 15 -31 0 -22 5 -32 20 -36 11 -3 20 -12 20 -19 0 -8 7 -14 15 -14 10 0 15 -10 15 -34 0 -26 5 -35 21 -39 15 -4 20 -11 16 -21 -4 -10 -1 -16 7 -16 15 0 26 -30 26 -72 0 -17 5 -28 14 -28 15 0 29 -63 15 -68 -5 -2 -9 -10 -9 -18 0 -9 -4 -12 -10 -9 -6 4 -10 -11 -10 -38 0 -37 -4 -46 -21 -50 -18 -5 -20 -11 -14 -36 6 -27 4 -31 -13 -31 -15 0 -22 -9 -27 -30 -4 -16 -13 -30 -20 -30 -8 0 -11 -7 -8 -20 4 -15 0 -20 -16 -20 -14 0 -21 -6 -21 -20 0 -11 -7 -20 -15 -20 -14 0 -20 -18 -16 -48 1 -8 -7 -16 -18 -19 -12 -3 -21 -12 -21 -19 0 -8 -7 -14 -15 -14 -15 0 -20 -16 -17 -52 1 -11 -5 -18 -17 -18 -14 0 -21 -10 -25 -35 -4 -22 -13 -35 -22 -35 -8 0 -14 -6 -13 -12 4 -34 -2 -58 -16 -58 -10 0 -15 -10 -15 -34 0 -27 -5 -36 -21 -41 -18 -6 -21 -13 -16 -47 6 -42 29 -70 35 -42 2 8 17 17 33 21 16 3 29 12 29 19 0 8 9 14 20 14 13 0 20 7 20 20 0 13 7 20 19 20 10 0 21 7 25 15 3 8 17 15 30 15 18 0 24 4 20 15 -4 9 3 16 20 21 14 3 26 12 26 20 0 9 11 14 30 14 22 0 28 4 24 15 -4 9 3 16 20 21 14 3 26 12 26 20 0 9 12 14 35 14 26 0 33 3 29 15 -5 11 3 17 25 21 17 4 31 13 31 20 0 9 11 14 30 14 23 0 30 4 30 20 0 13 7 20 20 20 16 0 20 7 20 30 0 18 6 33 15 36 8 4 15 12 15 19 0 7 9 15 20 18 14 4 20 14 20 35 0 17 6 32 15 36 10 4 15 20 15 52 0 37 4 47 20 51 19 5 20 14 20 170 0 101 -4 162 -9 158 -14 -8 -31 28 -31 64 0 21 -5 31 -15 31 -10 0 -15 10 -15 31 0 22 -5 32 -20 36 -13 4 -20 14 -20 31 0 24 -40 72 -61 72 -5 0 -9 15 -9 34 0 25 -5 35 -20 39 -11 3 -20 12 -20 21 0 9 -7 16 -15 16 -9 0 -15 10 -15 26 0 14 -4 23 -8 20 -4 -2 -14 9 -21 25 -7 16 -19 29 -27 29 -9 0 -14 11 -14 35 0 24 -5 35 -15 35 -10 0 -15 10 -15 33 0 22 -3 28 -9 18 -18 -28 -31 27 -31 127 0 91 2 100 20 105 15 4 20 14 20 36 0 20 5 31 14 31 8 0 17 15 20 35 4 21 13 35 21 35 9 0 12 6 8 16 -4 10 1 17 16 21 11 3 21 12 21 19 0 8 4 14 10 14 5 0 7 7 4 15 -4 10 0 15 11 15 12 0 15 5 10 20 -5 16 -2 20 14 20 14 0 21 6 21 20 0 13 7 20 20 20 16 0 20 7 20 35 0 24 5 35 14 35 8 0 17 14 21 31 4 19 12 29 20 25 8 -3 15 8 19 35 3 21 11 39 16 39 6 0 10 18 10 40 0 34 3 40 21 40 19 0 20 5 18 68 l-3 67 107 3 107 3 0 49 c0 43 -3 50 -20 50 -16 0 -20 7 -20 35 0 24 -5 35 -15 35 -10 0 -15 11 -15 35 0 28 -4 35 -20 35 -16 0 -20 7 -20 35 0 24 -5 35 -15 35 -10 0 -15 11 -15 35 0 28 -4 35 -20 35 -16 0 -20 7 -20 35 0 24 -5 35 -15 35 -10 0 -15 11 -15 35 0 28 -4 35 -20 35 -16 0 -20 7 -20 35 0 24 -5 35 -15 35 -10 0 -15 11 -15 35 0 28 -4 35 -20 35 -17 0 -20 7 -20 45 l0 45 -50 0 -50 0 0 -38z"></path><path d="M5020 10575 c0 -14 -4 -25 -10 -25 -5 0 -6 -8 -3 -17 5 -12 2 -15 -9 -10 -12 4 -17 -4 -22 -34 -3 -21 -11 -39 -16 -39 -6 0 -10 -9 -10 -20 0 -11 -4 -20 -10 -20 -5 0 -9 -3 -9 -7 3 -20 -2 -26 -11 -13 -8 12 -10 10 -10 -10 0 -44 -12 -71 -26 -66 -11 4 -13 -1 -8 -19 4 -16 2 -25 -6 -25 -6 0 -8 -5 -5 -10 3 -6 0 -13 -8 -16 -8 -3 -18 -21 -22 -41 -4 -25 -10 -33 -21 -29 -11 4 -13 0 -8 -19 4 -15 2 -25 -5 -25 -6 0 -8 -7 -5 -15 4 -9 0 -15 -9 -15 -9 0 -17 -14 -21 -35 -4 -19 -11 -35 -15 -35 -5 0 -12 -16 -15 -35 -4 -21 -13 -35 -21 -35 -8 0 -15 -9 -15 -19 0 -10 -7 -21 -15 -25 -9 -3 -15 -18 -15 -36 l0 -30 115 0 c72 0 115 -4 115 -10 0 -6 -7 -13 -15 -16 -8 -4 -13 -10 -10 -14 9 -15 -7 -70 -21 -70 -12 0 -19 -19 -15 -43 1 -4 -6 -10 -14 -13 -8 -4 -15 -15 -15 -25 0 -12 -7 -19 -20 -19 -16 0 -20 -7 -20 -35 0 -24 -5 -35 -15 -35 -8 0 -15 -9 -15 -20 0 -13 -7 -20 -19 -20 -14 0 -21 -9 -26 -31 -5 -21 -11 -29 -21 -25 -11 4 -13 0 -8 -19 5 -20 2 -25 -14 -25 -15 0 -21 -9 -26 -36 -5 -26 -11 -34 -22 -30 -11 4 -13 0 -8 -19 5 -21 3 -25 -15 -25 -17 0 -21 -6 -21 -35 0 -23 -5 -35 -14 -35 -17 0 -26 -22 -26 -65 0 -20 -6 -35 -15 -39 -12 -4 -15 -31 -15 -157 0 -84 3 -150 6 -146 13 13 32 -20 27 -47 -5 -22 -1 -28 16 -33 16 -4 21 -13 21 -39 0 -23 5 -34 15 -34 8 0 17 -14 21 -35 3 -20 12 -35 20 -35 8 0 14 -9 14 -19 0 -10 7 -22 16 -25 8 -3 12 -10 9 -16 -3 -5 -1 -10 4 -10 6 0 11 -7 11 -15 0 -8 7 -15 15 -15 8 0 15 -9 15 -20 0 -11 7 -20 15 -20 8 0 17 -14 21 -35 3 -20 12 -35 20 -35 8 0 14 -6 14 -14 0 -7 9 -16 21 -19 11 -3 19 -11 18 -19 -4 -30 2 -48 16 -48 10 0 15 -11 15 -35 0 -28 4 -35 19 -35 15 0 19 -7 18 -36 -1 -19 4 -38 10 -42 6 -4 15 -20 18 -35 6 -20 4 -27 -8 -27 -17 0 -27 -21 -27 -55 0 -53 4 -55 119 -54 60 1 95 4 81 8 -25 7 -25 7 9 19 19 7 58 12 87 12 l54 0 0 120 c0 100 -2 120 -15 120 -11 0 -15 12 -15 51 0 42 -3 52 -20 56 -15 4 -20 14 -20 39 0 24 -5 34 -15 34 -8 0 -15 9 -15 20 0 11 -6 20 -14 20 -8 0 -17 13 -21 29 -4 18 -14 31 -27 34 -14 4 -19 11 -15 21 4 10 1 16 -8 16 -8 0 -17 14 -20 34 -5 23 -14 36 -27 39 -11 3 -17 10 -14 15 3 5 -3 12 -15 15 -11 3 -19 11 -18 19 4 30 -2 48 -16 48 -8 0 -15 9 -15 20 0 11 -7 20 -15 20 -8 0 -17 14 -21 35 -3 20 -12 35 -20 35 -10 0 -14 15 -14 55 0 44 -3 53 -15 49 -11 -5 -15 1 -15 24 0 32 15 51 23 30 3 -7 6 8 6 35 1 35 5 47 16 47 10 0 15 10 15 34 0 25 5 35 20 39 15 4 20 14 20 36 0 21 5 31 15 31 8 0 15 9 15 20 0 13 7 20 20 20 16 0 20 7 20 30 0 18 6 33 15 36 8 4 15 12 15 19 0 7 9 15 19 18 11 3 22 17 26 36 4 17 11 31 16 31 5 0 9 9 9 20 0 13 7 20 20 20 16 0 20 7 20 35 0 24 5 35 15 35 10 0 15 10 15 31 0 22 5 32 20 36 15 4 20 14 20 38 0 19 7 40 15 49 10 9 15 34 15 70 l0 56 105 0 105 0 0 50 c0 38 -4 50 -15 50 -10 0 -15 11 -15 35 0 28 -4 35 -20 35 -16 0 -20 7 -20 35 0 24 -5 35 -15 35 -10 0 -15 11 -15 35 0 28 -4 35 -20 35 -16 0 -20 7 -20 35 0 24 -5 35 -15 35 -10 0 -15 11 -15 35 0 28 -4 35 -20 35 -16 0 -20 7 -20 35 0 24 -5 35 -15 35 -10 0 -15 11 -15 35 0 28 -4 35 -20 35 -16 0 -20 7 -20 35 0 24 -5 35 -15 35 -10 0 -15 10 -15 31 0 40 -20 59 -64 59 -32 0 -36 -3 -36 -25z"></path><path d="M6100 10575 c0 -16 -6 -25 -15 -25 -10 0 -15 -11 -15 -35 0 -28 -4 -35 -20 -35 -16 0 -20 -7 -20 -35 0 -24 -5 -35 -15 -35 -10 0 -15 -11 -15 -35 0 -28 -4 -35 -20 -35 -16 0 -20 -7 -20 -35 0 -24 -5 -35 -15 -35 -10 0 -15 -11 -15 -35 0 -28 -4 -35 -20 -35 -16 0 -20 -7 -20 -35 0 -24 -5 -35 -15 -35 -10 0 -15 -10 -15 -34 0 -25 -5 -35 -20 -39 -15 -4 -20 -14 -20 -36 0 -21 -5 -31 -15 -31 -10 0 -15 -11 -15 -35 0 -28 -4 -35 -20 -35 -16 0 -20 -7 -20 -35 l0 -35 109 0 c100 0 138 -8 111 -25 -5 -3 -10 -14 -10 -25 0 -10 -7 -20 -15 -24 -9 -3 -15 -18 -15 -35 0 -20 -6 -30 -20 -34 -15 -4 -20 -14 -20 -36 0 -21 -5 -31 -15 -31 -8 0 -15 -7 -15 -16 0 -9 -10 -25 -21 -35 -13 -11 -19 -25 -15 -35 4 -11 0 -18 -14 -21 -11 -3 -20 -11 -20 -18 0 -7 -9 -15 -20 -18 -15 -4 -20 -14 -20 -36 0 -21 -5 -31 -15 -31 -8 0 -15 -9 -15 -20 0 -13 -7 -20 -20 -20 -16 0 -20 -7 -20 -35 0 -24 -5 -35 -15 -35 -10 0 -15 -11 -15 -35 0 -28 -4 -35 -19 -35 -15 0 -19 -10 -24 -47 -3 -26 -10 -49 -16 -51 -7 -2 -11 -55 -11 -158 0 -128 3 -156 15 -160 10 -4 15 -20 15 -52 0 -25 3 -43 6 -39 9 9 34 -19 34 -37 0 -9 4 -16 10 -16 5 0 12 -16 16 -35 4 -25 11 -35 25 -35 15 0 19 -7 19 -34 0 -26 5 -35 21 -39 12 -3 18 -10 14 -16 -3 -7 2 -11 14 -11 17 0 21 -6 21 -35 0 -24 5 -35 15 -35 14 0 19 -12 16 -32 0 -5 8 -8 19 -8 13 0 20 -7 20 -20 0 -11 4 -20 9 -20 5 0 12 -13 16 -30 5 -21 13 -30 26 -30 15 0 19 -7 19 -35 0 -24 5 -35 15 -35 13 0 15 -22 15 -140 l0 -140 74 0 c49 0 77 -4 85 -13 6 -8 8 -17 4 -20 -3 -4 28 -7 70 -7 l76 0 7 34 c3 19 12 37 20 40 11 4 14 33 14 135 0 118 -2 131 -19 141 -16 8 -18 17 -14 50 5 34 3 39 -10 34 -13 -5 -18 3 -23 35 -4 22 -10 38 -15 35 -5 -3 -9 2 -9 10 0 9 -4 16 -10 16 -5 0 -10 7 -10 15 0 8 -7 15 -15 15 -10 0 -15 11 -15 35 0 28 -4 35 -20 35 -13 0 -20 7 -20 20 0 11 -7 20 -15 20 -10 0 -15 10 -15 31 0 22 -5 32 -20 36 -11 3 -20 12 -20 19 0 8 -7 14 -15 14 -10 0 -15 11 -15 35 0 28 -4 35 -20 35 -13 0 -20 7 -20 20 0 11 -7 20 -15 20 -10 0 -15 11 -15 35 0 29 -4 35 -21 35 -17 0 -20 4 -15 24 4 16 0 30 -10 41 -23 23 -32 105 -11 105 17 0 29 24 21 43 -7 19 14 69 26 62 5 -3 10 2 10 12 0 10 9 24 20 31 15 9 19 19 14 37 -5 21 -3 25 15 25 14 0 21 6 21 20 0 11 7 20 16 20 8 0 13 4 9 9 -3 5 -1 12 4 15 5 3 7 15 4 26 -4 15 0 20 16 20 12 0 21 6 21 15 0 8 7 15 15 15 13 0 21 26 16 53 -1 5 8 11 19 14 11 3 20 14 20 24 0 11 6 19 14 19 18 0 26 22 19 49 -4 16 -1 21 16 21 17 0 21 6 21 35 0 23 5 35 14 35 17 0 26 22 26 66 0 22 6 37 16 41 11 4 15 17 12 52 l-2 46 107 3 107 3 0 48 c0 41 -3 50 -21 54 -16 4 -19 11 -14 26 5 16 3 20 -9 15 -12 -5 -17 4 -22 35 -4 22 -10 38 -15 35 -13 -7 -30 42 -22 63 4 10 3 14 -5 9 -13 -8 -32 24 -32 54 0 12 -5 18 -10 15 -13 -8 -31 40 -24 60 5 11 2 13 -10 9 -12 -5 -17 3 -22 35 -4 22 -10 38 -15 35 -12 -7 -30 42 -23 61 5 11 2 13 -10 9 -12 -5 -17 3 -22 35 -4 22 -10 38 -15 35 -10 -6 -32 44 -24 56 8 13 -6 40 -21 40 -8 0 -14 5 -14 10 0 6 -16 10 -35 10 -31 0 -35 -3 -35 -25z"></path><path d="M7190 10575 c0 -18 -5 -25 -20 -25 -16 0 -20 -7 -20 -35 0 -24 -5 -35 -15 -35 -10 0 -15 -11 -15 -35 0 -28 -4 -35 -20 -35 -16 0 -20 -7 -20 -35 0 -24 -5 -35 -15 -35 -10 0 -15 -11 -15 -35 0 -28 -4 -35 -20 -35 -16 0 -20 -7 -20 -35 0 -24 -5 -35 -15 -35 -10 0 -15 -11 -15 -35 0 -28 -4 -35 -20 -35 -16 0 -20 -7 -20 -35 0 -24 -5 -35 -15 -35 -10 0 -15 -11 -15 -35 0 -28 -4 -35 -20 -35 -16 0 -20 -7 -20 -35 0 -24 -5 -35 -15 -35 -10 0 -15 -11 -15 -35 l0 -35 103 0 c57 0 106 -2 109 -5 12 -12 -5 -64 -23 -68 -14 -4 -19 -14 -19 -36 0 -21 -5 -31 -15 -31 -10 0 -15 -11 -15 -35 0 -24 -5 -35 -15 -35 -8 0 -15 -7 -15 -16 0 -9 -9 -18 -20 -21 -11 -3 -21 -13 -21 -22 -1 -9 -2 -23 -3 -31 0 -8 -9 -14 -18 -14 -10 1 -14 -4 -11 -13 3 -9 -2 -16 -15 -20 -13 -3 -22 -16 -27 -40 -5 -26 -10 -33 -22 -29 -12 5 -14 1 -10 -15 4 -15 0 -23 -14 -26 -13 -4 -19 -14 -19 -35 0 -21 -6 -31 -20 -35 -14 -4 -20 -14 -20 -34 0 -17 -6 -32 -15 -35 -9 -4 -15 -19 -15 -40 0 -27 -4 -34 -20 -34 -19 0 -20 -7 -20 -175 0 -142 3 -175 14 -175 15 0 26 -30 26 -72 0 -18 5 -28 15 -28 10 0 15 -11 15 -35 0 -28 4 -35 20 -35 13 0 20 -7 20 -20 0 -11 7 -20 15 -20 8 0 15 -9 15 -19 0 -30 11 -51 26 -51 8 0 14 -6 14 -14 0 -8 6 -16 14 -19 7 -3 16 -19 19 -36 4 -18 13 -31 22 -31 8 0 15 -9 15 -20 0 -11 7 -20 15 -20 10 0 15 -10 15 -31 0 -22 5 -32 20 -36 11 -3 20 -14 20 -24 0 -11 6 -18 13 -17 7 2 13 -11 15 -34 2 -25 7 -35 16 -32 17 7 26 -38 26 -131 0 -64 -2 -73 -20 -78 -14 -4 -20 -14 -20 -35 0 -17 -6 -32 -15 -36 -9 -3 -15 -18 -15 -36 0 -20 -5 -30 -15 -30 -8 0 -15 -6 -15 -13 0 -7 -9 -23 -20 -35 -11 -12 -20 -30 -20 -42 0 -11 -7 -20 -15 -20 -8 0 -15 -7 -15 -15 0 -8 -9 -15 -20 -15 -18 0 -20 -7 -20 -55 0 -52 1 -55 25 -55 14 0 28 -6 31 -14 3 -8 19 -16 36 -20 21 -4 29 -10 24 -21 -4 -11 2 -15 24 -15 16 0 33 -6 37 -12 4 -7 17 -18 28 -25 11 -6 19 -16 17 -22 -1 -6 9 -11 22 -11 17 0 23 5 22 17 0 12 7 19 22 21 18 3 22 10 22 38 0 24 5 34 15 34 8 0 15 7 15 15 0 8 9 15 20 15 16 0 20 7 20 35 0 23 5 35 14 35 7 0 16 9 19 20 3 11 12 20 21 20 12 0 16 10 16 35 0 29 4 35 21 35 19 0 21 4 15 31 -5 25 -2 32 14 36 16 4 20 14 20 53 0 34 5 52 20 65 17 16 20 31 20 119 0 90 -2 103 -20 114 -15 9 -20 23 -20 57 0 33 -4 45 -15 45 -11 0 -15 11 -15 39 0 31 -4 38 -17 37 -13 -1 -19 8 -21 32 -3 24 -8 32 -23 32 -18 0 -20 4 -14 31 6 25 4 31 -14 36 -12 3 -21 13 -21 24 0 13 -7 19 -21 19 -18 0 -20 4 -15 25 5 19 2 25 -9 25 -9 0 -13 5 -10 10 3 6 1 10 -4 10 -6 0 -11 7 -11 15 0 9 -9 15 -21 15 -16 0 -20 5 -16 20 3 13 0 20 -8 20 -8 0 -17 15 -21 35 -5 26 -11 35 -26 35 -16 0 -19 5 -15 21 7 27 -1 49 -19 49 -9 0 -14 12 -14 35 0 24 -5 35 -15 35 -10 0 -15 10 -15 34 0 19 -3 41 -6 49 -3 10 2 18 15 22 18 5 21 15 21 56 0 36 4 49 14 49 8 0 17 14 21 30 4 17 13 30 21 30 8 0 14 9 14 20 0 11 7 20 15 20 8 0 17 14 21 35 3 20 12 35 20 35 8 0 14 9 14 20 0 11 7 20 15 20 8 0 15 6 15 14 0 8 9 18 20 21 14 4 20 15 20 36 0 18 5 29 14 29 12 0 24 22 30 55 1 6 7 9 14 8 7 -2 12 8 12 21 0 16 7 26 21 29 17 5 21 11 16 33 -3 20 0 28 14 31 15 4 19 15 19 49 0 23 5 55 11 71 8 22 12 25 20 13 8 -11 9 -1 5 33 l-6 47 110 0 110 0 0 40 c0 30 -3 38 -14 34 -11 -4 -17 5 -22 30 -3 20 -12 36 -19 36 -7 0 -16 16 -19 35 -4 21 -13 35 -21 35 -10 0 -15 11 -15 35 0 23 -5 35 -14 35 -8 0 -17 15 -20 35 -4 21 -13 35 -21 35 -10 0 -15 11 -15 35 0 24 -5 35 -15 35 -14 0 -20 22 -17 61 1 12 -4 15 -18 12 -17 -5 -20 0 -20 31 0 25 -4 36 -15 36 -8 0 -15 9 -15 19 0 30 -11 51 -26 51 -9 0 -14 12 -14 34 0 21 -6 36 -15 40 -8 3 -15 15 -15 26 0 16 -6 20 -35 20 -31 0 -35 -3 -35 -25z"></path><path d="M4943 7698 c1 -10 -24 -14 -93 -18 -76 -4 -95 -8 -95 -20 0 -11 -15 -16 -62 -18 -47 -2 -63 -7 -63 -17 0 -11 -13 -15 -54 -15 -45 0 -54 -3 -52 -17 1 -14 -8 -19 -39 -21 -22 -2 -44 -10 -48 -18 -5 -8 -23 -14 -42 -14 -28 0 -35 -4 -35 -20 0 -16 -7 -20 -35 -20 -23 0 -34 -4 -33 -12 2 -8 -9 -14 -24 -16 -20 -2 -28 -9 -28 -23 0 -14 -7 -19 -25 -19 -16 0 -25 -6 -25 -15 0 -8 -9 -15 -20 -15 -12 0 -20 -7 -20 -16 0 -9 -9 -18 -20 -21 -11 -3 -20 -12 -20 -19 0 -8 -9 -14 -20 -14 -13 0 -18 -5 -13 -16 4 -10 -1 -17 -16 -21 -11 -3 -21 -11 -21 -18 0 -7 -9 -15 -20 -18 -14 -4 -20 -14 -20 -35 0 -22 -6 -31 -21 -35 -18 -5 -21 -11 -16 -35 5 -24 2 -31 -13 -35 -18 -5 -20 -15 -22 -94 -2 -48 -1 -146 1 -218 2 -107 6 -132 19 -143 10 -7 16 -22 14 -34 -6 -32 7 -68 23 -68 11 0 15 -11 15 -41 0 -22 4 -38 9 -34 15 9 23 -13 23 -57 -1 -32 3 -41 19 -45 14 -4 19 -14 19 -39 0 -28 4 -34 21 -34 18 0 20 -4 14 -31 -6 -25 -4 -31 14 -36 16 -4 21 -13 21 -39 0 -27 4 -34 20 -34 11 0 20 -6 20 -14 0 -8 7 -16 15 -20 9 -3 15 -18 15 -36 0 -20 -5 -30 -15 -30 -8 0 -15 -9 -15 -20 0 -12 -7 -20 -18 -20 -10 0 -23 -14 -32 -32 l-14 -33 -9 33 c-7 21 -16 32 -29 32 -10 0 -22 8 -25 18 -4 9 -13 21 -20 25 -7 5 -11 12 -8 18 4 5 1 9 -6 9 -14 0 -59 46 -59 61 0 5 -7 9 -16 9 -9 0 -18 9 -21 20 -3 11 -12 20 -19 20 -8 0 -14 6 -14 14 0 7 -9 16 -19 19 -14 3 -18 11 -14 26 4 15 1 21 -8 19 -8 -2 -13 3 -11 10 1 6 -2 12 -7 12 -5 0 -11 9 -14 20 -3 11 -12 20 -21 20 -9 0 -16 7 -16 15 0 8 -7 15 -15 15 -8 0 -15 9 -15 20 0 11 -6 20 -14 20 -8 0 -17 15 -20 35 -4 21 -13 35 -21 35 -8 0 -15 7 -15 15 0 8 -7 15 -15 15 -10 0 -15 11 -15 35 0 28 -4 35 -20 35 -13 0 -20 7 -20 20 0 11 -7 20 -15 20 -10 0 -15 10 -15 31 0 22 -5 32 -20 36 -11 3 -20 12 -20 19 0 8 -9 14 -20 14 -13 0 -20 7 -20 20 0 18 -7 20 -80 20 -73 0 -80 -2 -80 -20 0 -13 -7 -20 -20 -20 -11 0 -20 -7 -20 -15 0 -8 -7 -15 -15 -15 -8 0 -15 -9 -15 -20 0 -13 -7 -20 -20 -20 -11 0 -20 -4 -20 -10 0 -5 -9 -19 -21 -31 -12 -12 -18 -27 -14 -38 4 -13 -1 -20 -15 -24 -11 -3 -20 -12 -20 -21 0 -9 -6 -16 -14 -16 -17 0 -31 -34 -21 -51 4 -6 -2 -13 -14 -16 -12 -3 -21 -11 -21 -19 0 -7 -9 -19 -21 -28 -14 -10 -19 -20 -15 -34 5 -14 1 -21 -14 -25 -14 -4 -20 -13 -20 -35 0 -22 -6 -32 -21 -37 -17 -6 -20 -13 -15 -35 4 -23 1 -30 -14 -35 -13 -4 -20 -15 -20 -33 0 -45 -11 -74 -26 -68 -10 4 -14 -4 -14 -27 0 -44 -10 -78 -21 -71 -5 3 -9 -29 -9 -70 0 -84 -15 -140 -30 -116 -7 10 -10 -14 -10 -70 0 -51 4 -80 9 -71 14 22 23 -4 28 -89 5 -63 9 -79 23 -83 13 -3 16 -12 12 -36 -4 -26 -1 -31 17 -31 14 0 21 -6 21 -19 0 -10 6 -21 14 -24 8 -3 17 -19 21 -36 4 -17 13 -31 21 -31 8 0 17 -7 20 -15 3 -8 15 -17 26 -21 11 -3 17 -12 14 -20 -4 -9 2 -14 15 -14 11 0 22 -6 25 -14 3 -8 19 -19 36 -25 16 -6 27 -15 23 -21 -3 -6 4 -10 17 -10 13 0 31 -9 41 -20 9 -11 28 -20 42 -20 15 0 25 -6 25 -14 0 -10 13 -16 38 -18 23 -2 36 -8 35 -15 -3 -12 16 -19 67 -25 14 -2 24 -9 22 -16 -1 -8 11 -12 36 -12 25 0 43 -7 55 -20 12 -14 29 -20 57 -20 29 0 40 -4 40 -15 0 -11 13 -15 54 -15 59 0 89 -7 81 -20 -3 -5 7 -11 22 -14 27 -6 28 -8 27 -74 l-1 -67 -194 0 c-107 1 -203 5 -214 9 l-20 8 20 8 c12 5 -23 9 -92 9 -114 1 -147 6 -137 22 3 5 -26 9 -65 9 -74 0 -126 13 -116 30 4 6 -30 10 -94 10 -80 0 -101 -3 -101 -14 0 -8 -11 -17 -25 -20 l-25 -6 0 -163 c0 -210 9 -327 25 -327 16 0 25 -32 25 -86 0 -28 5 -44 15 -48 10 -4 15 -20 15 -52 0 -37 4 -47 20 -51 15 -4 20 -14 20 -39 0 -24 5 -34 15 -34 11 0 15 -11 15 -39 0 -31 4 -38 18 -37 12 1 18 -8 20 -30 2 -21 10 -34 21 -37 14 -3 17 -11 14 -31 -5 -22 -1 -28 16 -33 12 -3 21 -13 21 -24 0 -12 7 -19 20 -19 11 0 20 -7 20 -15 0 -8 7 -15 15 -15 8 0 15 -9 15 -20 0 -11 7 -20 15 -20 8 0 15 -7 15 -15 0 -8 9 -15 20 -15 13 0 20 -7 20 -19 0 -13 8 -21 23 -23 12 -2 21 -8 20 -15 -1 -6 12 -13 28 -17 22 -4 29 -10 26 -20 -5 -11 4 -16 36 -18 27 -2 41 -7 40 -15 -2 -9 14 -13 58 -13 67 0 112 -16 88 -31 -9 -5 17 -8 66 -8 44 1 72 3 63 6 -10 2 -18 8 -18 12 0 12 54 21 126 21 46 0 63 4 61 13 -1 8 15 13 49 15 42 2 53 7 57 22 4 16 14 20 46 20 30 0 41 4 41 15 0 11 11 15 39 15 30 0 40 4 44 20 4 15 14 20 41 20 23 0 35 4 33 12 -1 8 13 15 33 18 22 3 35 11 35 20 0 10 12 16 33 18 20 2 32 9 32 18 0 8 10 14 24 14 16 0 26 7 29 21 7 27 63 24 61 -3 -1 -13 5 -18 22 -18 14 0 24 -6 24 -14 0 -8 10 -16 22 -18 29 -4 35 -28 9 -35 -12 -3 -21 -12 -21 -19 0 -8 -9 -14 -20 -14 -11 0 -19 -3 -19 -7 3 -21 -2 -33 -16 -33 -8 0 -15 -7 -15 -15 0 -8 -9 -15 -20 -15 -13 0 -20 -7 -20 -20 0 -11 -6 -20 -14 -20 -8 0 -16 -7 -20 -15 -3 -8 -12 -15 -21 -15 -8 0 -15 -9 -15 -20 0 -13 -7 -20 -20 -20 -11 0 -20 -7 -20 -15 0 -10 -10 -15 -30 -15 -21 0 -28 -4 -24 -14 3 -8 -3 -17 -14 -20 -11 -4 -23 -13 -26 -21 -3 -8 -12 -15 -20 -15 -7 0 -16 -9 -19 -20 -3 -12 -14 -20 -25 -20 -11 0 -22 -7 -26 -15 -3 -8 -16 -15 -30 -15 -16 0 -23 -5 -22 -17 0 -12 -7 -19 -21 -21 -13 -2 -23 -10 -23 -18 0 -9 -10 -14 -29 -14 -20 0 -30 -6 -34 -20 -3 -12 -14 -20 -26 -20 -12 0 -21 -6 -21 -15 0 -10 -10 -15 -30 -15 -16 0 -29 -3 -29 -7 4 -23 -3 -33 -22 -33 -12 0 -17 -4 -14 -11 4 -6 -2 -13 -12 -15 -11 -3 -26 -21 -33 -40 -9 -23 -16 -30 -22 -22 -4 8 -8 -6 -8 -33 0 -39 3 -48 21 -52 14 -4 20 -11 16 -20 -4 -10 2 -17 15 -20 12 -3 17 -10 13 -17 -4 -7 2 -14 15 -17 13 -3 19 -11 16 -19 -4 -10 3 -14 19 -14 16 0 25 -6 25 -15 0 -8 9 -15 20 -15 13 0 20 -7 20 -20 0 -15 7 -20 25 -20 15 0 25 -6 25 -14 0 -9 12 -16 28 -18 19 -2 27 -8 26 -20 -1 -13 5 -18 22 -18 12 0 27 -6 31 -14 4 -8 19 -16 33 -18 17 -2 25 -9 24 -21 -1 -13 6 -17 32 -17 24 0 34 -5 34 -15 0 -9 9 -15 24 -15 22 0 58 -28 40 -31 -5 -1 9 -5 31 -8 24 -4 39 -11 38 -19 -2 -8 11 -12 38 -12 32 0 42 -4 46 -20 4 -15 15 -20 57 -22 34 -2 50 -7 49 -16 -2 -8 15 -12 61 -12 36 0 77 -5 93 -11 26 -10 27 -12 8 -19 -12 -5 27 -9 100 -9 78 0 115 3 105 9 -23 15 -4 23 68 29 39 4 65 10 62 16 -3 6 13 12 35 15 27 3 40 10 40 20 0 8 10 16 23 18 12 2 22 10 22 18 0 9 11 14 30 14 18 0 29 5 27 12 -1 6 8 17 20 23 13 7 20 15 16 19 -4 4 3 9 15 12 15 4 23 17 28 40 3 19 12 34 20 34 8 0 14 9 14 20 0 13 7 20 20 20 16 0 20 7 20 35 0 24 5 35 15 35 10 0 15 10 15 31 0 22 5 32 20 36 15 4 20 14 20 39 0 24 5 34 15 34 10 0 15 11 15 35 0 28 4 35 20 35 17 0 20 7 20 50 0 38 4 50 15 50 11 0 15 12 15 51 0 41 3 52 19 56 15 4 20 16 23 71 2 37 9 67 16 70 6 2 8 10 5 18 -4 11 10 14 77 14 l83 0 -5 -148 c-5 -149 -12 -188 -29 -161 -5 8 -9 -47 -9 -132 0 -121 -3 -148 -15 -153 -12 -4 -15 -24 -15 -87 0 -72 -2 -81 -20 -86 -19 -5 -20 -14 -20 -139 l0 -134 26 -10 c14 -6 22 -14 19 -20 -4 -7 53 -10 164 -10 132 0 170 3 168 13 -1 8 23 14 83 18 47 3 81 6 76 7 -5 1 -3 9 4 17 8 10 31 15 66 15 41 0 54 4 54 15 0 11 12 15 49 15 40 0 49 3 47 18 -1 13 8 18 42 20 28 2 42 8 42 18 0 10 12 14 39 14 31 0 38 4 37 17 -1 12 7 19 24 21 14 2 29 10 33 18 4 8 21 14 37 14 22 0 28 4 24 15 -4 9 3 16 20 21 14 3 26 12 26 20 0 8 9 14 20 14 13 0 18 5 13 16 -4 10 1 17 16 21 11 3 21 12 21 19 0 8 9 14 20 14 13 0 18 5 13 16 -4 10 1 17 16 21 11 3 21 11 21 18 0 7 9 15 20 18 14 4 20 14 20 35 0 22 6 31 21 35 18 5 21 11 16 35 -5 24 -2 31 13 35 19 5 20 15 20 211 0 176 -2 206 -15 206 -11 0 -15 12 -15 51 0 42 -3 52 -20 56 -16 4 -20 14 -20 53 0 39 -4 49 -20 53 -16 4 -19 11 -14 36 6 27 4 31 -15 31 -17 0 -21 6 -21 34 0 20 -6 36 -14 39 -8 3 -17 19 -21 35 -3 17 -13 33 -21 36 -8 3 -14 18 -14 35 0 21 -6 30 -21 34 -15 4 -20 11 -16 21 8 21 -2 46 -19 46 -8 0 -14 9 -14 20 0 11 -4 20 -10 20 -19 0 -10 21 14 30 15 5 27 20 31 39 4 18 13 31 22 31 9 0 13 6 10 15 -4 8 -2 17 3 20 6 4 10 -3 10 -14 0 -12 7 -21 15 -21 8 0 15 -7 15 -15 0 -8 7 -15 16 -15 9 0 18 -9 21 -20 3 -11 12 -20 19 -20 8 0 14 -6 14 -14 0 -7 9 -16 20 -19 11 -3 20 -12 20 -21 0 -9 7 -16 15 -16 8 0 15 -7 15 -15 0 -8 7 -15 15 -15 8 0 15 -9 15 -19 0 -10 7 -22 16 -25 8 -3 12 -10 9 -16 -3 -5 -2 -10 4 -10 5 0 13 -9 16 -20 3 -11 13 -20 21 -20 8 0 14 -7 14 -15 0 -8 7 -15 15 -15 8 0 15 -9 15 -20 0 -13 7 -20 20 -20 17 0 19 -5 14 -25 -5 -21 -3 -24 12 -18 13 5 16 3 11 -10 -3 -9 -2 -17 3 -17 6 0 10 -6 10 -14 0 -7 9 -16 20 -19 11 -3 20 -12 20 -21 0 -9 7 -16 15 -16 10 0 15 -10 15 -31 0 -22 5 -32 20 -36 11 -3 20 -12 20 -19 0 -8 7 -14 15 -14 10 0 15 -10 15 -34 0 -26 5 -35 21 -39 15 -4 20 -11 16 -21 -5 -11 0 -16 13 -16 13 0 20 -7 20 -20 0 -12 7 -20 16 -20 10 0 14 -6 10 -15 -4 -11 2 -15 24 -15 20 0 30 -5 30 -15 0 -21 66 -21 74 0 3 8 17 15 31 15 18 0 25 5 25 20 0 11 7 20 15 20 8 0 15 7 15 15 0 8 9 15 19 15 14 0 18 5 14 20 -4 15 0 20 16 20 12 0 21 6 21 15 0 8 7 15 15 15 8 0 17 14 21 35 3 20 12 35 20 35 8 0 14 9 14 20 0 11 6 20 14 20 15 0 26 21 26 51 0 10 7 19 15 19 8 0 15 6 15 14 0 7 10 16 21 19 18 5 21 11 16 35 -5 24 -2 31 13 35 14 4 20 14 20 35 0 22 6 31 21 35 18 5 21 11 16 35 -5 23 -2 31 12 35 13 3 20 18 25 57 5 39 10 50 21 46 12 -4 15 4 16 34 2 57 3 60 15 68 29 18 26 462 -3 462 -8 0 -13 12 -13 34 0 25 -5 35 -20 39 -15 4 -20 14 -20 36 0 25 -4 31 -21 31 -16 0 -20 5 -16 19 3 14 1 18 -10 14 -9 -4 -16 2 -20 16 -3 11 -12 21 -19 21 -8 0 -14 9 -14 20 0 13 -5 18 -16 13 -10 -4 -17 1 -21 16 -3 12 -13 21 -24 21 -11 0 -19 6 -19 14 0 8 -12 17 -26 20 -17 5 -24 12 -20 21 3 10 -5 15 -32 17 -23 2 -36 8 -35 16 2 7 -8 12 -26 12 -29 0 -57 21 -44 33 3 4 -12 7 -35 7 -23 0 -44 6 -49 13 -4 7 -24 18 -43 23 -19 6 -34 16 -33 22 2 8 -13 12 -42 12 -31 0 -47 5 -51 15 -4 9 -19 15 -38 15 -49 0 -78 11 -72 26 4 11 -8 14 -53 14 -65 0 -94 7 -85 21 3 5 -5 9 -18 9 -22 0 -23 4 -26 77 l-2 76 137 -7 c76 -3 149 -9 163 -13 l25 -7 -25 -7 c-14 -4 48 -7 137 -8 136 -1 164 -4 178 -18 12 -11 42 -18 103 -22 62 -4 86 -10 85 -19 -2 -9 30 -12 135 -12 l137 0 12 27 c14 30 17 222 6 387 -5 84 -9 99 -25 104 -15 3 -18 14 -18 57 0 38 -4 55 -15 59 -11 4 -15 20 -15 56 0 29 -4 49 -9 45 -17 -10 -28 15 -30 69 -1 24 -6 35 -20 39 -14 3 -17 11 -14 31 5 22 1 28 -16 33 -16 4 -21 13 -21 38 0 24 -5 34 -20 38 -11 3 -20 12 -20 21 0 9 -7 16 -15 16 -10 0 -15 10 -15 29 0 21 -6 32 -20 36 -11 3 -20 13 -20 21 0 8 -7 14 -15 14 -8 0 -15 7 -15 16 0 9 -9 18 -20 21 -11 3 -20 11 -20 18 0 7 -9 15 -20 18 -11 3 -20 12 -20 21 0 10 -9 16 -25 16 -16 0 -25 6 -25 15 0 9 -10 15 -26 15 -17 0 -28 6 -31 19 -4 15 -15 21 -47 23 -26 2 -40 7 -38 16 1 9 -42 12 -193 12 -151 0 -194 -3 -193 -12 2 -9 -14 -14 -48 -16 -42 -2 -53 -7 -57 -22 -4 -16 -14 -20 -51 -20 -31 0 -45 -4 -44 -12 2 -9 -12 -14 -39 -16 -35 -3 -43 -7 -43 -23 0 -16 -7 -19 -40 -19 -26 0 -39 -4 -38 -12 2 -8 -12 -15 -32 -18 -22 -3 -35 -11 -35 -20 0 -10 -12 -16 -32 -18 -21 -2 -33 -9 -33 -18 0 -9 -10 -14 -29 -14 -20 0 -30 -6 -34 -20 -3 -13 -14 -20 -31 -20 -19 0 -24 -4 -19 -16 4 -12 2 -15 -8 -12 -8 3 -13 11 -11 17 1 6 -7 11 -19 11 -12 0 -23 8 -26 20 -3 11 -14 20 -24 20 -11 0 -19 7 -19 15 0 8 -7 15 -15 15 -12 0 -11 4 5 20 11 11 24 20 29 20 5 0 11 7 15 15 3 8 12 15 21 15 8 0 15 9 15 20 0 11 6 20 14 20 8 0 16 7 20 15 3 8 12 15 21 15 8 0 15 9 15 20 0 13 7 20 20 20 11 0 20 7 20 15 0 8 9 15 20 15 11 0 20 7 20 15 0 8 7 15 15 15 8 0 23 9 32 20 10 11 23 20 30 20 7 0 13 7 13 16 0 9 9 18 20 21 11 3 20 12 20 19 0 8 10 14 26 14 15 0 23 4 19 11 -4 5 7 15 24 22 17 6 31 17 31 24 0 7 8 13 19 13 10 0 21 9 24 20 3 13 14 20 30 20 14 0 27 7 31 15 3 8 14 15 25 15 12 0 18 6 17 18 -1 12 8 18 32 20 20 2 32 9 32 18 0 8 8 14 19 14 10 0 21 9 24 20 3 11 12 20 21 20 9 0 16 7 16 15 0 8 9 15 20 15 18 0 20 7 20 86 0 77 -2 86 -20 91 -11 3 -20 12 -20 19 0 8 -9 14 -20 14 -13 0 -20 7 -20 20 0 13 -7 20 -20 20 -11 0 -20 7 -20 15 0 9 -9 15 -21 15 -12 0 -23 8 -26 20 -3 13 -14 20 -29 20 -15 0 -24 6 -24 15 0 9 -9 15 -21 15 -12 0 -23 8 -26 20 -4 14 -14 20 -34 20 -19 0 -29 5 -29 14 0 9 -12 16 -27 18 -17 2 -28 9 -28 18 0 9 -12 17 -30 20 -16 3 -29 11 -27 18 1 7 -9 12 -25 12 -35 0 -58 14 -49 29 5 7 -6 11 -33 11 -30 0 -41 4 -41 15 0 11 -11 15 -37 15 -43 0 -69 13 -59 28 4 7 -13 12 -49 14 -30 2 -55 8 -55 13 0 13 -180 22 -322 16 -82 -3 -108 -7 -108 -17 0 -10 -14 -14 -45 -14 -35 0 -43 -3 -39 -15 5 -11 -3 -17 -25 -21 -17 -4 -31 -13 -31 -20 0 -8 -10 -14 -24 -14 -15 0 -26 -7 -29 -20 -3 -11 -12 -20 -21 -20 -9 0 -16 -7 -16 -15 0 -8 -6 -15 -14 -15 -7 0 -16 -9 -19 -21 -3 -12 -10 -18 -16 -14 -7 3 -11 -2 -11 -14 0 -12 -7 -21 -15 -21 -8 0 -15 -9 -15 -20 0 -13 -7 -20 -20 -20 -16 0 -20 -7 -20 -35 0 -24 -5 -35 -15 -35 -10 0 -15 -11 -15 -35 0 -28 -4 -35 -20 -35 -16 0 -20 -7 -20 -35 0 -24 -5 -35 -15 -35 -10 0 -15 -11 -15 -35 0 -28 -4 -35 -20 -35 -17 0 -20 -7 -20 -49 0 -34 -4 -51 -15 -55 -10 -4 -15 -20 -15 -52 0 -37 -4 -47 -20 -51 -16 -4 -20 -14 -20 -52 0 -56 -9 -93 -21 -85 -5 3 -9 -4 -9 -15 0 -19 -6 -21 -54 -21 -45 0 -54 -3 -59 -20 -3 -11 -13 -20 -22 -20 -16 0 -17 16 -13 183 3 176 12 234 29 191 4 -10 8 40 8 111 1 135 7 179 22 169 5 -3 9 29 9 71 0 52 4 81 14 90 7 8 16 11 20 8 3 -4 6 46 6 110 0 97 -3 117 -15 117 -8 0 -15 9 -15 20 0 15 -7 20 -25 20 -16 0 -25 6 -25 15 0 13 -20 15 -120 15 -91 0 -119 -3 -117 -12z m694 -1429 c22 -8 24 -12 13 -19 -10 -7 7 -10 53 -10 51 0 69 -4 73 -15 4 -9 20 -15 43 -15 42 0 67 -13 57 -29 -5 -7 5 -11 29 -11 22 0 38 -6 41 -15 4 -8 16 -15 29 -15 24 0 49 -22 38 -33 -3 -4 8 -7 26 -7 18 0 34 -6 37 -15 3 -8 14 -17 25 -20 10 -4 19 -13 19 -21 0 -8 10 -14 25 -14 16 0 25 -6 25 -15 0 -8 9 -15 20 -15 13 0 20 -7 20 -20 0 -13 7 -20 20 -20 11 0 20 -7 20 -15 0 -8 7 -15 15 -15 8 0 15 -9 15 -20 0 -11 7 -20 15 -20 9 0 18 -7 21 -15 4 -8 12 -15 20 -15 8 0 14 -9 14 -20 0 -11 6 -20 14 -20 8 0 17 -15 20 -35 4 -21 13 -35 21 -35 8 0 15 -7 15 -15 0 -8 7 -15 15 -15 8 0 15 -9 15 -19 0 -30 11 -51 26 -51 9 0 14 -12 14 -35 0 -24 5 -35 15 -35 10 0 15 -11 15 -35 0 -24 5 -35 15 -35 8 0 16 -4 16 -10 1 -5 3 -14 4 -20 1 -5 3 -24 4 -41 0 -16 5 -28 10 -25 13 8 21 -30 21 -101 0 -49 3 -61 14 -57 21 8 26 -28 26 -223 0 -179 -10 -255 -30 -223 -7 10 -10 -5 -10 -47 0 -41 -5 -67 -15 -77 -8 -8 -15 -32 -15 -55 0 -34 -3 -41 -20 -41 -16 0 -20 -7 -21 -35 -2 -54 -4 -60 -17 -57 -7 1 -12 -9 -12 -23 0 -14 -5 -25 -11 -25 -5 0 -7 -5 -3 -12 5 -8 2 -9 -9 -5 -14 5 -17 0 -17 -23 0 -19 -5 -30 -14 -30 -7 0 -18 -15 -23 -32 -5 -19 -15 -32 -23 -30 -8 2 -10 -3 -6 -14 4 -11 0 -18 -14 -21 -11 -3 -20 -14 -20 -24 0 -11 -6 -19 -14 -19 -8 0 -16 -7 -20 -15 -3 -8 -12 -15 -21 -15 -8 0 -14 -3 -14 -7 3 -21 -2 -33 -16 -33 -8 0 -15 -7 -15 -15 0 -8 -9 -15 -20 -15 -13 0 -18 -5 -13 -16 4 -10 -1 -17 -16 -21 -11 -3 -21 -12 -21 -19 0 -8 -8 -14 -19 -14 -10 0 -21 -9 -24 -20 -3 -12 -14 -20 -25 -20 -11 0 -22 -7 -26 -15 -3 -8 -16 -15 -30 -15 -16 0 -23 -5 -22 -17 1 -13 -8 -19 -32 -23 -18 -3 -33 -9 -32 -15 0 -5 -15 -11 -34 -13 -24 -2 -35 -9 -39 -23 -4 -15 -14 -19 -46 -19 -27 0 -40 -4 -39 -12 2 -9 -18 -15 -62 -19 -36 -3 -58 -6 -50 -8 12 -1 11 -5 -4 -16 -14 -11 -46 -15 -107 -15 -61 0 -89 -4 -91 -12 -3 -9 -35 -14 -100 -16 -76 -3 -98 -1 -111 12 -12 12 -36 16 -97 16 -80 0 -126 12 -115 31 4 5 -17 9 -50 9 -40 0 -57 4 -61 15 -4 9 -19 15 -38 15 -37 0 -61 14 -52 29 5 7 -6 11 -33 11 -28 0 -41 4 -41 14 0 7 -13 16 -30 20 -18 3 -30 12 -30 21 0 9 -9 15 -25 15 -15 0 -25 6 -25 14 0 8 -11 17 -25 20 -14 4 -25 13 -25 21 0 9 -10 15 -25 15 -15 0 -25 6 -25 14 0 7 -9 16 -20 19 -11 3 -20 12 -20 21 0 9 -7 16 -15 16 -8 0 -15 6 -15 14 0 7 -9 16 -20 19 -11 3 -20 12 -20 21 0 9 -7 16 -15 16 -8 0 -15 6 -15 14 0 7 -10 16 -21 19 -15 4 -20 11 -16 21 4 10 1 16 -8 16 -8 0 -17 14 -21 35 -3 19 -11 35 -16 35 -21 0 -58 46 -58 73 0 17 -5 27 -15 27 -10 0 -15 11 -15 35 0 28 -4 35 -20 35 -17 0 -20 7 -20 39 0 22 -5 41 -11 43 -6 2 -14 27 -17 56 -2 28 -8 49 -13 47 -16 -11 -29 35 -29 105 0 39 -4 69 -9 66 -14 -9 -21 49 -21 178 0 130 7 177 21 154 5 -8 9 23 9 75 0 80 2 87 20 87 17 0 20 7 20 50 0 38 4 50 15 50 10 0 15 11 16 35 1 19 3 40 4 45 1 6 3 15 4 21 0 6 8 9 16 5 12 -4 15 3 15 30 0 22 6 37 15 40 8 4 15 12 15 19 0 7 10 15 21 18 17 5 21 11 16 33 -3 20 0 28 14 31 11 3 19 14 19 24 0 11 6 19 14 19 13 0 31 27 27 43 0 4 6 10 14 13 8 4 15 15 15 25 0 12 7 19 20 19 11 0 19 3 19 8 -3 20 2 32 16 32 8 0 15 7 15 15 0 8 8 15 19 15 10 0 21 9 24 20 3 12 14 20 25 20 11 0 22 7 26 15 3 8 14 15 25 15 12 0 18 6 17 17 0 12 7 19 22 21 12 2 22 10 22 18 0 9 10 14 29 14 20 0 30 6 34 20 3 13 14 20 30 20 14 0 27 7 31 15 3 10 19 15 42 15 21 0 34 3 31 7 -14 13 17 33 53 33 24 0 40 5 44 15 4 11 22 15 70 15 52 0 64 3 60 14 -3 8 2 16 13 19 38 10 472 7 500 -4z"></path><path d="M5262 5861 c-74 -5 -95 -10 -103 -23 -7 -13 -22 -18 -54 -18 -33 0 -45 -4 -45 -15 0 -8 -9 -15 -19 -15 -30 0 -51 -11 -51 -26 0 -9 -11 -14 -30 -14 -19 0 -30 -5 -30 -14 0 -8 -11 -17 -25 -20 -14 -4 -25 -13 -25 -21 0 -8 -7 -15 -15 -15 -8 0 -15 -7 -15 -15 0 -8 -7 -15 -16 -15 -9 0 -18 -9 -21 -20 -3 -11 -14 -20 -25 -20 -10 0 -17 -4 -13 -9 3 -6 -4 -15 -15 -21 -11 -6 -20 -17 -20 -25 0 -8 -9 -15 -20 -15 -16 0 -20 -7 -20 -35 0 -21 -5 -35 -13 -35 -6 0 -18 -14 -26 -31 -10 -23 -16 -28 -22 -18 -6 9 -9 -3 -9 -33 0 -34 -5 -50 -17 -57 -10 -5 -18 -22 -19 -38 -3 -71 -4 -75 -19 -69 -13 5 -15 -20 -15 -186 0 -105 3 -188 7 -185 14 14 31 -29 26 -66 -4 -33 -2 -39 16 -44 16 -4 21 -13 21 -38 0 -25 5 -35 21 -40 15 -5 19 -13 16 -27 -4 -12 2 -26 14 -36 10 -9 19 -22 19 -29 0 -7 9 -13 20 -13 13 0 20 -7 20 -20 0 -11 7 -20 15 -20 8 0 15 -9 15 -20 0 -11 7 -20 15 -20 8 0 15 -7 15 -15 0 -8 7 -15 15 -15 8 0 15 -6 15 -14 0 -8 10 -16 23 -18 15 -2 21 -9 19 -20 -2 -13 4 -18 23 -18 16 0 25 -6 25 -15 0 -9 9 -15 21 -15 12 0 23 -8 26 -19 3 -14 15 -21 37 -23 18 -2 30 -8 29 -15 -2 -9 11 -13 38 -13 32 0 42 -4 46 -20 4 -16 15 -20 77 -22 50 -2 70 -7 68 -15 -1 -10 29 -13 128 -13 99 0 129 3 128 13 -2 8 17 13 63 15 57 2 68 6 72 22 4 16 14 20 46 20 27 0 40 4 38 13 -1 7 11 13 29 15 22 2 34 9 37 23 3 13 14 19 31 19 15 0 25 5 23 12 -1 7 8 14 21 16 12 2 27 12 32 23 6 10 17 19 25 19 8 0 15 7 15 15 0 8 7 15 16 15 9 0 18 9 21 20 3 11 11 20 18 20 7 0 18 14 25 30 7 17 18 30 25 30 8 0 11 8 8 19 -3 12 2 20 16 24 16 4 21 13 21 36 0 19 5 31 13 31 8 0 18 17 23 38 5 20 15 36 22 35 8 -2 12 11 12 36 0 30 4 40 20 44 19 5 20 14 20 216 0 199 -1 212 -20 228 -14 12 -20 30 -20 59 0 34 -4 43 -21 47 -15 4 -20 11 -16 21 8 21 -2 46 -19 46 -9 0 -14 12 -14 34 0 25 -5 35 -20 39 -11 3 -20 12 -20 20 0 8 -9 17 -20 20 -13 3 -18 10 -14 21 4 11 1 16 -10 16 -9 0 -16 4 -16 9 0 14 -45 61 -59 61 -6 0 -11 7 -11 15 0 8 -9 15 -20 15 -11 0 -20 7 -20 15 0 8 -12 18 -26 21 -16 4 -23 12 -20 20 4 10 -3 14 -24 14 -19 0 -33 7 -40 19 -5 11 -22 21 -37 23 -16 2 -27 8 -25 16 1 8 -12 12 -41 12 -30 0 -48 6 -60 20 -13 16 -29 20 -80 20 -35 0 -91 2 -123 4 -32 2 -101 1 -152 -3z"></path><path d="M7300 2756 c0 -9 -9 -16 -20 -16 -13 0 -18 -5 -13 -16 4 -10 -1 -17 -16 -21 -11 -3 -21 -12 -21 -19 0 -8 -10 -14 -25 -14 -15 0 -25 -6 -25 -15 0 -8 -11 -17 -24 -21 -14 -3 -27 -12 -30 -20 -3 -8 -15 -14 -26 -14 -13 0 -20 -7 -20 -20 0 -14 -7 -20 -24 -20 -13 0 -26 -7 -30 -15 -3 -8 -17 -15 -30 -15 -19 0 -24 -4 -20 -15 5 -11 -3 -17 -25 -21 -17 -4 -31 -13 -31 -20 0 -9 -12 -14 -34 -14 -25 0 -35 -5 -39 -20 -3 -12 -14 -20 -26 -20 -17 0 -21 -6 -21 -35 0 -24 -5 -35 -14 -35 -8 0 -17 -14 -21 -31 -5 -20 -11 -29 -21 -25 -10 4 -14 -2 -14 -18 0 -13 -7 -26 -15 -30 -10 -4 -15 -20 -15 -52 0 -37 -4 -47 -20 -51 -19 -5 -20 -14 -20 -175 0 -161 1 -170 20 -175 15 -4 20 -14 20 -40 0 -19 7 -41 15 -49 8 -9 15 -26 15 -39 0 -17 4 -23 14 -19 11 4 17 -5 22 -30 3 -21 12 -36 20 -36 9 0 14 -11 14 -31 0 -22 5 -32 20 -36 11 -3 20 -11 20 -18 0 -7 9 -15 20 -18 17 -4 20 -10 14 -32 -5 -21 -3 -27 15 -32 11 -3 21 -13 21 -23 0 -10 9 -20 19 -23 14 -3 18 -11 14 -26 -4 -17 -2 -20 13 -14 13 5 16 3 11 -10 -3 -9 -2 -17 3 -17 6 0 10 -7 10 -15 0 -8 7 -15 15 -15 10 0 15 -11 15 -35 0 -28 4 -35 20 -35 19 0 20 -7 20 -104 0 -95 -2 -104 -20 -109 -15 -4 -20 -14 -20 -36 0 -21 -5 -31 -15 -31 -13 0 -21 -26 -16 -53 1 -5 -7 -11 -18 -14 -12 -3 -17 -11 -14 -20 4 -9 -2 -16 -15 -20 -15 -3 -24 -16 -28 -40 -5 -24 -11 -33 -21 -29 -11 4 -13 1 -8 -14 5 -16 2 -20 -14 -20 -14 0 -21 -6 -21 -20 0 -11 -5 -20 -11 -20 -5 0 -7 -5 -3 -12 5 -8 2 -9 -11 -5 -15 6 -17 3 -12 -19 3 -20 0 -28 -14 -31 -12 -3 -21 -18 -25 -39 -3 -19 -12 -34 -20 -34 -8 0 -14 -10 -14 -24 0 -14 -7 -31 -15 -40 -8 -8 -15 -28 -15 -45 0 -24 -4 -31 -20 -31 -19 0 -20 -7 -20 -95 l0 -95 161 0 c147 0 160 1 158 18 -3 23 11 53 22 46 5 -3 9 18 9 45 0 37 4 51 14 51 8 0 17 14 21 31 4 17 13 33 21 36 8 3 14 11 14 19 0 8 7 14 15 14 8 0 17 14 21 35 3 20 12 35 20 35 8 0 14 9 14 20 0 11 7 20 15 20 8 0 15 7 15 15 0 8 5 15 10 15 6 0 9 6 8 13 -2 6 3 11 10 9 7 -1 12 8 12 23 0 14 6 25 14 25 7 0 18 15 23 33 5 17 15 31 21 29 7 -1 12 9 12 22 0 16 7 26 21 29 18 5 20 11 15 32 -6 22 -3 28 14 32 16 4 20 14 20 47 0 58 10 88 26 82 11 -4 14 17 14 117 0 79 -4 117 -10 107 -7 -11 -11 -9 -19 13 -6 16 -11 44 -11 63 0 19 -4 34 -9 34 -12 0 -26 39 -22 63 1 10 -4 17 -13 17 -9 0 -18 11 -22 25 -3 14 -12 25 -19 25 -7 0 -16 16 -19 35 -4 21 -13 35 -21 35 -8 0 -15 9 -15 20 0 11 -6 20 -14 20 -8 0 -17 15 -20 35 -4 21 -13 35 -21 35 -8 0 -15 6 -15 14 0 7 -9 16 -21 19 -11 3 -19 11 -18 19 4 30 -2 48 -16 48 -8 0 -15 9 -15 20 0 11 -6 20 -14 20 -8 0 -17 15 -20 35 -4 21 -13 35 -21 35 -10 0 -15 11 -15 35 0 25 -4 35 -15 35 -13 0 -15 12 -13 68 2 47 7 66 16 64 8 -1 12 11 12 38 0 28 4 40 14 40 17 0 27 25 19 46 -4 10 1 17 16 21 11 3 21 12 21 19 0 8 6 14 14 14 18 0 26 22 19 49 -4 16 -1 21 16 21 14 0 21 6 21 20 0 11 7 20 15 20 8 0 17 14 21 35 3 20 12 35 20 35 8 0 14 7 14 15 0 8 7 15 15 15 8 0 17 14 21 35 3 20 12 35 20 35 8 0 14 9 14 19 0 11 8 27 18 37 17 18 19 22 21 62 1 12 7 22 16 22 10 0 15 10 15 33 0 22 7 36 21 45 13 8 19 21 17 35 -3 19 -10 22 -50 25 -38 2 -48 0 -48 -12z"></path><path d="M3650 2528 c0 -27 -4 -38 -15 -38 -8 0 -15 -6 -15 -14 0 -7 -9 -16 -20 -19 -15 -4 -20 -14 -20 -36 0 -21 -5 -31 -15 -31 -8 0 -15 -6 -15 -13 0 -7 -9 -23 -20 -35 -11 -12 -20 -30 -20 -42 0 -14 -7 -20 -21 -20 -19 0 -21 -4 -15 -31 5 -25 2 -32 -14 -36 -16 -4 -20 -14 -20 -53 0 -40 -4 -50 -20 -55 -19 -6 -20 -15 -20 -137 0 -121 1 -130 20 -135 17 -4 20 -14 20 -55 0 -42 3 -51 20 -55 14 -4 19 -11 15 -23 -7 -23 4 -50 21 -50 8 0 14 -9 14 -20 0 -11 6 -20 14 -20 8 0 17 -13 21 -30 4 -16 13 -30 21 -30 9 0 14 -11 14 -34 0 -25 5 -35 20 -39 11 -3 20 -12 20 -21 0 -9 7 -16 15 -16 8 0 15 -9 15 -20 0 -12 7 -20 16 -20 10 0 14 -6 10 -15 -3 -8 -1 -15 4 -15 6 0 10 -7 10 -15 0 -8 7 -15 15 -15 9 0 15 -9 15 -25 0 -14 5 -24 12 -22 6 1 16 -13 21 -30 5 -18 16 -33 23 -33 10 0 14 -15 14 -50 0 -38 4 -50 15 -50 16 0 20 -36 8 -78 -4 -18 -8 -20 -14 -10 -5 8 -9 -7 -9 -39 0 -40 -4 -53 -15 -53 -8 0 -17 -14 -21 -35 -3 -20 -12 -35 -20 -35 -8 0 -14 -7 -14 -15 0 -8 -7 -15 -15 -15 -15 0 -20 -16 -17 -52 1 -12 -5 -18 -18 -18 -13 0 -20 -7 -20 -20 0 -11 -6 -20 -14 -20 -7 0 -18 -15 -23 -32 -5 -18 -15 -32 -21 -30 -7 1 -12 -7 -12 -18 0 -11 -6 -20 -14 -20 -8 0 -17 -15 -20 -35 -4 -21 -13 -35 -21 -35 -8 0 -15 -8 -15 -19 0 -11 -9 -21 -21 -24 -17 -5 -21 -11 -16 -33 3 -20 0 -28 -14 -31 -15 -4 -19 -15 -19 -52 0 -34 -5 -51 -20 -64 -16 -14 -20 -29 -20 -82 l0 -65 161 0 c184 0 189 2 189 74 0 39 3 46 20 46 16 0 20 7 20 35 0 23 5 35 14 35 8 0 17 15 20 36 5 26 11 34 22 30 12 -5 14 -1 9 15 -5 15 -2 22 14 26 12 3 22 17 26 35 5 21 11 28 22 24 12 -5 14 -1 10 15 -4 15 0 23 14 26 10 3 19 14 19 24 0 13 7 19 21 19 18 0 21 5 17 31 -4 24 -1 33 12 36 10 3 22 18 26 35 5 16 14 29 19 28 6 0 12 16 15 37 3 23 10 37 18 35 8 -1 12 12 12 38 0 33 3 40 20 40 19 0 20 7 20 169 0 161 -1 170 -20 176 -15 5 -20 15 -20 41 0 24 -5 34 -15 34 -10 0 -15 10 -15 31 0 22 -5 32 -20 36 -15 4 -20 14 -20 38 0 24 -5 34 -20 38 -14 3 -18 10 -14 21 4 11 2 16 -6 14 -8 -2 -18 11 -23 29 -5 18 -18 34 -30 37 -12 3 -17 10 -14 19 3 9 -2 17 -14 20 -11 3 -19 9 -18 14 5 29 -3 51 -22 56 -12 3 -18 10 -15 15 3 5 -3 12 -14 15 -15 4 -20 14 -20 36 0 21 -5 31 -15 31 -10 0 -15 11 -15 35 0 28 -4 35 -20 35 -19 0 -20 7 -20 104 0 95 2 104 20 109 15 4 20 14 20 36 0 21 5 31 15 31 10 0 15 11 15 35 0 23 5 35 14 35 7 0 16 9 19 20 3 11 12 20 21 20 11 0 16 9 16 30 0 18 6 33 15 36 8 4 15 12 15 20 0 8 9 14 20 14 18 0 20 7 20 55 l0 55 -40 0 c-29 0 -40 4 -40 15 0 9 -10 15 -26 15 -17 0 -28 6 -31 20 -3 11 -14 20 -24 20 -11 0 -22 7 -25 15 -8 19 -104 22 -104 3 0 -9 -4 -8 -10 2 -7 11 -10 5 -10 -22z"></path><path d="M4524 2146 c-3 -19 -12 -37 -20 -40 -21 -8 -20 -276 1 -276 11 0 15 -12 15 -51 0 -42 3 -52 20 -56 15 -4 20 -14 20 -39 0 -28 4 -34 21 -34 17 0 20 -5 16 -21 -7 -27 1 -49 19 -49 8 0 14 -6 14 -14 0 -7 9 -16 21 -19 11 -3 19 -11 18 -19 -4 -30 2 -48 16 -48 8 0 15 -9 15 -20 0 -14 7 -20 21 -20 17 0 20 -5 16 -21 -3 -13 2 -28 14 -40 10 -10 19 -23 19 -29 0 -5 9 -10 21 -10 15 0 20 -6 19 -22 -3 -39 -1 -48 15 -48 9 0 15 -10 15 -26 0 -14 4 -23 10 -19 12 8 32 -39 24 -59 -3 -7 2 -20 10 -29 27 -26 29 -61 6 -82 -12 -11 -18 -25 -15 -35 7 -22 -12 -73 -24 -66 -5 3 -12 -10 -16 -30 -4 -26 -10 -34 -21 -30 -11 4 -13 0 -8 -18 4 -18 1 -25 -14 -28 -12 -4 -23 -18 -27 -37 -5 -22 -11 -31 -21 -27 -11 4 -13 0 -8 -19 5 -21 3 -25 -15 -25 -12 0 -21 -6 -21 -13 0 -7 -9 -18 -20 -25 -15 -9 -19 -19 -14 -37 5 -19 2 -25 -11 -25 -9 0 -19 -9 -22 -20 -3 -11 -11 -20 -18 -20 -17 0 -25 -23 -18 -49 4 -16 1 -21 -16 -21 -17 0 -21 -6 -21 -35 0 -23 -5 -35 -14 -35 -17 0 -26 -22 -26 -66 0 -22 -6 -37 -15 -40 -11 -5 -15 -24 -15 -80 l0 -74 159 0 c151 0 160 1 166 20 4 11 11 18 16 15 5 -4 9 14 9 39 0 34 4 46 15 46 10 0 15 11 15 35 0 28 4 35 20 35 16 0 20 7 20 35 0 24 5 35 15 35 8 0 15 9 15 20 0 13 7 20 20 20 16 0 20 7 20 35 0 24 5 35 15 35 8 0 15 7 15 15 0 8 9 15 20 15 16 0 20 7 20 30 0 18 6 33 15 36 8 4 15 15 15 25 0 12 7 19 20 19 16 0 20 7 20 35 0 24 5 35 15 35 10 0 15 10 15 31 0 22 6 32 19 36 14 3 20 17 24 51 3 25 10 48 16 50 15 5 15 279 0 284 -6 2 -13 25 -16 52 -4 36 -11 50 -24 53 -14 4 -19 15 -19 39 0 24 -5 34 -15 34 -10 0 -15 10 -15 31 0 22 -5 32 -20 36 -11 3 -20 12 -20 19 0 8 -7 14 -15 14 -10 0 -15 11 -15 35 0 28 -4 35 -20 35 -13 0 -20 7 -20 19 0 10 -8 21 -19 24 -15 3 -18 11 -13 33 2 16 1 26 -3 22 -9 -8 -35 15 -35 31 0 6 -7 11 -15 11 -10 0 -15 11 -15 35 0 28 -4 35 -20 35 -15 0 -20 7 -20 25 0 14 -5 25 -11 25 -5 0 -7 5 -4 10 3 6 1 10 -4 10 -6 0 -11 18 -11 40 0 31 -3 38 -15 34 -12 -5 -15 2 -15 30 0 25 4 36 15 36 12 0 15 13 15 55 0 52 -1 55 -25 55 -14 0 -28 7 -31 15 -5 11 -22 15 -68 15 -64 0 -93 10 -82 29 5 8 -10 11 -48 11 -55 0 -55 0 -62 -34z"></path><path d="M5810 2100 c28 -17 -2 -25 -116 -29 l-114 -3 0 -134 c0 -110 3 -136 15 -140 9 -4 15 -19 15 -40 0 -23 5 -34 15 -34 8 0 17 -14 21 -35 3 -20 12 -35 20 -35 9 0 14 -12 14 -35 0 -28 4 -35 20 -35 13 0 20 -7 20 -20 0 -11 7 -20 15 -20 9 0 15 -6 14 -12 -4 -34 2 -48 21 -48 13 0 20 -7 20 -20 0 -11 7 -20 15 -20 8 0 15 -9 15 -19 0 -30 11 -51 26 -51 8 0 14 -7 14 -15 0 -8 7 -15 15 -15 10 0 15 -11 15 -35 0 -28 4 -35 20 -35 16 0 20 -7 20 -35 0 -24 5 -35 15 -35 12 0 15 -18 15 -104 0 -83 -3 -105 -15 -110 -9 -3 -15 -18 -15 -35 0 -20 -6 -30 -20 -34 -15 -4 -20 -14 -20 -36 0 -21 -5 -31 -15 -31 -8 0 -15 -9 -15 -20 0 -13 -7 -20 -20 -20 -16 0 -20 -7 -20 -35 0 -24 -5 -35 -15 -35 -8 0 -15 -6 -15 -14 0 -7 -9 -16 -20 -19 -15 -4 -20 -14 -20 -36 0 -21 -5 -31 -15 -31 -8 0 -15 -9 -15 -20 0 -13 -7 -20 -20 -20 -16 0 -20 -7 -20 -35 0 -24 -5 -35 -15 -35 -10 0 -15 -10 -15 -31 0 -22 -5 -32 -20 -36 -15 -4 -20 -14 -20 -38 0 -20 -6 -35 -15 -39 -12 -4 -15 -25 -15 -96 l0 -90 155 0 c142 0 155 2 155 18 0 10 9 25 21 35 12 11 18 25 14 36 -7 24 12 74 25 66 5 -3 10 3 10 14 0 12 5 21 11 21 5 0 7 5 4 10 -3 6 1 10 10 10 11 0 14 6 9 25 -5 20 -2 25 14 25 14 0 21 9 26 30 3 17 12 30 19 30 10 0 13 8 9 25 -3 20 0 25 17 25 12 0 21 6 21 15 0 8 7 15 15 15 15 0 19 16 16 53 -2 11 5 17 18 17 14 0 21 6 21 20 0 11 6 20 14 20 18 0 26 22 19 49 -4 16 -1 21 16 21 17 0 21 6 21 35 0 24 5 35 15 35 18 0 29 41 21 74 -4 18 -1 25 14 29 19 5 20 14 20 140 0 122 -2 135 -18 139 -14 4 -17 13 -14 41 3 26 -1 40 -17 56 -12 12 -21 33 -21 47 0 18 -6 28 -21 31 -16 4 -19 11 -15 29 5 18 3 22 -8 18 -10 -4 -16 4 -21 25 -5 22 -12 31 -27 31 -17 0 -19 4 -14 25 5 19 2 25 -9 25 -9 0 -18 12 -21 30 -5 21 -12 30 -25 30 -11 0 -19 6 -19 14 0 8 -7 16 -15 20 -9 3 -15 18 -15 36 0 23 -4 30 -20 30 -13 0 -20 7 -20 20 0 11 -7 20 -15 20 -10 0 -15 11 -15 35 0 24 -5 35 -15 35 -8 0 -16 10 -16 23 -1 12 -3 29 -4 37 -1 8 -3 21 -4 28 0 6 -8 12 -16 12 -10 0 -15 11 -15 35 0 23 5 35 14 35 16 0 26 21 26 55 0 49 -8 55 -74 55 -41 0 -56 -3 -46 -10z"></path></g></svg>