<svg xmlns="http://www.w3.org/2000/svg" width="1080.000000pt" height="1080.000000pt" viewBox="0 0 1080.000000 1080.000000" preserveAspectRatio="xMidYMid meet"><metadata>
Created by potrace 1.16, written by Peter Selinger 2001-2019
</metadata><g transform="translate(0.000000,1080.000000) scale(0.100000,-0.100000)" fill="#000000" stroke="none"><path d="M4790 10571 c0 -74 -13 -126 -30 -116 -5 3 -10 -3 -10 -14 0 -28 -11 -52 -21 -45 -5 3 -9 -36 -9 -88 0 -82 -2 -95 -20 -108 -17 -12 -20 -26 -20 -95 0 -44 -5 -87 -10 -95 -9 -13 -10 -13 -11 0 -1 8 -5 -5 -10 -29 -5 -25 -13 -47 -18 -50 -5 -4 -11 -47 -12 -96 -3 -105 -11 -135 -38 -135 -10 0 -21 -7 -25 -15 -4 -11 -22 -15 -63 -16 -32 -1 -48 -4 -35 -6 44 -9 10 -23 -56 -24 -57 -1 -138 -15 -107 -18 6 -1 3 -6 -5 -11 -8 -5 -45 -10 -82 -10 -51 0 -73 -4 -87 -17 -49 -46 -65 -53 -128 -53 -45 0 -62 -4 -60 -12 1 -8 -10 -14 -25 -16 -16 -2 -28 -9 -28 -18 0 -9 -11 -14 -32 -15 -46 -1 -80 -12 -76 -24 2 -6 -22 -11 -54 -13 -32 -2 -58 -7 -58 -12 0 -5 -11 -20 -24 -34 -17 -19 -34 -26 -60 -26 -20 0 -36 -4 -36 -10 0 -15 -35 -29 -58 -23 -12 3 -22 11 -22 18 0 7 -9 15 -20 18 -11 3 -20 12 -20 21 0 9 -7 16 -15 16 -8 0 -15 7 -15 15 0 9 -9 15 -25 15 -14 0 -28 7 -31 15 -3 8 -14 17 -25 20 -10 4 -19 13 -19 21 0 8 -7 14 -15 14 -8 0 -15 7 -15 15 0 9 -9 15 -21 15 -12 0 -23 8 -26 20 -3 11 -12 20 -19 20 -8 0 -14 7 -14 15 0 8 -9 15 -20 15 -11 0 -20 6 -20 14 0 8 -9 18 -20 21 -11 3 -20 13 -20 21 0 8 -6 14 -13 14 -7 0 -20 8 -29 18 -8 9 -27 26 -41 37 -15 11 -26 26 -27 33 0 6 -9 12 -20 12 -11 0 -23 7 -26 15 -3 8 -14 17 -25 20 -10 4 -19 13 -19 21 0 8 -7 14 -15 14 -9 0 -18 7 -21 15 -4 8 -12 15 -19 15 -13 0 -51 50 -47 63 1 4 -41 7 -93 7 -53 0 -95 -4 -95 -9 0 -21 -48 -61 -74 -61 -15 0 -25 -5 -24 -12 2 -7 -9 -14 -24 -16 -19 -2 -25 -8 -21 -18 3 -9 -2 -14 -16 -14 -11 0 -25 -9 -31 -20 -7 -13 -21 -20 -40 -20 -17 0 -30 -5 -30 -10 0 -17 -51 -60 -70 -60 -10 0 -20 -7 -24 -15 -3 -8 -12 -15 -21 -15 -8 0 -15 -6 -15 -14 0 -8 -11 -17 -25 -20 -14 -4 -24 -12 -22 -19 1 -6 -10 -13 -26 -15 -15 -2 -27 -9 -27 -18 0 -8 -6 -14 -14 -14 -7 0 -16 -9 -19 -20 -3 -14 -14 -20 -31 -20 -16 0 -26 -6 -26 -15 0 -8 -6 -15 -13 -15 -7 0 -18 -9 -25 -20 -7 -11 -19 -20 -27 -20 -8 0 -14 -6 -13 -12 2 -7 -7 -14 -20 -16 -12 -2 -22 -8 -22 -13 0 -17 -52 -59 -72 -59 -47 0 -58 -17 -58 -91 0 -53 4 -71 15 -75 8 -4 18 -24 21 -45 4 -21 10 -37 14 -34 4 3 10 -10 14 -28 5 -23 9 -28 15 -18 12 19 23 -2 27 -53 2 -31 11 -51 33 -75 24 -25 31 -42 31 -72 0 -28 5 -41 20 -49 13 -7 20 -21 20 -41 0 -17 7 -37 15 -45 8 -9 15 -24 15 -35 0 -10 7 -19 15 -19 10 0 16 -16 21 -50 4 -27 10 -50 15 -50 4 0 11 -9 14 -20 3 -11 13 -20 21 -20 10 0 14 -13 14 -50 0 -43 3 -50 20 -50 18 0 20 -7 21 -57 0 -42 3 -52 9 -38 7 17 9 17 9 3 1 -10 -8 -27 -18 -37 -11 -11 -17 -22 -14 -25 3 -3 -2 -8 -11 -12 -9 -3 -16 -12 -16 -20 0 -8 -7 -14 -15 -14 -8 0 -15 -7 -15 -15 0 -9 -7 -18 -15 -21 -8 -4 -15 -13 -15 -21 0 -8 -9 -17 -20 -20 -11 -3 -20 -10 -20 -16 0 -6 -13 -22 -29 -37 -17 -14 -35 -38 -40 -53 -6 -15 -17 -27 -26 -27 -8 0 -15 -7 -15 -15 0 -8 -4 -15 -10 -15 -5 0 -10 -9 -10 -19 0 -11 -16 -36 -35 -57 -19 -20 -35 -42 -35 -49 0 -7 -9 -15 -20 -18 -15 -4 -20 -14 -20 -36 0 -21 -5 -31 -15 -31 -8 0 -15 -9 -15 -20 0 -11 -6 -20 -14 -20 -8 0 -17 -11 -20 -25 -4 -14 -15 -34 -26 -45 -11 -11 -20 -27 -20 -35 0 -8 -4 -15 -10 -15 -5 0 -10 -9 -10 -20 0 -10 -9 -24 -20 -30 -13 -7 -20 -21 -20 -40 0 -62 6 -60 -205 -60 -208 0 -255 5 -255 26 0 10 -14 14 -49 14 -67 0 -116 10 -99 21 7 5 -107 9 -259 9 -259 0 -273 -1 -283 -19 -5 -11 -10 -31 -10 -46 0 -14 -7 -28 -15 -31 -8 -3 -17 -26 -21 -51 -3 -24 -13 -47 -20 -50 -8 -3 -14 -13 -14 -23 0 -10 -7 -25 -15 -34 -8 -8 -15 -26 -15 -39 0 -50 -12 -88 -26 -83 -9 3 -14 -1 -14 -12 0 -10 -7 -27 -15 -38 -8 -10 -15 -41 -15 -67 0 -40 -4 -50 -20 -54 -17 -5 -20 -14 -20 -69 0 -58 -12 -92 -22 -62 -3 7 -8 -6 -11 -29 -5 -29 -13 -44 -27 -48 -19 -6 -20 -15 -20 -190 0 -183 0 -184 23 -187 12 -2 21 -9 20 -16 -2 -8 10 -12 31 -12 19 0 41 -6 48 -13 7 -7 21 -16 30 -20 10 -3 18 -13 18 -22 0 -10 10 -15 33 -15 25 0 39 -8 61 -35 21 -25 38 -35 58 -35 17 0 28 -5 28 -14 0 -8 15 -17 37 -21 21 -4 49 -19 65 -35 16 -18 40 -30 60 -32 20 -2 32 -8 31 -15 -2 -7 8 -15 22 -19 14 -3 25 -12 25 -20 0 -8 10 -14 25 -14 14 0 28 -6 31 -14 3 -8 21 -17 40 -21 35 -6 74 -36 74 -55 0 -5 16 -10 36 -10 27 0 37 -5 41 -19 3 -11 14 -22 25 -24 11 -3 17 -10 13 -16 -4 -7 5 -11 24 -11 29 0 31 -3 31 -34 0 -19 -5 -38 -10 -41 -6 -3 -10 -16 -10 -27 0 -12 -5 -51 -11 -87 -9 -50 -14 -61 -20 -46 -4 11 -8 -105 -8 -258 -1 -159 3 -276 8 -273 11 7 19 -23 27 -107 4 -37 11 -70 15 -73 16 -9 10 -74 -6 -74 -9 0 -12 -6 -9 -15 5 -11 -1 -15 -22 -15 -33 0 -57 -13 -52 -26 1 -5 -12 -10 -30 -12 -23 -2 -44 -14 -65 -38 -22 -23 -41 -34 -59 -34 -18 0 -28 -5 -28 -15 0 -9 -9 -15 -25 -15 -18 0 -23 -4 -19 -15 5 -11 -1 -15 -20 -15 -14 0 -34 -9 -43 -20 -11 -12 -30 -20 -50 -20 -23 0 -33 -5 -33 -15 0 -8 -6 -15 -14 -15 -7 0 -16 -9 -19 -20 -4 -15 -14 -20 -41 -20 -25 0 -36 -4 -36 -15 0 -8 -7 -15 -15 -15 -8 0 -15 -6 -15 -14 0 -9 -15 -17 -39 -21 -22 -4 -42 -13 -45 -21 -3 -8 -19 -14 -36 -14 -17 0 -29 -4 -25 -9 3 -6 -5 -15 -17 -22 -13 -7 -27 -18 -31 -25 -4 -8 -24 -14 -42 -14 -19 0 -35 -5 -35 -10 0 -6 -11 -16 -25 -22 l-25 -11 0 -151 c0 -150 0 -151 25 -170 14 -10 25 -27 25 -38 0 -11 4 -17 9 -14 12 8 21 -29 21 -87 0 -35 5 -52 20 -64 14 -13 20 -30 20 -62 0 -52 28 -118 52 -124 15 -4 18 -16 18 -65 0 -44 4 -61 15 -66 8 -3 15 -12 15 -21 0 -8 7 -15 15 -15 11 0 15 -13 15 -54 0 -45 3 -54 18 -52 14 1 18 -9 20 -53 2 -37 9 -59 20 -68 13 -9 79 -12 268 -13 215 0 253 2 258 15 4 11 24 15 83 16 51 0 71 3 58 9 -36 14 2 18 237 24 l228 5 16 -35 c9 -18 20 -34 25 -34 5 0 9 -10 9 -23 0 -34 23 -77 41 -77 11 0 19 -12 23 -35 4 -21 13 -35 21 -35 8 0 15 -6 15 -14 0 -8 7 -16 15 -20 8 -3 15 -15 15 -26 0 -11 9 -28 20 -37 11 -10 20 -23 20 -30 0 -7 4 -13 9 -13 5 0 12 -14 16 -30 4 -17 11 -30 16 -30 5 0 15 -16 23 -35 10 -22 24 -37 40 -41 14 -3 26 -12 26 -19 0 -7 12 -24 26 -38 14 -14 23 -31 19 -37 -3 -5 -2 -10 3 -10 5 0 21 -17 34 -38 24 -36 65 -82 128 -148 32 -33 38 -65 16 -83 -7 -6 -16 -30 -19 -52 -3 -22 -12 -46 -20 -52 -8 -7 -17 -30 -20 -51 -4 -22 -13 -44 -22 -48 -8 -5 -15 -16 -15 -23 0 -8 -4 -15 -9 -15 -5 0 -11 -22 -15 -49 -4 -29 -12 -51 -21 -55 -8 -3 -15 -12 -15 -20 0 -7 -7 -16 -15 -20 -10 -4 -15 -20 -15 -51 0 -38 -3 -45 -20 -45 -17 0 -20 -7 -20 -45 0 -31 -5 -47 -15 -51 -8 -4 -15 -12 -15 -20 0 -7 -9 -18 -20 -24 -15 -8 -20 -21 -20 -55 0 -25 -6 -50 -15 -59 -8 -8 -15 -19 -15 -25 0 -5 -8 -17 -17 -27 -13 -13 -18 -39 -21 -115 l-4 -99 31 0 c29 0 71 -29 71 -49 0 -5 10 -11 23 -13 12 -2 22 -7 22 -13 0 -15 41 -53 62 -57 10 -2 17 -10 15 -16 -1 -7 8 -12 21 -12 13 0 36 -15 54 -35 18 -19 38 -35 44 -35 14 0 65 -52 61 -62 -1 -5 9 -8 23 -8 15 0 25 -6 25 -14 0 -8 13 -17 29 -21 16 -3 32 -13 35 -21 3 -8 12 -14 21 -14 8 0 15 -7 15 -15 0 -9 9 -15 21 -15 20 0 89 -58 72 -62 -4 0 12 -4 37 -7 27 -4 44 -11 43 -18 -1 -6 11 -14 27 -18 17 -4 30 -11 30 -16 0 -5 12 -14 26 -19 14 -6 22 -14 19 -20 -4 -6 25 -10 79 -10 48 0 86 4 86 9 0 14 45 61 59 61 6 0 11 7 11 15 0 8 7 15 16 15 8 0 30 16 48 35 19 19 38 35 45 35 6 0 11 7 11 15 0 8 4 15 8 15 10 0 49 29 70 53 9 9 24 17 34 17 10 0 18 6 18 14 0 8 7 16 15 20 8 3 15 12 15 21 0 8 9 15 20 15 11 0 20 4 20 9 0 17 47 61 64 61 10 0 14 5 11 10 -3 6 5 14 18 19 13 5 27 17 30 25 4 9 13 16 22 16 8 0 15 7 15 15 0 8 9 15 20 15 11 0 20 6 20 14 0 7 9 16 20 19 11 3 20 12 20 21 0 9 8 16 20 16 11 0 20 7 20 16 0 12 10 14 48 12 30 -2 46 -7 45 -15 -2 -7 16 -15 42 -19 25 -3 43 -10 40 -14 -3 -4 6 -11 20 -14 14 -4 25 -13 25 -21 0 -11 13 -15 55 -15 42 0 55 -4 55 -15 0 -8 11 -17 24 -21 14 -3 27 -12 30 -20 4 -9 22 -14 55 -14 35 0 53 -5 59 -16 6 -10 29 -17 70 -21 34 -3 59 -10 56 -14 -3 -5 6 -9 20 -9 14 0 35 -9 46 -20 16 -16 33 -20 84 -20 44 0 69 -5 80 -15 8 -8 19 -15 24 -15 5 0 21 -9 34 -20 20 -16 44 -20 124 -22 73 -2 98 -6 96 -16 -1 -6 2 -12 8 -12 6 0 10 -37 10 -91 0 -52 4 -88 9 -85 5 4 13 -8 16 -26 4 -18 13 -36 19 -40 6 -4 12 -45 15 -98 2 -76 6 -92 22 -101 17 -8 19 -22 19 -104 0 -54 4 -95 10 -95 5 0 14 -18 20 -39 6 -22 16 -41 23 -44 7 -2 13 -33 15 -88 1 -46 5 -94 8 -106 l4 -23 599 0 c667 0 611 -6 611 70 0 45 16 94 29 86 5 -3 11 37 13 90 2 52 9 98 14 102 6 4 16 21 21 37 6 17 16 29 22 27 8 -1 11 30 11 103 0 85 3 107 15 111 8 4 15 14 15 24 0 10 6 25 14 32 9 10 15 47 18 115 3 77 7 104 21 117 9 10 17 26 17 37 0 18 8 19 115 19 72 0 115 4 115 10 0 6 12 16 28 23 15 6 33 17 40 24 8 8 39 13 77 13 46 0 64 4 68 14 3 8 22 18 41 22 20 3 33 10 30 15 -3 5 10 9 29 9 55 0 97 11 97 26 0 10 15 14 55 14 40 0 57 4 61 15 3 8 14 17 25 20 11 4 17 10 14 15 -7 12 21 20 72 20 26 0 43 3 40 7 -11 10 13 33 34 33 11 0 19 4 19 9 0 5 18 12 40 16 25 4 40 12 40 21 0 10 14 14 50 14 38 0 50 -4 50 -15 0 -8 4 -15 8 -15 14 0 62 -45 62 -58 0 -7 11 -12 25 -12 14 0 25 -6 25 -12 0 -16 44 -58 59 -58 6 0 11 -7 11 -15 0 -8 6 -15 13 -15 8 0 24 -9 37 -20 13 -11 27 -20 32 -20 4 0 8 -7 8 -15 0 -8 5 -15 11 -15 7 0 26 -15 43 -33 17 -18 39 -36 49 -40 10 -4 15 -11 12 -17 -3 -5 0 -10 8 -10 17 0 87 -59 72 -61 -5 0 0 -4 13 -7 13 -4 23 -10 23 -14 -1 -13 49 -58 64 -58 8 0 15 -7 15 -15 0 -8 4 -15 9 -15 12 0 61 -47 61 -60 0 -6 28 -10 71 -10 44 0 68 4 64 10 -3 6 5 14 18 19 13 5 27 17 30 25 4 9 16 16 27 16 11 0 20 7 20 15 0 11 11 15 40 15 29 0 40 4 40 15 0 14 12 20 33 16 4 -1 7 7 5 16 -2 13 5 19 25 21 15 2 27 9 27 18 0 8 4 14 8 14 5 0 19 9 32 20 13 11 31 20 42 20 10 0 18 7 18 15 0 10 10 15 30 15 19 0 30 5 30 14 0 8 7 16 15 20 8 3 15 12 15 21 0 9 9 15 25 15 14 0 25 5 25 10 0 18 51 60 72 60 11 0 16 5 13 10 -3 6 2 13 12 17 18 6 39 23 71 55 9 10 25 18 35 18 10 0 16 4 13 8 -7 12 49 62 69 62 9 0 14 4 11 9 -3 5 10 18 29 30 34 20 35 22 35 81 0 47 -3 60 -15 60 -8 0 -15 5 -15 11 0 6 -9 22 -20 36 -12 16 -20 41 -20 66 0 22 -3 37 -7 34 -9 -10 -36 31 -28 43 10 16 -24 77 -46 83 -16 4 -19 14 -19 56 0 36 -4 49 -12 46 -16 -5 -58 75 -58 109 0 13 -9 35 -20 49 -11 14 -20 37 -20 51 0 14 -4 26 -9 26 -5 0 -11 14 -14 30 -4 18 -13 30 -22 30 -11 0 -15 11 -15 40 0 28 -6 45 -20 57 -11 10 -20 23 -20 30 0 7 -7 13 -15 13 -8 0 -15 7 -15 15 0 8 6 15 13 15 16 0 57 42 57 58 0 7 7 12 15 12 8 0 15 6 15 13 0 7 13 24 30 37 16 14 29 30 30 36 0 6 18 30 40 53 22 23 40 48 40 56 0 8 7 15 15 15 8 0 15 7 15 15 0 8 7 15 15 15 8 0 15 6 15 13 0 7 9 20 20 30 11 9 20 23 20 32 0 8 9 19 20 25 11 6 20 15 20 21 0 6 7 17 15 25 8 9 15 25 15 36 0 11 8 22 19 25 18 5 51 57 51 82 0 6 7 11 15 11 8 0 15 8 15 18 1 22 19 45 48 61 17 9 22 20 22 52 0 31 4 42 18 46 18 4 47 56 47 83 0 23 87 26 109 4 14 -14 51 -17 241 -22 124 -3 225 -9 225 -14 0 -4 -6 -9 -12 -10 -7 -1 21 -4 62 -7 52 -4 74 -10 72 -18 -1 -10 40 -13 181 -13 165 0 186 2 200 18 10 10 17 26 17 35 0 9 7 17 15 17 11 0 15 12 15 50 0 28 5 50 10 50 6 0 13 1 17 3 15 5 40 67 46 113 3 28 11 51 21 56 11 6 16 23 16 56 0 35 5 52 20 65 11 9 20 24 20 32 0 8 5 15 10 15 6 0 10 28 10 63 0 49 4 68 20 85 11 12 20 28 20 36 0 21 17 29 24 11 3 -8 10 -15 16 -15 6 0 10 80 10 235 l0 235 -41 0 c-32 0 -42 4 -46 19 -3 11 -14 22 -25 24 -11 3 -17 10 -13 16 4 7 -8 11 -34 11 -28 0 -41 4 -41 14 0 8 -16 16 -40 20 -26 4 -40 11 -40 21 0 8 -7 15 -15 15 -9 0 -18 7 -21 15 -4 9 -19 15 -36 15 -21 0 -31 6 -35 20 -3 11 -12 20 -19 20 -8 0 -14 6 -14 14 0 10 -14 16 -42 18 -28 2 -42 7 -41 15 2 8 -13 15 -38 19 -28 5 -39 11 -35 20 3 9 -2 14 -15 14 -11 0 -22 7 -25 15 -4 8 -18 15 -31 15 -16 0 -38 13 -59 35 -23 25 -41 35 -63 35 -20 0 -31 5 -31 14 0 14 -28 29 -46 25 -26 -4 -29 6 -26 83 3 103 10 150 21 143 28 -17 23 610 -5 663 -16 32 -20 202 -4 202 6 0 9 6 8 13 -2 7 10 13 30 15 20 2 44 14 60 32 16 16 44 31 65 35 22 4 37 13 37 21 0 9 12 14 35 14 19 0 35 4 35 9 0 24 48 61 79 61 21 0 31 5 31 15 0 8 4 15 8 15 5 0 19 9 32 20 13 11 36 20 52 20 18 0 28 5 28 15 0 10 10 15 28 15 20 0 37 10 58 35 24 29 36 35 67 35 21 0 36 4 33 9 -9 14 56 61 86 61 18 0 28 5 28 15 0 10 10 15 30 15 l30 0 0 230 c0 127 -4 230 -8 230 -4 0 -13 -5 -19 -11 -7 -7 -12 -3 -17 16 -4 14 -11 23 -16 20 -15 -9 -30 40 -30 101 0 39 -4 56 -15 60 -8 4 -15 14 -15 24 0 10 -5 20 -10 22 -6 2 -14 30 -17 62 -5 46 -10 60 -25 64 -14 3 -18 14 -18 52 0 33 -5 50 -15 54 -8 3 -15 12 -15 21 0 8 -6 15 -14 15 -17 0 -26 31 -26 88 0 31 -4 42 -15 42 -8 0 -15 5 -15 11 0 7 -12 23 -27 37 -23 22 -37 26 -82 25 -39 0 -56 -5 -63 -17 -8 -14 -37 -16 -244 -16 -133 0 -233 -4 -230 -9 7 -11 -42 -21 -100 -21 -31 0 -44 -4 -44 -14 0 -21 -33 -26 -179 -26 l-133 0 6 24 c4 15 0 28 -9 36 -8 7 -15 18 -15 25 0 7 -9 15 -20 18 -15 4 -20 14 -20 40 0 33 -24 67 -48 67 -6 0 -14 16 -18 35 -3 19 -11 33 -17 32 -6 -1 -16 15 -21 36 -5 20 -13 37 -18 37 -4 0 -8 7 -8 15 0 8 -9 15 -20 15 -13 0 -20 7 -20 20 0 11 -9 28 -20 37 -11 10 -20 23 -20 30 0 7 -7 13 -15 13 -8 0 -15 8 -15 18 0 10 -9 28 -20 40 -11 12 -20 25 -20 31 0 5 -7 11 -15 15 -8 3 -15 12 -15 20 0 7 -9 16 -20 19 -11 3 -19 10 -18 15 2 6 -12 24 -31 41 -19 17 -31 31 -27 31 5 0 -6 12 -23 27 -17 15 -31 33 -31 40 0 7 -7 13 -15 13 -8 0 -15 6 -15 13 -1 6 -14 23 -30 37 -17 13 -30 29 -30 36 0 7 -7 14 -15 18 -8 3 -12 12 -9 21 3 8 10 12 15 9 5 -3 9 4 9 15 0 12 6 21 14 21 17 0 26 22 26 66 0 21 5 34 13 34 16 0 44 54 52 103 3 21 12 37 19 37 8 0 15 17 19 47 3 27 11 50 21 55 9 5 16 14 16 19 0 6 7 17 15 25 8 9 15 33 15 54 0 25 7 46 19 57 31 31 53 72 47 89 -7 19 11 57 25 49 5 -4 9 12 9 35 0 33 4 43 20 47 11 3 20 11 20 19 0 7 7 17 15 22 13 7 15 24 13 83 l-3 74 -32 3 c-24 2 -33 8 -33 21 0 11 -9 21 -21 24 -12 3 -18 10 -14 16 4 7 -5 11 -24 11 -21 0 -31 5 -31 15 0 8 -7 15 -15 15 -8 0 -19 9 -25 20 -6 11 -17 20 -25 20 -8 0 -15 7 -15 15 0 8 -8 15 -18 15 -9 0 -32 16 -49 35 -18 19 -39 35 -47 35 -8 0 -19 6 -23 14 -4 7 -18 18 -31 25 -12 7 -20 16 -17 22 4 5 -3 9 -15 9 -11 0 -23 7 -26 15 -4 8 -15 15 -26 15 -11 0 -22 8 -25 19 -3 11 -14 22 -25 24 -11 3 -17 10 -13 16 4 7 -7 11 -29 11 -25 0 -38 6 -46 20 -6 11 -20 20 -30 20 -11 0 -20 6 -20 14 0 8 -10 16 -22 18 -13 2 -22 9 -21 16 2 8 -10 12 -33 12 -27 0 -37 5 -41 19 -3 11 -14 22 -25 24 -11 3 -17 10 -14 15 3 5 -16 12 -42 14 -55 5 -143 -4 -142 -15 1 -18 -34 -57 -51 -57 -11 0 -19 -7 -19 -15 0 -8 -7 -15 -15 -15 -8 0 -15 -7 -15 -16 0 -9 -9 -18 -19 -21 -11 -3 -22 -11 -25 -19 -3 -8 -15 -14 -26 -14 -11 0 -20 -6 -20 -14 0 -8 -9 -17 -19 -21 -11 -3 -22 -12 -25 -20 -3 -8 -12 -15 -20 -15 -7 0 -16 -7 -20 -15 -3 -8 -12 -15 -21 -15 -8 0 -14 -5 -13 -12 2 -7 -7 -17 -19 -23 -13 -5 -23 -15 -23 -22 0 -7 -9 -13 -20 -13 -11 0 -20 -4 -20 -9 0 -17 -46 -61 -64 -61 -9 0 -16 -7 -16 -15 0 -8 -6 -15 -13 -15 -7 0 -18 -9 -25 -20 -7 -11 -19 -20 -27 -20 -8 0 -15 -7 -15 -15 0 -9 -9 -15 -25 -15 -14 0 -24 -3 -23 -7 1 -5 -9 -20 -23 -35 -23 -24 -34 -28 -81 -28 -46 0 -59 4 -88 30 -18 17 -29 31 -24 32 5 1 -16 4 -46 7 -30 3 -54 11 -52 16 4 12 -30 23 -75 24 -22 1 -33 6 -33 16 0 10 -10 15 -30 15 -20 0 -30 5 -30 15 0 12 -13 15 -60 15 -43 0 -62 4 -66 14 -3 8 -16 17 -30 20 -13 4 -24 13 -24 21 0 12 -16 15 -80 15 -63 0 -81 3 -88 17 -7 12 -29 17 -91 21 -85 5 -121 21 -54 24 21 1 4 4 -37 7 -52 4 -74 10 -72 19 1 8 -16 12 -62 12 -75 0 -76 1 -76 117 0 39 -4 74 -9 77 -5 3 -12 22 -15 41 -4 21 -13 35 -21 35 -12 0 -15 18 -15 94 0 69 -4 97 -14 105 -8 7 -18 27 -22 44 -3 18 -12 35 -18 39 -6 4 -12 45 -14 95 -3 68 -7 91 -20 101 -13 10 -18 33 -20 102 l-4 90 -609 0 -609 0 0 -69z m1000 -1760 c144 -4 204 -9 203 -17 -1 -8 35 -13 113 -16 64 -2 119 -9 122 -15 4 -5 21 -15 37 -20 17 -6 29 -16 28 -22 -2 -7 23 -11 77 -11 69 0 81 -3 90 -20 6 -11 17 -20 26 -20 8 0 17 -7 20 -15 5 -11 22 -15 65 -15 40 0 61 -4 66 -14 4 -8 30 -17 57 -20 37 -5 56 -13 77 -36 24 -25 37 -30 74 -30 31 0 45 -4 45 -13 0 -8 11 -19 25 -25 14 -6 25 -16 25 -21 0 -5 17 -11 38 -13 23 -2 36 -8 34 -15 -1 -8 8 -13 20 -13 39 0 68 -12 68 -26 0 -8 7 -14 15 -14 7 0 18 -6 22 -14 4 -8 22 -16 38 -18 19 -2 29 -8 27 -16 -1 -8 7 -16 18 -19 11 -3 20 -12 20 -19 0 -9 12 -14 35 -14 23 0 35 -5 35 -14 0 -7 15 -18 33 -23 17 -5 31 -15 29 -21 -1 -7 5 -12 13 -12 9 0 18 -7 21 -15 4 -8 15 -15 26 -15 21 0 75 -48 70 -62 -1 -5 7 -8 18 -8 11 0 23 -6 26 -14 3 -8 17 -17 31 -21 16 -4 23 -11 19 -20 -3 -9 3 -15 17 -17 12 -2 21 -9 19 -16 -1 -6 4 -12 12 -12 16 0 72 -51 68 -62 -1 -4 7 -8 18 -8 11 0 20 -7 20 -15 0 -8 7 -15 16 -15 9 0 18 -9 21 -20 3 -11 12 -20 19 -20 8 0 14 -7 14 -15 0 -8 9 -15 20 -15 13 0 20 -7 20 -20 0 -11 7 -20 15 -20 8 0 15 -6 15 -14 0 -7 9 -16 20 -19 11 -3 20 -12 20 -21 0 -9 7 -16 15 -16 8 0 15 -5 15 -10 0 -6 14 -24 30 -40 17 -16 30 -33 30 -39 0 -5 7 -12 16 -15 8 -3 13 -10 10 -15 -3 -5 2 -11 12 -13 9 -3 24 -18 32 -34 8 -16 21 -33 27 -37 7 -4 13 -12 13 -18 0 -5 14 -23 30 -39 17 -17 27 -30 23 -30 -4 0 0 -5 9 -11 10 -5 15 -16 12 -24 -4 -9 0 -15 10 -15 9 0 16 -7 16 -15 0 -8 6 -15 14 -15 8 0 17 -14 21 -31 4 -17 13 -33 21 -36 8 -3 14 -12 14 -19 0 -8 6 -17 14 -20 8 -3 18 -18 21 -34 3 -16 13 -31 21 -34 8 -3 14 -14 14 -25 0 -11 7 -26 15 -35 8 -8 15 -19 15 -24 0 -5 9 -12 20 -15 14 -3 20 -14 20 -32 0 -15 9 -38 20 -52 13 -17 18 -34 14 -46 -4 -13 -2 -17 5 -13 7 5 14 -5 18 -25 3 -19 13 -34 25 -36 14 -4 18 -15 18 -46 0 -32 6 -46 31 -68 24 -22 32 -38 37 -76 3 -26 9 -51 15 -55 6 -3 12 -31 15 -62 2 -31 8 -53 13 -50 5 2 11 -7 15 -21 3 -14 15 -30 25 -36 16 -8 19 -21 19 -73 0 -48 4 -65 15 -70 8 -3 15 -12 15 -20 0 -8 8 -22 18 -32 13 -13 18 -38 20 -105 3 -60 8 -92 18 -100 10 -8 14 -39 14 -118 1 -66 6 -121 15 -146 8 -22 18 -79 21 -127 4 -48 10 -85 14 -83 16 10 20 -32 20 -203 0 -176 -6 -235 -20 -212 -4 6 -10 -33 -14 -87 -4 -54 -12 -101 -18 -104 -6 -4 -13 -65 -16 -148 -3 -78 -9 -144 -13 -147 -5 -3 -10 1 -11 8 -1 7 -4 -33 -7 -90 -5 -84 -9 -105 -23 -113 -10 -6 -18 -16 -18 -24 0 -8 -7 -18 -14 -22 -10 -6 -16 -29 -18 -73 -2 -44 -7 -64 -15 -63 -7 2 -15 -13 -19 -32 -3 -19 -12 -39 -20 -46 -8 -6 -14 -29 -14 -50 0 -27 -4 -39 -14 -39 -9 0 -15 -17 -18 -58 -3 -45 -10 -64 -28 -82 -14 -14 -28 -24 -32 -23 -5 2 -8 -14 -8 -35 0 -25 -7 -48 -20 -62 -11 -13 -20 -29 -20 -35 0 -7 -7 -18 -15 -25 -9 -7 -13 -20 -10 -29 3 -10 -3 -26 -14 -37 -10 -12 -22 -35 -26 -52 -4 -18 -13 -32 -21 -32 -8 0 -17 -7 -20 -15 -4 -8 -10 -12 -15 -9 -5 3 -9 -13 -9 -36 0 -30 -5 -42 -17 -47 -10 -4 -22 -13 -26 -20 -5 -7 -12 -11 -18 -8 -5 4 -8 -2 -7 -12 3 -41 -3 -63 -17 -63 -8 0 -15 -7 -15 -16 0 -16 -36 -54 -51 -54 -4 0 -10 -13 -14 -30 -4 -16 -12 -33 -18 -37 -17 -11 -67 -80 -67 -92 0 -6 -4 -11 -9 -11 -5 0 -11 -9 -14 -20 -3 -11 -12 -20 -21 -20 -9 0 -16 -7 -16 -15 0 -8 -7 -15 -16 -15 -8 0 -12 -5 -9 -11 4 -6 -2 -13 -14 -16 -12 -3 -21 -10 -21 -16 0 -5 -15 -24 -32 -42 -18 -18 -40 -42 -48 -54 -8 -11 -22 -24 -32 -27 -10 -3 -17 -8 -15 -12 2 -9 -44 -62 -55 -62 -11 0 -43 -33 -51 -53 -3 -9 -16 -17 -27 -17 -11 0 -20 -7 -20 -15 0 -8 -7 -15 -15 -15 -8 0 -14 -4 -12 -9 2 -10 -50 -61 -62 -61 -5 0 -11 -7 -15 -15 -3 -8 -13 -15 -22 -15 -10 0 -14 -3 -11 -7 11 -11 -14 -33 -38 -33 -13 0 -25 -7 -29 -15 -3 -8 -12 -15 -21 -15 -8 0 -15 -7 -15 -15 0 -8 -7 -15 -15 -15 -8 0 -23 -9 -32 -20 -10 -11 -26 -20 -36 -20 -10 0 -15 -5 -12 -11 4 -6 -2 -13 -13 -16 -11 -2 -22 -13 -25 -24 -4 -14 -14 -19 -36 -19 -21 0 -31 -5 -31 -15 0 -8 -9 -15 -20 -15 -11 0 -19 -5 -17 -12 1 -6 -15 -16 -35 -21 -22 -5 -38 -15 -38 -23 0 -9 -12 -14 -36 -14 -22 0 -33 -4 -29 -11 4 -6 -2 -13 -13 -16 -11 -2 -22 -13 -25 -24 -4 -15 -14 -19 -51 -19 -30 0 -45 -4 -43 -12 1 -6 -8 -14 -21 -17 -13 -3 -23 -11 -22 -16 1 -5 -19 -14 -44 -19 -29 -5 -46 -13 -46 -22 0 -10 -13 -14 -45 -14 -30 0 -44 -4 -43 -12 2 -7 -7 -14 -19 -16 -13 -2 -23 -9 -23 -17 0 -19 -23 -25 -91 -25 -42 0 -58 -4 -57 -12 2 -7 -9 -14 -24 -16 -19 -2 -25 -8 -21 -18 3 -9 -1 -14 -13 -15 -63 -2 -109 -11 -117 -24 -6 -11 -28 -15 -87 -15 -59 0 -79 -3 -78 -12 2 -8 -10 -14 -29 -16 -20 -2 -37 -11 -43 -23 -10 -17 -22 -19 -141 -19 -103 0 -134 -3 -145 -15 -10 -10 -35 -15 -70 -15 -38 0 -53 -4 -52 -12 2 -10 -67 -14 -316 -16 -281 -2 -318 -1 -312 13 4 12 -4 15 -43 15 -56 0 -84 8 -75 21 3 5 -57 9 -140 9 -120 0 -146 3 -154 15 -4 9 -21 19 -38 24 -16 5 -28 13 -26 20 1 7 -25 11 -83 11 -62 0 -86 4 -92 14 -4 8 -35 18 -68 23 -38 6 -59 13 -57 21 1 7 -9 12 -23 12 -16 0 -25 6 -25 15 0 12 -14 15 -65 15 -51 0 -67 4 -72 16 -3 8 -17 20 -30 25 -13 5 -21 13 -18 19 4 6 -11 10 -39 10 -29 0 -48 5 -53 15 -5 8 -25 18 -46 22 -21 5 -38 13 -37 18 1 6 -9 13 -22 16 -13 3 -22 11 -21 17 2 8 -14 12 -48 12 -42 0 -52 3 -56 20 -3 11 -11 20 -19 20 -7 0 -17 6 -21 14 -4 8 -19 16 -33 18 -14 2 -24 9 -23 16 2 7 -14 14 -38 18 -28 5 -39 11 -35 20 3 9 -2 14 -15 14 -11 0 -22 7 -25 15 -4 8 -14 15 -24 15 -29 0 -50 11 -50 26 0 8 -9 14 -20 14 -11 0 -20 7 -20 15 0 8 -7 15 -15 15 -9 0 -18 6 -21 14 -3 8 -17 17 -31 21 -16 4 -23 11 -19 20 3 9 -3 15 -17 17 -12 2 -21 9 -20 16 2 7 -9 12 -28 12 -22 0 -32 5 -36 20 -3 10 -14 22 -24 25 -11 4 -17 11 -14 16 4 5 -1 9 -9 9 -8 0 -19 6 -23 14 -4 7 -19 19 -31 25 -13 7 -21 15 -19 18 7 6 -25 38 -53 53 -11 6 -18 15 -15 21 4 5 -3 9 -14 9 -12 0 -21 7 -21 15 0 8 -7 15 -16 15 -9 0 -18 9 -21 20 -3 11 -12 20 -19 20 -8 0 -14 5 -14 12 0 12 -76 88 -88 88 -4 0 -13 14 -21 31 -7 17 -24 34 -37 39 -13 5 -24 14 -24 19 0 5 -13 22 -29 37 -17 15 -28 31 -25 36 3 4 0 8 -5 8 -6 0 -11 9 -11 20 0 11 -7 20 -15 20 -8 0 -15 6 -15 13 0 7 -9 23 -20 35 -11 12 -20 26 -20 32 0 5 -7 10 -15 10 -9 0 -19 8 -22 18 -4 9 -12 21 -20 25 -7 4 -13 15 -13 22 0 8 -4 15 -9 15 -5 0 -12 13 -16 30 -4 17 -13 30 -20 30 -7 0 -16 14 -20 31 -4 17 -13 33 -21 36 -8 3 -14 14 -14 24 0 10 -6 19 -14 19 -8 0 -18 14 -21 33 -4 17 -10 34 -14 37 -22 16 -51 66 -51 86 0 13 -9 29 -20 36 -15 10 -20 24 -20 55 0 24 -4 43 -9 43 -4 0 -20 11 -35 25 -18 17 -26 34 -26 59 0 19 -5 36 -11 38 -6 2 -14 28 -17 57 -2 29 -8 47 -12 41 -5 -8 -12 0 -19 23 -7 19 -18 38 -26 41 -11 4 -15 22 -15 61 0 48 -4 58 -30 84 -27 25 -31 37 -36 104 -4 42 -10 74 -14 72 -14 -9 -20 26 -21 118 0 51 -3 86 -6 79 -9 -22 -23 -2 -23 32 0 18 -9 45 -20 59 -18 23 -20 41 -21 234 0 114 -4 199 -8 188 -12 -30 -21 42 -20 165 0 108 13 218 20 170 2 -14 5 79 8 206 5 202 8 233 24 248 9 10 17 26 17 36 0 28 11 51 21 44 5 -3 9 37 9 90 0 75 3 96 14 96 10 0 16 21 21 73 6 65 10 76 36 98 25 21 29 30 29 76 0 60 7 83 25 83 14 0 24 21 26 53 1 20 2 20 9 -3 6 -19 8 -11 9 33 1 40 5 59 15 63 8 3 17 27 21 55 5 37 11 49 21 45 9 -3 14 1 14 14 0 10 6 23 13 27 8 4 17 26 20 47 4 22 13 43 21 48 7 4 17 19 20 33 4 14 11 25 16 25 6 0 10 11 10 25 0 16 6 25 15 25 10 0 15 10 15 30 0 19 6 33 17 37 29 11 53 42 53 68 0 25 16 50 58 90 12 12 22 27 22 34 0 6 4 11 9 11 5 0 12 14 16 30 4 17 13 30 21 30 8 0 14 7 14 15 0 9 7 18 15 21 8 4 15 15 15 25 0 11 7 19 16 19 8 0 12 5 9 10 -3 6 1 13 9 16 9 3 16 10 16 16 0 5 14 21 30 35 17 13 30 31 30 39 0 8 6 14 13 14 14 0 40 27 50 53 3 9 12 17 19 17 7 0 19 14 27 31 8 18 22 34 32 36 10 3 16 9 13 14 -3 5 2 12 10 15 9 3 16 12 16 20 0 7 11 16 25 20 14 3 25 12 25 20 0 8 4 14 10 14 12 0 60 48 60 60 0 6 9 10 21 10 11 0 18 4 15 9 -3 5 1 14 9 21 8 7 15 9 16 4 0 -5 4 1 9 14 6 13 18 22 30 22 13 0 18 4 15 11 -4 6 2 13 14 16 11 3 18 9 15 15 -3 5 8 14 25 21 17 6 31 17 31 24 0 7 11 13 25 13 14 0 24 3 23 8 -5 14 50 62 71 62 12 0 21 6 21 15 0 8 7 15 15 15 8 0 15 6 15 14 0 15 21 26 51 26 10 0 19 7 19 15 0 11 11 15 38 15 26 0 33 3 23 9 -12 8 -9 11 11 16 14 4 28 15 31 26 4 14 14 19 36 19 21 0 31 5 31 15 0 8 7 15 15 15 9 0 18 7 21 15 4 8 23 18 44 21 22 4 41 13 44 20 3 8 20 14 41 14 22 0 34 4 30 10 -3 6 5 14 18 19 13 5 27 17 30 25 5 12 20 16 57 16 38 0 50 4 50 15 0 8 7 15 15 15 7 0 18 7 23 16 6 11 27 18 61 22 34 3 51 9 51 18 0 11 17 14 65 14 51 0 65 3 65 15 0 8 11 17 24 21 14 3 27 12 30 20 4 10 25 14 81 14 60 0 75 3 75 15 0 8 12 18 28 21 15 4 30 12 34 17 3 6 57 13 120 15 79 3 116 9 123 18 8 10 52 14 185 17 314 5 531 4 740 -2z"></path><path d="M5215 8371 c-38 -4 -63 -8 -55 -9 9 -1 10 -5 5 -11 -6 -5 -77 -11 -158 -13 -111 -2 -150 -6 -156 -17 -5 -7 -29 -16 -55 -18 -25 -3 -44 -9 -41 -13 6 -10 -46 -20 -106 -20 -35 0 -49 -4 -49 -14 0 -20 -23 -26 -96 -26 -40 0 -63 -4 -59 -10 3 -5 -6 -12 -20 -16 -13 -3 -23 -10 -20 -15 8 -13 -30 -29 -68 -29 -22 0 -37 -6 -41 -15 -3 -8 -17 -15 -31 -15 -15 0 -24 -5 -22 -12 1 -9 -13 -14 -40 -16 -28 -2 -43 -8 -43 -17 0 -15 -22 -25 -55 -25 -12 0 -25 -7 -29 -15 -3 -8 -12 -15 -21 -15 -8 0 -15 -6 -15 -14 0 -16 -21 -26 -55 -26 -12 0 -25 -7 -29 -15 -3 -8 -15 -15 -26 -15 -11 0 -19 -6 -17 -12 1 -8 -10 -14 -26 -16 -15 -2 -32 -12 -37 -23 -7 -12 -21 -19 -40 -19 -20 0 -30 -5 -30 -15 0 -8 -7 -15 -15 -15 -8 0 -15 -7 -15 -15 0 -9 -12 -18 -30 -21 -16 -4 -30 -13 -30 -20 0 -8 -7 -14 -15 -14 -8 0 -15 -7 -15 -15 0 -8 -9 -15 -20 -15 -10 0 -24 -9 -30 -20 -6 -11 -17 -20 -25 -20 -17 0 -49 -29 -58 -53 -3 -9 -13 -17 -21 -17 -7 0 -16 -7 -20 -15 -3 -8 -12 -15 -21 -15 -8 0 -15 -7 -15 -15 0 -8 -7 -15 -15 -15 -8 0 -19 -9 -25 -20 -6 -11 -18 -20 -26 -20 -8 0 -12 -5 -9 -11 4 -6 -2 -13 -14 -16 -12 -3 -21 -11 -21 -18 0 -8 -9 -17 -20 -20 -11 -4 -18 -11 -15 -16 4 -5 -2 -12 -12 -16 -22 -8 -52 -43 -53 -60 0 -7 -6 -13 -14 -13 -7 0 -16 -9 -19 -21 -3 -12 -10 -18 -17 -14 -7 4 -10 1 -8 -8 2 -8 -9 -26 -24 -40 -15 -14 -24 -27 -21 -31 3 -3 -7 -11 -21 -18 -17 -7 -29 -22 -33 -40 -3 -15 -13 -30 -23 -33 -10 -3 -21 -13 -24 -21 -3 -8 -11 -12 -17 -8 -8 4 -9 0 -4 -15 4 -12 2 -21 -4 -21 -6 0 -11 -7 -11 -15 0 -8 -4 -15 -10 -15 -5 0 -10 -9 -10 -20 0 -11 -5 -20 -11 -20 -21 0 -59 -51 -59 -79 0 -28 -52 -95 -64 -83 -3 3 -6 -11 -6 -32 0 -22 -5 -39 -14 -42 -8 -3 -17 -21 -20 -40 -4 -20 -13 -34 -21 -34 -8 0 -15 -7 -15 -15 0 -9 -7 -18 -15 -21 -10 -4 -15 -20 -15 -48 0 -32 -6 -48 -25 -66 -14 -13 -25 -30 -25 -37 0 -8 -4 -11 -10 -8 -6 4 -10 -9 -11 -32 -1 -44 -11 -75 -24 -74 -6 1 -11 -24 -13 -55 -2 -44 -6 -55 -18 -50 -10 4 -14 -2 -14 -24 0 -16 -6 -35 -14 -42 -8 -9 -15 -44 -18 -92 -3 -60 -7 -80 -21 -87 -9 -6 -17 -18 -17 -27 0 -10 -6 -27 -14 -38 -11 -15 -15 -64 -18 -190 -2 -134 -6 -175 -18 -189 -12 -15 -15 -56 -15 -230 0 -187 2 -214 18 -229 15 -15 17 -39 17 -179 0 -105 4 -157 10 -147 7 11 11 4 16 -27 4 -27 11 -40 19 -37 16 7 25 -39 25 -128 0 -52 4 -70 15 -74 8 -4 15 -14 15 -23 0 -9 7 -25 15 -35 9 -12 15 -42 15 -72 0 -47 2 -52 20 -47 18 5 20 0 20 -50 0 -36 5 -59 15 -67 8 -7 15 -21 15 -31 0 -12 7 -19 20 -19 17 0 20 -7 20 -45 0 -31 5 -47 15 -51 8 -4 15 -15 15 -25 0 -10 7 -19 15 -19 14 0 20 -21 16 -61 -1 -8 14 -28 34 -44 19 -17 35 -38 35 -47 0 -10 5 -18 10 -18 6 0 10 -7 10 -15 0 -8 5 -15 10 -15 6 0 10 -12 10 -27 0 -16 11 -36 28 -52 16 -14 34 -41 41 -58 8 -18 17 -33 22 -33 5 0 9 -9 9 -21 0 -12 4 -17 11 -14 6 4 13 -2 16 -13 2 -11 13 -22 24 -25 11 -3 19 -14 19 -26 0 -11 16 -35 35 -54 19 -19 35 -39 35 -46 0 -6 7 -11 15 -11 8 0 15 -7 15 -16 0 -9 15 -29 33 -45 17 -16 28 -29 24 -29 -4 0 7 -14 25 -32 18 -18 32 -36 31 -40 -2 -4 4 -8 12 -8 9 0 18 -7 21 -15 3 -8 14 -17 25 -20 10 -4 19 -13 19 -21 0 -8 7 -14 15 -14 8 0 15 -5 15 -10 0 -6 15 -25 33 -43 17 -17 31 -35 30 -39 -2 -4 6 -8 17 -8 10 0 24 -9 30 -20 6 -11 20 -20 30 -20 11 0 20 -7 20 -15 0 -8 7 -15 15 -15 8 0 15 -7 15 -15 0 -8 7 -15 16 -15 18 0 70 -50 66 -62 -1 -5 12 -8 28 -8 19 0 30 -5 30 -14 0 -8 12 -17 26 -20 17 -5 24 -12 20 -21 -3 -9 3 -15 17 -17 12 -2 21 -9 20 -16 -2 -7 9 -12 28 -12 22 0 40 -9 58 -27 14 -16 24 -31 23 -35 -1 -5 15 -8 37 -8 30 0 40 -4 44 -19 3 -14 15 -21 38 -23 21 -2 33 -8 32 -15 -2 -8 7 -13 22 -13 14 0 28 -7 31 -15 4 -9 19 -15 39 -15 43 0 65 -9 65 -26 0 -8 7 -14 15 -14 9 0 18 -7 21 -15 4 -11 21 -15 56 -15 41 0 51 -3 55 -19 4 -16 15 -21 52 -23 30 -2 45 -7 44 -16 -2 -7 8 -12 27 -12 18 0 33 -6 36 -15 5 -11 22 -15 68 -15 75 0 106 -8 106 -26 0 -8 9 -14 20 -14 11 0 23 -7 26 -15 5 -12 27 -15 109 -15 85 0 107 -3 121 -17 16 -16 43 -18 263 -18 l246 0 3 85 c2 47 1 94 -2 106 -9 35 -48 44 -187 44 -124 0 -177 10 -164 31 4 5 -3 9 -14 9 -28 0 -52 11 -45 21 3 5 -34 9 -83 9 -76 0 -91 3 -106 20 -13 15 -29 20 -67 20 -38 0 -50 4 -50 15 0 8 -9 15 -20 15 -11 0 -23 7 -26 15 -4 10 -21 15 -53 15 -50 0 -77 12 -67 28 3 5 -6 13 -19 16 -14 4 -23 11 -20 16 4 6 -13 10 -40 10 -38 0 -48 4 -52 20 -4 15 -14 20 -39 20 -24 0 -34 5 -34 15 0 8 -7 15 -15 15 -9 0 -18 6 -21 14 -3 8 -19 18 -35 21 -16 4 -29 13 -29 20 0 8 -9 17 -20 20 -11 3 -20 11 -20 16 0 5 -14 9 -31 9 -22 0 -32 5 -36 19 -3 11 -15 21 -27 23 -11 2 -20 9 -19 16 2 6 -4 12 -12 12 -7 0 -18 6 -22 14 -4 8 -19 16 -33 18 -17 2 -25 9 -24 21 1 9 -4 17 -12 17 -7 0 -17 6 -21 13 -4 8 -16 16 -25 20 -10 3 -18 13 -18 22 0 8 -6 15 -13 15 -7 0 -24 13 -37 28 -14 16 -36 34 -48 41 -12 7 -20 16 -17 22 4 5 0 9 -8 9 -8 0 -25 16 -38 35 -13 19 -28 35 -33 35 -11 0 -76 71 -76 83 0 10 -34 42 -53 50 -9 3 -17 13 -17 21 0 7 -7 16 -15 20 -8 3 -15 12 -15 21 0 8 -4 15 -9 15 -5 0 -12 13 -16 30 -4 17 -12 30 -20 30 -7 0 -15 14 -19 30 -3 19 -14 34 -29 39 -27 11 -41 35 -38 68 1 13 -6 26 -18 33 -12 6 -21 17 -21 25 0 8 -4 15 -10 15 -5 0 -10 6 -10 13 0 7 -8 22 -19 33 -10 12 -22 35 -26 52 -3 18 -11 32 -16 32 -5 0 -9 5 -9 11 0 6 -9 22 -20 36 -12 16 -20 41 -20 64 0 27 -6 45 -20 56 -12 11 -20 30 -20 49 0 17 -7 45 -15 60 -8 16 -15 37 -15 47 0 9 -6 17 -14 17 -18 0 -26 31 -26 106 0 46 -4 63 -15 68 -8 3 -15 14 -15 25 0 11 -7 26 -15 35 -13 12 -15 55 -15 261 0 162 -3 244 -10 240 -6 -4 -10 5 -10 20 0 15 4 24 10 20 7 -4 10 72 10 220 0 191 2 227 15 231 8 4 15 14 15 24 0 10 6 20 14 23 9 4 15 28 18 78 3 61 7 74 26 87 12 8 22 23 22 33 0 10 5 21 10 24 6 3 10 21 10 39 0 20 8 40 20 51 13 12 20 31 20 57 0 27 4 38 15 38 8 0 15 6 15 14 0 7 7 19 15 26 8 7 15 23 15 35 0 14 7 25 19 28 11 3 22 17 26 36 4 17 10 29 15 26 4 -3 11 11 14 30 4 21 13 35 21 35 8 0 15 8 15 17 0 25 43 84 58 78 9 -3 10 3 6 20 -4 18 -2 25 7 25 8 0 20 13 27 30 7 16 22 32 33 35 10 4 19 13 19 21 0 8 5 14 10 14 6 0 10 7 10 15 0 9 8 19 17 22 24 9 53 41 53 58 0 8 7 15 15 15 8 0 15 7 15 15 0 8 9 15 21 15 11 0 18 4 15 9 -3 5 1 14 9 21 8 7 15 9 16 4 0 -5 4 1 9 14 5 12 16 22 25 22 8 0 15 7 15 15 0 8 9 15 20 15 11 0 20 4 20 9 0 20 48 61 70 61 13 0 20 3 17 7 -11 10 13 33 34 33 11 0 19 4 19 10 0 5 11 12 25 16 13 3 23 11 22 16 -1 6 12 15 28 21 17 5 34 16 38 23 4 8 17 14 27 14 11 0 19 6 18 13 -2 7 11 13 35 15 23 2 37 8 37 17 0 16 22 25 60 25 16 0 30 7 34 15 3 8 14 15 25 15 13 0 18 5 15 14 -6 15 23 26 69 26 16 0 35 7 43 15 9 8 24 15 34 15 10 0 20 7 24 15 4 12 24 15 86 15 62 0 80 3 80 14 0 23 24 26 213 26 121 0 177 4 167 10 -10 7 13 10 73 10 56 0 86 -4 82 -10 -4 -7 51 -10 159 -10 172 0 196 -3 196 -26 0 -11 16 -14 64 -14 70 0 99 -7 90 -21 -3 -5 4 -9 16 -9 11 0 23 -7 26 -15 4 -8 16 -15 29 -15 44 0 85 -13 85 -26 0 -8 7 -14 15 -14 9 0 18 -7 21 -15 4 -8 17 -15 29 -15 34 0 55 -10 55 -26 0 -8 10 -14 25 -14 13 0 37 -13 54 -29 16 -16 42 -33 58 -39 15 -5 27 -15 25 -21 -1 -6 5 -11 13 -11 8 0 23 -9 32 -20 10 -11 23 -20 30 -20 7 0 13 -6 13 -14 0 -8 10 -16 23 -18 12 -2 21 -9 19 -16 -1 -6 4 -12 12 -12 8 0 17 -9 21 -19 3 -10 15 -21 26 -24 12 -3 18 -10 14 -16 -3 -6 1 -11 9 -11 9 0 16 -7 16 -15 0 -8 7 -15 16 -15 9 0 18 -9 21 -20 3 -11 12 -20 19 -20 8 0 14 -6 14 -14 0 -8 7 -16 15 -20 8 -3 15 -11 15 -18 0 -7 16 -31 35 -53 19 -22 35 -46 35 -52 0 -7 6 -13 14 -13 8 0 17 -15 20 -35 4 -19 11 -35 16 -35 6 0 10 -6 10 -14 0 -7 9 -16 20 -19 16 -4 20 -14 20 -46 0 -30 5 -43 20 -51 11 -6 20 -21 20 -35 0 -13 4 -26 9 -29 5 -3 12 -22 15 -41 4 -19 13 -35 20 -35 9 0 15 -19 19 -55 6 -63 35 -107 75 -116 15 -4 69 -7 120 -8 50 0 92 -5 92 -10 0 -5 21 -12 46 -16 25 -3 48 -13 51 -21 4 -11 38 -14 183 -14 139 0 182 -3 192 -14 8 -7 34 -17 59 -21 46 -8 82 -23 64 -27 -5 -1 71 -5 170 -8 123 -3 179 -8 178 -16 -4 -22 274 -33 295 -12 16 16 16 75 0 80 -8 3 -15 40 -19 106 -5 73 -12 106 -23 117 -9 9 -16 23 -16 31 0 8 -4 13 -9 10 -12 -8 -21 30 -21 96 0 48 -3 58 -20 63 -16 5 -20 15 -20 55 0 33 -5 50 -15 54 -8 3 -15 14 -15 23 0 10 -9 25 -20 33 -15 11 -20 26 -20 57 0 36 -4 45 -24 54 -25 12 -36 35 -36 77 0 12 -7 25 -15 28 -8 3 -17 21 -21 40 -3 19 -10 34 -14 34 -5 0 -11 14 -15 30 -5 21 -13 30 -26 30 -12 0 -19 7 -19 18 0 9 -13 33 -29 52 -15 19 -31 49 -35 66 -4 18 -15 34 -25 37 -10 2 -24 18 -32 35 -7 17 -21 33 -31 35 -10 3 -18 14 -18 25 0 11 -7 27 -15 36 -8 8 -15 19 -15 25 0 6 -7 11 -15 11 -8 0 -15 6 -15 14 0 8 -22 37 -50 65 -27 28 -47 51 -44 51 3 0 -8 12 -25 27 -17 15 -31 33 -31 39 0 6 -9 14 -21 17 -12 3 -18 10 -15 15 3 6 -5 13 -19 16 -14 4 -25 11 -25 16 0 15 -80 90 -96 90 -8 0 -14 5 -14 10 0 15 -38 50 -55 50 -8 0 -15 4 -15 9 0 15 -48 61 -64 61 -8 0 -20 9 -26 19 -5 11 -20 21 -32 23 -13 2 -22 9 -20 16 1 6 -7 12 -18 12 -11 0 -20 6 -20 14 0 8 -14 17 -31 21 -20 5 -29 11 -25 21 3 8 -1 14 -10 14 -8 0 -17 7 -20 15 -4 8 -14 15 -24 15 -29 0 -50 11 -50 26 0 8 -9 14 -20 14 -11 0 -23 7 -26 15 -4 8 -13 15 -20 15 -8 0 -17 7 -20 15 -4 8 -16 15 -28 15 -32 0 -66 11 -66 21 0 20 -42 49 -69 49 -39 0 -61 9 -61 26 0 9 -11 14 -29 14 -37 0 -62 10 -55 21 3 5 -4 9 -15 9 -11 0 -26 7 -35 15 -8 8 -30 15 -50 15 -44 0 -89 17 -81 30 3 5 -1 10 -10 10 -8 0 -18 7 -21 15 -5 11 -21 15 -59 15 -63 0 -85 7 -85 26 0 10 -16 14 -62 14 -72 0 -110 8 -102 21 3 5 -11 9 -30 9 -23 0 -38 6 -45 18 -8 15 -30 18 -158 22 -111 4 -147 8 -145 18 1 6 -1 12 -5 12 -145 6 -446 6 -498 1z"></path><path d="M5400 6170 c0 -5 -27 -12 -60 -16 -35 -4 -58 -11 -57 -18 1 -7 -24 -12 -70 -14 -54 -2 -73 -6 -73 -17 0 -7 -10 -17 -22 -21 -12 -3 -28 -13 -36 -20 -7 -8 -24 -14 -38 -14 -14 0 -24 -6 -24 -15 0 -8 -12 -18 -26 -21 -29 -7 -129 -104 -139 -134 -3 -11 -15 -25 -26 -30 -10 -6 -19 -17 -19 -25 0 -8 -4 -15 -9 -15 -5 0 -11 -13 -14 -30 -4 -17 -13 -30 -22 -30 -8 0 -17 -11 -21 -25 -3 -14 -10 -25 -15 -25 -5 0 -9 -21 -9 -47 0 -53 -12 -79 -29 -69 -8 5 -11 -45 -11 -179 0 -115 4 -184 9 -180 16 9 31 -30 31 -78 0 -31 5 -47 15 -51 8 -3 15 -12 15 -21 0 -8 7 -15 15 -15 8 0 17 -15 21 -37 8 -41 24 -63 48 -63 8 0 18 -9 21 -20 3 -11 11 -20 16 -20 5 0 9 -6 9 -12 0 -15 43 -58 58 -58 6 0 19 -13 28 -29 13 -21 27 -31 57 -35 29 -5 37 -10 33 -21 -3 -9 1 -15 10 -15 8 0 17 -7 20 -15 4 -10 20 -15 45 -15 28 0 42 -6 51 -20 12 -19 24 -20 250 -20 197 0 238 2 238 14 0 17 21 26 60 26 16 0 30 7 34 15 3 8 13 15 22 15 10 0 14 3 11 7 -13 12 15 33 44 33 19 0 29 5 29 15 0 8 7 15 16 15 8 0 13 4 10 9 -7 10 16 21 44 21 10 0 26 8 36 18 15 14 41 17 173 20 87 2 158 8 162 13 3 6 31 13 62 16 38 4 54 9 51 18 -8 19 44 25 228 25 137 0 172 3 184 15 10 10 36 15 72 16 40 0 51 3 37 9 -35 14 1 19 171 22 136 3 164 6 178 21 15 15 41 17 194 17 101 0 171 4 164 9 -17 11 17 21 71 21 23 0 36 4 32 10 -13 21 51 30 210 30 135 0 164 3 169 15 4 10 20 15 53 16 26 0 42 3 35 6 -19 7 -4 23 23 23 34 0 55 10 55 26 0 8 7 14 15 14 8 0 15 6 15 13 0 6 11 25 25 41 14 16 25 35 25 43 0 7 5 13 10 13 6 0 10 29 10 68 0 71 -20 132 -44 132 -6 0 -17 14 -23 30 -7 20 -18 30 -31 30 -30 0 -52 11 -52 25 0 7 -11 16 -25 19 -14 4 -23 11 -20 16 4 6 -41 10 -120 10 -121 0 -172 10 -160 31 4 5 -57 9 -157 9 -169 0 -221 6 -196 21 8 6 -4 9 -32 9 -25 0 -56 7 -68 16 -17 12 -63 17 -200 22 -121 5 -176 10 -175 18 1 7 -21 14 -55 17 -31 3 -58 11 -60 17 -2 6 -59 10 -155 10 -164 0 -197 5 -197 26 0 11 -30 14 -155 15 -85 1 -159 3 -165 4 -5 1 -20 3 -32 4 -17 1 -19 4 -10 10 9 5 -6 10 -43 13 -34 3 -60 11 -66 19 -6 10 -38 15 -124 17 -88 3 -115 7 -115 17 0 8 -9 17 -20 20 -11 3 -20 11 -20 16 0 5 -9 9 -21 9 -12 0 -23 8 -26 20 -4 14 -14 20 -32 20 -15 0 -34 8 -43 18 -49 49 -54 52 -117 52 -44 0 -63 4 -67 14 -5 13 -103 34 -126 28 -5 -1 -8 3 -8 8 0 6 -9 10 -20 10 -11 0 -20 -4 -20 -10z m166 -485 c-4 -10 1 -15 15 -15 11 0 22 -7 25 -15 4 -8 14 -15 24 -15 17 0 57 -47 52 -62 -1 -5 5 -8 13 -8 11 0 15 -11 15 -36 0 -19 7 -42 15 -50 20 -20 21 -137 1 -153 -8 -6 -17 -32 -21 -56 -3 -25 -10 -45 -16 -45 -5 0 -9 -5 -9 -11 0 -22 -45 -59 -73 -59 -16 0 -26 -4 -22 -10 4 -6 -7 -13 -24 -16 -17 -4 -28 -10 -26 -15 11 -16 -36 -29 -109 -29 -82 0 -106 6 -106 25 0 8 -9 15 -20 17 -12 2 -20 8 -20 13 0 6 -14 12 -31 15 -24 4 -36 13 -48 37 -9 18 -22 33 -28 33 -8 0 -13 15 -13 43 0 28 -3 37 -9 28 -6 -9 -11 8 -16 52 -8 73 2 169 15 148 4 -8 9 9 12 39 3 29 10 55 15 59 5 3 12 14 16 24 4 10 17 17 32 17 15 0 24 5 23 13 -2 6 9 13 24 15 19 2 25 8 21 18 -4 12 17 14 137 14 122 0 141 -2 136 -15z"></path><path d="M8089 5048 c-6 -24 -16 -46 -22 -50 -6 -4 -11 -39 -11 -82 -1 -70 1 -78 26 -101 26 -24 33 -25 137 -25 l110 0 6 55 c4 31 6 81 3 113 -5 71 -28 102 -76 102 -20 0 -35 6 -38 15 -5 11 -22 15 -65 15 l-58 0 -12 -42z"></path><path d="M7872 4298 c-7 -7 -12 -22 -12 -35 0 -15 -6 -23 -17 -23 -37 -1 -53 -25 -52 -76 0 -30 3 -42 8 -31 5 14 10 7 19 -28 6 -25 15 -44 19 -43 5 1 18 -3 31 -11 13 -7 54 -15 91 -18 62 -5 70 -4 89 18 12 12 22 29 22 36 0 7 7 13 15 13 23 0 21 131 -2 153 -63 58 -61 57 -131 57 -40 0 -73 -5 -80 -12z"></path><path d="M7427 3640 c-3 -12 -14 -20 -25 -20 -12 0 -23 -9 -27 -20 -3 -11 -11 -20 -16 -20 -14 0 -11 -134 3 -148 7 -7 22 -12 35 -12 12 0 27 -9 33 -20 6 -11 17 -20 25 -20 8 0 15 -7 15 -16 0 -12 10 -14 47 -12 41 3 48 7 62 35 10 20 26 33 44 37 l28 6 -3 92 -3 93 -32 3 c-21 2 -34 10 -38 23 -5 16 -16 19 -75 19 -59 0 -68 -2 -73 -20z"></path><path d="M6847 3131 c-3 -14 -15 -21 -43 -23 l-39 -3 2 -97 c2 -76 6 -102 20 -118 10 -11 23 -20 31 -20 7 0 15 -7 18 -15 4 -10 20 -15 49 -15 29 0 45 5 49 15 3 8 12 15 20 15 7 0 13 8 12 18 -1 12 8 18 29 20 37 5 45 16 45 68 0 27 -7 49 -20 64 -11 13 -20 27 -20 32 0 4 -7 8 -15 8 -9 0 -15 9 -15 23 0 34 -19 47 -71 47 -38 0 -48 -4 -52 -19z"></path><path d="M6050 2795 c-10 -12 -11 -43 -7 -122 9 -131 18 -143 113 -143 52 0 62 3 58 15 -4 11 5 16 35 21 l41 7 0 96 c0 150 7 141 -120 141 -84 0 -110 -3 -120 -15z"></path></g></svg>