<svg xmlns="http://www.w3.org/2000/svg" width="1080.000000pt" height="1080.000000pt" viewBox="0 0 1080.000000 1080.000000" preserveAspectRatio="xMidYMid meet"><metadata>
Created by potrace 1.16, written by Peter Selinger 2001-2019
</metadata><g transform="translate(0.000000,1080.000000) scale(0.100000,-0.100000)" fill="#000000" stroke="none"><path d="M5240 10629 c-6 -10 -17 -19 -24 -19 -7 0 -21 -18 -32 -40 -10 -22 -25 -40 -31 -40 -8 0 -13 -14 -13 -37 0 -21 -3 -49 -7 -62 -6 -23 -7 -23 -14 -5 -4 10 -8 -205 -8 -478 -1 -436 1 -498 14 -498 12 0 15 -13 15 -56 0 -34 4 -53 10 -49 6 3 10 2 10 -3 0 -13 73 -87 94 -95 9 -4 14 -11 11 -17 -4 -6 10 -10 34 -10 30 0 41 -4 41 -15 0 -11 12 -15 50 -15 38 0 50 4 50 15 0 11 11 15 41 15 24 0 38 4 34 10 -3 6 2 13 11 17 21 8 94 82 94 95 0 5 5 6 10 3 6 -4 10 15 10 49 0 43 3 56 15 56 13 0 15 62 14 498 0 273 -4 488 -8 478 -7 -18 -8 -18 -14 5 -4 13 -7 41 -7 62 0 23 -5 37 -12 37 -7 0 -22 18 -32 40 -11 22 -25 40 -32 40 -7 0 -18 9 -24 19 -9 18 -22 20 -150 20 -128 0 -141 -2 -150 -20z"></path><path d="M2193 10188 c1 -8 -10 -14 -26 -16 -15 -2 -25 -8 -21 -13 3 -6 -3 -13 -15 -16 -12 -3 -21 -12 -21 -19 0 -8 -6 -14 -14 -14 -8 0 -17 -12 -21 -27 -5 -21 -8 -24 -16 -12 -6 10 -9 1 -9 -30 0 -34 -3 -42 -15 -37 -12 4 -15 -7 -15 -65 0 -39 4 -68 9 -65 10 7 21 -17 21 -45 0 -10 7 -19 15 -19 8 0 15 -7 15 -15 0 -8 5 -15 10 -15 6 0 10 -6 10 -14 0 -8 7 -17 16 -20 8 -3 12 -10 9 -16 -3 -5 -2 -10 3 -10 13 0 117 -100 105 -101 -4 0 2 -4 15 -10 13 -5 20 -13 17 -19 -3 -5 -2 -10 4 -10 14 0 107 -91 103 -102 -1 -4 2 -8 7 -8 12 0 115 -100 104 -101 -4 0 2 -4 15 -10 13 -5 20 -13 17 -19 -3 -5 -2 -10 3 -10 13 0 117 -100 105 -101 -4 0 2 -4 15 -10 13 -5 20 -13 17 -19 -3 -5 -2 -10 4 -10 14 0 107 -91 104 -102 -2 -4 2 -8 7 -8 6 0 21 -11 34 -25 13 -14 29 -25 35 -25 6 0 14 -7 17 -15 4 -8 13 -15 20 -15 8 0 17 -7 20 -15 5 -12 27 -15 110 -15 86 0 104 3 104 15 0 8 9 15 19 15 10 0 21 7 25 15 3 8 12 15 21 15 8 0 15 7 15 15 0 8 6 15 14 15 8 0 18 9 21 20 3 11 11 20 16 20 5 0 9 15 9 34 0 19 5 38 10 41 6 3 10 28 10 56 0 27 -4 49 -10 49 -5 0 -10 18 -10 40 0 29 -4 40 -15 40 -8 0 -15 7 -15 15 0 8 -7 15 -15 15 -8 0 -15 5 -15 11 0 6 -13 24 -29 40 -16 16 -34 29 -40 29 -6 0 -11 5 -11 10 0 13 -37 50 -50 50 -5 0 -10 5 -10 11 0 6 -13 24 -29 40 -16 16 -34 29 -40 29 -6 0 -11 7 -11 15 0 8 -7 15 -16 15 -10 0 -14 6 -10 15 3 8 1 15 -5 15 -6 0 -36 25 -65 55 -30 30 -59 55 -65 55 -6 0 -9 7 -5 15 3 8 1 15 -5 15 -5 0 -20 11 -33 25 -13 14 -28 25 -35 25 -6 0 -11 6 -11 14 0 8 -7 17 -16 20 -8 3 -12 10 -9 16 3 5 1 10 -6 10 -7 0 -29 18 -50 40 -21 22 -43 40 -49 40 -5 0 -10 6 -10 14 0 8 -7 17 -16 20 -8 3 -12 10 -9 16 3 5 1 10 -4 10 -6 0 -29 18 -51 40 -22 22 -47 40 -55 40 -8 0 -15 7 -15 15 0 8 -9 15 -20 15 -11 0 -20 7 -20 15 0 12 -18 15 -100 15 -75 0 -99 -3 -97 -12z"></path><path d="M8390 10185 c0 -8 -9 -15 -20 -15 -11 0 -20 -7 -20 -15 0 -8 -9 -15 -20 -15 -11 0 -20 -7 -20 -15 0 -8 -5 -15 -10 -15 -6 0 -21 -11 -34 -25 -13 -14 -29 -25 -35 -25 -7 0 -9 -5 -6 -10 3 -6 -1 -13 -9 -16 -9 -3 -16 -12 -16 -20 0 -8 -5 -14 -10 -14 -6 0 -28 -18 -49 -40 -21 -22 -43 -40 -50 -40 -7 0 -9 -5 -6 -10 3 -6 -1 -13 -9 -16 -9 -3 -16 -12 -16 -20 0 -8 -5 -14 -11 -14 -7 0 -22 -11 -35 -25 -13 -14 -28 -25 -33 -25 -6 0 -8 -7 -5 -15 4 -8 1 -15 -4 -15 -6 0 -36 -25 -67 -55 -30 -30 -60 -55 -66 -55 -5 0 -7 -5 -4 -10 3 -6 -1 -13 -9 -16 -9 -3 -16 -12 -16 -20 0 -8 -5 -14 -11 -14 -7 0 -22 -11 -35 -25 -13 -14 -28 -25 -34 -25 -6 0 -8 -5 -5 -10 3 -6 -4 -14 -17 -19 -13 -6 -19 -10 -14 -10 5 -1 -16 -25 -47 -55 -31 -29 -57 -59 -57 -65 0 -6 -7 -11 -15 -11 -8 0 -15 -7 -15 -15 0 -8 -7 -15 -15 -15 -11 0 -15 -11 -15 -39 0 -22 -5 -41 -12 -43 -6 -2 -11 -25 -11 -53 0 -28 5 -51 11 -53 7 -2 12 -19 12 -38 0 -19 4 -34 9 -34 5 0 13 -9 16 -20 3 -11 13 -20 21 -20 8 0 14 -7 14 -15 0 -8 7 -15 15 -15 9 0 18 -7 21 -15 4 -8 13 -15 20 -15 8 0 17 -7 20 -15 5 -12 27 -15 110 -15 86 0 104 3 104 15 0 8 9 15 20 15 11 0 20 7 20 15 0 8 7 15 15 15 8 0 15 5 15 10 0 6 6 10 14 10 8 0 16 7 20 15 3 8 12 15 21 15 8 0 14 4 12 9 -1 4 22 31 51 58 28 28 52 56 52 62 0 6 9 11 20 11 11 0 19 3 17 8 -3 9 91 102 104 102 6 0 7 5 4 10 -3 6 4 14 17 19 13 6 19 10 14 10 -11 1 92 101 104 101 6 0 9 4 8 8 -4 11 89 102 103 102 6 0 7 5 4 10 -3 6 4 14 17 19 13 6 19 10 15 10 -12 1 92 101 105 101 5 0 6 5 3 10 -3 6 1 13 9 16 9 3 16 12 16 20 0 8 5 14 10 14 6 0 10 7 10 15 0 8 7 15 15 15 8 0 15 9 15 19 0 28 11 52 21 45 5 -3 9 26 9 65 0 58 -3 69 -15 65 -12 -5 -15 2 -15 31 0 21 -4 34 -10 30 -5 -3 -12 6 -16 20 -3 14 -12 25 -20 25 -8 0 -14 6 -14 14 0 7 -9 16 -21 19 -12 3 -18 10 -15 16 4 5 -6 11 -21 13 -16 2 -27 8 -25 16 1 9 -23 12 -98 12 -82 0 -100 -3 -100 -15z"></path><path d="M5154 8771 c18 -7 18 -8 -5 -14 -13 -4 -73 -7 -132 -7 -60 0 -106 -4 -103 -9 9 -13 -31 -21 -112 -21 -52 0 -78 -4 -88 -15 -9 -8 -33 -15 -55 -15 -21 0 -39 -4 -39 -10 0 -5 -22 -10 -49 -10 -34 0 -51 -4 -55 -15 -4 -11 -21 -15 -66 -15 -42 0 -59 -4 -58 -12 2 -8 -12 -15 -35 -18 -21 -3 -36 -9 -35 -15 2 -5 -12 -11 -31 -13 -19 -2 -40 -10 -48 -18 -8 -8 -28 -14 -44 -14 -16 0 -29 -4 -29 -10 0 -5 -18 -10 -40 -10 -31 0 -38 -3 -34 -15 5 -12 -2 -15 -30 -15 -23 0 -35 -4 -33 -12 1 -7 -9 -14 -23 -16 -14 -2 -29 -10 -33 -18 -4 -8 -19 -14 -31 -14 -13 0 -26 -7 -30 -15 -3 -8 -17 -15 -31 -15 -14 0 -25 -4 -25 -10 0 -5 -13 -10 -30 -10 -18 0 -29 -5 -27 -12 1 -6 -7 -14 -18 -16 -11 -2 -24 -10 -28 -18 -4 -8 -16 -14 -26 -14 -11 0 -21 -7 -25 -15 -3 -8 -12 -15 -21 -15 -8 0 -15 -4 -15 -10 0 -5 -11 -10 -25 -10 -16 0 -25 -6 -25 -15 0 -9 -9 -15 -25 -15 -14 0 -24 -5 -22 -12 1 -6 -7 -14 -18 -16 -11 -2 -24 -10 -28 -18 -4 -8 -13 -14 -18 -14 -6 0 -17 -6 -24 -12 -35 -32 -45 -38 -60 -38 -8 0 -14 -6 -13 -12 2 -7 -7 -14 -20 -16 -12 -2 -20 -8 -17 -13 4 -5 -2 -12 -12 -16 -10 -3 -22 -12 -26 -20 -4 -7 -15 -13 -22 -13 -8 0 -15 -4 -15 -10 0 -5 -7 -10 -15 -10 -8 0 -15 -7 -15 -15 0 -8 -9 -15 -20 -15 -11 0 -20 -7 -20 -15 0 -8 -7 -15 -15 -15 -8 0 -15 -7 -15 -15 0 -8 -5 -15 -10 -15 -6 0 -21 -11 -34 -25 -13 -14 -29 -25 -35 -25 -7 0 -9 -5 -6 -11 4 -6 -2 -13 -14 -16 -12 -3 -21 -12 -21 -19 0 -8 -7 -14 -15 -14 -8 0 -15 -7 -15 -15 0 -8 -5 -15 -11 -15 -14 0 -39 -25 -39 -39 0 -6 -7 -11 -15 -11 -8 0 -15 -5 -15 -11 0 -14 -85 -99 -99 -99 -6 0 -10 -4 -9 -8 2 -5 -12 -23 -29 -41 -18 -18 -33 -39 -33 -47 0 -8 -7 -14 -16 -14 -8 0 -12 -5 -9 -10 3 -6 -1 -13 -9 -16 -9 -3 -16 -12 -16 -20 0 -8 -6 -14 -14 -14 -8 0 -17 -11 -20 -25 -4 -14 -11 -25 -16 -25 -6 0 -10 -7 -10 -15 0 -8 -4 -15 -10 -15 -5 0 -10 -7 -10 -15 0 -8 -6 -15 -14 -15 -8 0 -17 -11 -20 -25 -4 -14 -11 -25 -16 -25 -6 0 -10 -9 -10 -20 0 -11 -7 -20 -15 -20 -8 0 -16 -4 -16 -10 -1 -5 -2 -16 -3 -22 -1 -7 -7 -12 -14 -10 -7 1 -12 -7 -12 -18 0 -11 -3 -20 -8 -20 -4 0 -18 -22 -31 -50 -13 -27 -28 -50 -32 -50 -5 0 -9 -9 -9 -20 0 -11 -7 -20 -15 -20 -9 0 -15 -9 -15 -25 0 -16 -6 -25 -15 -25 -10 0 -15 -10 -15 -30 0 -16 -4 -30 -10 -30 -5 0 -10 -11 -10 -25 0 -14 -7 -28 -15 -31 -8 -4 -15 -17 -15 -30 0 -15 -6 -24 -15 -24 -10 0 -15 -10 -15 -30 0 -20 -5 -30 -15 -30 -9 0 -15 -9 -15 -24 0 -13 -7 -26 -15 -30 -10 -3 -15 -19 -15 -46 0 -22 -4 -40 -9 -40 -5 0 -11 -18 -15 -40 -3 -22 -10 -40 -15 -40 -6 0 -11 -15 -13 -32 -2 -20 -8 -32 -15 -31 -9 2 -13 -10 -13 -37 0 -29 -4 -40 -15 -40 -11 0 -15 -12 -15 -51 0 -31 -6 -56 -15 -65 -9 -9 -14 -31 -13 -57 1 -24 -3 -42 -10 -45 -7 -2 -12 -23 -12 -47 0 -25 -6 -50 -15 -59 -11 -10 -15 -36 -15 -88 0 -81 -8 -121 -21 -112 -5 3 -9 -43 -9 -103 0 -59 -3 -119 -7 -133 l-7 -25 -7 25 c-4 14 -6 -779 -6 -1763 l2 -1787 -65 0 c-39 0 -60 -4 -52 -9 18 -11 -17 -21 -76 -21 -24 0 -41 -4 -38 -9 7 -10 -27 -21 -66 -21 -16 0 -28 -4 -28 -10 0 -5 -13 -10 -30 -10 -20 0 -30 -5 -30 -15 0 -10 -10 -15 -30 -15 -18 0 -29 -5 -28 -12 2 -6 -6 -14 -17 -16 -11 -2 -24 -10 -28 -18 -4 -8 -14 -14 -21 -14 -8 0 -16 -7 -20 -15 -3 -8 -12 -15 -21 -15 -8 0 -15 -4 -15 -10 0 -5 -9 -10 -21 -10 -12 0 -17 -4 -14 -11 4 -6 -2 -13 -14 -16 -12 -3 -21 -12 -21 -19 0 -8 -7 -14 -15 -14 -8 0 -15 -7 -15 -15 0 -8 -7 -15 -15 -15 -8 0 -15 -6 -15 -13 0 -7 -9 -19 -19 -27 -11 -7 -18 -17 -15 -22 3 -4 -2 -11 -10 -14 -9 -3 -16 -11 -16 -16 0 -6 -11 -21 -25 -34 -14 -13 -25 -32 -25 -44 0 -11 -7 -20 -15 -20 -10 0 -15 -10 -15 -30 0 -20 -5 -30 -15 -30 -9 0 -15 -9 -15 -25 0 -16 -6 -25 -15 -25 -11 0 -15 -12 -15 -45 0 -25 -4 -45 -10 -45 -5 0 -10 -10 -10 -22 0 -13 -7 -36 -15 -52 -13 -24 -15 -103 -15 -517 0 -291 4 -489 9 -489 5 0 12 -14 16 -30 4 -17 11 -30 16 -30 5 0 9 -5 9 -11 0 -13 20 -33 42 -42 10 -3 18 -11 18 -17 0 -5 7 -10 15 -10 8 0 15 -4 15 -10 0 -7 1397 -10 4170 -10 2773 0 4170 3 4170 10 0 6 7 10 15 10 8 0 15 5 15 10 0 6 8 14 18 17 22 9 42 29 42 42 0 6 4 11 9 11 5 0 12 13 16 30 4 16 11 30 16 30 5 0 9 198 9 489 0 414 -2 493 -15 517 -8 16 -15 39 -15 52 0 12 -4 22 -10 22 -5 0 -10 20 -10 45 0 33 -4 45 -15 45 -9 0 -15 9 -15 25 0 16 -6 25 -15 25 -10 0 -15 10 -15 30 0 20 -5 30 -15 30 -8 0 -15 9 -15 20 0 12 -11 31 -25 44 -14 13 -25 28 -25 34 0 5 -7 13 -16 16 -8 3 -13 10 -10 14 3 5 -4 15 -15 22 -10 8 -19 20 -19 27 0 7 -7 13 -15 13 -8 0 -15 7 -15 15 0 8 -7 15 -15 15 -8 0 -15 6 -15 14 0 7 -9 16 -21 19 -12 3 -18 10 -14 16 3 7 -2 11 -14 11 -12 0 -21 5 -21 10 0 6 -7 10 -15 10 -9 0 -18 7 -21 15 -4 8 -12 15 -20 15 -7 0 -17 6 -21 14 -4 8 -17 16 -28 18 -11 2 -19 10 -17 16 1 7 -10 12 -28 12 -20 0 -30 5 -30 15 0 10 -10 15 -30 15 -16 0 -30 5 -30 10 0 6 -12 10 -27 10 -40 0 -74 11 -67 21 3 5 -14 9 -38 9 -59 0 -94 10 -76 21 8 5 -13 9 -52 9 l-65 0 2 1787 c0 984 -2 1777 -6 1763 l-7 -25 -7 25 c-4 14 -7 74 -7 133 0 60 -4 106 -9 103 -13 -9 -21 31 -21 112 0 52 -4 78 -15 88 -9 9 -15 34 -15 59 0 24 -5 45 -12 47 -7 3 -11 21 -10 45 1 26 -4 48 -13 57 -9 9 -15 34 -15 65 0 39 -4 51 -15 51 -11 0 -15 11 -15 40 0 27 -4 39 -12 37 -8 -1 -14 11 -16 31 -2 17 -7 32 -13 32 -5 0 -12 18 -15 40 -4 22 -10 40 -15 40 -5 0 -9 18 -9 40 0 27 -5 43 -15 46 -8 4 -15 17 -15 30 0 15 -6 24 -15 24 -10 0 -15 10 -15 30 0 20 -5 30 -15 30 -9 0 -15 9 -15 24 0 13 -7 26 -15 30 -8 3 -15 17 -15 31 0 14 -4 25 -10 25 -5 0 -10 14 -10 30 0 20 -5 30 -15 30 -9 0 -15 9 -15 25 0 16 -6 25 -15 25 -8 0 -15 9 -15 20 0 11 -4 20 -9 20 -4 0 -19 23 -32 50 -13 28 -27 50 -31 50 -5 0 -8 9 -8 20 0 11 -5 19 -12 18 -7 -2 -13 3 -14 10 -1 6 -2 17 -3 22 0 6 -8 10 -16 10 -8 0 -15 9 -15 20 0 11 -4 20 -10 20 -5 0 -12 11 -16 25 -3 14 -12 25 -20 25 -8 0 -14 7 -14 15 0 8 -4 15 -10 15 -5 0 -10 7 -10 15 0 8 -4 15 -10 15 -5 0 -12 11 -16 25 -3 14 -12 25 -20 25 -8 0 -14 6 -14 14 0 8 -7 17 -16 20 -8 3 -12 10 -9 16 3 5 -1 10 -9 10 -9 0 -16 6 -16 14 0 8 -15 29 -32 47 -18 18 -32 36 -30 41 1 4 -3 8 -9 8 -14 0 -99 85 -99 99 0 6 -7 11 -15 11 -8 0 -15 5 -15 11 0 14 -25 39 -39 39 -6 0 -11 7 -11 15 0 8 -7 15 -15 15 -8 0 -15 6 -15 14 0 7 -9 16 -21 19 -12 3 -18 10 -14 16 3 6 1 11 -6 11 -6 0 -22 11 -35 25 -13 14 -28 25 -34 25 -5 0 -10 7 -10 15 0 8 -7 15 -15 15 -8 0 -15 7 -15 15 0 8 -9 15 -20 15 -11 0 -20 7 -20 15 0 8 -7 15 -15 15 -8 0 -15 5 -15 10 0 6 -7 10 -15 10 -7 0 -18 6 -22 13 -4 8 -16 17 -26 20 -10 4 -16 11 -12 16 3 5 -5 11 -17 13 -13 2 -22 9 -20 16 1 6 -5 12 -14 12 -8 0 -22 6 -29 13 -33 29 -45 37 -54 37 -6 0 -14 6 -18 14 -4 8 -17 16 -28 18 -11 2 -19 10 -17 16 1 7 -9 12 -23 12 -16 0 -25 6 -25 15 0 9 -9 15 -25 15 -14 0 -25 5 -25 10 0 6 -7 10 -15 10 -9 0 -18 7 -21 15 -4 8 -14 15 -25 15 -10 0 -22 6 -26 14 -4 8 -17 16 -28 18 -11 2 -19 10 -17 16 1 7 -10 12 -28 12 -16 0 -30 5 -30 10 0 6 -11 10 -25 10 -14 0 -28 7 -31 15 -4 8 -17 15 -30 15 -12 0 -27 6 -31 14 -4 8 -19 16 -33 18 -14 2 -24 9 -23 16 2 8 -10 12 -33 12 -28 0 -35 3 -30 15 4 12 -3 15 -34 15 -22 0 -40 5 -40 10 0 6 -13 10 -29 10 -16 0 -36 6 -44 14 -8 8 -29 16 -48 18 -19 2 -33 8 -31 13 1 6 -14 12 -35 15 -23 3 -37 10 -36 18 2 8 -15 12 -57 12 -45 0 -62 4 -66 15 -4 11 -21 15 -55 15 -27 0 -49 5 -49 10 0 6 -18 10 -39 10 -22 0 -46 7 -55 15 -10 11 -36 15 -88 15 -81 0 -121 8 -112 21 3 5 -43 9 -103 9 -59 0 -119 3 -132 7 -23 6 -23 7 -5 14 10 4 -96 8 -236 8 -140 0 -246 -4 -236 -8z m406 -530 c52 -5 72 -9 50 -11 -19 -2 24 -7 95 -10 96 -4 129 -8 128 -17 -2 -10 18 -13 77 -13 62 0 82 -3 86 -15 5 -11 21 -15 60 -15 30 0 54 -4 54 -10 0 -5 19 -10 43 -10 37 0 87 -17 62 -21 -5 -1 10 -5 35 -8 25 -3 43 -10 40 -16 -3 -6 15 -12 40 -15 29 -3 44 -10 43 -17 -2 -9 10 -13 37 -13 22 0 40 -4 40 -10 0 -5 14 -10 30 -10 18 0 33 -6 36 -15 4 -8 17 -15 30 -15 14 0 27 -7 30 -15 4 -8 17 -15 30 -15 14 0 24 -6 24 -14 0 -9 12 -16 33 -18 19 -2 31 -8 30 -15 -2 -8 8 -13 27 -13 17 0 30 -4 30 -9 0 -5 11 -12 25 -15 14 -4 23 -11 20 -16 -3 -6 5 -10 19 -10 16 0 26 -6 26 -14 0 -8 10 -16 23 -18 12 -2 21 -9 20 -16 -2 -7 8 -12 22 -12 14 0 25 -4 25 -10 0 -5 9 -10 20 -10 10 0 23 -6 27 -13 4 -8 16 -17 26 -20 10 -4 16 -11 12 -16 -3 -5 5 -11 17 -13 13 -2 22 -9 20 -16 -1 -6 7 -12 18 -12 11 0 20 -7 20 -15 0 -8 7 -15 15 -15 15 0 25 -6 60 -37 7 -7 18 -13 24 -13 6 0 11 -7 11 -15 0 -8 7 -15 15 -15 8 0 15 -7 15 -15 0 -8 4 -15 10 -15 5 0 34 -24 64 -54 30 -29 61 -56 71 -59 9 -4 13 -11 10 -17 -3 -5 1 -10 9 -10 9 0 16 -4 16 -8 0 -5 16 -25 35 -45 19 -20 35 -41 35 -47 0 -5 7 -10 15 -10 8 0 15 -7 15 -15 0 -8 5 -15 11 -15 14 0 69 -55 69 -69 0 -6 5 -11 10 -11 6 0 10 -6 10 -14 0 -8 14 -28 30 -44 17 -17 30 -35 30 -40 0 -5 7 -13 16 -16 8 -3 12 -10 9 -16 -3 -6 10 -25 29 -44 20 -18 36 -42 36 -54 0 -11 7 -23 16 -26 8 -3 13 -10 10 -15 -3 -5 1 -11 9 -15 8 -3 15 -15 15 -26 0 -11 7 -20 15 -20 10 0 15 -10 15 -30 0 -20 5 -30 15 -30 8 0 15 -6 15 -14 0 -8 5 -16 11 -18 6 -2 12 -15 12 -30 1 -14 7 -26 12 -25 6 1 11 -13 13 -31 2 -18 7 -30 12 -27 5 3 13 -12 16 -35 4 -24 12 -40 20 -40 8 0 14 -11 14 -25 0 -14 7 -28 15 -31 8 -4 15 -17 15 -30 0 -13 5 -24 10 -24 6 0 10 -18 10 -40 0 -27 5 -43 15 -46 10 -4 15 -20 15 -45 0 -28 4 -39 15 -39 11 0 15 -11 15 -40 0 -29 4 -40 15 -40 11 0 15 -12 15 -45 0 -25 5 -45 10 -45 6 0 10 -26 10 -59 0 -43 4 -60 15 -65 12 -4 15 -23 15 -81 0 -42 4 -74 9 -71 15 9 21 -33 22 -154 1 -73 4 -100 8 -75 17 104 21 -291 21 -1852 l0 -1673 -2840 0 -2840 0 0 1673 c0 1561 4 1956 21 1852 4 -25 7 2 8 75 1 121 7 163 22 154 5 -3 9 29 9 71 0 58 3 77 15 81 11 5 15 22 15 65 0 33 4 59 10 59 6 0 10 20 10 45 0 33 4 45 15 45 11 0 15 11 15 40 0 29 4 40 15 40 11 0 15 11 15 39 0 25 5 41 15 45 10 3 15 19 15 46 0 22 5 40 10 40 6 0 10 11 10 24 0 13 7 26 15 30 8 3 15 17 15 31 0 14 6 25 14 25 8 0 16 16 20 40 3 23 11 38 16 35 5 -3 10 9 12 27 2 18 8 32 13 31 6 -1 11 11 12 25 0 15 6 28 12 30 6 2 11 10 11 18 0 8 7 14 15 14 10 0 15 10 15 30 0 20 5 30 15 30 8 0 15 9 15 20 0 11 7 23 15 26 8 4 12 10 9 15 -3 5 2 12 10 15 9 3 16 15 16 26 0 12 16 36 36 54 19 19 32 38 29 44 -3 6 1 13 9 16 9 3 16 11 16 16 0 5 14 23 30 40 17 16 30 36 30 44 0 8 5 14 10 14 6 0 10 5 10 11 0 14 55 69 69 69 6 0 11 7 11 15 0 8 7 15 15 15 8 0 15 5 15 10 0 6 16 27 35 47 19 20 35 40 35 45 0 4 7 8 16 8 8 0 12 5 9 10 -3 6 1 13 10 17 10 3 41 30 71 59 30 30 59 54 64 54 6 0 10 7 10 15 0 8 7 15 15 15 8 0 15 7 15 15 0 8 5 15 10 15 10 0 22 8 55 38 7 6 21 12 29 12 9 0 16 7 16 15 0 8 9 15 20 15 11 0 19 6 17 12 -1 7 8 14 21 16 12 2 20 8 16 13 -3 6 3 13 14 16 11 3 23 11 26 19 3 8 15 14 26 14 11 0 20 5 20 10 0 6 11 10 25 10 14 0 24 5 22 12 -1 7 8 14 21 16 12 2 22 10 22 18 0 8 10 14 26 14 14 0 22 4 19 10 -3 5 6 12 20 16 14 3 25 10 25 15 0 5 13 9 30 9 19 0 29 5 27 13 -1 7 11 13 31 15 20 2 32 9 32 18 0 8 10 14 24 14 13 0 26 7 30 15 3 8 16 15 30 15 13 0 26 7 30 15 3 9 18 15 36 15 16 0 30 5 30 10 0 6 18 10 40 10 27 0 39 4 37 13 -1 7 14 14 43 17 25 3 43 9 40 15 -3 6 15 13 40 16 25 3 41 7 35 8 -25 4 25 21 63 21 23 0 42 5 42 10 0 6 24 10 54 10 39 0 55 4 60 15 4 12 24 15 86 15 59 0 79 3 78 13 -2 9 31 13 127 17 72 3 114 8 95 10 -24 2 -11 6 40 10 106 9 251 9 350 1z m3265 -6677 c13 -5 14 -8 3 -15 -8 -5 7 -9 40 -9 39 0 52 -4 52 -15 0 -9 9 -15 25 -15 14 0 25 -4 25 -10 0 -5 9 -10 20 -10 11 0 20 -7 20 -15 0 -8 7 -15 15 -15 8 0 15 -7 15 -15 0 -8 7 -15 15 -15 8 0 15 -7 15 -15 0 -8 5 -15 10 -15 6 0 10 -7 10 -15 0 -8 4 -15 10 -15 5 0 12 -11 16 -24 3 -14 11 -27 18 -29 6 -3 13 -20 14 -38 1 -18 7 -36 12 -39 5 -3 10 -128 12 -283 l3 -277 -3785 0 -3785 0 3 277 c2 155 7 280 12 283 5 3 11 21 12 39 1 18 8 35 14 38 7 2 15 15 18 29 4 13 11 24 16 24 6 0 10 7 10 15 0 8 5 15 10 15 6 0 10 7 10 15 0 8 7 15 15 15 8 0 15 7 15 15 0 8 7 15 15 15 8 0 15 7 15 15 0 8 9 15 20 15 11 0 20 5 20 10 0 6 11 10 25 10 16 0 25 6 25 15 0 11 13 15 53 16 28 0 46 3 38 6 -11 5 -11 7 0 14 16 10 6848 12 6874 3z"></path><path d="M5324 7821 c8 -13 -57 -21 -181 -21 -69 0 -113 -4 -113 -10 0 -6 -29 -10 -68 -10 -44 0 -75 -5 -88 -15 -10 -8 -40 -15 -67 -15 -32 0 -46 -4 -45 -12 2 -9 -14 -14 -47 -16 -30 -2 -53 -9 -58 -18 -4 -8 -19 -14 -33 -14 -14 0 -32 -7 -40 -15 -9 -8 -29 -15 -45 -15 -16 0 -29 -4 -29 -10 0 -5 -18 -10 -40 -10 -31 0 -38 -3 -34 -15 5 -11 -1 -15 -25 -15 -21 0 -31 -5 -31 -15 0 -10 -10 -15 -31 -15 -17 0 -28 -4 -24 -10 3 -5 -7 -13 -22 -16 -15 -4 -34 -13 -41 -21 -7 -7 -20 -13 -28 -13 -8 0 -14 -4 -14 -10 0 -5 -11 -10 -25 -10 -16 0 -25 -6 -25 -15 0 -8 -9 -15 -19 -15 -10 0 -21 -7 -25 -15 -3 -8 -14 -15 -25 -15 -10 0 -21 -7 -25 -15 -3 -8 -12 -15 -21 -15 -8 0 -15 -4 -15 -10 0 -5 -9 -10 -20 -10 -11 0 -20 -7 -20 -15 0 -8 -9 -15 -20 -15 -11 0 -20 -7 -20 -15 0 -8 -9 -15 -21 -15 -12 0 -17 -4 -14 -11 4 -6 -2 -13 -13 -16 -11 -3 -23 -11 -26 -19 -3 -8 -12 -14 -21 -14 -8 0 -15 -4 -15 -10 0 -5 -7 -10 -16 -10 -8 0 -12 -5 -9 -10 3 -6 -1 -13 -10 -17 -10 -3 -41 -30 -71 -59 -30 -30 -59 -54 -64 -54 -6 0 -10 -7 -10 -15 0 -8 -7 -15 -15 -15 -8 0 -15 -5 -15 -11 0 -7 -16 -27 -36 -45 -19 -19 -32 -34 -28 -34 4 0 -5 -12 -20 -26 -14 -15 -26 -33 -26 -40 0 -8 -7 -14 -15 -14 -8 0 -15 -6 -15 -13 0 -7 -9 -18 -20 -25 -12 -7 -18 -17 -15 -22 4 -6 -1 -13 -9 -16 -9 -3 -16 -12 -16 -20 0 -8 -4 -14 -10 -14 -5 0 -10 -7 -10 -15 0 -8 -7 -15 -15 -15 -8 0 -15 -9 -15 -20 0 -11 -7 -23 -15 -26 -8 -4 -15 -12 -15 -20 0 -8 -7 -14 -15 -14 -10 0 -15 -10 -15 -30 0 -16 -4 -30 -10 -30 -5 0 -12 -11 -16 -25 -3 -14 -10 -25 -15 -25 -5 0 -9 -6 -9 -14 0 -8 -7 -16 -15 -20 -8 -3 -15 -14 -15 -25 0 -27 -11 -52 -20 -46 -4 3 -11 -11 -14 -30 -4 -20 -11 -33 -17 -30 -5 4 -9 -8 -9 -24 0 -21 -5 -31 -15 -31 -10 0 -15 -10 -15 -30 0 -16 -4 -30 -10 -30 -5 0 -10 -13 -10 -29 0 -16 -7 -36 -15 -45 -8 -8 -15 -23 -15 -33 0 -31 -12 -63 -21 -57 -5 3 -9 -15 -9 -40 0 -34 -4 -46 -15 -46 -11 0 -15 -13 -15 -54 0 -31 -5 -56 -11 -58 -7 -2 -13 -37 -15 -83 -3 -44 -9 -81 -14 -83 -6 -2 -10 -49 -10 -106 0 -119 -9 -198 -21 -190 -5 3 -9 -15 -9 -41 0 -31 5 -47 15 -51 10 -4 15 -20 15 -45 0 -21 4 -39 9 -39 5 0 12 -13 16 -30 4 -16 11 -30 17 -30 6 0 21 -11 34 -25 13 -14 30 -25 38 -25 8 0 19 -7 24 -16 7 -13 28 -16 107 -16 79 0 100 3 107 16 5 9 16 16 23 16 8 0 15 4 15 10 0 5 11 12 25 16 15 4 28 16 31 30 3 13 10 24 15 24 5 0 9 7 9 15 0 8 7 15 15 15 12 0 15 16 16 83 0 76 14 145 20 107 2 -8 6 41 10 110 8 151 24 253 38 258 6 2 11 28 11 58 0 41 4 54 15 54 11 0 15 11 15 40 0 29 4 40 15 40 11 0 15 11 15 39 0 22 4 41 10 43 5 2 11 14 13 27 2 14 9 27 15 29 7 2 12 15 12 28 0 14 7 27 15 30 8 4 15 17 15 30 0 14 6 24 14 24 9 0 16 12 18 28 2 15 8 26 15 25 7 -2 10 3 7 11 -3 7 2 16 10 19 9 4 16 18 16 32 0 15 6 25 14 25 8 0 17 11 20 25 4 14 11 25 16 25 6 0 10 7 10 15 0 8 5 15 10 15 6 0 10 7 10 15 0 8 6 15 14 15 8 0 17 11 20 25 4 14 11 25 16 25 6 0 10 7 10 15 0 8 7 15 15 15 8 0 15 7 15 15 0 8 7 15 16 15 8 0 12 5 9 10 -3 6 1 13 9 16 9 3 16 12 16 20 0 8 7 14 15 14 8 0 15 6 15 14 0 8 14 20 30 28 17 7 30 19 30 25 0 7 7 13 15 13 8 0 15 7 15 15 0 8 7 15 16 15 8 0 12 5 9 11 -4 6 2 13 14 16 12 3 21 9 21 14 0 5 7 9 15 9 9 0 18 7 21 15 4 8 15 15 25 15 10 0 18 6 16 12 -1 7 8 14 21 16 12 2 20 8 17 13 -4 5 2 12 12 16 10 3 22 12 26 20 4 7 17 13 27 13 11 0 20 5 20 10 0 6 11 10 25 10 14 0 24 5 22 12 -1 7 11 14 27 17 17 3 29 11 28 16 -2 6 8 12 20 13 13 2 27 10 31 18 4 8 19 14 31 14 13 0 26 7 30 15 3 8 17 15 31 15 14 0 25 5 25 10 0 6 18 10 40 10 29 0 40 4 40 15 0 10 10 15 34 15 21 0 36 6 40 15 4 11 20 15 55 15 29 0 51 5 53 12 2 6 31 13 66 16 34 2 62 8 62 13 0 5 59 9 130 9 99 0 129 3 128 13 -2 9 23 13 92 17 56 3 94 9 92 15 -1 6 6 11 18 13 11 2 18 7 15 12 -3 5 5 12 19 16 14 3 27 15 30 30 4 13 11 24 16 24 6 0 10 7 10 15 0 8 7 15 15 15 11 0 16 13 17 48 3 75 -3 167 -12 172 -5 3 -12 18 -15 33 -4 15 -13 27 -21 27 -8 0 -14 6 -14 13 0 12 -24 28 -62 43 -10 3 -18 10 -18 15 0 5 -15 9 -34 9 -42 0 -68 9 -60 21 3 5 -16 9 -41 9 -25 0 -44 -4 -41 -9z"></path><path d="M300 8040 c0 -5 -14 -10 -31 -10 -19 0 -28 -4 -24 -11 4 -6 -2 -13 -14 -16 -12 -3 -21 -12 -21 -19 0 -8 -4 -14 -10 -14 -5 0 -10 -7 -10 -15 0 -8 -6 -15 -14 -15 -22 0 -26 -24 -26 -150 0 -126 4 -150 26 -150 8 0 14 -7 14 -15 0 -8 7 -15 15 -15 8 0 15 -6 15 -14 0 -7 9 -16 21 -19 12 -3 18 -10 14 -16 -4 -7 5 -11 24 -11 17 0 31 -4 31 -8 0 -9 70 -42 88 -42 6 0 15 -6 19 -14 4 -8 19 -16 33 -18 14 -2 24 -9 22 -16 -1 -7 10 -12 28 -12 20 0 30 -5 30 -15 0 -10 10 -15 30 -15 17 0 30 -4 30 -10 0 -5 9 -10 20 -10 11 0 23 -7 26 -15 4 -8 17 -15 30 -15 12 0 27 -6 31 -14 4 -8 19 -16 33 -18 14 -2 24 -9 23 -16 -2 -7 9 -12 27 -12 20 0 30 -5 30 -15 0 -10 10 -15 30 -15 17 0 30 -4 30 -10 0 -5 9 -10 20 -10 10 0 23 -6 27 -14 4 -8 18 -16 31 -18 12 -1 22 -7 22 -13 0 -5 14 -12 32 -15 19 -3 32 -11 31 -18 -2 -7 9 -12 27 -12 17 0 30 -4 30 -10 0 -5 9 -10 20 -10 11 0 23 -7 26 -15 4 -8 17 -15 30 -15 12 0 27 -6 31 -14 4 -8 22 -16 38 -18 17 -2 29 -8 28 -15 -2 -10 18 -13 77 -13 58 0 79 3 77 12 -1 7 9 14 22 16 13 2 30 9 37 15 6 7 26 23 43 37 17 14 31 33 31 42 0 10 7 18 15 18 9 0 15 9 15 24 0 33 10 57 21 50 5 -3 9 20 9 51 0 40 -4 57 -15 61 -9 4 -15 19 -15 35 0 19 -5 29 -15 29 -10 0 -15 10 -15 30 0 21 -5 30 -16 30 -8 0 -22 6 -29 13 -33 28 -43 35 -61 39 -10 2 -18 10 -17 16 2 7 -9 12 -27 12 -20 0 -30 5 -30 15 0 10 -10 15 -31 15 -24 0 -30 4 -25 15 4 11 -2 15 -24 15 -17 0 -30 5 -30 10 0 6 -11 10 -25 10 -13 0 -28 6 -32 14 -4 8 -19 16 -33 18 -14 2 -24 9 -23 16 2 7 -9 12 -28 12 -24 0 -30 4 -25 15 4 11 -2 15 -23 15 -16 0 -34 7 -41 15 -7 8 -21 15 -31 15 -11 0 -19 4 -19 9 0 5 -12 11 -27 13 -16 2 -27 8 -25 16 1 7 -9 12 -28 12 -19 0 -30 5 -30 14 0 9 -12 16 -27 18 -16 2 -27 8 -25 16 1 7 -9 12 -28 12 -16 0 -30 5 -30 10 0 6 -11 10 -25 10 -14 0 -28 6 -31 14 -3 8 -19 16 -35 20 -17 3 -28 10 -24 16 4 6 -6 10 -24 10 -21 0 -31 5 -31 15 0 9 -9 15 -25 15 -14 0 -28 7 -31 15 -4 9 -19 15 -40 15 -19 0 -34 5 -34 10 0 6 -33 10 -80 10 -47 0 -80 -4 -80 -10z"></path><path d="M10320 8040 c0 -5 -15 -10 -34 -10 -21 0 -36 -6 -40 -15 -3 -8 -17 -15 -31 -15 -16 0 -25 -6 -25 -15 0 -10 -10 -15 -31 -15 -18 0 -28 -4 -24 -10 4 -6 -7 -13 -24 -16 -16 -4 -32 -12 -35 -20 -3 -8 -17 -14 -31 -14 -14 0 -25 -4 -25 -10 0 -5 -13 -10 -30 -10 -19 0 -29 -5 -27 -12 1 -8 -10 -14 -25 -16 -16 -2 -28 -9 -28 -18 0 -9 -11 -14 -30 -14 -19 0 -29 -5 -28 -12 2 -8 -9 -14 -24 -16 -16 -2 -28 -8 -28 -13 0 -5 -8 -9 -19 -9 -10 0 -24 -7 -31 -15 -7 -8 -25 -15 -41 -15 -21 0 -27 -4 -23 -15 5 -11 -1 -15 -25 -15 -19 0 -30 -5 -29 -12 2 -7 -8 -14 -22 -16 -14 -2 -29 -10 -33 -18 -4 -8 -19 -14 -32 -14 -14 0 -25 -4 -25 -10 0 -5 -13 -10 -30 -10 -22 0 -28 -4 -24 -15 5 -11 -1 -15 -25 -15 -21 0 -31 -5 -31 -15 0 -10 -10 -15 -30 -15 -18 0 -29 -5 -27 -12 1 -6 -7 -14 -17 -16 -11 -2 -25 -9 -32 -16 -35 -30 -44 -36 -59 -36 -10 0 -15 -10 -15 -30 0 -20 -5 -30 -15 -30 -10 0 -15 -10 -15 -29 0 -16 -6 -31 -15 -35 -11 -4 -15 -21 -15 -61 0 -31 4 -54 9 -51 11 7 21 -17 21 -50 0 -15 6 -24 15 -24 8 0 15 -8 15 -18 0 -9 14 -28 31 -42 17 -14 37 -30 43 -37 7 -6 24 -13 37 -15 13 -2 23 -9 22 -16 -2 -9 19 -12 77 -12 59 0 79 3 77 13 -1 7 11 13 28 15 17 2 34 10 38 18 4 8 19 14 31 14 13 0 26 7 30 15 3 8 15 15 26 15 11 0 20 5 20 10 0 6 13 10 30 10 18 0 29 5 27 12 -1 7 12 15 31 18 18 3 31 10 30 15 -2 6 8 12 22 13 14 2 29 10 33 18 4 8 17 14 27 14 11 0 20 5 20 10 0 6 14 10 30 10 20 0 30 5 30 15 0 10 10 15 30 15 18 0 29 5 28 12 -2 7 8 14 22 16 14 2 29 10 33 18 4 8 19 14 31 14 13 0 26 7 30 15 3 8 15 15 26 15 11 0 20 5 20 10 0 6 14 10 30 10 20 0 30 5 30 15 0 10 10 15 30 15 18 0 29 5 28 12 -2 7 8 14 22 16 14 2 29 10 33 18 4 8 13 14 19 14 18 0 88 33 88 42 0 4 14 8 31 8 19 0 28 4 24 11 -4 6 2 13 14 16 12 3 21 12 21 19 0 8 7 14 15 14 8 0 15 7 15 15 0 8 5 15 11 15 31 0 39 29 39 150 0 121 -8 150 -39 150 -6 0 -11 7 -11 15 0 8 -4 15 -10 15 -5 0 -10 6 -10 14 0 7 -9 16 -21 19 -12 3 -18 10 -14 16 4 7 -4 11 -19 11 -14 0 -26 5 -26 10 0 6 -35 10 -85 10 -50 0 -85 -4 -85 -10z"></path></g></svg>