<svg xmlns="http://www.w3.org/2000/svg" width="1080.000000pt" height="1080.000000pt" viewBox="0 0 1080.000000 1080.000000" preserveAspectRatio="xMidYMid meet"><metadata>
Created by potrace 1.16, written by Peter Selinger 2001-2019
</metadata><g transform="translate(0.000000,1080.000000) scale(0.100000,-0.100000)" fill="#000000" stroke="none"><path d="M5372 10215 l3 -465 -128 0 c-72 0 -126 -4 -123 -9 9 -13 -31 -21 -111 -21 -39 0 -75 -4 -78 -10 -3 -5 -42 -10 -86 -10 -45 0 -78 -4 -75 -9 9 -14 -20 -21 -80 -21 -30 0 -54 -4 -54 -10 0 -5 -24 -10 -54 -10 -39 0 -55 -4 -60 -15 -3 -10 -19 -15 -46 -15 -22 0 -40 -4 -40 -10 0 -5 -22 -10 -50 -10 -35 0 -49 -4 -47 -12 1 -9 -13 -14 -40 -16 -24 -2 -43 -7 -43 -13 0 -5 -20 -9 -45 -9 -31 0 -44 -4 -43 -12 2 -8 -10 -14 -29 -16 -18 -2 -33 -7 -33 -12 0 -5 -13 -11 -30 -15 -16 -4 -32 -11 -35 -16 -4 -5 -21 -9 -40 -9 -20 0 -35 -6 -39 -15 -3 -8 -17 -15 -31 -15 -14 0 -25 -4 -25 -10 0 -5 -13 -10 -29 -10 -16 0 -31 -6 -35 -15 -3 -8 -16 -15 -30 -15 -14 0 -28 -4 -31 -10 -3 -5 -17 -10 -31 -10 -14 0 -23 -5 -22 -12 2 -8 -9 -14 -24 -16 -16 -2 -28 -8 -28 -13 0 -5 -11 -9 -25 -9 -16 0 -25 -6 -25 -15 0 -9 -9 -15 -25 -15 -14 0 -25 -4 -25 -10 0 -5 -11 -10 -25 -10 -14 0 -24 -5 -23 -12 2 -7 -8 -14 -22 -16 -14 -2 -29 -10 -33 -18 -4 -8 -17 -14 -27 -14 -11 0 -20 -4 -20 -10 0 -5 -9 -10 -19 -10 -10 0 -21 -7 -25 -15 -3 -8 -12 -15 -21 -15 -8 0 -15 -4 -15 -10 0 -5 -7 -10 -16 -10 -8 0 -22 -6 -29 -12 -36 -32 -46 -38 -65 -38 -13 0 -18 -4 -15 -11 4 -6 -2 -13 -14 -16 -12 -3 -21 -9 -21 -14 0 -5 -12 -9 -26 -9 -15 0 -23 -4 -19 -11 4 -6 -2 -13 -14 -16 -12 -3 -21 -9 -21 -14 0 -5 -9 -9 -20 -9 -11 0 -20 -7 -20 -15 0 -8 -7 -15 -15 -15 -8 0 -15 -4 -15 -10 0 -5 -7 -10 -15 -10 -9 0 -18 -7 -21 -15 -4 -8 -10 -15 -15 -15 -4 0 -20 -11 -35 -25 -15 -14 -31 -25 -36 -25 -5 0 -19 -11 -32 -25 -13 -14 -31 -25 -40 -25 -10 0 -14 -5 -11 -11 4 -6 -2 -13 -14 -16 -12 -3 -21 -9 -21 -14 0 -5 -9 -9 -21 -9 -11 0 -18 -4 -15 -8 6 -9 -29 -42 -44 -42 -6 0 -10 -7 -10 -15 0 -8 -5 -15 -11 -15 -14 0 -39 -25 -39 -39 0 -6 -7 -11 -15 -11 -8 0 -15 -7 -15 -15 0 -8 -7 -15 -15 -15 -8 0 -15 -4 -15 -10 0 -5 -7 -10 -16 -10 -8 0 -13 -4 -10 -8 5 -8 -28 -42 -40 -42 -4 0 -17 -11 -30 -25 -13 -14 -28 -25 -34 -25 -5 0 -10 -3 -10 -7 0 -5 -14 -24 -30 -43 -16 -19 -30 -38 -30 -42 0 -5 -7 -8 -15 -8 -8 0 -15 -7 -15 -15 0 -8 -4 -15 -8 -15 -5 0 -15 -11 -22 -25 -7 -14 -19 -25 -27 -25 -7 0 -13 -5 -13 -11 0 -14 -25 -39 -39 -39 -6 0 -11 -5 -11 -11 0 -14 -26 -39 -40 -39 -6 0 -9 -4 -6 -8 3 -5 -4 -18 -14 -30 -11 -12 -20 -25 -20 -29 0 -5 -11 -17 -25 -27 -14 -10 -25 -27 -25 -37 0 -11 -7 -19 -16 -19 -8 0 -12 -5 -9 -10 3 -6 -1 -13 -9 -16 -9 -3 -16 -12 -16 -20 0 -8 -3 -14 -8 -14 -4 0 -16 -16 -26 -35 -11 -19 -25 -35 -33 -35 -8 0 -12 -4 -9 -8 3 -5 -4 -16 -15 -25 -10 -9 -19 -24 -19 -32 0 -9 -4 -13 -10 -10 -5 3 -10 -1 -10 -9 0 -9 -4 -16 -10 -16 -5 0 -10 -6 -10 -14 0 -8 -6 -21 -14 -28 -7 -8 -19 -30 -27 -51 -7 -20 -19 -37 -26 -37 -7 0 -13 -11 -13 -25 0 -16 -6 -25 -16 -25 -8 0 -12 -5 -9 -10 3 -6 -1 -13 -9 -16 -9 -3 -16 -17 -16 -29 0 -13 -4 -25 -8 -27 -4 -1 -18 -20 -31 -40 -12 -21 -27 -38 -32 -38 -5 0 -9 -11 -9 -25 0 -14 -4 -25 -10 -25 -5 0 -10 -11 -10 -25 0 -16 -6 -25 -15 -25 -9 0 -15 -9 -15 -23 0 -23 -26 -87 -40 -97 -4 -3 -15 -26 -25 -52 -10 -26 -21 -45 -26 -43 -4 3 -9 -9 -11 -27 -2 -19 -8 -32 -15 -31 -8 2 -12 -10 -11 -34 1 -20 -4 -39 -10 -41 -7 -2 -12 -14 -12 -27 0 -12 -7 -25 -15 -29 -9 -3 -15 -19 -15 -41 0 -19 -4 -35 -10 -35 -5 0 -10 -11 -10 -24 0 -13 -7 -26 -15 -30 -9 -3 -15 -19 -15 -41 0 -19 -4 -35 -10 -35 -5 0 -10 -15 -10 -34 0 -21 -6 -36 -15 -40 -10 -4 -15 -20 -15 -50 0 -25 -4 -48 -10 -51 -5 -3 -10 -21 -10 -40 0 -20 -6 -35 -15 -39 -10 -4 -15 -20 -15 -51 0 -25 -4 -45 -9 -45 -4 0 -11 -28 -15 -62 -3 -35 -11 -64 -16 -66 -6 -2 -10 -32 -10 -67 0 -47 -4 -64 -15 -69 -11 -4 -15 -22 -15 -76 0 -40 -4 -70 -10 -70 -6 0 -10 -33 -10 -79 0 -43 -3 -93 -7 -112 -5 -28 -7 -30 -14 -14 -5 11 -8 -40 -7 -115 l0 -135 -541 -3 -541 -2 0 -150 0 -150 541 -2 541 -3 0 -135 c-1 -75 2 -126 7 -115 7 16 9 14 14 -14 4 -19 7 -69 7 -112 0 -46 4 -79 10 -79 6 0 10 -30 10 -70 0 -54 4 -72 15 -76 11 -5 15 -22 15 -69 0 -35 4 -65 10 -67 5 -1 13 -31 16 -65 4 -35 11 -63 15 -63 5 0 9 -20 9 -45 0 -31 5 -47 15 -51 9 -4 15 -19 15 -39 0 -19 5 -37 10 -40 6 -3 10 -26 10 -51 0 -30 5 -46 15 -50 9 -4 15 -19 15 -40 0 -19 5 -34 10 -34 6 0 10 -16 10 -35 0 -22 6 -38 15 -41 8 -4 15 -17 15 -30 0 -13 5 -24 10 -24 6 0 10 -16 10 -35 0 -22 6 -38 15 -41 8 -4 15 -17 15 -29 0 -13 5 -25 12 -27 6 -2 11 -21 10 -41 -1 -24 3 -36 11 -34 7 1 13 -12 15 -31 2 -18 7 -30 11 -27 5 2 16 -17 26 -43 10 -26 21 -49 25 -52 14 -10 40 -74 40 -97 0 -14 6 -23 15 -23 9 0 15 -9 15 -25 0 -14 5 -25 10 -25 6 0 10 -11 10 -25 0 -14 4 -25 9 -25 5 0 20 -17 32 -37 13 -21 27 -39 31 -41 4 -2 8 -14 8 -27 0 -12 7 -26 16 -29 8 -3 12 -10 9 -16 -3 -5 1 -10 9 -10 10 0 16 -9 16 -25 0 -14 6 -25 13 -25 7 0 19 -17 26 -37 8 -21 20 -43 27 -51 8 -7 14 -20 14 -28 0 -8 5 -14 10 -14 6 0 10 -7 10 -16 0 -8 5 -12 10 -9 6 3 10 -1 10 -10 0 -8 9 -23 19 -32 11 -9 18 -20 15 -25 -3 -4 1 -8 9 -8 8 0 22 -16 33 -35 10 -19 22 -35 26 -35 5 0 8 -6 8 -14 0 -8 7 -17 16 -20 8 -3 12 -10 9 -16 -3 -5 1 -10 9 -10 9 0 16 -8 16 -19 0 -10 11 -27 25 -37 14 -10 25 -22 25 -27 0 -4 9 -17 20 -29 10 -12 17 -25 14 -30 -3 -4 0 -8 6 -8 14 0 40 -25 40 -39 0 -6 5 -11 11 -11 14 0 39 -25 39 -39 0 -6 6 -11 13 -11 8 0 20 -11 27 -25 7 -14 17 -25 22 -25 4 0 8 -7 8 -15 0 -8 7 -15 15 -15 8 0 15 -3 15 -7 0 -5 14 -24 30 -43 16 -19 30 -38 30 -42 0 -5 5 -8 10 -8 6 0 21 -11 34 -25 13 -14 26 -25 30 -25 12 0 45 -34 40 -42 -3 -4 2 -8 10 -8 9 0 16 -4 16 -10 0 -5 7 -10 15 -10 8 0 15 -7 15 -15 0 -8 7 -15 15 -15 8 0 15 -5 15 -11 0 -14 25 -39 39 -39 6 0 11 -7 11 -15 0 -8 4 -15 10 -15 15 0 50 -33 44 -42 -3 -4 4 -8 15 -8 12 0 21 -4 21 -9 0 -5 9 -11 21 -14 12 -3 18 -10 14 -16 -3 -6 1 -11 11 -11 9 0 27 -11 40 -25 13 -14 27 -25 32 -25 5 0 21 -11 36 -25 15 -14 31 -25 35 -25 5 0 11 -7 15 -15 3 -8 12 -15 21 -15 8 0 15 -4 15 -10 0 -5 7 -10 15 -10 8 0 15 -7 15 -15 0 -8 9 -15 20 -15 11 0 20 -4 20 -9 0 -5 9 -11 21 -14 12 -3 18 -10 14 -16 -4 -7 4 -11 19 -11 14 0 26 -4 26 -9 0 -5 9 -11 21 -14 12 -3 18 -10 14 -16 -3 -7 3 -11 15 -11 12 0 28 -6 35 -12 35 -32 45 -38 60 -38 8 0 15 -4 15 -10 0 -5 7 -10 15 -10 9 0 18 -7 21 -15 4 -8 15 -15 25 -15 10 0 19 -4 19 -10 0 -5 9 -10 20 -10 10 0 23 -6 27 -14 4 -8 19 -16 33 -18 14 -2 24 -9 22 -16 -1 -7 9 -12 23 -12 14 0 25 -4 25 -10 0 -5 11 -10 25 -10 16 0 25 -6 25 -15 0 -9 9 -15 25 -15 14 0 25 -4 25 -9 0 -5 12 -11 28 -13 15 -2 26 -8 24 -15 -1 -8 8 -13 22 -13 14 0 28 -5 31 -10 3 -6 17 -10 31 -10 14 0 27 -7 30 -15 4 -9 19 -15 35 -15 16 0 29 -4 29 -10 0 -5 11 -10 25 -10 14 0 28 -7 31 -15 4 -9 19 -15 39 -15 19 0 36 -4 40 -9 3 -5 19 -12 35 -16 17 -4 30 -10 30 -15 0 -5 15 -10 33 -12 19 -2 31 -8 29 -15 -1 -9 12 -13 43 -13 25 0 45 -4 45 -10 0 -5 13 -10 29 -10 37 0 62 -10 55 -21 -3 -5 18 -9 45 -9 28 0 51 -4 51 -9 0 -6 19 -11 43 -13 27 -2 41 -7 39 -15 -1 -9 15 -13 58 -13 33 0 60 -4 60 -10 0 -5 24 -10 54 -10 60 0 89 -7 80 -21 -3 -5 30 -9 75 -9 44 0 83 -5 86 -10 3 -6 39 -10 78 -10 80 0 120 -8 111 -21 -3 -5 51 -9 123 -9 l128 0 -3 -465 -3 -465 156 0 155 0 0 455 c0 297 -3 455 -10 455 -5 0 -10 5 -10 10 0 6 62 10 166 10 92 0 163 4 160 9 -8 12 44 21 125 21 37 0 71 4 74 10 3 5 48 10 98 10 54 0 86 4 79 9 -18 11 17 21 75 21 23 0 45 5 48 10 3 6 26 10 51 10 30 0 43 4 42 13 -2 8 13 13 45 15 26 2 47 7 47 13 0 5 26 9 58 9 35 0 52 4 44 9 -18 11 7 21 54 21 19 0 34 5 34 10 0 6 18 10 40 10 27 0 39 4 38 13 -2 7 10 13 27 15 16 2 32 7 35 11 8 11 93 41 117 41 11 0 23 7 27 15 3 8 16 15 30 15 14 0 28 5 31 10 3 6 19 10 35 10 15 0 30 7 34 15 3 8 14 15 25 15 11 0 23 5 26 10 3 6 17 10 31 10 14 0 23 5 22 13 -2 7 9 13 25 15 15 2 27 8 27 13 0 5 11 9 25 9 16 0 25 6 25 15 0 9 9 15 25 15 14 0 25 5 25 10 0 6 14 10 30 10 18 0 29 5 28 12 -2 7 8 14 21 16 13 2 30 9 37 15 33 30 44 37 54 37 6 0 18 6 25 13 36 31 46 37 65 37 12 0 19 4 15 9 -6 10 49 41 72 41 7 0 13 6 13 13 0 12 44 37 66 37 6 0 14 7 18 15 3 8 12 15 21 15 8 0 15 5 15 10 0 6 7 10 15 10 8 0 15 7 15 15 0 8 9 15 21 15 11 0 17 5 14 10 -3 6 1 10 10 10 8 0 18 7 21 15 4 8 12 15 19 15 7 0 15 7 19 15 3 8 12 15 21 15 8 0 15 5 15 10 0 6 9 10 20 10 11 0 19 5 18 10 -2 6 10 18 26 28 16 9 40 27 54 39 14 13 31 23 39 23 8 0 12 4 9 8 -6 9 29 42 44 42 6 0 10 7 10 15 0 8 5 15 10 15 6 0 33 22 60 50 27 27 52 50 55 50 3 0 16 11 29 25 13 14 28 25 35 25 6 0 11 5 11 11 0 14 25 39 39 39 6 0 11 5 11 11 0 14 25 39 39 39 6 0 11 5 11 10 0 6 10 22 22 35 58 61 88 95 88 100 0 10 28 35 39 35 6 0 11 5 11 11 0 14 26 39 40 39 6 0 9 4 6 8 -3 5 4 16 15 25 10 9 19 23 19 30 0 7 9 19 20 27 11 8 20 20 20 27 0 7 7 13 15 13 8 0 15 9 15 20 0 11 7 23 15 26 8 4 15 10 15 16 0 5 11 20 25 34 14 14 25 30 25 36 0 6 16 25 35 44 19 18 35 42 35 53 0 12 7 21 15 21 8 0 15 7 15 15 0 8 5 15 10 15 6 0 10 11 10 25 0 16 6 25 15 25 8 0 15 9 15 20 0 11 7 23 15 26 8 4 12 10 9 15 -3 5 2 12 10 15 9 3 16 15 16 26 0 20 22 48 37 48 5 0 9 10 10 22 1 12 9 26 18 30 8 5 15 18 15 28 0 11 5 20 10 20 6 0 10 11 10 25 0 14 7 28 15 31 8 4 15 17 15 30 0 13 4 24 10 24 5 0 12 11 16 25 3 14 10 25 15 25 5 0 9 11 9 25 0 14 4 25 10 25 5 0 12 11 16 25 3 14 10 25 15 25 5 0 9 11 9 25 0 14 4 25 9 25 5 0 13 10 17 23 4 12 10 24 15 27 4 3 9 21 12 40 2 19 9 34 16 32 6 -1 11 11 11 28 0 16 5 30 10 30 6 0 10 15 10 34 0 21 6 36 15 40 8 3 15 16 15 30 0 14 5 28 10 31 5 3 10 19 10 36 0 19 5 29 15 29 11 0 15 11 15 39 0 22 5 43 10 46 6 3 10 24 10 46 0 26 5 42 15 45 10 4 15 20 15 45 0 21 4 39 9 39 4 0 11 21 14 47 3 26 10 49 16 51 6 2 11 23 11 47 0 26 6 47 15 55 10 8 15 31 15 71 0 33 4 59 10 59 6 0 10 24 10 53 0 62 9 99 21 91 5 -3 9 37 9 90 0 52 4 96 9 98 5 2 11 76 12 166 l3 162 388 0 388 0 0 150 0 150 -388 0 -388 0 -3 163 c-1 89 -7 164 -12 165 -5 2 -9 46 -9 98 0 53 -4 93 -9 90 -12 -8 -21 29 -21 92 0 28 -4 52 -10 52 -6 0 -10 26 -10 59 0 40 -5 63 -15 71 -9 8 -15 29 -15 55 0 24 -5 45 -11 47 -6 2 -13 25 -16 51 -3 26 -10 47 -14 47 -5 0 -9 18 -9 39 0 25 -5 41 -15 45 -10 3 -15 19 -15 45 0 22 -4 43 -10 46 -5 3 -10 24 -10 46 0 28 -4 39 -15 39 -10 0 -15 10 -15 29 0 17 -4 33 -10 36 -5 3 -10 17 -10 31 0 14 -7 27 -15 30 -9 4 -15 19 -15 40 0 19 -4 34 -10 34 -5 0 -10 13 -10 30 0 17 -5 29 -11 27 -7 -1 -14 14 -16 33 -3 19 -8 37 -12 40 -5 3 -11 15 -15 28 -4 12 -12 22 -17 22 -5 0 -9 11 -9 25 0 14 -4 25 -9 25 -5 0 -12 11 -15 25 -4 14 -11 25 -16 25 -6 0 -10 11 -10 25 0 14 -4 25 -9 25 -5 0 -12 11 -15 25 -4 14 -11 25 -16 25 -6 0 -10 11 -10 24 0 13 -7 26 -15 30 -8 3 -15 17 -15 31 0 14 -4 25 -10 25 -5 0 -10 9 -10 20 0 10 -7 23 -15 28 -9 4 -17 18 -18 30 -1 12 -5 22 -10 22 -15 0 -37 28 -37 48 0 11 -7 23 -16 26 -8 3 -13 10 -10 15 3 5 -1 11 -9 15 -8 3 -15 15 -15 26 0 11 -7 20 -15 20 -9 0 -15 9 -15 25 0 14 -4 25 -10 25 -5 0 -10 7 -10 15 0 8 -7 15 -15 15 -8 0 -15 9 -15 21 0 11 -16 35 -35 53 -19 19 -35 38 -35 44 0 6 -11 22 -25 36 -14 14 -25 29 -25 34 0 6 -7 12 -15 16 -8 3 -15 15 -15 26 0 11 -7 20 -15 20 -8 0 -15 6 -15 13 0 7 -9 19 -20 27 -11 8 -20 20 -20 27 0 7 -9 21 -19 30 -11 9 -18 20 -15 25 3 4 0 8 -6 8 -14 0 -40 25 -40 39 0 6 -5 11 -11 11 -11 0 -39 25 -39 35 0 5 -30 39 -87 100 -13 13 -23 29 -23 35 0 5 -5 10 -11 10 -14 0 -39 25 -39 39 0 6 -5 11 -11 11 -14 0 -39 25 -39 39 0 6 -5 11 -11 11 -7 0 -22 11 -35 25 -13 14 -26 25 -29 25 -3 0 -28 23 -55 50 -27 28 -54 50 -60 50 -5 0 -10 7 -10 15 0 8 -4 15 -10 15 -15 0 -50 33 -44 42 3 4 -1 8 -9 8 -8 0 -25 10 -39 23 -14 12 -38 30 -54 39 -16 10 -28 22 -26 28 1 5 -7 10 -18 10 -11 0 -20 5 -20 10 0 6 -7 10 -15 10 -9 0 -18 7 -21 15 -4 8 -12 15 -19 15 -7 0 -15 7 -19 15 -3 8 -13 15 -21 15 -9 0 -13 5 -10 10 3 6 -3 10 -14 10 -12 0 -21 7 -21 15 0 8 -7 15 -15 15 -8 0 -15 5 -15 10 0 6 -7 10 -15 10 -9 0 -18 7 -21 15 -4 8 -12 15 -18 15 -22 0 -66 25 -66 38 0 6 -6 12 -13 12 -23 0 -78 31 -72 41 4 5 -3 9 -15 9 -12 0 -28 6 -35 13 -34 29 -45 37 -55 37 -6 0 -18 6 -25 13 -34 30 -44 35 -66 39 -13 2 -23 9 -21 16 1 7 -10 12 -28 12 -16 0 -30 5 -30 10 0 6 -11 10 -25 10 -16 0 -25 6 -25 15 0 9 -9 15 -25 15 -14 0 -25 5 -25 10 0 6 -9 10 -20 10 -11 0 -23 7 -26 15 -4 8 -17 15 -30 15 -13 0 -24 5 -24 10 0 6 -11 10 -25 10 -14 0 -28 7 -31 15 -4 8 -19 15 -34 15 -16 0 -32 5 -35 10 -3 6 -17 10 -31 10 -14 0 -27 7 -30 15 -4 8 -16 15 -27 15 -24 0 -109 30 -117 41 -3 4 -19 9 -35 11 -17 2 -29 8 -27 16 1 8 -11 12 -38 12 -22 0 -40 5 -40 10 0 6 -15 10 -34 10 -47 0 -72 10 -54 21 8 5 -9 9 -44 9 -32 0 -58 4 -58 9 0 6 -21 11 -47 13 -32 2 -47 7 -46 16 2 8 -11 12 -41 12 -25 0 -48 5 -51 10 -3 6 -25 10 -48 10 -58 0 -93 10 -75 21 7 5 -25 9 -79 9 -50 0 -95 5 -98 10 -3 6 -37 10 -74 10 -81 0 -133 9 -125 21 3 5 -68 9 -160 9 -104 0 -166 4 -166 10 0 6 5 10 10 10 7 0 10 158 10 455 l0 455 -155 0 -156 0 3 -465z m3 -1355 l0 -610 -108 0 c-60 0 -106 -4 -103 -9 8 -12 -29 -21 -86 -21 -26 0 -50 -4 -53 -10 -3 -5 -39 -10 -78 -10 -43 0 -67 -4 -59 -9 14 -9 -29 -21 -74 -21 -13 0 -24 -4 -24 -10 0 -5 -20 -10 -45 -10 -31 0 -44 -4 -42 -12 1 -8 -12 -14 -35 -16 -21 -2 -38 -7 -38 -13 0 -5 -16 -9 -35 -9 -24 0 -35 -5 -35 -15 0 -11 -11 -15 -36 -15 -21 0 -33 -4 -29 -10 3 -6 -5 -10 -19 -10 -13 0 -31 -7 -40 -15 -8 -8 -26 -15 -39 -15 -14 0 -27 -7 -31 -15 -3 -8 -15 -15 -26 -15 -11 0 -20 -4 -20 -10 0 -5 -11 -10 -24 -10 -13 0 -26 -7 -30 -15 -3 -8 -15 -15 -26 -15 -11 0 -20 -4 -20 -10 0 -5 -11 -10 -24 -10 -13 0 -26 -7 -30 -15 -3 -8 -15 -15 -26 -15 -11 0 -20 -4 -20 -10 0 -5 -9 -10 -20 -10 -11 0 -20 -7 -20 -15 0 -8 -7 -15 -15 -15 -8 0 -15 -4 -15 -10 0 -5 -11 -10 -25 -10 -16 0 -25 -6 -25 -15 0 -8 -9 -15 -20 -15 -11 0 -20 -4 -20 -10 0 -5 -7 -10 -15 -10 -9 0 -18 -7 -21 -15 -4 -8 -10 -15 -15 -15 -4 0 -20 -11 -35 -25 -15 -14 -33 -25 -40 -25 -8 0 -14 -7 -14 -15 0 -8 -7 -15 -15 -15 -8 0 -15 -4 -15 -10 0 -5 -9 -10 -21 -10 -12 0 -17 -4 -14 -11 4 -6 -2 -13 -14 -16 -12 -3 -21 -9 -21 -14 0 -5 -7 -9 -16 -9 -8 0 -13 -4 -10 -8 7 -11 -30 -42 -50 -42 -8 0 -13 -4 -10 -8 6 -9 -29 -42 -44 -42 -6 0 -10 -7 -10 -15 0 -8 -4 -15 -10 -15 -14 0 -160 -151 -160 -166 0 -10 -28 -34 -40 -34 -6 0 -9 -4 -6 -9 3 -5 -6 -17 -19 -27 -14 -10 -25 -24 -25 -31 0 -7 -4 -13 -10 -13 -5 0 -12 -11 -16 -25 -3 -14 -12 -25 -20 -25 -8 0 -13 -4 -12 -8 2 -4 -9 -20 -24 -35 -16 -15 -28 -34 -28 -42 0 -8 -4 -15 -10 -15 -5 0 -10 -7 -10 -15 0 -8 -7 -15 -15 -15 -9 0 -15 -9 -15 -23 0 -12 -11 -31 -25 -41 -14 -10 -25 -25 -25 -32 0 -16 -33 -74 -42 -74 -5 0 -8 -5 -8 -11 0 -6 -7 -17 -15 -25 -8 -8 -12 -21 -9 -29 4 -9 0 -15 -10 -15 -10 0 -16 -9 -16 -25 0 -14 -4 -25 -8 -25 -9 0 -42 -70 -42 -89 0 -6 -7 -14 -15 -17 -8 -4 -15 -17 -15 -30 0 -13 -4 -24 -10 -24 -5 0 -10 -16 -10 -35 0 -24 -5 -35 -15 -35 -9 0 -15 -9 -15 -24 0 -14 -4 -28 -10 -31 -5 -3 -10 -20 -10 -36 0 -17 -6 -32 -15 -35 -10 -4 -15 -20 -15 -45 0 -21 -4 -39 -10 -39 -5 0 -10 -12 -10 -27 0 -40 -11 -74 -21 -67 -5 3 -9 -13 -9 -35 0 -21 -5 -41 -10 -43 -6 -2 -13 -30 -16 -63 -3 -33 -10 -61 -15 -63 -5 -2 -9 -30 -9 -62 0 -64 -7 -93 -21 -84 -5 3 -9 -53 -9 -130 l0 -136 -612 0 c-503 1 -610 3 -596 14 14 10 18 36 22 157 2 79 9 182 14 229 6 47 11 91 11 98 1 7 6 10 11 7 6 -4 10 20 10 64 0 39 4 71 9 71 5 0 11 28 13 62 3 35 10 64 16 66 7 2 12 16 12 30 0 39 11 73 21 66 5 -3 9 18 9 46 0 32 4 49 10 45 6 -4 10 13 10 44 0 39 4 51 15 51 10 0 15 10 15 34 0 19 4 38 10 41 5 3 10 22 10 41 0 24 5 34 15 34 10 0 15 11 15 35 0 19 5 35 10 35 6 0 10 14 10 30 0 20 5 30 15 30 10 0 15 11 15 35 0 19 5 35 10 35 6 0 10 11 10 24 0 13 7 26 15 30 8 3 15 16 15 30 0 22 27 84 41 96 4 3 9 14 11 25 2 11 9 19 15 18 6 -1 10 10 11 25 0 14 5 28 11 30 6 2 11 12 11 23 0 11 6 22 13 25 7 2 14 14 14 26 1 12 6 24 11 27 5 3 12 16 16 29 4 12 12 22 17 22 6 0 7 5 4 10 -3 6 1 13 9 16 9 3 16 17 16 30 0 15 6 24 15 24 8 0 15 6 15 13 0 23 25 67 38 67 6 0 12 10 12 23 0 12 11 31 25 41 14 10 25 27 25 37 0 11 4 19 9 19 5 0 12 11 15 25 4 14 11 25 16 25 6 0 10 5 10 11 0 6 12 24 27 39 43 45 53 58 53 70 0 5 5 10 10 10 6 0 10 6 10 13 0 7 9 19 19 27 11 7 18 17 15 22 -3 4 0 8 5 8 6 0 11 7 11 15 0 8 7 15 16 15 8 0 13 4 10 9 -3 5 6 17 19 27 14 10 25 22 25 26 0 10 25 41 73 90 20 21 37 41 37 44 0 10 28 34 39 34 6 0 11 5 11 11 0 14 25 39 39 39 6 0 11 5 11 11 0 14 25 39 39 39 6 0 10 4 9 8 -4 10 59 72 73 72 6 0 8 4 5 8 -6 9 29 42 44 42 6 0 10 7 10 15 0 8 7 15 15 15 8 0 15 5 15 10 0 6 7 10 15 10 8 0 15 5 15 11 0 16 26 39 45 39 9 0 14 4 11 8 -7 11 30 42 49 42 8 0 15 7 15 15 0 8 7 15 15 15 8 0 15 5 15 10 0 6 6 10 14 10 8 0 16 7 20 15 3 8 12 15 21 15 8 0 15 7 15 15 0 8 7 15 15 15 8 0 15 5 15 10 0 6 9 10 20 10 11 0 20 7 20 15 0 8 7 15 15 15 8 0 15 5 15 10 0 6 6 10 14 10 8 0 16 7 20 15 3 8 12 15 21 15 8 0 15 5 15 10 0 6 12 10 26 10 15 0 23 4 19 11 -4 6 2 13 14 16 12 3 21 9 21 14 0 5 12 9 26 9 15 0 23 4 19 11 -4 6 2 13 14 16 12 3 21 9 21 14 0 5 9 9 19 9 10 0 21 7 25 15 3 8 15 15 26 15 12 0 18 4 15 10 -3 5 6 12 20 16 14 3 25 10 25 15 0 5 11 9 24 9 13 0 26 7 30 15 3 8 15 15 26 15 11 0 20 5 20 10 0 6 11 10 24 10 13 0 26 7 30 15 3 8 15 15 26 15 11 0 20 5 20 10 0 6 13 10 30 10 18 0 29 5 27 12 -1 7 8 14 21 16 12 2 22 8 22 13 0 5 13 9 30 9 19 0 29 5 27 13 -1 7 12 13 36 15 20 2 37 7 37 13 0 5 13 9 29 9 16 0 31 6 35 15 3 8 15 15 26 15 12 0 28 7 36 15 9 8 24 15 34 15 10 0 22 5 25 10 3 6 22 10 41 10 20 0 33 4 29 9 -3 6 11 13 32 16 21 3 46 10 55 16 10 5 36 9 58 9 23 0 39 4 36 9 -7 11 18 21 55 21 16 0 29 5 29 10 0 6 21 10 46 10 25 0 43 4 40 9 -8 12 29 21 92 21 28 0 52 5 52 10 0 6 30 10 71 10 39 0 68 4 65 9 -9 14 20 21 85 21 33 0 59 4 59 10 0 6 58 10 153 11 83 0 146 3 138 6 -11 5 -11 7 0 14 8 5 23 9 34 9 20 0 20 -7 20 -610z m390 604 c13 -5 14 -8 3 -15 -7 -5 57 -9 150 -9 101 0 162 -4 162 -10 0 -6 26 -10 59 -10 69 0 100 -8 79 -21 -8 -5 21 -9 70 -9 48 0 82 -4 82 -10 0 -5 22 -10 49 -10 56 0 84 -8 75 -21 -3 -5 18 -9 45 -9 28 0 51 -4 51 -10 0 -5 18 -10 40 -10 27 0 43 -5 46 -15 4 -10 20 -15 50 -15 24 0 44 -4 44 -10 0 -5 13 -10 29 -10 16 0 36 -7 45 -15 8 -8 28 -15 45 -15 17 0 31 -4 31 -10 0 -5 14 -10 30 -10 18 0 33 -6 36 -15 4 -8 17 -15 30 -15 14 0 27 -7 30 -15 4 -10 20 -15 45 -15 21 0 39 -4 39 -9 0 -5 12 -11 28 -13 15 -2 26 -8 25 -15 -2 -8 8 -13 27 -13 17 0 30 -4 30 -10 0 -5 9 -10 20 -10 11 0 23 -7 26 -15 4 -8 17 -15 30 -15 13 0 24 -4 24 -10 0 -5 9 -10 20 -10 11 0 23 -7 26 -15 4 -8 17 -15 29 -15 13 0 27 -4 30 -10 3 -5 15 -10 26 -10 11 0 22 -7 25 -15 4 -8 15 -15 25 -15 10 0 19 -4 19 -10 0 -5 11 -12 25 -16 14 -3 23 -10 20 -14 -3 -5 5 -10 17 -12 13 -2 22 -9 20 -16 -1 -7 9 -12 23 -12 14 0 25 -4 25 -10 0 -5 7 -10 15 -10 9 0 18 -7 21 -15 4 -8 15 -15 25 -15 10 0 19 -4 19 -10 0 -5 9 -10 20 -10 11 0 20 -7 20 -15 0 -8 9 -15 20 -15 11 0 20 -4 20 -10 0 -5 9 -10 20 -10 11 0 20 -7 20 -15 0 -8 7 -15 15 -15 8 0 15 -4 15 -9 0 -5 9 -13 20 -16 11 -4 18 -11 15 -16 -4 -5 3 -9 14 -9 12 0 21 -4 21 -10 0 -5 7 -10 15 -10 8 0 15 -7 15 -15 0 -8 7 -15 15 -15 9 0 18 -7 21 -15 4 -8 12 -15 20 -15 8 0 14 -4 14 -9 0 -5 9 -11 21 -14 12 -3 18 -10 14 -16 -3 -7 2 -11 14 -11 12 0 21 -4 21 -10 0 -5 7 -10 15 -10 8 0 15 -7 15 -15 0 -8 4 -15 10 -15 15 0 50 -33 44 -42 -3 -4 2 -8 10 -8 9 0 16 -4 16 -10 0 -5 7 -10 15 -10 8 0 15 -7 15 -15 0 -8 5 -15 11 -15 14 0 39 -25 39 -39 0 -6 5 -11 11 -11 16 0 59 -36 52 -44 -3 -3 1 -6 10 -6 10 0 17 -6 17 -13 0 -7 11 -21 25 -31 13 -10 22 -22 19 -27 -3 -5 0 -9 6 -9 14 0 40 -25 40 -38 0 -5 11 -15 25 -22 14 -7 25 -19 25 -25 0 -6 11 -18 25 -25 14 -7 25 -17 25 -21 0 -5 16 -23 35 -42 19 -19 35 -39 35 -46 0 -6 4 -11 10 -11 5 0 12 -11 16 -25 3 -14 11 -25 16 -25 13 0 38 -26 38 -39 0 -6 5 -11 10 -11 6 0 10 -7 10 -15 0 -8 12 -26 28 -42 15 -15 26 -31 25 -35 -2 -4 4 -8 12 -8 9 0 15 -9 15 -25 0 -16 6 -25 15 -25 8 0 15 -7 15 -15 0 -8 5 -15 10 -15 6 0 10 -7 10 -15 0 -8 5 -15 11 -15 5 0 8 -4 5 -8 -3 -5 4 -15 15 -22 10 -8 19 -25 19 -37 0 -14 6 -23 15 -23 8 0 15 -7 15 -15 0 -8 5 -15 10 -15 6 0 10 -11 10 -25 0 -15 6 -25 14 -25 8 0 16 -10 20 -23 3 -12 14 -32 26 -44 11 -12 20 -31 20 -43 0 -11 6 -20 14 -20 9 0 12 -7 9 -20 -3 -12 1 -22 11 -26 9 -3 16 -17 16 -30 0 -13 4 -24 9 -24 5 0 12 -11 15 -25 4 -14 11 -25 16 -25 6 0 10 -11 10 -25 0 -16 6 -25 15 -25 9 0 15 -9 15 -25 0 -14 5 -25 10 -25 6 0 10 -11 10 -25 0 -16 6 -25 15 -25 9 0 15 -9 15 -25 0 -14 5 -25 10 -25 6 0 10 -16 10 -36 0 -19 4 -33 9 -30 10 7 21 -17 21 -45 0 -10 5 -19 10 -19 6 0 10 -17 10 -37 0 -28 3 -34 10 -23 7 11 11 4 16 -28 4 -23 10 -42 15 -42 5 0 9 -16 9 -35 0 -24 5 -35 15 -35 11 0 15 -11 15 -40 0 -22 5 -40 10 -40 6 0 10 -16 10 -36 0 -19 7 -42 15 -50 8 -9 15 -33 15 -54 0 -21 4 -40 10 -42 5 -1 13 -23 16 -48 3 -25 10 -46 15 -48 5 -2 9 -31 9 -63 0 -33 4 -58 9 -55 14 9 21 -20 21 -80 0 -30 5 -54 10 -54 6 0 10 -30 10 -71 0 -44 4 -68 10 -64 6 3 11 -2 11 -12 1 -10 5 -81 10 -158 4 -77 11 -161 15 -187 l6 -48 -611 0 -611 0 0 96 c0 61 -4 93 -10 89 -6 -4 -10 23 -10 74 0 57 -4 84 -15 95 -9 9 -15 34 -15 68 -1 31 -7 61 -15 72 -8 11 -15 37 -15 58 0 21 -4 38 -10 38 -5 0 -10 18 -10 41 0 22 -4 38 -9 35 -10 -7 -21 27 -21 67 0 15 -4 27 -10 27 -5 0 -10 16 -10 36 0 19 -4 33 -9 30 -10 -7 -21 17 -21 45 0 10 -4 19 -10 19 -5 0 -10 16 -10 36 0 19 -4 33 -9 30 -10 -7 -21 17 -21 45 0 10 -4 19 -10 19 -5 0 -10 9 -10 20 0 11 -7 23 -15 26 -8 4 -15 17 -15 30 0 13 -4 24 -9 24 -5 0 -12 11 -15 25 -4 14 -11 25 -16 25 -6 0 -10 11 -10 25 0 14 -4 25 -9 25 -5 0 -12 11 -15 25 -4 14 -11 25 -16 25 -6 0 -10 7 -10 15 0 8 -4 15 -10 15 -5 0 -12 11 -16 25 -3 14 -10 25 -15 25 -5 0 -9 7 -9 15 0 8 -4 15 -10 15 -5 0 -12 11 -16 25 -3 14 -10 25 -15 25 -5 0 -9 7 -9 15 0 8 -14 28 -31 45 -18 16 -28 30 -23 30 5 0 1 5 -8 11 -10 5 -18 19 -18 29 0 11 -5 20 -11 20 -6 0 -17 6 -25 14 -8 8 -14 19 -14 25 0 6 -4 11 -10 11 -5 0 -10 7 -10 15 0 8 -9 23 -19 32 -11 9 -18 20 -15 25 3 4 0 8 -5 8 -16 0 -51 32 -45 42 3 4 0 8 -6 8 -14 0 -40 25 -40 39 0 6 -5 11 -11 11 -11 0 -39 24 -39 34 0 10 -59 66 -70 66 -5 0 -10 7 -10 15 0 8 -4 15 -10 15 -15 0 -50 33 -44 42 3 4 0 8 -7 8 -6 0 -22 11 -35 25 -13 14 -26 25 -30 25 -4 0 -17 11 -30 25 -13 14 -27 25 -32 25 -5 0 -21 11 -36 25 -15 14 -31 25 -37 25 -5 0 -9 5 -9 10 0 6 -7 10 -15 10 -9 0 -18 7 -21 15 -4 8 -12 15 -20 15 -8 0 -14 7 -14 15 0 8 -9 15 -20 15 -11 0 -20 4 -20 9 0 5 -9 11 -21 14 -12 3 -18 10 -14 16 4 7 -4 11 -19 11 -14 0 -26 5 -26 10 0 6 -7 10 -15 10 -9 0 -18 7 -21 15 -4 8 -15 15 -25 15 -10 0 -19 4 -19 9 0 5 -10 11 -22 13 -13 2 -22 9 -20 16 1 7 -9 12 -23 12 -14 0 -25 4 -25 9 0 5 -14 11 -31 15 -17 3 -28 10 -24 16 4 6 -6 10 -24 10 -17 0 -31 5 -31 10 0 6 -9 10 -20 10 -11 0 -23 7 -26 15 -4 8 -16 15 -29 15 -12 0 -28 7 -35 15 -7 8 -23 15 -36 15 -13 0 -24 5 -24 10 0 6 -11 10 -24 10 -33 0 -57 10 -50 21 3 5 -11 9 -30 9 -20 0 -36 4 -36 9 0 6 -17 11 -37 13 -24 2 -37 8 -36 16 2 8 -12 12 -47 12 -28 0 -50 5 -50 10 0 6 -12 10 -27 10 -45 0 -77 11 -61 21 8 5 -16 9 -59 9 -39 0 -75 5 -78 10 -3 6 -28 10 -55 10 -55 0 -83 8 -74 21 3 5 -53 9 -131 9 -118 0 -136 2 -142 17 -4 9 -1 19 5 21 16 5 17 1162 2 1162 -5 0 -10 5 -10 10 0 11 79 14 105 4z m-115 -3535 l0 -379 -112 0 -113 0 2 378 c1 207 2 379 3 382 0 3 49 4 110 2 l110 -3 0 -380z m-275 -529 l0 -100 -382 0 -383 0 0 100 0 100 383 0 382 0 0 -100z m1070 0 l0 -100 -382 0 -383 0 0 100 0 100 383 0 382 0 0 -100z m-3745 -286 c0 -77 4 -133 9 -130 14 9 21 -20 21 -84 0 -32 4 -60 9 -62 5 -1 12 -30 15 -63 3 -33 10 -61 16 -63 5 -2 10 -22 10 -43 0 -22 4 -38 9 -35 10 7 21 -27 21 -66 0 -16 5 -28 10 -28 6 0 10 -18 10 -39 0 -25 5 -41 15 -45 9 -3 15 -18 15 -35 0 -16 5 -33 10 -36 6 -3 10 -17 10 -31 0 -15 6 -24 15 -24 10 0 15 -11 15 -35 0 -19 5 -35 10 -35 6 0 10 -11 10 -25 0 -14 5 -25 10 -25 6 0 13 -8 17 -17 15 -48 38 -93 45 -93 4 0 8 -11 8 -25 0 -16 6 -25 16 -25 10 0 14 -6 10 -15 -3 -8 1 -21 9 -29 8 -8 15 -19 15 -25 0 -6 3 -11 8 -11 9 0 42 -58 42 -74 0 -7 11 -22 25 -32 14 -10 25 -29 25 -41 0 -14 6 -23 15 -23 8 0 15 -7 15 -15 0 -8 5 -15 10 -15 6 0 10 -7 10 -15 0 -8 12 -27 28 -42 15 -15 26 -31 24 -35 -1 -4 4 -8 12 -8 8 0 17 -11 20 -25 4 -14 11 -25 16 -25 6 0 10 -6 10 -13 0 -7 11 -21 25 -31 13 -10 22 -22 19 -27 -3 -5 0 -9 6 -9 6 0 20 -9 32 -20 12 -11 18 -20 13 -20 -4 0 4 -11 19 -25 15 -14 25 -25 23 -25 -3 0 20 -25 50 -55 30 -30 59 -55 64 -55 5 0 9 -7 9 -15 0 -8 4 -15 10 -15 15 0 50 -33 44 -42 -3 -4 2 -8 10 -8 20 0 57 -31 50 -42 -3 -4 2 -8 10 -8 9 0 16 -4 16 -9 0 -5 9 -11 21 -14 12 -3 18 -10 14 -16 -3 -7 2 -11 14 -11 12 0 21 -4 21 -10 0 -5 7 -10 15 -10 8 0 15 -7 15 -15 0 -8 6 -15 14 -15 7 0 25 -11 40 -25 15 -14 31 -25 35 -25 5 0 11 -7 15 -15 3 -8 12 -15 21 -15 8 0 15 -4 15 -10 0 -5 9 -10 20 -10 11 0 20 -7 20 -15 0 -9 9 -15 25 -15 14 0 25 -4 25 -10 0 -5 7 -10 15 -10 8 0 15 -7 15 -15 0 -8 9 -15 20 -15 11 0 20 -4 20 -10 0 -5 9 -10 20 -10 11 0 23 -7 26 -15 4 -8 17 -15 30 -15 13 0 24 -4 24 -10 0 -5 9 -10 20 -10 11 0 23 -7 26 -15 4 -8 17 -15 30 -15 13 0 24 -4 24 -10 0 -5 9 -10 20 -10 11 0 23 -7 26 -15 4 -8 17 -15 31 -15 13 0 31 -7 39 -15 9 -8 27 -15 40 -15 14 0 22 -4 19 -10 -4 -6 8 -10 29 -10 25 0 36 -4 36 -15 0 -10 11 -15 35 -15 19 0 35 -4 35 -9 0 -6 17 -11 37 -13 24 -2 37 -8 36 -15 -2 -9 11 -13 42 -13 25 0 45 -4 45 -10 0 -5 11 -10 24 -10 45 0 88 -12 74 -21 -8 -5 16 -9 59 -9 39 0 75 -4 78 -10 3 -5 27 -10 53 -10 57 0 94 -9 86 -21 -3 -5 43 -9 103 -9 l108 0 0 -610 c0 -563 -1 -610 -17 -610 -9 0 -24 3 -33 6 -13 5 -14 8 -3 15 7 5 -52 9 -139 9 -95 0 -153 4 -153 10 0 6 -26 10 -59 10 -65 0 -94 7 -85 21 3 5 -26 9 -65 9 -41 0 -71 4 -71 10 0 6 -24 10 -52 10 -63 0 -100 9 -92 21 3 5 -15 9 -40 9 -25 0 -46 5 -46 10 0 6 -13 10 -29 10 -37 0 -62 10 -55 21 3 5 -13 9 -36 9 -22 0 -48 4 -58 9 -9 6 -34 13 -55 16 -21 3 -35 10 -32 16 4 5 -9 9 -29 9 -19 0 -38 5 -41 10 -3 6 -15 10 -25 10 -10 0 -25 7 -34 15 -8 8 -24 15 -36 15 -11 0 -23 7 -26 15 -4 9 -19 15 -35 15 -16 0 -29 4 -29 9 0 6 -17 11 -37 13 -24 2 -37 8 -36 16 2 7 -8 12 -27 12 -17 0 -30 4 -30 9 0 5 -10 11 -22 13 -13 2 -22 9 -21 16 2 7 -9 12 -27 12 -17 0 -30 5 -30 10 0 6 -9 10 -20 10 -11 0 -23 7 -26 15 -4 8 -17 15 -30 15 -13 0 -24 5 -24 10 0 6 -9 10 -20 10 -11 0 -23 7 -26 15 -4 8 -17 15 -30 15 -13 0 -24 4 -24 9 0 5 -11 12 -25 15 -14 4 -23 11 -20 16 3 6 -3 10 -15 10 -11 0 -23 7 -26 15 -4 8 -15 15 -25 15 -10 0 -19 4 -19 9 0 5 -9 11 -21 14 -12 3 -18 10 -14 16 4 7 -4 11 -19 11 -14 0 -26 4 -26 9 0 5 -9 11 -21 14 -12 3 -18 10 -14 16 4 7 -4 11 -19 11 -14 0 -26 5 -26 10 0 6 -7 10 -15 10 -9 0 -18 7 -21 15 -4 8 -12 15 -20 15 -8 0 -14 5 -14 10 0 6 -7 10 -15 10 -8 0 -15 7 -15 15 0 8 -9 15 -20 15 -11 0 -20 5 -20 10 0 6 -7 10 -15 10 -8 0 -15 7 -15 15 0 8 -7 15 -15 15 -9 0 -18 7 -21 15 -4 8 -12 15 -20 15 -8 0 -14 5 -14 10 0 6 -7 10 -15 10 -8 0 -15 7 -15 15 0 8 -7 15 -15 15 -19 0 -56 31 -49 42 3 4 -2 8 -11 8 -19 0 -45 23 -45 39 0 6 -7 11 -15 11 -8 0 -15 5 -15 10 0 6 -7 10 -15 10 -8 0 -15 7 -15 15 0 8 -4 15 -10 15 -15 0 -50 33 -44 42 3 4 1 8 -5 8 -14 0 -77 62 -73 72 1 4 -3 8 -9 8 -14 0 -39 25 -39 39 0 6 -5 11 -11 11 -14 0 -39 25 -39 39 0 6 -5 11 -11 11 -11 0 -39 24 -39 34 0 3 -17 23 -37 44 -48 49 -73 80 -73 90 0 4 -11 16 -25 26 -13 10 -22 22 -19 27 3 5 -2 9 -10 9 -9 0 -16 7 -16 15 0 8 -5 15 -11 15 -5 0 -8 4 -5 8 3 5 -4 15 -15 22 -10 8 -19 20 -19 27 0 7 -4 13 -10 13 -5 0 -10 5 -10 10 0 12 -10 25 -52 70 -16 15 -28 33 -28 39 0 6 -4 11 -10 11 -5 0 -12 11 -16 25 -3 14 -10 25 -15 25 -5 0 -9 8 -9 19 0 10 -11 27 -25 37 -14 10 -25 29 -25 41 0 13 -6 23 -12 23 -13 0 -38 44 -38 67 0 7 -7 13 -15 13 -9 0 -15 9 -15 24 0 13 -7 27 -16 30 -8 3 -12 10 -9 16 3 5 2 10 -4 10 -5 0 -13 10 -17 23 -4 12 -11 25 -16 28 -5 3 -10 15 -11 27 0 12 -7 24 -14 26 -7 3 -13 14 -13 25 0 11 -5 21 -11 23 -6 2 -11 16 -11 31 0 14 -5 25 -11 24 -6 -1 -13 7 -15 18 -2 11 -7 22 -11 25 -14 12 -41 74 -41 96 0 14 -7 27 -15 30 -8 4 -15 17 -15 30 0 13 -4 24 -10 24 -5 0 -10 16 -10 35 0 24 -5 35 -15 35 -10 0 -15 10 -15 30 0 17 -4 30 -10 30 -5 0 -10 16 -10 35 0 24 -5 35 -15 35 -10 0 -15 10 -15 34 0 19 -4 38 -10 41 -5 3 -10 22 -10 41 0 24 -5 34 -15 34 -11 0 -15 12 -15 51 0 31 -4 48 -10 44 -6 -4 -10 13 -10 45 0 28 -4 49 -9 46 -10 -7 -21 27 -21 66 0 14 -5 28 -12 30 -6 2 -13 31 -16 66 -2 34 -8 62 -13 62 -5 0 -9 32 -9 71 0 44 -4 68 -10 64 -5 -3 -10 0 -11 7 0 7 -5 51 -11 98 -5 47 -12 150 -14 229 -4 121 -8 147 -22 157 -14 11 93 13 596 14 l612 0 0 -136z m2950 -249 l0 -385 -105 0 c-58 0 -107 -1 -110 -2 -3 -2 -7 171 -8 385 l-2 387 113 0 112 0 0 -385z m3966 338 c-4 -27 -11 -111 -15 -188 -5 -77 -9 -148 -10 -158 0 -10 -5 -15 -11 -12 -6 4 -10 -20 -10 -64 0 -41 -4 -71 -10 -71 -5 0 -10 -24 -10 -54 0 -60 -7 -89 -21 -80 -5 3 -9 -22 -9 -55 0 -32 -4 -61 -9 -63 -5 -1 -12 -23 -15 -48 -3 -25 -11 -46 -16 -48 -6 -2 -10 -21 -10 -42 0 -21 -7 -45 -15 -54 -8 -8 -15 -31 -15 -50 0 -20 -4 -36 -10 -36 -5 0 -10 -18 -10 -40 0 -29 -4 -40 -15 -40 -10 0 -15 -11 -15 -35 0 -19 -4 -35 -9 -35 -5 0 -11 -19 -15 -42 -5 -32 -9 -39 -16 -28 -7 11 -10 5 -10 -22 0 -21 -4 -38 -10 -38 -5 0 -10 -9 -10 -19 0 -28 -11 -52 -21 -45 -5 3 -9 -11 -9 -30 0 -20 -4 -36 -10 -36 -5 0 -10 -11 -10 -25 0 -16 -6 -25 -15 -25 -9 0 -15 -9 -15 -25 0 -14 -4 -25 -10 -25 -5 0 -10 -11 -10 -25 0 -16 -6 -25 -15 -25 -9 0 -15 -9 -15 -25 0 -14 -4 -25 -10 -25 -5 0 -12 -11 -16 -25 -3 -14 -10 -25 -15 -25 -5 0 -9 -11 -9 -24 0 -13 -7 -27 -16 -30 -10 -4 -14 -14 -11 -26 3 -13 0 -20 -9 -20 -8 0 -14 -9 -14 -20 0 -12 -9 -31 -20 -43 -12 -12 -23 -32 -26 -44 -4 -13 -12 -23 -20 -23 -8 0 -14 -10 -14 -25 0 -14 -4 -25 -10 -25 -5 0 -10 -7 -10 -15 0 -8 -7 -15 -15 -15 -9 0 -15 -9 -15 -23 0 -12 -9 -29 -19 -37 -11 -7 -18 -17 -15 -22 3 -4 0 -8 -5 -8 -6 0 -11 -7 -11 -15 0 -8 -4 -15 -10 -15 -5 0 -10 -7 -10 -15 0 -8 -7 -15 -15 -15 -9 0 -15 -9 -15 -25 0 -16 -6 -25 -15 -25 -8 0 -14 -4 -13 -8 2 -4 -9 -20 -24 -35 -16 -16 -28 -34 -28 -42 0 -8 -4 -15 -10 -15 -5 0 -10 -5 -10 -11 0 -13 -25 -39 -38 -39 -5 0 -13 -11 -16 -25 -4 -14 -11 -25 -16 -25 -6 0 -10 -5 -10 -11 0 -7 -16 -27 -35 -46 -19 -19 -35 -37 -35 -42 0 -4 -11 -14 -25 -21 -14 -7 -25 -19 -25 -25 0 -6 -11 -18 -25 -25 -14 -7 -25 -17 -25 -22 0 -13 -26 -38 -40 -38 -6 0 -9 -4 -6 -9 3 -5 -6 -17 -19 -27 -14 -10 -25 -24 -25 -31 0 -7 -8 -13 -17 -13 -9 0 -13 -3 -10 -6 7 -8 -36 -44 -52 -44 -6 0 -11 -5 -11 -11 0 -14 -25 -39 -39 -39 -6 0 -11 -7 -11 -15 0 -8 -7 -15 -15 -15 -8 0 -15 -4 -15 -10 0 -5 -7 -10 -16 -10 -8 0 -13 -4 -10 -8 6 -9 -29 -42 -44 -42 -6 0 -10 -7 -10 -15 0 -8 -7 -15 -15 -15 -8 0 -15 -4 -15 -10 0 -5 -9 -10 -21 -10 -12 0 -17 -4 -14 -11 4 -6 -2 -13 -14 -16 -12 -3 -21 -9 -21 -14 0 -5 -6 -9 -14 -9 -8 0 -16 -7 -20 -15 -3 -8 -12 -15 -21 -15 -8 0 -15 -7 -15 -15 0 -8 -7 -15 -15 -15 -8 0 -15 -4 -15 -10 0 -5 -9 -10 -21 -10 -11 0 -18 -4 -14 -9 3 -5 -4 -12 -15 -16 -11 -3 -20 -11 -20 -16 0 -5 -7 -9 -15 -9 -8 0 -15 -7 -15 -15 0 -8 -9 -15 -20 -15 -11 0 -20 -4 -20 -10 0 -5 -9 -10 -20 -10 -11 0 -20 -7 -20 -15 0 -8 -9 -15 -20 -15 -11 0 -20 -4 -20 -10 0 -5 -9 -10 -19 -10 -10 0 -21 -7 -25 -15 -3 -8 -12 -15 -21 -15 -8 0 -15 -4 -15 -10 0 -5 -11 -10 -25 -10 -14 0 -24 -5 -22 -12 1 -7 -8 -14 -21 -16 -12 -2 -20 -7 -17 -12 3 -4 -6 -11 -20 -14 -14 -4 -25 -11 -25 -16 0 -6 -9 -10 -19 -10 -10 0 -21 -7 -25 -15 -3 -8 -14 -15 -25 -15 -11 0 -23 -4 -26 -10 -3 -5 -17 -10 -30 -10 -12 0 -25 -7 -29 -15 -3 -8 -15 -15 -26 -15 -11 0 -20 -4 -20 -10 0 -5 -11 -10 -24 -10 -13 0 -26 -7 -30 -15 -3 -8 -15 -15 -26 -15 -11 0 -20 -4 -20 -10 0 -5 -13 -10 -30 -10 -19 0 -29 -5 -27 -12 1 -8 -10 -14 -25 -16 -16 -2 -28 -8 -28 -13 0 -5 -18 -9 -39 -9 -25 0 -41 -5 -45 -15 -3 -8 -16 -15 -30 -15 -13 0 -26 -7 -30 -15 -3 -9 -18 -15 -36 -15 -16 0 -30 -4 -30 -10 0 -5 -14 -10 -31 -10 -17 0 -37 -7 -45 -15 -9 -8 -29 -15 -45 -15 -16 0 -29 -4 -29 -10 0 -5 -20 -10 -44 -10 -30 0 -46 -5 -50 -15 -3 -10 -19 -15 -46 -15 -22 0 -40 -4 -40 -10 0 -5 -23 -10 -51 -10 -27 0 -48 -4 -45 -9 9 -13 -19 -21 -75 -21 -27 0 -49 -4 -49 -10 0 -6 -34 -10 -82 -10 -49 0 -78 -4 -70 -9 21 -13 -10 -21 -79 -21 -33 0 -59 -4 -59 -10 0 -6 -61 -10 -162 -10 -93 0 -157 -4 -150 -9 11 -7 10 -10 -3 -15 -26 -10 -105 -7 -105 4 0 6 5 10 10 10 15 0 14 1157 -2 1162 -6 2 -9 12 -5 21 6 15 24 17 142 17 78 0 134 4 131 9 -9 13 19 21 74 21 27 0 52 5 55 10 3 6 39 10 78 10 43 0 67 4 59 9 -16 10 16 21 60 21 15 0 30 5 33 10 3 6 26 10 51 10 30 0 43 4 42 13 -2 8 12 13 40 15 23 2 40 7 37 13 -4 5 12 9 34 9 28 0 40 4 39 13 -2 7 10 13 30 15 17 2 32 7 32 13 0 5 11 9 24 9 13 0 29 7 36 15 7 8 23 15 35 15 13 0 25 7 29 15 3 8 15 15 26 15 11 0 20 5 20 10 0 6 14 10 31 10 18 0 28 4 24 10 -4 6 7 13 24 16 17 4 31 10 31 15 0 5 11 9 25 9 14 0 24 5 23 12 -2 7 7 14 20 16 12 2 22 8 22 13 0 5 9 9 19 9 10 0 21 7 25 15 3 8 12 15 21 15 8 0 15 5 15 10 0 6 12 10 26 10 15 0 23 4 19 11 -4 6 2 13 14 16 12 3 21 9 21 14 0 5 9 9 20 9 11 0 20 7 20 15 0 8 6 15 14 15 8 0 16 7 20 15 3 8 12 15 21 15 8 0 15 5 15 10 0 6 4 10 9 10 6 0 22 11 37 25 15 14 31 25 36 25 5 0 19 11 32 25 13 14 26 25 30 25 4 0 17 11 30 25 13 14 29 25 35 25 7 0 10 4 7 8 -6 9 29 42 44 42 6 0 10 7 10 15 0 8 5 15 10 15 11 0 70 56 70 66 0 10 28 34 39 34 6 0 11 5 11 11 0 14 26 39 40 39 6 0 9 4 6 8 -6 10 29 42 45 42 5 0 8 4 5 8 -3 5 4 16 15 25 10 9 19 24 19 32 0 8 5 15 10 15 6 0 10 5 10 11 0 14 25 39 39 39 6 0 11 9 11 20 0 10 8 24 18 29 9 6 13 11 8 11 -5 0 5 14 23 30 17 17 31 37 31 45 0 8 4 15 9 15 5 0 12 11 15 25 4 14 11 25 16 25 6 0 10 7 10 15 0 8 4 15 9 15 5 0 12 11 15 25 4 14 11 25 16 25 6 0 10 7 10 15 0 8 4 15 10 15 5 0 12 11 16 25 3 14 10 25 15 25 5 0 9 11 9 25 0 14 4 25 10 25 5 0 12 11 16 25 3 14 10 25 15 25 5 0 9 11 9 25 0 14 4 25 10 25 5 0 12 11 16 25 3 14 10 25 15 25 5 0 9 9 9 19 0 28 11 52 21 45 5 -3 9 11 9 30 0 20 5 36 10 36 6 0 10 9 10 19 0 11 3 27 6 36 5 13 8 14 15 3 6 -8 9 2 9 30 0 23 5 42 10 42 6 0 10 12 10 28 0 39 11 73 21 66 5 -3 9 13 9 35 0 23 5 41 10 41 6 0 10 17 10 38 0 21 7 47 15 58 8 11 14 41 15 72 0 34 6 59 15 68 11 11 15 38 15 95 0 51 4 78 10 74 6 -4 10 28 10 89 l0 96 611 0 611 0 -6 -47z"></path></g></svg>