<svg xmlns="http://www.w3.org/2000/svg" width="1080.000000pt" height="1080.000000pt" viewBox="0 0 1080.000000 1080.000000" preserveAspectRatio="xMidYMid meet"><metadata>
Created by potrace 1.16, written by Peter Selinger 2001-2019
</metadata><g transform="translate(0.000000,1080.000000) scale(0.100000,-0.100000)" fill="#000000" stroke="none"><path d="M5006 8853 c-69 -3 -102 -8 -113 -18 -10 -11 -38 -15 -98 -15 -56 0 -85 -4 -87 -12 -3 -7 -32 -14 -76 -16 -40 -2 -72 -8 -72 -13 0 -5 -31 -9 -70 -9 -51 0 -69 -3 -68 -12 2 -9 -16 -14 -57 -16 -39 -2 -63 -8 -68 -18 -5 -9 -25 -14 -57 -14 -27 0 -50 -5 -52 -11 -2 -6 -27 -14 -56 -17 -29 -2 -52 -8 -52 -13 0 -5 -25 -9 -55 -9 -39 0 -54 -4 -52 -12 1 -9 -15 -15 -46 -18 -26 -3 -47 -9 -47 -15 0 -5 -18 -11 -41 -13 -23 -2 -48 -10 -56 -18 -8 -8 -28 -14 -44 -14 -16 0 -29 -4 -29 -10 0 -5 -20 -10 -45 -10 -33 0 -45 -4 -45 -15 0 -11 -11 -15 -39 -15 -25 0 -41 -5 -45 -15 -3 -9 -18 -15 -40 -15 -21 0 -36 -6 -40 -15 -3 -9 -18 -15 -36 -15 -16 0 -30 -4 -30 -10 0 -5 -18 -10 -40 -10 -29 0 -40 -4 -40 -15 0 -10 -11 -15 -35 -15 -24 0 -35 -5 -35 -15 0 -10 -10 -15 -34 -15 -21 0 -36 -6 -40 -15 -3 -8 -14 -15 -26 -15 -41 0 -60 -30 -60 -96 0 -54 3 -62 21 -67 12 -3 18 -10 14 -16 -4 -8 19 -11 70 -11 42 0 74 4 71 9 -7 11 17 21 50 21 14 0 23 4 19 9 -3 6 10 13 30 17 19 3 38 10 41 15 3 5 23 9 44 9 31 0 38 3 34 15 -5 12 3 15 35 15 30 0 41 4 41 15 0 11 11 15 39 15 25 0 41 5 45 15 3 9 19 15 41 15 19 0 35 5 35 10 0 6 20 10 45 10 31 0 44 4 42 13 -1 7 13 13 38 15 22 2 44 10 48 18 5 9 24 14 53 14 25 0 43 4 40 9 -8 12 18 21 60 21 19 0 34 5 34 10 0 6 25 10 55 10 39 0 54 4 52 13 -1 8 17 14 56 17 31 3 56 10 55 15 -2 6 23 11 57 13 39 2 63 8 68 18 6 10 26 14 67 14 33 0 60 4 60 10 0 6 33 10 80 10 66 0 78 2 74 15 -5 13 8 15 81 15 48 0 84 4 81 9 -10 16 23 21 125 21 64 0 98 4 94 10 -3 6 -5 11 -3 12 5 2 379 18 576 24 116 3 172 2 172 -6 0 -6 60 -10 174 -10 142 0 177 -3 190 -15 11 -11 37 -15 99 -15 89 0 121 -6 111 -21 -3 -5 31 -9 75 -9 65 0 81 -3 81 -15 0 -12 14 -15 65 -15 37 0 65 -4 65 -10 0 -5 22 -10 49 -10 31 0 55 -6 65 -15 8 -8 32 -15 55 -15 24 0 43 -6 48 -14 5 -8 27 -16 53 -18 29 -2 44 -7 42 -15 -1 -9 12 -13 43 -13 25 0 45 -4 45 -10 0 -5 13 -10 29 -10 37 0 62 -10 55 -21 -3 -5 11 -9 30 -9 20 0 38 -6 43 -14 4 -8 24 -16 43 -18 21 -2 34 -8 32 -15 -1 -9 10 -13 32 -13 19 0 38 -4 41 -10 3 -5 17 -10 30 -10 13 0 28 -6 32 -14 4 -8 22 -16 38 -18 17 -2 29 -8 27 -15 -1 -8 9 -13 28 -13 20 0 30 -5 30 -15 0 -10 10 -15 30 -15 17 0 30 -4 30 -9 0 -5 14 -12 30 -16 17 -4 30 -10 30 -15 0 -5 11 -10 25 -12 14 -2 24 -7 23 -13 -2 -5 11 -12 27 -15 17 -4 29 -11 27 -18 -1 -7 10 -12 27 -12 16 0 31 -6 35 -15 3 -8 15 -15 26 -15 11 0 20 -4 20 -9 0 -5 10 -11 23 -13 12 -2 21 -9 19 -16 -1 -7 9 -12 23 -12 16 0 25 -6 25 -15 0 -9 9 -15 25 -15 16 0 25 -6 25 -15 0 -8 9 -15 20 -15 11 0 20 -4 20 -10 0 -5 6 -10 14 -10 8 0 21 -6 28 -13 7 -7 21 -16 31 -20 10 -4 15 -11 12 -17 -4 -6 5 -10 19 -10 16 0 26 -6 26 -15 0 -8 9 -15 20 -15 11 0 20 -4 20 -10 0 -5 7 -10 15 -10 9 0 18 -7 21 -15 4 -8 15 -15 25 -15 10 0 19 -6 19 -14 0 -7 9 -16 21 -19 12 -3 18 -10 14 -16 -4 -7 4 -11 19 -11 14 0 26 -4 26 -10 0 -5 7 -10 15 -10 8 0 15 -6 15 -14 0 -7 9 -16 21 -19 12 -3 18 -10 15 -16 -4 -5 4 -11 16 -13 13 -2 22 -9 21 -16 -2 -6 4 -12 13 -12 9 0 26 -10 38 -23 12 -13 30 -26 39 -30 10 -4 15 -11 12 -17 -3 -5 3 -10 14 -10 12 0 21 -7 21 -15 0 -8 7 -15 15 -15 17 0 94 -70 79 -71 -5 0 1 -4 14 -10 13 -5 20 -13 17 -19 -3 -5 0 -10 7 -10 8 0 33 -18 57 -40 23 -22 47 -40 52 -40 5 0 9 -7 9 -15 0 -8 7 -15 15 -15 8 0 15 -7 15 -15 0 -8 5 -15 11 -15 14 0 75 -61 72 -72 -2 -4 4 -8 12 -8 8 0 15 -7 15 -15 0 -8 4 -15 10 -15 12 0 70 -56 70 -69 0 -5 7 -12 16 -15 8 -3 12 -10 9 -16 -3 -5 1 -10 9 -10 9 0 16 -4 16 -8 0 -5 10 -19 22 -32 13 -14 22 -28 21 -32 -2 -5 4 -8 12 -8 8 0 15 -7 15 -15 0 -8 4 -15 10 -15 15 0 50 -33 44 -42 -3 -4 2 -8 10 -8 9 0 16 -7 16 -15 0 -8 5 -15 10 -15 6 0 10 -4 10 -10 0 -10 6 -18 63 -79 15 -16 27 -35 27 -40 0 -6 7 -11 15 -11 8 0 15 -7 15 -15 0 -8 4 -15 10 -15 5 0 12 -11 16 -25 3 -14 12 -25 20 -25 8 0 14 -7 14 -15 0 -8 5 -15 10 -15 6 0 10 -7 10 -15 0 -8 6 -15 14 -15 8 0 17 -11 20 -25 4 -14 11 -25 16 -25 6 0 10 -6 10 -14 0 -8 7 -17 16 -20 8 -3 12 -10 9 -16 -3 -5 0 -10 8 -10 8 0 18 -11 21 -25 4 -14 11 -25 16 -25 6 0 10 -7 10 -15 0 -8 6 -15 14 -15 8 0 16 -10 20 -23 3 -12 14 -32 26 -44 11 -12 20 -26 20 -32 0 -5 7 -11 15 -15 8 -3 15 -9 14 -13 -4 -21 2 -33 16 -33 8 0 15 -9 15 -20 0 -11 4 -20 10 -20 5 0 12 -11 16 -25 3 -14 10 -25 15 -25 5 0 9 -7 9 -15 0 -8 4 -15 10 -15 5 0 12 -11 16 -25 3 -14 12 -25 20 -25 8 0 14 -10 14 -24 0 -13 7 -27 16 -30 9 -4 14 -13 10 -21 -3 -8 0 -14 7 -12 7 1 13 -10 15 -25 2 -16 9 -28 18 -28 8 0 14 -10 14 -25 0 -16 6 -25 15 -25 8 0 15 -9 15 -20 0 -11 4 -20 10 -20 5 0 12 -11 16 -25 3 -14 10 -25 15 -25 5 0 9 -11 9 -25 0 -16 6 -25 15 -25 9 0 15 -9 15 -25 0 -14 7 -28 15 -31 8 -4 15 -17 15 -30 0 -13 6 -24 13 -24 8 0 19 -22 27 -50 7 -27 17 -47 21 -44 5 3 12 -8 15 -23 4 -15 13 -34 21 -41 7 -7 13 -22 13 -32 0 -10 5 -20 11 -22 12 -4 39 -73 39 -100 0 -10 7 -18 15 -18 10 0 15 -10 15 -30 0 -20 5 -30 15 -30 9 0 15 -9 15 -25 0 -14 4 -25 10 -25 5 0 12 -16 16 -35 3 -19 10 -38 15 -41 5 -3 9 -18 9 -35 0 -19 5 -29 15 -29 8 0 15 -7 15 -15 0 -8 -6 -15 -14 -15 -8 0 -16 -7 -20 -15 -3 -8 -17 -15 -31 -15 -14 0 -25 -4 -25 -10 0 -5 -13 -10 -30 -10 -18 0 -29 -5 -27 -12 1 -7 -12 -15 -31 -18 -18 -3 -32 -9 -32 -15 0 -5 -10 -12 -22 -13 -13 -2 -27 -10 -31 -18 -4 -8 -19 -14 -32 -14 -14 0 -25 -4 -25 -10 0 -5 -13 -10 -30 -10 -20 0 -30 -5 -30 -15 0 -10 -10 -15 -30 -15 -20 0 -30 -5 -30 -15 0 -10 -10 -15 -30 -15 -19 0 -29 -5 -27 -12 1 -8 -10 -14 -25 -16 -16 -2 -28 -8 -28 -13 0 -5 -11 -9 -25 -9 -14 0 -28 -7 -31 -15 -4 -9 -19 -15 -40 -15 -22 0 -33 -4 -31 -12 1 -7 -9 -14 -23 -16 -14 -2 -29 -10 -33 -18 -4 -8 -19 -14 -31 -14 -13 0 -26 -7 -30 -15 -3 -8 -14 -15 -25 -15 -11 0 -23 -4 -26 -10 -3 -5 -19 -10 -36 -10 -18 0 -28 -5 -26 -12 1 -7 -9 -14 -23 -16 -14 -2 -29 -10 -33 -18 -4 -8 -17 -14 -28 -14 -11 0 -27 -7 -35 -15 -9 -8 -24 -15 -35 -15 -10 0 -19 -4 -19 -10 0 -5 -13 -10 -30 -10 -18 0 -29 -5 -27 -12 1 -7 -12 -15 -31 -18 -18 -3 -32 -9 -32 -15 0 -5 -9 -12 -21 -13 -12 -2 -29 -10 -36 -18 -8 -8 -23 -14 -34 -14 -10 0 -19 -4 -19 -10 0 -5 -13 -10 -30 -10 -20 0 -30 -5 -30 -15 0 -10 -10 -15 -30 -15 -20 0 -30 -5 -30 -15 0 -10 -10 -15 -30 -15 -19 0 -29 -5 -27 -12 1 -8 -10 -14 -25 -16 -16 -2 -28 -8 -28 -13 0 -5 -13 -9 -30 -9 -20 0 -30 -5 -30 -15 0 -10 -10 -15 -29 -15 -16 0 -31 -6 -35 -15 -3 -8 -16 -15 -30 -15 -13 0 -26 -7 -30 -15 -3 -8 -17 -15 -31 -15 -14 0 -25 -4 -25 -10 0 -5 -13 -10 -30 -10 -18 0 -29 -5 -27 -12 1 -7 -12 -15 -31 -18 -18 -3 -32 -9 -32 -15 0 -5 -10 -12 -22 -13 -13 -2 -27 -10 -31 -18 -4 -8 -19 -14 -32 -14 -14 0 -25 -4 -25 -10 0 -5 -11 -10 -25 -10 -14 0 -28 -7 -31 -15 -4 -9 -19 -15 -35 -15 -18 0 -28 -5 -26 -12 1 -7 -12 -15 -31 -18 -18 -3 -32 -9 -32 -15 0 -5 -9 -12 -21 -13 -12 -2 -29 -10 -36 -18 -8 -8 -23 -14 -34 -14 -10 0 -19 -4 -19 -10 0 -5 -16 -10 -35 -10 -26 0 -33 -3 -29 -15 5 -11 -1 -15 -24 -15 -17 0 -32 -6 -36 -15 -3 -8 -16 -15 -30 -15 -13 0 -26 -7 -30 -15 -3 -8 -15 -15 -26 -15 -11 0 -20 -4 -20 -10 0 -5 -16 -10 -35 -10 -26 0 -33 -3 -29 -15 5 -11 -1 -15 -25 -15 -26 0 -31 4 -31 25 0 16 -6 25 -15 25 -10 0 -15 10 -15 30 0 17 -4 30 -10 30 -5 0 -10 12 -10 26 0 14 -7 32 -15 40 -8 9 -15 26 -15 40 0 14 -7 27 -15 30 -8 4 -15 16 -15 29 0 13 -7 25 -15 29 -8 3 -15 16 -15 30 0 13 -5 26 -10 28 -6 2 -12 19 -15 38 -2 19 -9 36 -15 38 -5 2 -10 15 -10 28 0 14 -7 27 -15 30 -9 4 -15 19 -15 36 0 16 -4 27 -10 23 -5 -3 -12 12 -16 34 -3 22 -13 42 -21 45 -8 4 -13 13 -9 21 3 8 -1 21 -9 29 -8 8 -15 26 -15 41 0 16 -4 24 -11 20 -6 -4 -13 2 -16 14 -3 12 -10 21 -15 21 -5 0 -6 4 -3 10 4 6 -17 10 -54 10 -48 0 -65 -4 -81 -20 -11 -11 -20 -24 -20 -30 0 -5 -4 -10 -10 -10 -14 0 -13 -77 1 -82 6 -2 12 -16 12 -31 0 -16 5 -27 13 -27 9 0 14 -12 14 -35 0 -22 6 -38 15 -41 8 -4 15 -17 15 -30 0 -15 6 -24 15 -24 9 0 15 -10 15 -26 0 -14 7 -33 16 -41 10 -10 13 -25 9 -40 -4 -16 -1 -25 10 -29 8 -4 15 -17 15 -30 0 -15 6 -24 15 -24 11 0 15 -11 15 -36 0 -20 4 -33 10 -29 5 3 12 -12 16 -35 4 -24 12 -40 20 -40 9 0 14 -11 14 -30 0 -16 5 -30 10 -30 6 0 10 -12 10 -26 0 -14 7 -32 15 -40 8 -9 15 -26 15 -40 0 -14 7 -27 15 -30 8 -4 15 -17 15 -29 0 -13 5 -25 12 -27 6 -2 13 -15 15 -29 2 -13 8 -25 13 -27 6 -2 10 -19 10 -38 0 -22 6 -37 15 -40 8 -4 15 -12 15 -20 0 -10 12 -14 40 -14 26 0 39 4 37 12 -1 7 12 15 31 18 18 3 32 10 32 15 0 6 10 12 22 13 13 2 27 10 31 18 4 8 19 14 32 14 14 0 25 5 25 10 0 6 14 10 30 10 20 0 30 5 30 15 0 10 10 15 30 15 18 0 29 5 27 12 -1 7 9 14 22 16 13 2 31 10 38 18 8 8 23 14 34 14 10 0 19 5 19 10 0 6 16 10 35 10 26 0 33 3 29 15 -5 11 1 15 25 15 21 0 31 5 31 15 0 10 10 15 29 15 16 0 31 6 35 15 3 8 15 15 26 15 11 0 20 5 20 10 0 6 14 10 30 10 20 0 30 5 30 15 0 10 10 15 29 15 16 0 31 6 35 15 3 8 16 15 30 15 13 0 26 7 30 15 3 8 17 15 31 15 14 0 25 5 25 10 0 6 9 10 19 10 11 0 26 7 35 15 8 8 26 15 40 15 15 0 25 5 23 12 -1 7 9 14 23 16 14 2 29 10 33 18 4 8 19 14 31 14 13 0 26 7 30 15 3 8 17 15 31 15 14 0 25 5 25 10 0 6 14 10 30 10 20 0 30 5 30 15 0 10 10 15 30 15 18 0 29 5 27 12 -1 7 9 14 22 16 13 2 31 10 38 18 8 8 23 14 34 14 10 0 19 5 19 10 0 6 16 10 35 10 26 0 33 3 29 15 -5 11 1 15 24 15 17 0 32 6 36 15 3 8 16 15 30 15 13 0 26 7 30 15 3 8 14 15 25 15 11 0 23 5 26 10 3 6 19 10 36 10 18 0 28 5 26 12 -1 7 9 14 23 16 14 2 29 10 33 18 4 8 19 14 31 14 13 0 26 7 30 15 3 8 17 15 31 15 14 0 25 5 25 10 0 6 13 10 30 10 18 0 29 5 27 12 -1 7 12 15 31 18 18 3 32 10 32 15 0 6 10 12 22 13 13 2 27 10 31 18 4 8 19 14 32 14 14 0 25 5 25 10 0 6 14 10 30 10 20 0 30 5 30 15 0 10 10 15 30 15 20 0 30 5 30 15 0 10 10 15 30 15 19 0 29 5 27 13 -1 7 10 13 26 15 15 2 27 8 27 13 0 5 11 9 25 9 14 0 28 7 31 15 4 9 19 15 40 15 22 0 33 4 32 12 -2 7 8 14 22 16 14 2 29 10 33 18 4 8 19 14 31 14 13 0 26 7 30 15 3 8 14 15 25 15 11 0 23 4 26 10 3 6 19 10 36 10 18 0 28 5 27 12 -2 7 8 14 22 16 14 2 29 10 33 18 4 8 19 14 31 14 13 0 26 7 30 15 3 8 17 15 31 15 14 0 25 5 25 10 0 6 16 10 35 10 l35 0 0 70 c0 40 -4 70 -10 70 -5 0 -10 14 -10 30 0 20 -5 30 -15 30 -11 0 -15 11 -15 40 0 22 -4 40 -10 40 -5 0 -10 11 -10 25 0 16 -6 25 -15 25 -11 0 -15 11 -15 36 0 20 -4 33 -10 29 -5 -3 -12 12 -16 35 -4 24 -12 40 -20 40 -9 0 -14 11 -14 30 0 17 -4 30 -10 30 -5 0 -10 9 -10 20 0 11 -7 23 -15 26 -9 4 -15 19 -15 35 0 19 -5 29 -15 29 -9 0 -15 9 -15 24 0 13 -7 26 -15 30 -8 3 -15 17 -15 31 0 14 -4 25 -9 25 -5 0 -12 11 -15 25 -4 14 -11 25 -16 25 -6 0 -10 14 -10 30 0 20 -5 30 -15 30 -9 0 -15 9 -15 25 0 16 -6 25 -15 25 -10 0 -15 10 -15 30 0 20 -5 30 -15 30 -8 0 -15 7 -15 15 0 8 -4 15 -10 15 -5 0 -10 11 -10 25 0 16 -6 25 -15 25 -10 0 -15 10 -15 30 0 20 -5 30 -15 30 -8 0 -15 7 -15 15 0 8 -4 15 -10 15 -5 0 -12 11 -16 25 -3 14 -10 25 -15 25 -5 0 -9 9 -9 20 0 11 -7 23 -15 26 -8 4 -15 15 -15 25 0 10 -4 19 -10 19 -5 0 -12 11 -16 25 -3 14 -12 25 -20 25 -8 0 -14 8 -14 18 0 9 -11 29 -25 44 -14 15 -25 36 -25 46 0 10 -13 29 -30 42 -18 14 -30 32 -30 46 0 15 -6 24 -15 24 -8 0 -15 7 -15 15 0 8 -4 15 -9 15 -5 0 -12 11 -15 25 -4 14 -11 25 -16 25 -6 0 -10 7 -10 15 0 8 -7 15 -15 15 -8 0 -15 7 -15 15 0 8 -4 15 -10 15 -5 0 -10 7 -10 15 0 8 -9 23 -19 32 -11 9 -18 20 -15 25 3 4 -2 8 -10 8 -9 0 -16 7 -16 15 0 8 -4 15 -10 15 -5 0 -12 11 -16 25 -3 14 -12 25 -20 25 -8 0 -14 7 -14 15 0 8 -4 15 -10 15 -5 0 -10 7 -10 15 0 8 -6 15 -14 15 -8 0 -17 11 -20 25 -4 14 -11 25 -16 25 -6 0 -10 7 -10 15 0 8 -7 15 -15 15 -8 0 -15 7 -15 15 0 8 -4 15 -10 15 -5 0 -10 7 -10 15 0 8 -7 15 -15 15 -8 0 -15 5 -15 10 0 6 -9 20 -20 32 -10 12 -17 25 -14 30 3 4 -2 8 -10 8 -9 0 -16 7 -16 15 0 8 -5 15 -11 15 -14 0 -39 25 -39 39 0 6 -7 11 -15 11 -8 0 -15 7 -15 15 0 8 -7 15 -15 15 -8 0 -15 7 -15 15 0 8 -4 15 -10 15 -5 0 -10 7 -10 15 0 8 -7 15 -15 15 -8 0 -15 4 -15 8 0 5 -10 19 -22 32 -13 14 -22 28 -21 32 2 5 -4 8 -12 8 -8 0 -15 4 -15 8 0 9 -86 102 -94 102 -10 0 -71 65 -69 72 2 4 -4 8 -12 8 -8 0 -15 7 -15 15 0 8 -7 15 -15 15 -9 0 -18 7 -21 15 -4 8 -11 15 -16 15 -13 0 -74 62 -71 72 2 4 -6 8 -17 8 -11 0 -20 7 -20 15 0 8 -5 15 -11 15 -14 0 -75 61 -72 72 2 4 -6 8 -17 8 -11 0 -20 7 -20 15 0 8 -9 15 -20 15 -11 0 -20 5 -20 10 0 6 -7 10 -15 10 -8 0 -15 7 -15 15 0 8 -7 15 -15 15 -8 0 -15 6 -15 14 0 7 -9 16 -21 19 -12 3 -18 10 -14 16 3 7 -3 11 -16 11 -12 0 -31 10 -43 23 -12 13 -30 26 -39 30 -10 4 -15 11 -12 17 4 6 -5 10 -19 10 -16 0 -26 6 -26 15 0 8 -7 15 -15 15 -8 0 -15 5 -15 10 0 6 -7 10 -15 10 -9 0 -18 7 -21 15 -4 8 -15 15 -25 15 -10 0 -19 7 -19 15 0 8 -9 15 -20 15 -11 0 -20 7 -20 15 0 8 -9 15 -20 15 -11 0 -20 5 -20 10 0 6 -7 10 -15 10 -9 0 -18 7 -21 15 -4 8 -14 15 -25 15 -10 0 -22 6 -26 14 -4 8 -17 16 -28 18 -11 2 -19 10 -17 16 1 7 -9 12 -22 12 -13 0 -26 7 -30 15 -3 8 -15 15 -26 15 -11 0 -20 5 -20 10 0 6 -7 10 -15 10 -7 0 -18 6 -22 14 -4 8 -17 16 -28 18 -11 2 -19 10 -17 16 1 7 -10 12 -28 12 -20 0 -30 5 -30 15 0 9 -9 15 -25 15 -14 0 -25 5 -25 10 0 6 -11 10 -25 10 -16 0 -25 6 -25 15 0 9 -9 15 -25 15 -13 0 -28 6 -32 14 -4 8 -19 16 -33 18 -14 2 -24 9 -22 16 1 7 -10 12 -28 12 -16 0 -30 5 -30 10 0 6 -11 10 -25 10 -13 0 -28 6 -32 14 -4 8 -21 16 -38 18 -17 2 -29 8 -27 16 1 8 -10 12 -33 12 -24 0 -35 5 -35 15 0 10 -11 15 -35 15 -19 0 -35 5 -35 10 0 6 -11 10 -24 10 -33 0 -57 10 -50 21 3 5 -11 9 -31 9 -22 0 -38 6 -41 15 -4 10 -20 15 -46 15 -32 0 -39 3 -34 15 4 12 -3 15 -34 15 -22 0 -48 4 -58 9 -9 6 -34 13 -54 16 -21 3 -38 10 -38 15 0 6 -17 10 -37 10 -35 0 -81 17 -58 22 6 1 -17 4 -50 7 -40 4 -59 10 -57 19 1 8 -15 12 -57 12 -33 0 -62 4 -65 9 -3 5 -34 11 -68 13 -35 3 -64 10 -66 16 -2 8 -30 12 -77 12 -75 0 -108 6 -100 20 8 13 -276 20 -765 18 -267 -1 -529 -4 -584 -5z"></path><path d="M4924 8151 c9 -13 -31 -21 -116 -21 -50 0 -78 -4 -80 -12 -3 -7 -32 -14 -71 -16 -37 -2 -67 -8 -67 -13 0 -5 -29 -9 -65 -9 -47 0 -64 -4 -63 -12 2 -9 -14 -14 -47 -16 -30 -2 -53 -9 -58 -18 -5 -8 -23 -14 -47 -14 -21 0 -40 -5 -42 -11 -2 -5 -22 -13 -46 -16 -23 -3 -42 -10 -42 -14 0 -5 -20 -9 -45 -9 -30 0 -44 -4 -42 -12 1 -8 -13 -15 -36 -18 -21 -3 -37 -9 -37 -15 0 -5 -16 -13 -37 -16 -21 -3 -33 -7 -28 -8 20 -3 -21 -21 -47 -21 -16 0 -28 -4 -28 -10 0 -5 -16 -10 -35 -10 -26 0 -33 -3 -29 -15 5 -12 -2 -15 -30 -15 -23 0 -35 -4 -33 -12 1 -7 -9 -14 -23 -16 -14 -2 -29 -10 -33 -18 -4 -8 -19 -14 -32 -14 -14 0 -25 -4 -25 -10 0 -5 -13 -10 -30 -10 -20 0 -30 -5 -30 -15 0 -9 -9 -15 -24 -15 -13 0 -26 -7 -30 -15 -3 -8 -14 -15 -25 -15 -10 0 -21 -7 -25 -15 -3 -8 -14 -15 -25 -15 -11 0 -23 -4 -26 -10 -3 -5 -15 -10 -26 -10 -10 0 -19 -7 -19 -15 0 -9 -9 -15 -25 -15 -16 0 -25 -6 -25 -15 0 -9 -9 -15 -25 -15 -16 0 -25 -6 -25 -15 0 -8 -6 -15 -13 -15 -21 0 -77 -30 -77 -41 0 -5 -11 -9 -25 -9 -14 0 -24 -5 -23 -12 2 -6 -6 -14 -17 -16 -11 -2 -24 -10 -28 -18 -4 -8 -14 -14 -21 -14 -8 0 -16 -7 -20 -15 -3 -8 -12 -15 -21 -15 -8 0 -15 -4 -15 -10 0 -5 -12 -10 -26 -10 -14 0 -23 -4 -19 -10 3 -6 -2 -13 -12 -17 -10 -3 -22 -12 -26 -20 -4 -7 -14 -13 -21 -13 -8 0 -16 -7 -20 -15 -3 -8 -12 -15 -21 -15 -8 0 -15 -4 -15 -10 0 -5 -11 -10 -25 -10 -18 0 -23 -4 -19 -15 4 -10 0 -15 -15 -15 -12 0 -21 -6 -21 -15 0 -8 -5 -15 -11 -15 -6 0 -17 -6 -24 -12 -35 -32 -45 -38 -60 -38 -8 0 -15 -7 -15 -15 0 -8 -7 -15 -15 -15 -8 0 -15 -7 -15 -15 0 -8 -7 -15 -15 -15 -9 0 -26 -11 -39 -25 -13 -14 -31 -25 -40 -25 -10 0 -14 -5 -11 -11 4 -6 -2 -13 -14 -16 -12 -3 -21 -12 -21 -19 0 -8 -5 -14 -11 -14 -6 0 -17 -6 -24 -12 -33 -30 -45 -38 -55 -38 -5 0 -10 -7 -10 -15 0 -8 -7 -15 -15 -15 -8 0 -15 -7 -15 -15 0 -8 -7 -15 -15 -15 -8 0 -15 -7 -15 -15 0 -8 -7 -15 -15 -15 -8 0 -15 -4 -15 -10 0 -5 -7 -10 -15 -10 -8 0 -15 -7 -15 -15 0 -8 -9 -15 -21 -15 -12 0 -17 -4 -14 -11 4 -6 -2 -13 -14 -16 -11 -3 -18 -9 -15 -14 3 -5 1 -9 -5 -9 -5 0 -23 -13 -39 -30 -17 -16 -35 -30 -41 -30 -6 0 -11 -7 -11 -15 0 -8 -7 -15 -15 -15 -8 0 -14 -4 -13 -8 4 -11 -57 -72 -71 -72 -6 0 -11 -7 -11 -15 0 -8 -7 -15 -15 -15 -8 0 -15 -7 -15 -15 0 -8 -7 -15 -15 -15 -8 0 -15 -5 -15 -11 0 -14 -25 -39 -39 -39 -6 0 -11 -7 -11 -15 0 -8 -7 -15 -15 -15 -8 0 -15 -7 -15 -15 0 -8 -7 -15 -15 -15 -8 0 -15 -5 -15 -11 0 -13 -20 -33 -42 -42 -13 -4 -18 -17 -18 -42 0 -25 5 -38 18 -42 22 -9 42 -29 42 -42 0 -6 7 -11 15 -11 8 0 15 -6 15 -14 0 -8 7 -17 16 -20 8 -3 12 -10 9 -16 -3 -5 1 -10 9 -10 9 0 16 -4 16 -10 0 -9 19 -35 47 -65 7 -8 13 -18 13 -24 0 -6 4 -11 10 -11 13 0 70 -57 70 -70 0 -5 7 -10 15 -10 8 0 15 -7 15 -15 0 -8 5 -15 10 -15 6 0 10 -4 10 -10 0 -10 6 -18 63 -79 15 -16 27 -35 27 -40 0 -6 4 -11 10 -11 15 0 50 -33 44 -42 -3 -4 2 -8 10 -8 9 0 16 -6 16 -14 0 -8 7 -17 16 -20 8 -3 12 -10 9 -16 -3 -5 1 -10 9 -10 9 0 18 -11 22 -25 9 -34 56 -34 88 0 13 14 28 25 35 25 6 0 10 4 8 8 -3 11 88 102 102 102 6 0 11 7 11 15 0 8 7 15 15 15 8 0 15 7 15 15 0 8 7 15 15 15 8 0 15 7 15 15 0 8 7 15 15 15 8 0 15 5 15 10 0 6 7 10 15 10 8 0 15 7 15 15 0 8 9 15 21 15 11 0 17 5 14 10 -3 6 2 13 11 17 10 3 35 24 56 45 21 21 45 38 53 38 8 0 15 7 15 15 0 8 9 15 21 15 11 0 17 5 14 10 -3 6 1 13 10 17 10 3 29 17 43 29 14 13 34 24 44 24 11 0 16 5 13 10 -3 6 2 13 12 17 10 3 22 12 26 20 4 7 12 13 18 13 9 0 21 8 54 38 7 6 23 12 34 12 14 0 19 5 15 15 -5 11 1 15 20 15 15 0 25 5 24 12 -2 6 6 14 17 16 11 2 24 10 28 18 4 8 15 14 22 14 8 0 15 5 15 10 0 6 12 10 26 10 15 0 23 4 19 11 -4 6 2 13 14 16 12 3 21 12 21 19 0 8 10 14 24 14 13 0 26 7 30 15 3 8 14 15 25 15 11 0 23 5 26 10 3 6 17 10 31 10 15 0 24 6 24 15 0 9 9 15 24 15 13 0 26 7 30 15 3 8 13 15 21 15 9 0 23 7 31 15 9 8 24 15 35 15 10 0 19 5 19 10 0 6 14 10 30 10 20 0 30 5 30 15 0 10 10 15 30 15 20 0 30 5 30 15 0 10 10 15 29 15 16 0 31 6 35 15 3 9 18 15 36 15 16 0 30 5 30 10 0 6 11 10 24 10 14 0 31 7 40 15 8 8 31 15 50 15 24 0 35 4 33 13 -1 8 11 12 38 12 27 0 39 -4 38 -12 -2 -7 2 -13 7 -13 6 0 10 -18 10 -40 0 -22 5 -40 10 -40 6 0 10 -23 10 -50 0 -36 4 -52 15 -56 10 -4 15 -20 15 -51 0 -24 4 -42 9 -39 11 7 21 -27 21 -70 0 -19 6 -34 15 -38 10 -4 15 -20 15 -50 0 -25 5 -48 10 -51 6 -3 10 -26 10 -51 0 -32 4 -44 15 -44 11 0 15 -12 15 -50 0 -36 4 -52 15 -56 10 -4 15 -20 15 -44 0 -21 5 -40 11 -42 6 -2 14 -27 17 -56 2 -29 8 -52 13 -52 5 0 9 -18 9 -41 0 -23 7 -47 15 -55 8 -9 15 -33 15 -55 0 -28 4 -39 15 -39 12 0 15 -13 15 -55 0 -42 3 -55 15 -55 11 0 15 -12 15 -44 0 -25 5 -46 12 -48 7 -3 11 -21 10 -45 -1 -26 4 -48 13 -57 8 -8 15 -33 15 -56 0 -23 4 -39 9 -36 11 7 21 -27 21 -71 0 -23 5 -33 15 -33 11 0 15 -12 15 -44 0 -27 6 -51 15 -60 11 -10 13 -24 9 -42 -5 -19 -2 -31 8 -38 22 -17 32 -66 13 -66 -8 0 -15 -7 -15 -15 0 -8 -7 -15 -15 -15 -8 0 -15 -4 -15 -10 0 -5 -9 -10 -20 -10 -11 0 -20 -7 -20 -15 0 -8 -9 -15 -21 -15 -11 0 -17 -5 -14 -10 3 -6 -1 -13 -9 -16 -9 -3 -13 -10 -10 -15 3 -5 0 -9 -5 -9 -6 0 -11 -7 -11 -15 0 -8 -7 -15 -15 -15 -8 0 -15 -7 -15 -15 0 -8 -7 -15 -15 -15 -10 0 -15 -10 -15 -31 0 -22 -4 -30 -14 -26 -9 4 -13 -3 -13 -21 0 -14 -6 -28 -12 -30 -6 -2 -11 -16 -11 -32 0 -16 -7 -35 -15 -44 -12 -12 -15 -46 -15 -176 0 -130 3 -164 15 -176 8 -9 15 -28 15 -44 0 -16 5 -30 11 -32 6 -2 12 -15 12 -30 1 -14 7 -26 12 -25 6 1 11 -10 13 -25 2 -16 9 -28 18 -28 8 0 14 -4 14 -9 0 -5 16 -26 35 -47 19 -20 33 -40 30 -44 -3 -4 5 -10 16 -13 12 -3 18 -10 14 -16 -4 -7 4 -11 19 -11 16 0 26 -6 26 -15 0 -8 7 -15 15 -15 8 0 15 -4 15 -10 0 -5 9 -10 20 -10 10 0 23 -6 27 -14 4 -8 18 -16 31 -18 12 -1 21 -7 20 -13 -2 -5 17 -12 42 -15 29 -3 44 -10 43 -17 -2 -10 37 -13 172 -13 151 0 174 2 169 15 -5 12 2 15 34 15 26 0 42 5 46 15 3 8 17 15 31 15 14 0 25 5 25 10 0 6 18 18 40 27 22 10 40 23 40 30 0 7 7 13 15 13 20 0 95 79 95 100 0 6 7 10 15 10 8 0 15 7 15 15 0 8 3 15 8 15 4 0 18 25 32 55 14 30 28 55 33 55 4 0 7 11 7 24 0 33 10 57 21 50 5 -3 9 68 9 166 0 139 -3 174 -15 186 -8 9 -15 29 -15 45 0 16 -4 29 -10 29 -5 0 -12 11 -16 25 -3 14 -10 25 -14 25 -5 0 -11 14 -15 30 -4 16 -11 30 -16 30 -5 0 -9 7 -9 15 0 8 -7 15 -15 15 -8 0 -15 5 -15 10 0 6 -9 20 -20 32 -10 12 -17 25 -14 30 3 4 -4 8 -15 8 -12 0 -21 7 -21 15 0 8 -9 15 -20 15 -11 0 -20 4 -20 9 0 5 -9 11 -21 14 -12 3 -18 10 -14 16 4 7 -4 11 -19 11 -16 0 -26 6 -26 15 0 10 -10 15 -30 15 -20 0 -30 5 -30 15 0 11 -11 15 -40 15 -22 0 -40 5 -40 10 0 6 -58 10 -155 10 l-156 0 6 33 c5 24 2 39 -9 50 -10 10 -16 33 -16 64 0 30 -3 43 -9 35 -10 -17 -21 16 -21 64 0 19 -6 34 -15 38 -11 4 -15 20 -15 56 0 37 -4 50 -14 50 -11 0 -13 9 -9 35 4 26 2 36 -11 41 -12 5 -16 19 -16 60 0 41 -4 54 -15 54 -11 0 -15 12 -15 51 0 27 -4 48 -9 45 -12 -8 -21 18 -21 64 0 21 -5 40 -11 42 -11 4 -25 61 -36 146 -3 27 -10 42 -19 42 -10 0 -14 15 -14 55 0 42 -3 55 -15 55 -11 0 -15 11 -15 39 0 22 -5 41 -11 43 -6 2 -14 27 -17 56 -2 29 -8 52 -13 52 -5 0 -9 23 -9 51 0 27 -4 48 -9 45 -12 -8 -21 18 -21 60 0 22 -6 37 -15 40 -11 4 -15 21 -15 55 0 35 -4 51 -15 55 -10 4 -15 20 -15 45 0 21 -4 39 -10 39 -5 0 -10 22 -10 50 0 31 -5 52 -14 57 -7 4 -15 25 -18 46 l-4 37 58 0 c45 0 58 3 58 15 0 12 15 15 76 15 42 0 73 4 70 9 -10 16 23 21 129 21 74 0 105 4 108 13 3 9 50 12 192 12 142 0 189 -3 193 -12 2 -9 33 -13 107 -13 80 0 106 -3 112 -14 6 -10 30 -16 78 -18 49 -2 69 -7 68 -15 -2 -9 13 -13 51 -13 30 0 58 -4 61 -10 3 -5 21 -10 40 -10 18 0 40 -7 49 -15 8 -8 28 -15 45 -15 16 0 34 -6 38 -14 4 -8 24 -16 43 -18 21 -2 34 -8 32 -15 -1 -9 11 -13 37 -13 25 0 41 -5 45 -15 3 -8 17 -15 31 -15 14 0 25 -4 25 -10 0 -5 11 -10 25 -10 13 0 28 -6 32 -14 4 -8 19 -16 33 -18 14 -2 24 -9 22 -16 -1 -7 10 -12 28 -12 20 0 30 -5 30 -15 0 -9 9 -15 25 -15 14 0 25 -4 25 -9 0 -5 11 -12 25 -15 14 -4 25 -11 25 -16 0 -6 9 -10 20 -10 11 0 20 -7 20 -15 0 -9 9 -15 25 -15 16 0 25 -6 25 -15 0 -8 9 -15 20 -15 11 0 20 -4 20 -10 0 -5 9 -10 20 -10 11 0 20 -7 20 -15 0 -8 9 -15 20 -15 11 0 20 -7 20 -15 0 -8 9 -15 20 -15 11 0 20 -7 20 -15 0 -8 7 -15 16 -15 8 0 22 -6 29 -12 33 -30 45 -38 55 -38 5 0 10 -6 10 -14 0 -7 9 -16 21 -19 12 -3 18 -10 14 -16 -3 -7 2 -11 14 -11 12 0 21 -4 21 -9 0 -5 9 -13 20 -16 11 -4 18 -11 15 -16 -4 -5 1 -9 10 -9 8 0 18 -7 21 -15 4 -8 12 -15 20 -15 8 0 14 -7 14 -15 0 -8 5 -15 11 -15 14 0 105 -91 101 -102 -1 -4 3 -8 9 -8 14 0 105 -91 101 -102 -1 -4 2 -8 8 -8 13 0 106 -92 103 -102 -2 -4 4 -8 12 -8 8 0 15 -7 15 -15 0 -8 5 -15 11 -15 11 0 39 -25 39 -35 0 -3 11 -16 25 -29 14 -13 25 -28 25 -35 0 -6 9 -16 20 -23 11 -7 20 -16 20 -21 0 -4 11 -18 25 -31 14 -13 25 -28 25 -35 0 -6 6 -11 14 -11 8 0 17 -11 20 -25 4 -14 11 -25 16 -25 6 0 10 -7 10 -15 0 -8 7 -15 15 -15 8 0 15 -7 15 -15 0 -8 5 -15 10 -15 6 0 10 -7 10 -15 0 -8 4 -15 10 -15 5 0 12 -11 16 -25 3 -14 12 -25 20 -25 8 0 14 -7 14 -15 0 -8 3 -15 8 -15 7 0 25 -30 38 -62 3 -10 13 -18 20 -18 8 0 14 -7 14 -15 0 -8 5 -15 10 -15 6 0 10 -6 10 -14 0 -8 14 -28 30 -44 17 -17 30 -40 30 -52 0 -11 7 -23 15 -26 8 -4 15 -13 15 -21 0 -8 4 -12 9 -9 5 4 12 -7 16 -24 4 -17 13 -30 22 -30 9 0 13 -6 10 -14 -3 -8 1 -17 9 -20 8 -3 14 -15 14 -26 0 -11 7 -20 15 -20 9 0 15 -9 15 -24 0 -13 11 -31 25 -42 13 -10 27 -31 30 -46 4 -15 11 -28 16 -28 5 0 9 -11 9 -25 0 -23 4 -25 45 -25 25 0 45 5 45 10 0 6 16 10 35 10 26 0 33 3 29 15 -5 11 1 15 25 15 19 0 30 5 28 12 -1 7 9 14 22 16 13 2 31 10 38 18 8 8 23 14 34 14 10 0 19 5 19 10 0 6 13 10 30 10 18 0 29 5 27 12 -1 7 9 14 23 16 14 2 29 10 33 18 4 8 19 14 31 14 13 0 26 7 30 15 3 8 15 15 26 15 11 0 20 5 20 10 0 6 14 10 30 10 20 0 30 5 30 15 0 10 10 15 30 15 18 0 29 5 27 12 -1 7 9 14 23 16 14 2 29 10 33 18 4 8 19 14 32 14 14 0 25 5 25 10 0 6 13 10 30 10 19 0 29 5 27 13 -1 7 10 13 26 15 15 2 27 9 27 18 0 9 11 14 30 14 20 0 30 5 30 15 0 9 9 15 25 15 14 0 25 5 25 10 0 6 14 10 30 10 20 0 30 5 30 15 0 10 10 15 30 15 18 0 29 5 27 12 -1 7 9 14 23 16 14 2 29 10 33 18 4 8 19 14 32 14 14 0 25 5 25 10 0 6 9 10 20 10 11 0 23 7 26 15 4 9 19 15 35 15 19 0 29 5 29 15 0 10 10 15 30 15 19 0 29 5 27 13 -1 7 12 13 36 15 36 3 37 4 37 43 0 21 -4 39 -10 39 -5 0 -10 8 -10 18 0 10 -13 32 -30 48 -16 16 -30 39 -30 52 0 13 -6 22 -15 22 -8 0 -15 7 -15 15 0 8 -4 15 -10 15 -5 0 -10 7 -10 15 0 8 -7 15 -15 15 -8 0 -14 3 -14 8 4 24 -3 42 -16 42 -8 0 -15 7 -15 15 0 8 -6 15 -14 15 -8 0 -17 11 -20 25 -4 14 -11 25 -16 25 -6 0 -10 6 -10 14 0 8 -7 17 -16 20 -8 3 -12 10 -9 16 3 5 -1 10 -9 10 -9 0 -16 7 -16 15 0 8 -4 15 -10 15 -5 0 -12 11 -16 25 -3 14 -12 25 -20 25 -8 0 -14 6 -14 14 0 8 -7 17 -16 20 -8 3 -12 11 -8 17 4 8 3 9 -5 5 -6 -4 -14 0 -18 11 -4 10 -15 27 -25 37 -9 10 -15 23 -12 28 3 4 1 8 -5 8 -14 0 -71 56 -71 70 0 5 -7 10 -15 10 -8 0 -15 7 -15 15 0 8 -4 15 -10 15 -5 0 -10 4 -10 10 0 11 -25 44 -52 68 -9 9 -15 19 -12 24 3 4 -2 8 -10 8 -9 0 -16 7 -16 15 0 8 -5 15 -11 15 -14 0 -69 55 -69 69 0 6 -7 11 -15 11 -8 0 -15 7 -15 15 0 8 -5 15 -11 15 -14 0 -39 25 -39 39 0 6 -7 11 -15 11 -8 0 -15 7 -15 15 0 8 -7 15 -15 15 -8 0 -15 4 -15 9 0 12 -59 71 -71 71 -5 0 -9 7 -9 15 0 8 -7 15 -15 15 -8 0 -15 7 -15 15 0 8 -5 15 -11 15 -14 0 -69 55 -69 69 0 6 -7 11 -15 11 -8 0 -15 7 -15 15 0 8 -4 15 -10 15 -5 0 -28 18 -50 40 -22 22 -44 40 -50 40 -5 0 -10 7 -10 15 0 8 -7 15 -15 15 -8 0 -15 7 -15 15 0 8 -7 15 -16 15 -9 0 -27 11 -40 25 -13 14 -28 25 -34 25 -5 0 -10 7 -10 15 0 8 -7 15 -15 15 -8 0 -15 7 -15 15 0 8 -5 15 -11 15 -6 0 -17 6 -24 13 -29 25 -40 33 -58 40 -10 4 -15 11 -12 17 3 5 -3 10 -14 10 -12 0 -21 7 -21 15 0 8 -5 15 -11 15 -6 0 -17 6 -24 13 -34 29 -45 37 -55 37 -6 0 -13 7 -16 15 -4 8 -12 15 -20 15 -8 0 -14 7 -14 15 0 8 -9 15 -20 15 -11 0 -20 5 -20 10 0 6 -7 10 -15 10 -9 0 -18 6 -21 14 -3 8 -15 16 -26 19 -11 3 -17 10 -13 16 4 7 -4 11 -20 11 -20 0 -26 4 -21 15 3 10 -1 15 -13 15 -10 0 -24 7 -31 15 -7 8 -19 15 -26 15 -8 0 -14 5 -14 10 0 6 -7 10 -15 10 -9 0 -18 7 -21 15 -4 8 -15 15 -25 15 -10 0 -19 7 -19 15 0 8 -8 15 -19 15 -10 0 -24 7 -31 15 -7 8 -19 15 -26 15 -8 0 -14 5 -14 10 0 6 -9 10 -20 10 -11 0 -23 7 -26 15 -4 8 -15 15 -25 15 -10 0 -19 7 -19 15 0 9 -9 15 -25 15 -16 0 -25 6 -25 15 0 9 -9 15 -25 15 -14 0 -25 5 -25 10 0 6 -9 10 -20 10 -10 0 -23 6 -27 14 -4 8 -19 16 -33 18 -14 2 -24 9 -22 16 1 7 -10 12 -29 12 -24 0 -30 4 -25 15 4 11 -2 15 -24 15 -17 0 -30 5 -30 10 0 6 -9 10 -19 10 -11 0 -26 7 -35 15 -8 8 -24 15 -36 15 -11 0 -23 7 -26 15 -4 9 -19 15 -35 15 -19 0 -29 5 -29 15 0 10 -11 15 -35 15 -19 0 -35 5 -35 10 0 6 -11 10 -25 10 -13 0 -28 6 -32 14 -4 8 -24 16 -43 18 -21 2 -34 8 -32 16 1 8 -12 12 -39 12 -32 0 -40 3 -35 15 4 12 -4 15 -39 15 -25 0 -45 5 -45 10 0 6 -15 10 -34 10 -19 0 -41 7 -50 15 -8 8 -30 15 -50 15 -20 0 -38 6 -43 14 -5 9 -28 16 -58 18 -33 2 -49 7 -48 16 2 8 -15 12 -62 12 -36 0 -65 4 -65 9 0 5 -30 11 -67 13 -39 2 -68 9 -71 16 -2 8 -31 12 -87 12 -87 0 -119 6 -109 21 3 5 -164 9 -401 9 -234 0 -404 -4 -401 -9z m508 -191 c24 0 37 -4 33 -10 -4 -6 46 -10 142 -10 81 0 155 -5 163 -10 13 -9 13 -10 0 -12 -8 -1 28 -4 80 -7 68 -4 94 -10 93 -18 -2 -9 15 -13 61 -13 36 0 68 -4 71 -10 3 -5 26 -10 50 -10 25 0 50 -6 58 -14 8 -8 34 -16 58 -18 24 -2 43 -7 41 -13 -1 -5 19 -12 45 -15 31 -3 47 -9 46 -17 -2 -9 11 -13 42 -13 25 0 45 -4 45 -10 0 -5 11 -10 24 -10 33 0 57 -10 50 -21 -3 -5 11 -9 30 -9 20 0 38 -6 43 -14 4 -8 22 -16 38 -18 17 -2 29 -8 28 -15 -2 -9 9 -13 32 -13 19 0 35 -4 35 -9 0 -5 16 -12 35 -15 20 -4 33 -11 30 -17 -4 -5 8 -9 24 -9 21 0 31 -5 31 -15 0 -10 10 -15 30 -15 20 0 30 -5 30 -15 0 -10 10 -15 30 -15 17 0 30 -4 30 -10 0 -5 11 -12 25 -16 14 -3 25 -10 25 -15 0 -5 9 -9 20 -9 11 0 23 -7 26 -15 4 -8 17 -15 30 -15 15 0 24 -6 24 -15 0 -9 9 -15 24 -15 13 0 26 -7 30 -15 3 -8 15 -15 26 -15 11 0 20 -4 20 -9 0 -5 10 -11 23 -13 12 -2 21 -9 19 -16 -1 -7 9 -12 23 -12 15 0 25 -6 25 -14 0 -8 10 -16 23 -18 12 -2 21 -9 19 -16 -1 -7 9 -12 23 -12 14 0 25 -4 25 -10 0 -5 7 -10 15 -10 7 0 18 -6 22 -14 4 -8 17 -16 28 -18 11 -2 19 -10 17 -16 -1 -7 7 -12 18 -12 11 0 20 -7 20 -15 0 -8 9 -15 20 -15 11 0 20 -4 20 -10 0 -5 9 -10 20 -10 11 0 20 -7 20 -15 0 -8 7 -15 15 -15 9 0 18 -7 21 -15 4 -8 15 -15 25 -15 10 0 19 -7 19 -15 0 -8 6 -15 14 -15 7 0 25 -11 40 -25 15 -14 34 -25 42 -25 7 0 14 -7 14 -15 0 -8 7 -15 15 -15 8 0 15 -7 15 -15 0 -8 6 -15 14 -15 7 0 25 -11 40 -25 15 -14 31 -25 37 -25 5 0 12 -7 15 -15 4 -8 12 -15 20 -15 8 0 14 -7 14 -15 0 -8 5 -15 11 -15 7 0 22 -11 35 -25 13 -14 28 -25 34 -25 6 0 13 -7 16 -15 4 -8 12 -15 20 -15 8 0 14 -7 14 -15 0 -8 7 -15 15 -15 8 0 15 -7 15 -15 0 -8 7 -15 15 -15 8 0 15 -4 15 -10 0 -5 7 -10 15 -10 8 0 15 -7 15 -15 0 -8 7 -15 15 -15 8 0 15 -7 15 -15 0 -8 7 -15 15 -15 8 0 15 -7 15 -15 0 -8 4 -15 10 -15 15 0 50 -33 44 -42 -3 -4 2 -8 10 -8 9 0 16 -7 16 -15 0 -8 7 -15 15 -15 8 0 15 -7 15 -15 0 -8 5 -15 11 -15 14 0 69 -55 69 -69 0 -6 7 -11 15 -11 8 0 15 -7 15 -15 0 -8 4 -15 10 -15 15 0 50 -33 44 -42 -3 -4 2 -8 10 -8 9 0 16 -7 16 -15 0 -8 7 -15 15 -15 8 0 15 -7 15 -15 0 -8 5 -15 11 -15 14 0 39 -25 39 -39 0 -6 7 -11 15 -11 8 0 15 -7 15 -15 0 -8 5 -15 10 -15 6 0 10 -7 10 -15 0 -8 7 -15 15 -15 8 0 15 -5 15 -11 0 -6 6 -16 13 -24 28 -30 47 -56 47 -65 0 -6 4 -10 10 -10 13 0 70 -57 70 -70 0 -5 5 -10 10 -10 6 0 10 -6 10 -14 0 -8 20 -34 45 -59 25 -26 45 -50 45 -55 0 -6 7 -13 16 -16 8 -3 13 -10 10 -14 -3 -5 4 -15 15 -22 10 -8 19 -20 19 -27 0 -7 7 -13 16 -13 10 0 14 -6 10 -15 -3 -9 0 -15 8 -15 8 0 17 -8 20 -17 15 -39 31 -63 43 -63 7 0 13 -7 13 -15 0 -8 5 -15 10 -15 6 0 10 -7 10 -15 0 -8 12 -26 27 -40 l28 -25 -28 0 c-16 0 -26 -5 -24 -12 1 -7 -9 -14 -23 -16 -14 -2 -29 -10 -33 -18 -4 -8 -19 -14 -32 -14 -14 0 -25 -4 -25 -10 0 -5 -9 -10 -20 -10 -11 0 -23 -7 -26 -15 -4 -9 -19 -15 -35 -15 -19 0 -29 -5 -29 -15 0 -10 -10 -15 -30 -15 -18 0 -29 -5 -27 -12 1 -7 -9 -14 -22 -16 -13 -2 -31 -10 -38 -18 -8 -8 -23 -14 -34 -14 -10 0 -19 -4 -19 -10 0 -5 -13 -10 -30 -10 -18 0 -29 -5 -27 -12 1 -7 -9 -14 -23 -16 -14 -2 -29 -10 -33 -18 -4 -8 -19 -14 -31 -14 -13 0 -26 -7 -30 -15 -3 -8 -15 -15 -26 -15 -11 0 -20 -4 -20 -10 0 -5 -13 -10 -30 -10 -20 0 -30 -5 -30 -15 0 -10 -10 -15 -30 -15 -18 0 -29 -5 -27 -12 1 -7 -9 -14 -23 -16 -14 -2 -29 -10 -33 -18 -4 -8 -19 -14 -32 -14 -14 0 -25 -4 -25 -10 0 -5 -13 -10 -30 -10 -18 0 -29 -5 -27 -12 1 -7 -9 -14 -23 -16 -14 -2 -29 -10 -33 -18 -4 -8 -15 -14 -24 -14 -9 0 -22 -8 -29 -17 -12 -17 -13 -16 -14 5 0 12 -5 22 -11 22 -5 0 -7 5 -4 10 3 6 1 10 -4 10 -6 0 -11 7 -11 15 0 8 -4 15 -9 15 -5 0 -12 11 -15 25 -4 14 -11 25 -16 25 -6 0 -10 7 -10 15 0 8 -7 15 -15 15 -9 0 -15 9 -15 25 0 16 -6 25 -15 25 -8 0 -15 7 -15 15 0 8 -4 15 -9 15 -5 0 -12 12 -16 27 -3 15 -18 36 -31 48 -14 12 -26 31 -27 43 -1 12 -7 22 -14 22 -7 0 -13 7 -13 15 0 8 -7 15 -15 15 -8 0 -15 3 -15 8 0 12 39 42 55 42 8 0 14 6 12 12 -1 7 8 14 21 16 12 2 20 8 17 13 -4 5 2 12 12 16 10 3 22 12 26 20 4 7 15 13 22 13 8 0 15 5 15 10 0 6 11 10 25 10 18 0 23 4 19 15 -4 10 0 15 14 15 11 0 22 7 26 15 3 8 12 15 20 15 7 0 16 7 20 15 3 8 12 15 21 15 8 0 15 5 15 10 0 6 11 10 25 10 18 0 23 4 19 15 -4 10 0 15 15 15 12 0 21 6 21 15 0 8 9 15 19 15 10 0 21 7 25 15 3 8 12 15 21 15 8 0 15 5 15 10 0 6 7 10 15 10 12 0 15 14 15 70 0 56 -3 70 -15 70 -8 0 -15 7 -15 15 0 12 -14 15 -65 15 -51 0 -65 -3 -65 -15 0 -8 -7 -15 -15 -15 -15 0 -25 -6 -60 -37 -7 -7 -21 -13 -29 -13 -9 0 -15 -6 -13 -12 1 -7 -8 -14 -20 -16 -13 -2 -23 -10 -23 -18 0 -8 -9 -14 -21 -14 -11 0 -18 -4 -14 -9 6 -10 -49 -41 -72 -41 -7 0 -12 -5 -10 -12 1 -6 -8 -14 -21 -17 -13 -3 -22 -10 -20 -16 2 -5 -7 -11 -20 -13 -12 -2 -20 -8 -16 -13 3 -6 -3 -13 -15 -16 -12 -3 -21 -9 -21 -14 0 -5 -12 -9 -26 -9 -15 0 -23 -4 -19 -11 4 -6 -2 -13 -14 -16 -12 -3 -21 -12 -21 -20 0 -9 -7 -13 -17 -11 -10 2 -17 10 -16 16 2 7 -4 12 -12 12 -8 0 -15 7 -15 15 0 8 -4 15 -10 15 -5 0 -12 11 -16 25 -3 14 -12 25 -20 25 -8 0 -14 6 -14 14 0 8 -7 17 -16 20 -8 3 -12 10 -9 16 3 5 -1 10 -9 10 -9 0 -16 5 -16 11 0 6 -6 16 -12 24 -29 30 -48 56 -48 65 0 6 -4 10 -10 10 -15 0 -50 33 -44 42 3 4 -2 8 -10 8 -9 0 -16 7 -16 15 0 8 -7 15 -15 15 -8 0 -15 7 -15 15 0 8 -4 15 -10 15 -5 0 -10 7 -10 15 0 8 -4 14 -9 13 -9 -3 -61 48 -61 59 0 10 68 73 80 73 5 0 9 3 8 8 -5 13 43 82 53 76 5 -3 9 2 9 10 0 9 7 16 16 16 8 0 12 5 9 10 -3 6 1 13 9 16 9 3 16 12 16 20 0 8 7 14 15 14 8 0 15 5 15 11 0 14 26 39 40 39 6 0 8 5 5 10 -3 6 1 13 9 16 9 3 13 10 10 15 -3 5 2 12 10 15 9 3 16 10 16 16 0 13 26 38 39 38 6 0 11 7 11 15 0 8 7 15 15 15 12 0 15 14 15 70 0 56 -3 70 -15 70 -8 0 -15 7 -15 15 0 12 -14 15 -65 15 -51 0 -65 -3 -65 -15 0 -8 -7 -15 -15 -15 -8 0 -15 -7 -15 -15 0 -8 -7 -15 -15 -15 -8 0 -15 -5 -15 -11 0 -14 -26 -39 -40 -39 -6 0 -9 -4 -6 -9 3 -5 -6 -21 -19 -35 -14 -15 -25 -29 -25 -32 0 -10 -28 -34 -39 -34 -6 0 -11 -5 -11 -11 0 -7 -11 -22 -25 -35 -14 -13 -25 -28 -25 -34 0 -5 -5 -10 -11 -10 -14 0 -40 -26 -32 -34 3 -3 -2 -8 -11 -12 -9 -3 -13 -10 -10 -15 3 -5 -2 -12 -10 -15 -9 -3 -16 -10 -16 -16 0 -18 -29 -38 -54 -38 -14 0 -26 5 -26 10 0 6 -7 10 -15 10 -8 0 -15 7 -15 15 0 8 -7 15 -15 15 -8 0 -15 7 -15 15 0 8 -7 15 -15 15 -8 0 -15 7 -15 15 0 8 -7 15 -15 15 -8 0 -15 4 -15 9 0 5 -9 13 -20 16 -11 4 -18 11 -15 16 4 5 -3 9 -14 9 -12 0 -21 6 -21 14 0 7 -9 16 -21 19 -12 3 -18 10 -14 16 3 6 -1 11 -11 11 -9 0 -27 11 -40 25 -13 14 -30 25 -39 25 -8 0 -15 7 -15 15 0 9 -9 15 -21 15 -15 0 -19 5 -15 15 4 11 -1 15 -18 15 -22 0 -36 16 -36 41 0 5 7 9 15 9 8 0 16 7 16 15 3 35 5 40 17 37 7 -1 12 7 12 17 0 10 7 21 15 25 8 3 15 15 15 26 0 11 5 20 10 20 6 0 10 7 10 15 0 8 7 15 15 15 9 0 15 9 15 25 0 16 6 25 15 25 8 0 16 7 16 15 3 35 5 40 17 37 7 -1 12 7 12 18 0 11 4 20 10 20 5 0 12 11 16 25 3 14 10 25 15 25 5 0 9 7 9 15 0 8 7 15 15 15 9 0 15 9 15 24 0 13 7 26 15 30 11 4 15 22 15 71 0 51 -3 65 -15 65 -8 0 -15 7 -15 15 0 12 -13 15 -60 15 -64 0 -91 -15 -105 -59 -3 -12 -11 -21 -16 -21 -5 0 -9 -7 -9 -15 0 -8 -6 -15 -14 -15 -9 0 -16 -12 -18 -27 -2 -17 -8 -27 -17 -25 -8 2 -11 -3 -8 -13 4 -9 1 -15 -8 -15 -13 0 -20 -19 -16 -43 1 -4 -6 -10 -14 -13 -8 -4 -15 -12 -15 -20 0 -8 -7 -14 -15 -14 -9 0 -15 -9 -15 -25 0 -16 -6 -25 -15 -25 -8 0 -14 -3 -14 -7 4 -25 -3 -43 -17 -43 -8 0 -12 -5 -9 -11 4 -6 -2 -19 -14 -30 -12 -11 -19 -24 -16 -30 4 -5 0 -12 -8 -15 -9 -3 -18 -16 -21 -30 -6 -22 -36 -35 -36 -15 0 5 -10 11 -22 13 -13 2 -21 8 -19 13 3 6 -8 13 -25 16 -16 3 -28 10 -26 17 1 7 -10 12 -27 12 -16 0 -31 6 -35 15 -3 8 -15 15 -26 15 -11 0 -20 4 -20 9 0 5 -14 11 -31 15 -17 3 -28 10 -24 15 3 5 -9 11 -27 13 -20 2 -32 8 -31 16 2 8 -9 12 -32 12 -24 0 -35 5 -35 15 0 10 -10 15 -34 15 -36 0 -58 26 -31 36 10 4 15 20 15 50 0 32 4 44 15 44 11 0 15 12 15 44 0 31 5 46 16 50 13 5 15 15 11 41 -4 25 -2 35 7 35 9 0 15 18 18 52 3 29 11 54 17 56 6 2 11 21 11 43 0 28 4 39 15 39 12 0 15 16 15 85 0 70 -3 85 -15 85 -9 0 -18 7 -21 15 -5 11 -22 15 -65 15 -46 0 -59 -3 -59 -15 0 -8 -7 -15 -15 -15 -13 0 -20 -18 -16 -43 1 -4 -6 -10 -14 -13 -9 -4 -15 -19 -15 -39 0 -41 -9 -67 -21 -59 -5 3 -9 -18 -9 -45 0 -39 -4 -51 -15 -51 -11 0 -15 -11 -15 -36 0 -19 -7 -43 -16 -51 -10 -10 -14 -27 -11 -46 2 -18 -1 -31 -10 -34 -7 -3 -13 -19 -13 -37 0 -43 -10 -77 -21 -70 -5 3 -9 -9 -9 -26 0 -25 -4 -31 -17 -28 -10 2 -17 10 -16 16 2 8 -15 12 -52 12 -30 0 -55 5 -55 10 0 6 -22 10 -49 10 -31 0 -55 6 -65 15 -10 10 -35 15 -79 15 -75 0 -106 8 -85 21 10 7 9 9 -4 9 -23 0 -24 51 -3 84 10 14 14 42 13 76 -2 35 2 55 10 58 7 2 12 23 12 50 0 57 9 94 21 86 5 -3 9 39 9 95 0 83 -3 101 -15 101 -8 0 -15 7 -15 15 0 12 -14 15 -65 15 -51 0 -65 -3 -65 -15 0 -8 -7 -15 -15 -15 -10 0 -15 -10 -15 -29 0 -16 -7 -36 -15 -45 -9 -8 -15 -34 -16 -63 0 -45 -15 -100 -20 -78 -1 6 -5 -24 -8 -65 -4 -52 -10 -74 -18 -72 -10 1 -13 -17 -13 -68 0 -40 -4 -70 -10 -70 -5 0 -10 -13 -10 -28 l0 -29 -265 -2 -265 -1 0 139 c0 90 -4 141 -11 143 -6 2 -13 46 -16 103 -7 122 -16 135 -97 135 -97 0 -96 2 -96 -250 0 -121 4 -209 9 -202 11 18 21 -18 21 -80 l0 -48 -55 0 c-30 0 -55 -4 -55 -10 0 -5 -18 -10 -40 -10 l-40 0 0 50 c0 36 -4 52 -15 56 -11 4 -15 21 -15 55 0 35 -4 51 -15 55 -8 4 -15 17 -15 30 0 15 -6 24 -15 24 -8 0 -15 7 -15 15 0 12 -14 15 -65 15 -51 0 -65 -3 -65 -15 0 -8 -7 -15 -15 -15 -12 0 -15 -15 -15 -79 0 -50 4 -81 11 -83 6 -2 14 -27 17 -56 2 -29 8 -52 12 -52 4 0 10 -12 13 -27 6 -34 -23 -63 -65 -63 -15 0 -28 -4 -28 -10 0 -5 -4 -10 -10 -10 -6 0 -10 28 -10 64 0 41 -4 66 -12 68 -7 3 -14 32 -16 71 -2 37 -8 67 -13 67 -5 0 -9 30 -9 68 0 45 -3 62 -10 52 -7 -11 -11 -4 -16 28 -4 26 -12 42 -20 42 -8 0 -14 7 -14 15 0 12 -13 15 -60 15 -88 0 -100 -15 -100 -130 0 -53 4 -90 10 -90 6 0 10 -28 10 -64 0 -48 4 -65 15 -70 11 -4 15 -22 15 -71 0 -52 3 -65 16 -65 12 0 14 -9 12 -42 -3 -40 -5 -43 -35 -46 -18 -2 -33 -7 -33 -13 0 -5 -11 -9 -25 -9 -14 0 -28 -7 -31 -15 -4 -9 -19 -15 -35 -15 -19 0 -29 -5 -29 -15 0 -10 -10 -15 -30 -15 -18 0 -29 -5 -28 -12 2 -7 -8 -14 -22 -16 -14 -2 -29 -10 -33 -18 -4 -8 -17 -14 -27 -14 -11 0 -20 -4 -20 -10 0 -5 -11 -10 -25 -10 -16 0 -25 -6 -25 -15 0 -8 -9 -15 -20 -15 -16 0 -20 7 -20 30 0 18 -5 29 -12 28 -7 -2 -14 8 -16 22 -2 14 -9 28 -16 32 -6 4 -11 11 -11 16 0 13 -39 86 -47 90 -5 2 -8 14 -8 27 0 34 -40 55 -105 55 -30 0 -55 -4 -55 -9 0 -5 -9 -11 -20 -14 -18 -5 -20 -14 -20 -76 0 -58 3 -69 15 -65 11 5 15 -1 15 -25 0 -21 5 -31 15 -31 9 0 15 -9 15 -24 0 -13 5 -26 12 -28 6 -2 13 -15 15 -28 2 -13 7 -27 12 -30 5 -3 11 -15 15 -27 4 -13 12 -23 17 -23 5 0 9 -4 9 -10 0 -15 -33 -50 -47 -50 -7 0 -13 -4 -13 -10 0 -5 -11 -12 -25 -16 -14 -3 -25 -10 -25 -15 0 -5 -11 -9 -25 -9 -18 0 -23 -4 -19 -15 4 -10 0 -15 -15 -15 -12 0 -21 -6 -21 -15 0 -8 -9 -15 -19 -15 -10 0 -21 -7 -25 -15 -3 -8 -12 -15 -21 -15 -8 0 -15 -4 -15 -10 0 -5 -9 -10 -20 -10 -11 0 -19 -6 -18 -12 2 -7 -7 -14 -20 -16 -12 -2 -20 -8 -17 -13 4 -5 -2 -12 -12 -16 -9 -4 -27 -17 -39 -30 -20 -22 -74 -32 -74 -14 0 4 -12 20 -26 35 -15 14 -24 26 -20 26 3 0 -9 15 -29 34 -19 19 -35 39 -35 45 0 6 -7 11 -15 11 -8 0 -15 7 -15 15 0 8 -7 15 -15 15 -8 0 -15 7 -15 15 0 8 -7 15 -15 15 -8 0 -15 5 -15 10 0 6 -27 10 -60 10 -33 0 -60 -4 -60 -9 0 -5 -9 -11 -20 -14 -17 -4 -20 -14 -20 -71 0 -52 3 -66 15 -66 8 0 15 -7 15 -15 0 -8 7 -15 15 -15 8 0 15 -7 15 -15 0 -8 7 -15 15 -15 8 0 15 -4 15 -10 0 -5 16 -26 35 -46 19 -20 33 -40 29 -45 -3 -5 0 -9 7 -9 6 0 22 -12 35 -27 l23 -27 -54 -53 c-30 -29 -59 -53 -65 -53 -5 0 -10 -7 -10 -15 0 -8 -7 -15 -15 -15 -8 0 -15 -7 -15 -15 0 -10 -10 -15 -30 -15 -20 0 -30 5 -30 15 0 8 -4 15 -10 15 -5 0 -10 7 -10 15 0 8 -7 15 -15 15 -8 0 -15 5 -15 11 0 6 -6 16 -12 24 -29 30 -48 56 -48 65 0 6 -4 10 -10 10 -13 0 -70 57 -70 70 0 5 -7 10 -15 10 -8 0 -15 7 -15 15 0 8 -4 15 -10 15 -5 0 -10 5 -10 11 0 6 -6 16 -12 24 -24 25 -48 55 -48 61 0 10 58 64 69 64 6 0 11 7 11 15 0 8 7 15 15 15 8 0 15 7 15 15 0 8 7 15 15 15 8 0 15 5 15 11 0 14 25 39 39 39 6 0 11 7 11 15 0 8 7 15 15 15 8 0 15 7 15 15 0 8 5 15 10 15 6 0 21 11 34 25 13 14 28 25 34 25 5 0 12 7 16 15 3 8 12 15 21 15 8 0 15 7 15 15 0 8 7 15 15 15 8 0 15 7 15 15 0 8 5 15 11 15 7 0 22 11 35 25 13 14 28 25 34 25 5 0 10 7 10 15 0 8 6 15 14 15 8 0 16 7 20 15 3 8 10 15 16 15 6 0 21 11 34 25 13 14 28 25 35 25 6 0 11 7 11 15 0 8 9 15 21 15 11 0 17 5 14 10 -3 6 2 13 12 17 10 4 23 12 30 17 34 30 43 36 53 36 5 0 10 7 10 15 0 8 9 15 20 15 11 0 19 6 18 12 -2 7 7 14 20 16 12 2 20 7 17 12 -3 5 4 11 15 15 11 3 20 11 20 16 0 5 9 9 20 9 11 0 20 7 20 15 0 8 9 15 20 15 11 0 20 7 20 15 0 8 6 15 14 15 8 0 16 7 20 15 3 8 15 15 26 15 11 0 20 5 20 10 0 6 9 10 20 10 11 0 19 6 18 12 -2 7 7 14 20 16 12 2 22 10 22 18 0 8 9 14 20 14 11 0 20 7 20 15 0 8 9 15 20 15 11 0 20 5 20 10 0 6 9 10 19 10 10 0 21 7 25 15 3 8 15 15 26 15 11 0 20 7 20 15 0 9 10 15 26 15 14 0 22 4 19 10 -3 5 6 12 20 16 14 3 25 10 25 15 0 5 9 9 20 9 11 0 23 7 26 15 4 9 19 15 35 15 17 0 28 5 27 12 -2 6 6 14 17 16 11 2 24 10 28 18 4 8 17 14 27 14 11 0 20 4 20 8 0 11 72 42 98 42 12 0 21 6 19 12 -1 7 9 14 23 16 14 2 29 10 33 18 4 8 19 14 31 14 13 0 26 7 30 15 3 8 17 15 31 15 14 0 25 5 25 10 0 6 16 10 35 10 24 0 35 5 35 15 0 10 11 15 35 15 24 0 35 5 35 15 0 10 10 15 31 15 17 0 37 7 45 15 9 8 29 15 45 15 16 0 29 5 29 10 0 6 20 10 45 10 35 0 43 3 39 15 -5 12 4 15 45 15 35 0 50 4 48 13 -1 8 13 13 42 15 24 2 50 10 58 18 9 8 34 14 64 14 27 0 49 5 49 10 0 6 28 10 65 10 47 0 64 4 63 13 -2 9 21 13 82 15 61 2 87 7 93 17 6 12 41 15 185 16 97 1 166 4 152 8 -35 8 70 20 129 15 24 -2 61 -4 83 -4z m-377 -3256 c13 -5 14 -8 3 -15 -8 -5 6 -9 38 -9 33 0 56 -5 64 -15 7 -8 19 -15 26 -15 8 0 14 -4 14 -10 0 -5 6 -10 13 -10 14 0 47 -35 47 -49 0 -5 7 -11 15 -15 8 -3 15 -14 15 -25 0 -10 7 -21 15 -25 10 -3 15 -19 15 -46 0 -22 5 -40 10 -40 6 0 10 -22 10 -50 0 -27 -4 -50 -10 -50 -5 0 -10 -20 -10 -45 0 -33 -4 -45 -15 -45 -9 0 -15 -9 -15 -25 0 -16 -6 -25 -15 -25 -8 0 -15 -4 -15 -10 0 -15 -33 -50 -47 -50 -7 0 -12 -6 -11 -12 2 -8 -9 -14 -24 -16 -16 -2 -28 -8 -28 -13 0 -5 -13 -9 -28 -9 -16 0 -37 -7 -48 -15 -25 -19 -84 -19 -120 0 -16 8 -41 15 -56 15 -16 0 -28 5 -28 10 0 6 -9 10 -20 10 -11 0 -23 7 -26 15 -4 8 -12 15 -20 15 -8 0 -14 7 -14 15 0 8 -7 15 -15 15 -8 0 -15 7 -15 15 0 8 -4 15 -9 15 -5 0 -12 11 -15 25 -4 14 -11 25 -16 25 -6 0 -10 23 -10 51 0 30 -4 48 -10 44 -5 -3 -12 6 -16 20 -8 31 3 78 16 70 6 -4 10 14 10 43 0 35 4 52 15 56 8 3 15 15 15 26 0 11 7 20 16 20 8 0 12 5 9 10 -3 6 1 13 9 16 9 3 16 12 16 20 0 8 7 14 15 14 8 0 15 5 15 10 0 6 9 10 20 10 11 0 23 7 26 15 5 11 22 15 63 16 31 0 50 3 43 6 -6 2 -10 9 -6 14 6 10 64 12 89 3z"></path><path d="M2302 7675 c-7 -8 -22 -15 -32 -15 -11 0 -20 -4 -20 -10 0 -5 -11 -10 -25 -10 -16 0 -25 -6 -25 -15 0 -9 -10 -15 -26 -15 -15 0 -23 -4 -19 -11 4 -6 -2 -13 -14 -16 -12 -3 -21 -12 -21 -19 0 -8 -7 -14 -15 -14 -8 0 -15 -4 -15 -10 0 -5 -7 -10 -15 -10 -9 0 -18 -7 -21 -15 -4 -8 -15 -15 -26 -15 -10 0 -16 -5 -13 -10 3 -6 -4 -14 -17 -19 -13 -6 -19 -10 -14 -10 12 -1 -60 -71 -74 -71 -5 0 -10 -7 -10 -15 0 -8 -7 -15 -15 -15 -8 0 -15 -5 -15 -11 0 -14 -55 -69 -69 -69 -6 0 -11 -7 -11 -15 0 -8 -7 -15 -16 -15 -8 0 -13 -4 -10 -8 3 -5 -4 -18 -14 -30 -11 -12 -20 -26 -20 -32 0 -5 -7 -10 -15 -10 -8 0 -15 -7 -15 -15 0 -8 -7 -15 -16 -15 -8 0 -12 -5 -9 -10 3 -6 -1 -13 -9 -16 -9 -3 -16 -12 -16 -20 0 -8 -6 -14 -13 -14 -8 0 -22 -18 -33 -40 -10 -22 -25 -40 -31 -40 -7 0 -12 -4 -10 -8 1 -4 -13 -22 -31 -40 -18 -18 -30 -37 -27 -42 4 -6 -1 -13 -9 -16 -9 -3 -16 -11 -16 -16 0 -5 -13 -23 -30 -40 -16 -16 -30 -36 -30 -44 0 -8 -4 -14 -10 -14 -5 0 -10 -7 -10 -15 0 -8 -6 -15 -14 -15 -8 0 -17 -11 -20 -25 -4 -14 -11 -25 -16 -25 -6 0 -10 -7 -10 -15 0 -8 -4 -15 -10 -15 -5 0 -10 -7 -10 -15 0 -8 -7 -15 -15 -15 -9 0 -15 -9 -15 -25 0 -16 -6 -25 -15 -25 -8 0 -15 -7 -15 -15 0 -8 -4 -15 -10 -15 -5 0 -13 -12 -16 -27 -8 -30 -26 -53 -43 -53 -6 0 -11 -13 -11 -30 0 -20 -5 -30 -15 -30 -8 0 -15 -6 -15 -14 0 -8 -7 -16 -15 -20 -8 -3 -15 -15 -15 -26 0 -11 -4 -20 -9 -20 -5 0 -12 -11 -15 -25 -4 -14 -11 -25 -16 -25 -6 0 -10 -6 -10 -14 0 -8 -7 -16 -15 -20 -8 -3 -15 -17 -15 -31 0 -16 -6 -25 -15 -25 -11 0 -15 -11 -15 -40 0 -29 4 -40 15 -40 8 0 15 -7 15 -15 0 -8 7 -15 15 -15 8 0 15 -8 15 -18 0 -9 12 -31 28 -47 15 -16 26 -33 24 -37 -1 -5 5 -8 13 -8 8 0 15 -7 15 -15 0 -8 4 -15 9 -15 5 0 12 -11 15 -25 4 -14 13 -25 21 -25 8 0 15 -7 15 -15 0 -8 5 -15 10 -15 6 0 10 -6 10 -14 0 -8 7 -16 15 -20 8 -3 15 -9 14 -13 -4 -21 2 -33 16 -33 8 0 15 -7 15 -15 0 -8 7 -15 15 -15 8 0 15 -7 15 -15 0 -8 4 -15 9 -15 5 0 12 -11 15 -25 4 -14 11 -25 16 -25 6 0 10 -7 10 -15 0 -8 7 -15 15 -15 8 0 15 -7 15 -15 0 -8 5 -15 10 -15 6 0 10 -6 10 -14 0 -8 14 -28 30 -44 17 -17 30 -35 30 -41 0 -6 7 -11 15 -11 9 0 15 -9 15 -25 0 -16 6 -25 15 -25 8 0 15 -5 15 -10 0 -6 10 -21 23 -33 25 -25 45 -54 53 -79 4 -10 13 -18 20 -18 8 0 14 -6 14 -14 0 -8 7 -17 16 -20 8 -3 12 -10 9 -16 -3 -5 -1 -10 4 -10 6 0 11 -6 11 -13 0 -7 9 -19 20 -27 11 -8 20 -20 20 -27 0 -7 7 -13 15 -13 8 0 15 -7 15 -15 0 -8 5 -15 10 -15 6 0 10 -6 10 -14 0 -8 14 -28 30 -44 17 -17 30 -35 30 -40 0 -5 7 -12 15 -16 8 -3 15 -9 14 -13 -4 -21 2 -33 16 -33 8 0 15 -6 15 -14 0 -8 7 -17 16 -20 8 -3 12 -10 9 -16 -3 -5 1 -10 9 -10 9 0 16 -9 16 -20 0 -11 7 -23 15 -26 8 -4 15 -12 15 -20 0 -8 7 -14 15 -14 8 0 15 -7 15 -15 0 -8 5 -15 10 -15 6 0 10 -7 10 -15 0 -8 4 -15 10 -15 5 0 12 -11 16 -25 3 -14 12 -25 20 -25 8 0 14 -7 14 -15 0 -8 7 -15 15 -15 8 0 15 -7 15 -15 0 -8 5 -15 10 -15 6 0 10 -7 10 -15 0 -8 9 -23 19 -32 11 -9 18 -20 15 -25 -3 -4 2 -8 10 -8 9 0 16 -7 16 -15 0 -8 4 -15 9 -15 5 0 12 -11 15 -25 6 -24 46 -37 46 -15 0 6 5 10 10 10 6 0 19 9 30 20 11 11 20 25 20 30 0 6 6 10 13 10 6 0 20 18 30 40 10 22 25 40 33 40 9 0 13 4 10 8 -3 5 4 18 14 30 11 12 20 26 20 32 0 14 25 40 39 40 6 0 11 7 11 15 0 8 7 15 16 15 8 0 12 5 9 10 -3 6 1 13 9 16 9 3 13 10 10 15 -3 5 0 9 5 9 6 0 11 7 11 15 0 8 5 15 10 15 6 0 10 7 10 15 0 8 7 15 15 15 8 0 15 7 15 15 0 8 7 15 15 15 8 0 15 7 15 15 0 8 4 15 10 15 5 0 12 11 16 25 3 14 10 25 15 25 5 0 9 7 9 15 0 8 7 15 15 15 8 0 15 7 15 15 0 8 5 15 11 15 15 0 35 22 44 50 9 27 58 80 74 80 6 0 11 7 11 15 0 8 7 15 15 15 12 0 15 14 15 69 0 61 -2 69 -21 74 -12 3 -18 10 -14 16 4 7 -15 11 -59 11 -52 0 -66 -3 -66 -15 0 -8 -7 -15 -15 -15 -8 0 -15 -4 -15 -10 0 -9 -19 -35 -47 -65 -7 -8 -13 -18 -13 -24 0 -6 -7 -11 -16 -11 -8 0 -12 -5 -9 -10 3 -6 -1 -13 -9 -16 -9 -3 -16 -12 -16 -20 0 -8 -5 -14 -11 -14 -15 0 -39 -26 -32 -34 4 -3 1 -6 -5 -6 -7 0 -12 -7 -12 -15 0 -9 -7 -18 -15 -21 -8 -4 -15 -10 -15 -16 0 -13 -26 -38 -39 -38 -6 0 -11 -7 -11 -15 0 -8 -7 -15 -16 -15 -8 0 -13 -4 -10 -8 3 -5 -4 -18 -14 -30 -11 -12 -20 -26 -20 -32 0 -5 -7 -10 -15 -10 -9 0 -12 -6 -9 -15 4 -9 0 -15 -10 -15 -9 0 -16 -7 -16 -15 0 -8 -7 -15 -15 -15 -8 0 -15 -7 -15 -15 0 -8 -4 -15 -10 -15 -5 0 -12 -11 -16 -25 -4 -18 -13 -25 -30 -25 -14 0 -24 6 -24 14 0 8 -13 28 -30 44 -16 17 -30 35 -30 40 0 5 -7 12 -15 16 -8 3 -15 9 -14 13 4 21 -2 33 -16 33 -8 0 -15 7 -15 15 0 8 -4 15 -10 15 -5 0 -10 7 -10 15 0 8 -7 15 -15 15 -8 0 -15 9 -15 20 0 11 -7 23 -15 26 -8 4 -15 12 -15 20 0 8 -7 14 -15 14 -8 0 -15 7 -15 15 0 8 -4 15 -9 15 -5 0 -12 11 -15 25 -4 14 -11 25 -16 25 -6 0 -10 7 -10 15 0 8 -7 15 -15 15 -8 0 -15 7 -15 15 0 8 -4 15 -10 15 -5 0 -10 6 -10 14 0 8 -13 28 -30 44 -16 17 -30 35 -30 40 0 5 -7 13 -16 16 -8 3 -13 10 -10 15 4 5 -9 24 -26 42 -18 18 -32 36 -30 41 1 4 -5 8 -13 8 -8 0 -15 8 -15 18 -1 20 -33 62 -49 62 -6 0 -11 7 -11 15 0 8 -4 15 -9 15 -5 0 -12 14 -16 30 -4 17 -11 30 -17 30 -12 0 -38 26 -38 38 0 6 -7 12 -15 16 -8 3 -15 9 -14 13 4 22 -2 43 -12 43 -13 0 -39 25 -39 38 0 6 -7 12 -15 16 -8 3 -15 12 -15 20 0 9 -17 32 -39 53 -21 22 -42 50 -46 63 -9 28 -29 50 -44 50 -6 0 -11 7 -11 15 0 8 -4 15 -9 15 -5 0 -12 14 -16 30 -4 17 -11 30 -17 30 -16 0 -37 32 -38 58 0 13 6 22 15 22 8 0 14 3 14 8 -3 16 26 72 37 72 7 0 15 14 19 30 4 17 11 28 16 24 5 -3 9 4 9 15 0 12 4 21 10 21 5 0 12 11 16 25 3 14 10 25 15 25 5 0 9 7 9 15 0 8 6 15 14 15 8 0 17 11 20 25 4 14 11 25 16 25 6 0 10 7 10 15 0 8 7 15 16 15 8 0 13 4 10 8 -3 5 4 19 15 31 11 12 17 26 14 31 -3 6 1 10 9 10 9 0 16 7 16 15 0 8 6 15 14 15 8 0 16 11 18 25 2 14 7 25 12 25 5 -1 15 12 24 29 8 17 20 31 27 31 8 0 16 14 20 30 4 17 11 30 16 30 5 0 9 6 9 13 0 8 11 20 25 27 14 7 25 17 25 22 0 4 8 17 18 28 9 11 17 24 17 29 0 11 32 41 45 41 6 0 8 5 5 10 -3 6 1 13 9 16 9 3 16 12 16 20 0 8 7 14 15 14 8 0 15 6 15 13 0 7 9 19 19 27 11 7 18 17 15 22 -3 4 2 11 10 14 9 3 16 12 16 20 0 8 7 14 15 14 8 0 15 5 15 11 0 14 25 39 39 39 6 0 11 7 11 15 0 8 7 15 15 15 8 0 15 7 15 15 0 8 7 15 15 15 8 0 15 5 15 11 0 14 25 39 39 39 6 0 11 7 11 15 0 8 9 15 20 15 11 0 20 7 20 15 0 8 6 15 14 15 8 0 16 7 20 15 3 8 12 15 21 15 8 0 15 5 15 10 0 6 6 10 14 10 8 0 16 7 20 15 3 8 15 15 26 15 11 0 20 7 20 15 0 10 10 15 29 15 16 0 31 6 35 15 3 8 12 15 21 15 31 0 65 50 65 95 0 31 -7 49 -25 69 -21 22 -32 26 -82 26 -38 -1 -62 -6 -71 -15z"></path><path d="M2005 4120 c3 -6 -2 -13 -12 -17 -36 -14 -43 -31 -43 -103 0 -45 4 -69 10 -65 6 3 10 -1 10 -9 0 -9 7 -16 15 -16 8 0 15 -7 15 -15 0 -13 101 -15 845 -15 744 0 845 2 845 15 0 8 7 15 15 15 8 0 15 7 15 15 0 8 5 15 10 15 6 0 10 28 10 65 0 60 -3 68 -30 95 l-31 30 -840 0 c-561 0 -838 -3 -834 -10z"></path><path d="M153 3238 c1 -7 -8 -14 -20 -16 -22 -3 -23 -8 -23 -98 0 -91 1 -94 25 -100 14 -3 22 -10 19 -15 -3 -5 653 -9 1582 -9 l1587 0 33 36 c30 31 34 42 34 90 0 39 -4 56 -15 60 -8 4 -15 12 -15 20 0 8 -7 14 -15 14 -8 0 -15 7 -15 15 0 13 -183 15 -1590 15 -1250 0 -1589 -3 -1587 -12z"></path><path d="M6753 2133 c-29 -30 -33 -42 -33 -88 0 -34 5 -57 15 -65 8 -7 15 -19 15 -26 0 -12 290 -14 1880 -14 1873 0 1880 0 1880 20 0 11 5 20 10 20 6 0 10 28 10 65 0 60 -3 68 -30 95 l-31 30 -1842 -1 -1842 -1 -32 -35z"></path></g></svg>