<svg xmlns="http://www.w3.org/2000/svg" width="1080.000000pt" height="1080.000000pt" viewBox="0 0 1080.000000 1080.000000" preserveAspectRatio="xMidYMid meet"><metadata>
Created by potrace 1.16, written by Peter Selinger 2001-2019
</metadata><g transform="translate(0.000000,1080.000000) scale(0.100000,-0.100000)" fill="#000000" stroke="none"><path d="M4760 10690 c0 -6 -45 -10 -114 -10 -66 0 -117 -4 -121 -10 -3 -6 -50 -10 -106 -10 -56 0 -98 -4 -95 -9 8 -12 -30 -21 -96 -21 -31 0 -60 -4 -63 -10 -3 -5 -33 -10 -66 -10 -33 0 -59 -4 -59 -10 0 -5 -22 -10 -49 -10 -34 0 -51 -4 -55 -15 -4 -10 -20 -15 -51 -15 -25 0 -45 -4 -45 -10 0 -6 -29 -10 -66 -10 -36 0 -63 -4 -60 -9 8 -12 -18 -21 -60 -21 -19 0 -34 -4 -34 -10 0 -5 -21 -10 -46 -10 -27 0 -43 -4 -39 -10 3 -5 -7 -12 -22 -15 -15 -4 -38 -11 -51 -16 -13 -5 -34 -9 -48 -9 -14 0 -23 -4 -20 -9 3 -5 -10 -12 -29 -15 -19 -4 -35 -11 -35 -16 0 -6 -13 -10 -30 -10 -16 0 -30 -4 -30 -10 0 -5 -16 -10 -35 -10 -23 0 -34 -4 -32 -12 1 -8 -10 -14 -25 -16 -16 -2 -28 -8 -28 -13 0 -5 -15 -9 -34 -9 -21 0 -36 -6 -40 -15 -3 -8 -15 -15 -26 -15 -11 0 -20 -4 -20 -10 0 -5 -9 -10 -20 -10 -11 0 -20 -4 -20 -8 0 -10 -71 -42 -93 -42 -10 0 -17 -4 -17 -10 0 -5 -13 -10 -29 -10 -16 0 -31 -6 -35 -15 -3 -8 -17 -15 -31 -15 -14 0 -25 -4 -25 -10 0 -5 -11 -10 -24 -10 -13 0 -26 -7 -30 -15 -3 -8 -12 -15 -21 -15 -8 0 -15 -4 -15 -10 0 -5 -9 -10 -19 -10 -10 0 -21 -7 -25 -15 -3 -8 -12 -15 -21 -15 -8 0 -15 -4 -15 -10 0 -5 -9 -10 -20 -10 -11 0 -20 -4 -20 -10 0 -5 -9 -10 -19 -10 -10 0 -21 -7 -25 -15 -3 -8 -15 -15 -26 -15 -11 0 -20 -4 -20 -10 0 -5 -9 -10 -20 -10 -11 0 -20 -6 -20 -12 0 -14 -44 -38 -69 -38 -8 0 -12 -3 -8 -6 8 -8 -31 -44 -49 -44 -8 0 -12 -4 -9 -10 3 -5 -3 -10 -13 -10 -11 0 -25 -7 -32 -15 -7 -8 -21 -15 -32 -15 -10 0 -16 -4 -13 -10 3 -5 -3 -10 -14 -10 -12 0 -21 -7 -21 -15 0 -8 -9 -15 -20 -15 -11 0 -20 -4 -20 -10 0 -5 -7 -10 -16 -10 -8 0 -12 -5 -9 -11 4 -6 -2 -13 -14 -16 -12 -3 -21 -9 -21 -14 0 -5 -9 -9 -20 -9 -11 0 -20 -5 -20 -11 0 -11 -25 -39 -35 -39 -3 0 -21 -16 -39 -35 -19 -19 -39 -35 -45 -35 -7 0 -29 -18 -50 -40 -21 -22 -43 -40 -49 -40 -7 0 -12 -4 -12 -10 0 -5 -9 -10 -21 -10 -11 0 -17 -4 -14 -10 3 -5 -1 -10 -9 -10 -9 0 -16 -7 -16 -15 0 -8 -7 -15 -15 -15 -8 0 -15 -4 -15 -10 0 -5 -7 -10 -16 -10 -8 0 -13 -4 -10 -9 3 -5 -6 -17 -19 -27 -14 -10 -25 -23 -25 -27 0 -11 -26 -37 -38 -37 -5 0 -15 -11 -22 -25 -7 -14 -17 -25 -22 -25 -11 0 -38 -25 -38 -35 0 -10 -28 -35 -39 -35 -6 0 -11 -5 -11 -11 0 -13 -25 -39 -38 -39 -6 0 -13 -7 -16 -16 -3 -8 -10 -12 -16 -9 -5 3 -10 0 -10 -7 0 -8 -9 -20 -20 -28 -11 -8 -20 -20 -20 -27 0 -7 -5 -13 -11 -13 -11 0 -46 -31 -41 -37 8 -11 0 -33 -13 -33 -8 0 -15 -4 -15 -10 0 -5 -16 -27 -35 -47 -19 -20 -35 -43 -35 -50 0 -7 -7 -13 -16 -13 -8 0 -13 -4 -10 -8 3 -5 -17 -29 -44 -55 -26 -25 -51 -55 -55 -66 -3 -12 -11 -19 -16 -16 -5 4 -9 -1 -9 -9 0 -9 -4 -16 -10 -16 -5 0 -10 -6 -10 -14 0 -8 -5 -16 -11 -18 -5 -2 -11 -11 -12 -19 -2 -9 -10 -24 -20 -33 -9 -10 -20 -28 -23 -42 -3 -13 -12 -24 -20 -24 -8 0 -14 -9 -14 -21 0 -20 -21 -49 -37 -49 -9 0 -33 -48 -33 -66 0 -6 -7 -14 -15 -18 -8 -3 -15 -12 -15 -21 0 -8 -4 -15 -10 -15 -5 0 -10 -5 -10 -11 0 -6 -7 -17 -15 -26 -8 -8 -13 -19 -9 -24 3 -5 -2 -12 -10 -15 -9 -3 -16 -14 -16 -24 0 -10 -11 -28 -25 -41 -13 -13 -25 -31 -25 -41 0 -9 -5 -18 -11 -20 -5 -2 -12 -12 -13 -23 -2 -11 -9 -19 -15 -18 -10 3 -16 -17 -12 -39 0 -5 -4 -8 -9 -8 -6 0 -10 -11 -10 -24 0 -13 -7 -29 -15 -36 -9 -7 -14 -19 -11 -27 3 -7 1 -13 -5 -13 -6 0 -7 -4 -4 -10 3 -5 2 -10 -3 -10 -5 0 -17 -25 -27 -55 -11 -30 -23 -55 -27 -55 -4 0 -8 -9 -8 -20 0 -11 -4 -20 -10 -20 -5 0 -10 -9 -10 -20 0 -11 -7 -23 -15 -26 -8 -4 -15 -17 -15 -30 0 -13 -4 -24 -10 -24 -5 0 -10 -11 -10 -24 0 -14 -7 -31 -15 -40 -8 -8 -15 -24 -15 -35 0 -11 -5 -23 -10 -26 -6 -3 -10 -22 -10 -41 0 -19 -4 -34 -10 -34 -5 0 -10 -9 -10 -20 0 -11 -7 -23 -15 -26 -9 -4 -15 -19 -15 -40 0 -19 -4 -34 -10 -34 -5 0 -10 -16 -10 -35 0 -24 -5 -35 -15 -35 -11 0 -15 -12 -15 -44 0 -25 -4 -48 -10 -51 -5 -3 -10 -19 -10 -35 0 -36 -10 -61 -21 -54 -5 3 -9 -20 -9 -50 0 -30 -5 -58 -10 -61 -6 -3 -10 -24 -10 -45 0 -46 -9 -72 -21 -64 -5 3 -9 -20 -9 -50 0 -30 -4 -58 -10 -61 -5 -3 -10 -20 -10 -37 0 -18 -4 -57 -10 -87 -5 -31 -13 -83 -16 -115 -4 -38 -9 -54 -14 -46 -8 14 -14 -59 -26 -317 -3 -68 -9 -123 -15 -123 -5 0 -9 -91 -9 -225 0 -143 4 -225 10 -225 6 0 10 -45 10 -114 0 -66 4 -117 10 -121 6 -4 10 -54 10 -116 0 -65 4 -108 9 -104 5 3 12 -21 16 -52 3 -32 10 -68 16 -81 5 -13 9 -50 9 -83 0 -38 4 -58 10 -54 6 4 10 -13 10 -43 0 -27 7 -63 15 -78 8 -16 15 -44 15 -61 0 -18 5 -33 10 -33 6 0 10 -26 10 -59 0 -43 4 -60 15 -65 10 -4 15 -20 15 -51 0 -25 5 -45 10 -45 6 0 10 -18 10 -39 0 -22 5 -41 11 -43 9 -3 18 -31 39 -118 4 -19 8 -30 9 -25 2 18 21 -19 21 -42 0 -13 5 -23 10 -23 6 0 10 -16 10 -35 0 -19 5 -35 10 -35 6 0 10 -11 10 -25 0 -16 6 -25 15 -25 9 0 15 -9 15 -24 0 -14 5 -28 10 -31 5 -3 10 -19 10 -36 0 -19 5 -29 15 -29 9 0 15 -9 15 -25 0 -14 5 -25 10 -25 6 0 10 -14 10 -31 0 -16 4 -28 9 -25 5 4 12 -7 16 -24 4 -16 11 -32 16 -35 5 -4 9 -17 9 -30 0 -12 7 -25 15 -29 8 -3 12 -12 9 -19 -3 -8 2 -17 10 -20 9 -4 16 -18 16 -32 0 -14 5 -25 10 -25 6 0 10 -11 10 -25 0 -16 6 -25 15 -25 9 0 15 -9 15 -25 0 -14 5 -25 10 -25 6 0 10 -11 10 -25 0 -16 6 -25 15 -25 8 0 15 -7 15 -15 0 -8 5 -15 11 -15 5 0 8 -4 4 -9 -3 -5 2 -16 10 -24 8 -9 15 -20 15 -26 0 -5 12 -22 28 -38 15 -15 26 -33 24 -40 -2 -7 4 -16 13 -19 8 -3 15 -12 15 -20 0 -8 5 -14 10 -14 6 0 10 -8 10 -19 0 -10 11 -27 25 -37 14 -10 25 -29 25 -41 0 -14 6 -23 15 -23 9 0 15 -9 15 -25 0 -14 5 -25 10 -25 6 0 10 -9 10 -21 0 -12 8 -23 20 -26 10 -3 22 -13 25 -23 3 -10 13 -21 21 -24 8 -3 12 -10 9 -16 -3 -5 1 -10 9 -10 14 0 21 -16 18 -41 -1 -3 10 -12 23 -19 14 -7 25 -18 25 -24 0 -7 9 -18 20 -26 11 -8 20 -20 20 -27 0 -7 12 -24 28 -40 15 -15 26 -31 24 -35 -1 -4 3 -8 9 -8 14 0 39 -25 39 -39 0 -6 5 -11 11 -11 16 0 38 -31 39 -52 0 -10 5 -18 11 -18 14 0 39 -25 39 -39 0 -6 5 -11 11 -11 11 0 39 -24 39 -34 0 -7 180 -186 186 -186 8 0 34 -27 34 -35 0 -8 27 -35 35 -35 11 0 90 -84 87 -92 -1 -4 5 -8 13 -8 8 0 15 -4 15 -10 0 -5 9 -10 20 -10 11 0 20 -7 20 -15 0 -8 5 -15 11 -15 7 0 27 -16 46 -35 19 -19 38 -35 43 -35 6 0 10 -4 10 -10 0 -5 7 -10 15 -10 9 0 18 -7 21 -15 4 -8 11 -15 16 -15 6 0 21 -11 34 -25 13 -14 30 -25 39 -25 8 0 15 -4 15 -10 0 -5 7 -10 15 -10 8 0 15 -7 15 -15 0 -8 7 -15 15 -15 8 0 15 -4 15 -10 0 -5 7 -10 16 -10 9 0 27 -11 40 -25 13 -14 30 -25 39 -25 8 0 15 -4 15 -9 0 -5 9 -13 20 -16 11 -4 18 -11 15 -16 -4 -5 3 -9 14 -9 12 0 21 -4 21 -10 0 -5 7 -10 15 -10 8 0 15 -7 15 -15 0 -8 9 -15 20 -15 11 0 20 -3 20 -8 0 -4 18 -15 40 -25 23 -9 38 -22 35 -27 -3 -6 5 -10 19 -10 14 0 28 -4 31 -10 3 -5 15 -10 26 -10 11 0 22 -7 25 -15 4 -8 15 -15 25 -15 10 0 19 -4 19 -9 0 -5 10 -11 23 -13 12 -2 21 -9 19 -16 -1 -6 7 -12 18 -12 11 0 20 -4 20 -10 0 -5 8 -10 19 -10 10 0 24 -7 31 -15 7 -8 19 -15 26 -15 8 0 14 -4 14 -10 0 -5 11 -10 25 -10 14 0 25 -4 25 -10 0 -5 9 -10 20 -10 11 0 23 -7 26 -15 4 -8 17 -15 29 -15 13 0 27 -4 30 -10 3 -5 15 -10 26 -10 11 0 22 -7 25 -15 4 -8 15 -15 25 -15 10 0 19 -4 19 -10 0 -5 14 -10 30 -10 20 0 30 -5 30 -15 0 -10 10 -15 30 -15 17 0 30 -4 30 -10 0 -5 15 -10 34 -10 19 0 38 -4 41 -10 3 -5 22 -10 41 -10 22 0 37 -6 40 -15 4 -9 19 -15 35 -15 16 0 29 -4 29 -9 0 -6 15 -11 33 -13 19 -2 31 -8 29 -15 -1 -9 11 -13 38 -13 22 0 40 -4 40 -9 0 -6 19 -11 43 -13 27 -2 41 -7 39 -15 -1 -9 12 -13 43 -13 25 0 45 -4 45 -10 0 -5 15 -10 34 -10 19 0 38 -4 41 -10 3 -5 21 -10 40 -10 18 0 40 -7 49 -15 9 -9 33 -15 65 -15 27 0 53 -4 56 -10 3 -5 24 -10 45 -10 46 0 72 -9 64 -21 -3 -5 28 -9 70 -9 44 0 76 -4 76 -10 0 -6 31 -10 74 -10 83 0 116 -7 94 -21 -7 -5 50 -9 135 -9 96 0 146 -4 142 -10 -4 -7 105 -10 319 -10 211 0 326 4 326 10 0 6 55 10 143 11 78 0 133 4 122 8 -15 6 -11 9 20 14 22 4 66 7 98 7 31 0 57 5 57 10 0 6 28 10 65 10 47 0 64 4 63 13 -2 8 14 13 47 15 28 2 54 7 60 13 5 5 26 9 48 9 21 0 45 7 53 15 9 8 28 15 44 15 16 0 32 5 35 10 3 6 22 10 41 10 19 0 34 5 34 10 0 6 18 10 40 10 27 0 39 4 38 13 -2 7 11 13 35 15 20 2 37 7 37 13 0 5 16 9 35 9 23 0 34 4 33 12 -2 8 9 14 25 16 15 2 27 8 27 13 0 5 14 9 31 9 17 0 37 6 45 14 16 17 20 106 4 106 -5 0 -10 25 -10 56 0 34 -4 53 -10 49 -6 -3 -10 0 -11 7 0 7 -5 49 -11 93 -5 44 -12 207 -14 362 -4 246 -7 282 -21 287 -9 4 -23 0 -33 -9 -9 -8 -24 -15 -33 -15 -9 0 -17 -4 -17 -10 0 -5 -11 -10 -25 -10 -15 0 -24 -5 -23 -12 2 -8 -9 -14 -24 -16 -16 -2 -28 -8 -28 -13 0 -5 -14 -9 -31 -9 -16 0 -28 -4 -25 -9 7 -10 -17 -21 -45 -21 -10 0 -19 -4 -19 -10 0 -5 -16 -10 -36 -10 -19 0 -33 -4 -30 -9 7 -10 -17 -21 -45 -21 -10 0 -19 -4 -19 -10 0 -5 -16 -10 -35 -10 -19 0 -35 -4 -35 -10 0 -5 -25 -10 -55 -10 -39 0 -54 -4 -53 -12 2 -9 -16 -14 -59 -16 -35 -2 -63 -7 -63 -12 0 -6 -26 -10 -57 -11 -38 0 -51 -3 -38 -8 16 -7 14 -9 -14 -14 -19 -4 -51 -7 -72 -7 -21 0 -41 -4 -44 -10 -3 -5 -42 -10 -86 -10 -45 0 -78 -4 -75 -9 11 -18 -103 -24 -439 -24 -336 0 -442 6 -414 24 9 5 -24 9 -83 9 -59 0 -98 4 -98 10 0 6 -26 10 -59 10 -65 0 -94 7 -85 21 3 5 -22 9 -55 9 -34 0 -61 4 -61 10 0 5 -26 10 -57 12 -40 2 -57 7 -55 15 1 9 -16 13 -64 13 -41 0 -63 4 -59 10 4 6 -8 10 -30 10 -19 0 -43 4 -53 9 -9 6 -30 12 -45 16 -15 3 -25 10 -22 15 4 6 -7 10 -24 10 -17 0 -31 5 -31 10 0 6 -14 10 -30 10 -18 0 -33 6 -36 15 -4 9 -19 15 -40 15 -19 0 -34 5 -34 10 0 6 -11 10 -25 10 -14 0 -28 7 -31 15 -4 9 -19 15 -35 15 -16 0 -29 5 -29 10 0 6 -9 10 -19 10 -10 0 -21 7 -25 15 -3 8 -17 15 -31 15 -14 0 -25 5 -25 10 0 6 -11 10 -25 10 -14 0 -25 5 -25 10 0 6 -9 10 -20 10 -11 0 -23 7 -26 15 -4 8 -17 15 -30 15 -13 0 -24 4 -24 9 0 5 -12 11 -27 13 -16 2 -27 8 -25 15 1 8 -9 13 -24 13 -16 0 -36 11 -50 25 -13 14 -30 25 -39 25 -8 0 -15 5 -15 10 0 6 -9 10 -20 10 -11 0 -20 5 -20 10 0 6 -7 10 -15 10 -9 0 -18 7 -21 15 -4 8 -15 15 -25 15 -10 0 -19 4 -19 9 0 5 -9 11 -21 14 -12 3 -18 10 -14 16 4 7 -4 11 -19 11 -14 0 -26 4 -26 9 0 5 -9 11 -21 14 -12 3 -18 10 -14 16 3 6 -1 11 -10 11 -9 0 -32 16 -51 35 -18 19 -40 35 -49 35 -8 0 -15 5 -15 10 0 6 -7 10 -15 10 -9 0 -18 7 -21 15 -4 8 -12 15 -20 15 -18 0 -54 31 -48 42 3 4 -4 8 -15 8 -12 0 -21 5 -21 10 0 6 -5 10 -10 10 -6 0 -62 51 -125 113 -115 113 -163 157 -172 157 -9 0 -83 79 -83 90 0 5 -7 10 -17 10 -9 0 -14 3 -10 6 5 6 -8 25 -48 68 -25 28 -44 56 -51 78 -4 10 -11 18 -16 18 -14 0 -108 97 -108 112 0 8 -16 31 -35 51 -19 20 -35 43 -35 51 0 7 -11 22 -25 32 -14 10 -25 27 -25 37 0 10 -4 16 -9 13 -5 -3 -17 17 -27 44 -10 28 -24 50 -32 50 -8 0 -12 6 -8 15 3 8 0 14 -7 12 -6 -1 -13 8 -15 21 -2 12 -8 22 -13 22 -5 0 -9 8 -9 19 0 10 -11 27 -25 37 -14 10 -25 29 -25 41 0 14 -6 23 -15 23 -9 0 -15 9 -15 25 0 14 -4 25 -10 25 -5 0 -10 11 -10 25 0 16 -6 25 -16 25 -10 0 -14 6 -10 15 3 8 -5 25 -19 39 -14 14 -25 34 -25 46 0 11 -7 20 -15 20 -9 0 -15 9 -15 25 0 14 -4 25 -10 25 -5 0 -10 9 -10 21 0 11 -7 27 -15 35 -8 9 -15 26 -15 39 0 13 -4 27 -10 30 -5 3 -10 24 -10 46 0 27 -5 42 -16 46 -8 3 -13 11 -10 19 3 7 -2 18 -10 24 -8 7 -14 21 -14 31 0 11 -4 19 -10 19 -5 0 -10 16 -10 35 0 22 -6 38 -15 41 -9 4 -15 19 -15 40 0 19 -4 34 -10 34 -5 0 -10 16 -10 36 0 19 -7 42 -15 50 -8 9 -15 26 -15 40 0 13 -4 24 -10 24 -5 0 -10 23 -10 51 0 31 -4 48 -10 44 -10 -6 -14 15 -11 44 2 7 -5 31 -13 52 -9 22 -16 55 -16 74 0 18 -4 37 -10 40 -5 3 -10 35 -10 71 0 36 -4 63 -9 60 -14 -9 -21 31 -21 117 0 44 -4 77 -10 77 -7 0 -10 153 -10 440 0 287 3 440 10 440 6 0 10 28 10 63 0 71 8 109 21 101 5 -3 9 29 9 70 0 44 4 76 10 76 6 0 10 21 10 48 1 26 7 58 15 72 8 14 14 42 15 63 0 20 5 37 10 37 6 0 10 18 10 39 0 22 4 43 10 46 5 3 10 19 10 35 0 16 7 35 15 44 8 8 15 31 15 50 0 20 5 36 10 36 6 0 10 9 10 20 0 11 7 23 15 26 9 4 15 19 15 40 0 19 5 34 10 34 6 0 10 15 10 34 0 22 6 36 16 40 10 4 13 13 9 26 -5 14 -2 20 9 20 11 0 16 10 17 35 2 47 3 52 12 61 4 4 7 18 7 31 0 14 6 23 15 23 8 0 15 9 15 20 0 11 5 20 10 20 6 0 10 11 10 24 0 13 7 26 15 30 8 3 15 15 15 26 0 11 5 20 10 20 6 0 10 11 10 24 0 13 7 27 16 30 9 4 14 13 10 21 -3 9 1 18 9 21 8 4 15 17 15 30 0 13 4 24 10 24 5 0 12 11 16 25 3 14 10 22 15 19 5 -3 9 2 9 10 0 9 5 16 10 16 6 0 10 11 10 25 0 16 6 25 15 25 14 0 19 12 16 33 0 4 4 7 9 7 6 0 10 7 10 15 0 8 4 15 10 15 5 0 12 11 16 25 3 14 10 25 15 25 5 0 9 6 9 14 0 18 32 76 43 76 4 0 7 7 7 15 0 8 5 15 10 15 6 0 10 6 10 13 0 8 11 20 24 27 14 7 26 22 28 34 2 12 10 20 17 18 8 -2 11 3 8 13 -4 9 -1 15 8 15 8 0 15 7 15 15 0 8 4 15 9 15 5 0 13 10 17 23 4 12 15 29 25 38 11 9 19 20 19 23 0 10 27 36 37 36 5 0 17 16 27 35 11 19 23 35 28 35 4 0 8 5 8 11 0 14 26 39 40 39 6 0 9 4 6 8 -6 9 29 42 44 42 6 0 9 4 7 8 -3 10 49 62 63 62 6 0 9 4 6 8 -6 9 29 42 44 42 6 0 9 4 8 8 -4 10 98 112 112 112 5 0 10 7 10 15 0 8 7 15 15 15 8 0 15 5 15 10 0 6 5 10 10 10 6 0 21 11 34 25 13 14 28 25 35 25 6 0 11 6 11 13 0 8 11 20 25 27 14 7 25 17 25 22 0 4 7 8 15 8 9 0 26 11 39 25 13 14 28 25 34 25 5 0 12 7 16 15 3 8 12 15 21 15 8 0 15 5 15 10 0 6 7 10 15 10 8 0 15 5 15 11 0 16 26 39 44 39 9 0 16 5 16 10 0 6 6 10 14 10 7 0 19 7 26 15 7 8 21 15 31 15 11 0 19 5 19 10 0 6 9 10 20 10 11 0 20 7 20 15 0 8 9 15 20 15 11 0 20 5 20 10 0 6 9 10 20 10 11 0 20 7 20 15 0 8 9 15 20 15 11 0 20 5 20 10 0 6 9 10 21 10 11 0 17 5 14 10 -3 6 0 10 8 10 8 0 20 7 27 15 7 8 21 15 31 15 11 0 19 5 19 10 0 6 11 10 25 10 14 0 24 5 23 12 -2 7 7 14 20 16 12 2 22 8 22 13 0 5 11 9 24 9 13 0 26 7 30 15 3 8 15 15 26 15 11 0 20 5 20 10 0 6 14 10 30 10 20 0 30 5 30 15 0 10 10 15 30 15 17 0 30 5 30 10 0 6 16 10 35 10 19 0 35 5 35 10 0 6 16 10 35 10 23 0 34 4 33 13 -2 7 10 13 30 15 17 2 32 7 32 13 0 5 16 9 35 9 23 0 34 4 32 13 -1 7 11 13 31 15 17 2 32 7 32 13 0 5 16 9 36 9 19 0 42 7 50 15 9 8 29 15 45 15 16 0 29 5 29 10 0 6 20 10 45 10 25 0 45 5 45 10 0 6 21 10 46 10 27 0 51 6 60 15 10 9 34 15 65 15 27 0 49 5 49 10 0 6 32 10 75 10 55 0 74 3 72 13 -1 8 20 13 73 15 41 2 79 7 84 12 6 6 107 11 230 12 129 0 200 4 171 8 -39 5 -28 7 50 7 78 0 89 -2 50 -7 -29 -4 40 -8 167 -8 132 -1 219 -6 223 -12 3 -5 32 -10 64 -10 32 0 73 -3 92 -7 28 -5 30 -7 14 -14 -12 -5 13 -8 63 -8 47 -1 82 -5 82 -11 0 -5 20 -10 44 -10 26 0 48 -6 56 -15 8 -9 30 -15 56 -15 24 0 44 -4 44 -10 0 -5 20 -10 44 -10 25 0 48 -4 51 -10 3 -5 17 -10 30 -10 32 0 56 -10 49 -21 -3 -5 11 -9 30 -9 19 0 38 -4 41 -10 3 -5 20 -10 36 -10 17 0 32 -6 35 -15 4 -9 19 -15 40 -15 19 0 34 -4 34 -10 0 -5 14 -10 30 -10 20 0 30 -5 30 -15 0 -10 10 -15 31 -15 17 0 28 -4 24 -10 -4 -6 8 -10 29 -10 19 0 38 -4 41 -10 3 -5 17 -10 30 -10 13 0 30 -7 39 -15 8 -8 24 -15 35 -15 12 0 21 -4 21 -10 0 -5 11 -10 25 -10 16 0 25 -6 25 -15 0 -9 9 -15 25 -15 14 0 25 -4 25 -10 0 -5 9 -10 20 -10 11 0 20 -7 20 -15 0 -8 9 -15 20 -15 11 0 20 -4 20 -10 0 -5 6 -10 13 -10 21 0 77 -30 77 -41 0 -5 11 -9 25 -9 14 0 25 -4 25 -10 0 -5 7 -10 15 -10 9 0 18 -7 21 -15 4 -8 15 -15 25 -15 10 0 19 -4 19 -9 0 -5 9 -11 21 -14 12 -3 18 -10 14 -16 -3 -7 2 -11 14 -11 12 0 21 -4 21 -10 0 -5 9 -10 19 -10 10 0 21 -7 25 -15 3 -8 15 -15 26 -15 11 0 20 -4 20 -10 0 -5 7 -10 15 -10 8 0 15 -4 15 -10 0 -5 7 -10 15 -10 9 0 18 -7 21 -15 4 -8 10 -15 15 -15 15 0 48 -33 43 -42 -3 -4 6 -8 20 -8 14 0 26 -4 26 -10 0 -5 7 -10 15 -10 8 0 15 -7 15 -15 0 -8 7 -15 16 -15 8 0 13 -4 10 -9 -3 -5 4 -11 15 -14 11 -3 23 -14 25 -25 3 -10 21 -25 40 -32 19 -8 34 -20 34 -27 0 -7 7 -13 15 -13 8 0 15 -4 15 -10 0 -5 7 -10 15 -10 8 0 15 -7 15 -15 0 -8 7 -15 16 -15 17 0 170 -149 167 -162 -2 -4 4 -8 12 -8 8 0 15 -3 15 -7 0 -17 100 -127 123 -136 10 -4 15 -11 12 -17 -3 -5 1 -10 9 -10 9 0 16 -4 16 -9 0 -5 18 -27 40 -50 22 -22 40 -46 40 -51 0 -6 6 -10 14 -10 13 0 26 -19 32 -48 1 -8 11 -20 21 -28 10 -7 14 -14 10 -14 -5 0 -2 -7 5 -15 30 -33 38 -45 38 -55 0 -5 7 -10 15 -10 8 0 15 -7 15 -15 0 -8 5 -15 11 -15 5 0 8 -4 5 -8 -3 -5 4 -15 15 -22 10 -8 19 -20 19 -27 0 -7 5 -13 10 -13 6 0 10 -7 10 -15 0 -9 11 -26 25 -39 14 -13 25 -32 25 -42 0 -11 11 -28 25 -38 14 -10 25 -27 25 -37 0 -11 5 -19 10 -19 6 0 10 -5 10 -10 0 -10 8 -22 38 -55 6 -7 12 -18 12 -24 0 -6 5 -11 10 -11 6 0 10 -16 10 -35 0 -24 5 -35 15 -35 9 0 15 -9 15 -25 0 -14 5 -25 10 -25 6 0 10 -11 10 -25 0 -16 6 -25 15 -25 9 0 15 -9 15 -25 0 -14 5 -25 10 -25 6 0 10 -9 10 -21 0 -11 6 -27 13 -34 31 -36 37 -46 37 -65 0 -11 5 -20 10 -20 6 0 10 -14 10 -31 0 -16 4 -28 9 -24 6 3 13 -10 17 -30 3 -19 10 -35 15 -35 5 0 9 -16 9 -35 0 -22 6 -38 15 -41 8 -4 15 -17 15 -30 0 -13 5 -24 10 -24 6 0 10 -16 10 -35 0 -24 5 -35 15 -35 9 0 15 -9 15 -24 0 -14 5 -28 10 -31 6 -3 10 -24 10 -45 0 -21 5 -42 10 -45 6 -3 10 -28 10 -54 0 -31 5 -53 15 -61 10 -8 15 -31 15 -66 0 -29 5 -56 10 -59 6 -3 10 -26 10 -51 0 -27 6 -52 15 -60 10 -10 15 -35 15 -70 0 -74 12 -94 56 -94 32 0 64 -18 64 -35 0 -4 6 -13 13 -20 27 -31 37 -44 37 -51 0 -3 11 -15 25 -26 14 -11 25 -26 25 -33 0 -7 16 -30 35 -51 19 -20 35 -45 35 -55 0 -11 5 -19 11 -19 11 0 39 -25 39 -35 0 -10 28 -35 39 -35 6 0 11 -8 11 -18 0 -10 21 -41 47 -68 26 -27 49 -56 50 -64 1 -8 7 -16 12 -18 6 -2 11 -10 11 -18 0 -8 5 -14 11 -14 6 0 17 -6 25 -14 8 -8 14 -19 14 -25 0 -6 5 -11 10 -11 6 0 10 -7 10 -15 0 -9 7 -18 15 -21 8 -4 15 -10 15 -16 0 -13 26 -38 39 -38 6 0 11 -5 11 -11 0 -7 12 -22 28 -35 15 -13 23 -24 19 -24 -9 0 2 -14 54 -69 20 -21 40 -48 43 -59 4 -12 12 -22 17 -22 5 0 9 -6 9 -13 0 -7 11 -21 25 -31 13 -10 22 -22 19 -27 -3 -5 0 -9 6 -9 14 0 40 -25 40 -39 0 -6 5 -11 11 -11 5 0 7 -4 4 -10 -3 -5 3 -10 14 -10 20 0 21 6 21 109 0 78 4 111 12 113 18 6 24 530 8 653 -7 50 -14 144 -17 210 -2 66 -8 124 -14 130 -5 5 -9 38 -9 73 0 35 -4 61 -9 58 -11 -7 -21 28 -21 81 0 23 -4 45 -10 48 -5 3 -10 31 -10 61 0 30 -4 53 -9 50 -10 -7 -21 27 -21 66 0 15 -4 30 -10 33 -5 3 -10 21 -10 40 0 18 -5 35 -11 37 -11 4 -25 61 -36 146 -3 24 -10 42 -18 42 -7 0 -11 9 -8 23 3 14 -2 31 -11 40 -9 8 -16 27 -16 41 0 14 -4 26 -10 26 -5 0 -10 13 -10 29 0 16 -6 31 -15 35 -8 3 -15 17 -15 31 0 14 -4 25 -8 25 -4 0 -9 14 -10 31 -1 17 -9 38 -17 46 -8 8 -15 25 -15 38 0 13 -4 27 -10 30 -5 3 -10 19 -10 36 0 16 -4 29 -9 29 -5 0 -12 11 -15 25 -4 14 -11 25 -16 25 -6 0 -10 11 -10 25 0 14 -4 25 -10 25 -5 0 -10 14 -10 31 0 16 -4 28 -9 25 -10 -7 -21 17 -21 45 0 10 -4 19 -10 19 -5 0 -10 11 -10 25 0 16 -6 25 -15 25 -9 0 -15 9 -15 25 0 14 -4 25 -10 25 -5 0 -10 5 -10 11 0 6 -6 17 -12 24 -32 36 -38 46 -38 65 0 11 -7 20 -16 20 -10 0 -13 6 -9 18 3 13 -3 25 -20 38 -14 10 -25 29 -25 41 0 14 -6 23 -15 23 -9 0 -15 9 -15 25 0 14 -4 25 -10 25 -5 0 -10 11 -10 25 0 16 -6 25 -15 25 -9 0 -15 9 -15 21 0 22 -22 49 -40 49 -7 0 -10 7 -6 15 3 9 0 15 -9 15 -8 0 -15 9 -15 20 0 11 -4 20 -10 20 -5 0 -10 7 -10 15 0 8 -7 15 -15 15 -9 0 -15 9 -15 21 0 22 -22 49 -39 49 -6 0 -11 9 -11 21 0 11 -16 35 -36 54 -19 18 -36 42 -37 54 0 11 -10 22 -20 25 -10 2 -21 14 -24 25 -3 12 -9 21 -14 21 -5 0 -9 5 -9 11 0 6 -6 16 -12 23 -7 8 -20 23 -28 35 -8 11 -20 21 -27 21 -7 0 -13 6 -13 13 0 7 -9 19 -20 27 -11 8 -20 20 -20 27 0 7 -4 13 -10 13 -5 0 -12 11 -16 25 -3 14 -10 25 -16 25 -12 0 -64 52 -61 62 2 4 -3 8 -10 8 -14 0 -87 75 -87 90 0 6 -4 10 -10 10 -13 0 -110 97 -110 110 0 5 -5 10 -11 10 -14 0 -39 25 -39 39 0 6 -5 11 -11 11 -7 0 -26 16 -45 35 -18 19 -40 35 -48 35 -9 0 -16 5 -16 10 0 6 -7 10 -15 10 -8 0 -15 7 -15 15 0 8 -5 15 -11 15 -14 0 -39 25 -39 39 0 6 -7 11 -15 11 -8 0 -15 4 -15 9 0 5 -9 11 -21 14 -12 3 -18 10 -14 16 3 6 -1 11 -9 11 -9 0 -16 5 -16 10 0 6 -5 10 -11 10 -7 0 -22 11 -35 25 -13 14 -28 25 -35 25 -6 0 -22 11 -35 25 -13 14 -28 25 -34 25 -5 0 -10 5 -10 10 0 6 -9 10 -20 10 -11 0 -20 7 -20 15 0 8 -7 15 -15 15 -8 0 -15 5 -15 10 0 6 -7 10 -15 10 -8 0 -15 4 -15 10 0 5 -11 12 -25 16 -14 3 -22 10 -19 15 3 5 -5 9 -17 9 -12 0 -32 11 -45 25 -13 14 -30 25 -39 25 -8 0 -15 5 -15 10 0 6 -7 10 -15 10 -9 0 -18 7 -21 15 -4 8 -15 15 -25 15 -10 0 -19 5 -19 10 0 6 -9 10 -20 10 -11 0 -20 7 -20 15 0 8 -7 15 -15 15 -8 0 -15 5 -15 10 0 6 -9 10 -20 10 -11 0 -20 4 -20 9 0 5 -11 12 -25 15 -14 4 -23 11 -20 16 3 6 -5 10 -19 10 -14 0 -26 5 -26 10 0 6 -9 10 -20 10 -11 0 -20 7 -20 15 0 9 -9 15 -25 15 -14 0 -25 5 -25 10 0 6 -11 10 -25 10 -14 0 -28 7 -31 15 -4 9 -19 15 -35 15 -16 0 -29 5 -29 10 0 6 -9 10 -20 10 -11 0 -20 5 -20 10 0 6 -9 10 -20 10 -11 0 -23 7 -26 15 -4 9 -19 15 -35 15 -16 0 -29 4 -29 9 0 5 -12 11 -27 13 -16 2 -27 8 -25 16 1 7 -9 12 -28 12 -16 0 -30 4 -30 9 0 6 -15 11 -32 13 -20 2 -32 8 -30 16 1 7 -9 12 -28 12 -16 0 -30 5 -30 10 0 6 -11 10 -24 10 -14 0 -27 4 -30 9 -3 5 -22 12 -41 15 -19 4 -35 11 -35 16 0 6 -13 10 -29 10 -17 0 -33 5 -36 10 -3 6 -17 10 -30 10 -32 0 -56 10 -49 21 3 5 -11 9 -30 9 -20 0 -36 5 -36 10 0 6 -17 10 -37 10 -54 0 -88 11 -71 21 8 5 -16 9 -59 9 -42 0 -73 4 -73 10 0 6 -15 10 -34 10 -18 0 -39 7 -46 15 -8 10 -31 15 -67 15 -34 0 -52 4 -48 10 4 6 -18 10 -59 10 -36 0 -68 5 -71 10 -3 6 -30 10 -60 10 -59 0 -88 8 -79 21 3 5 -45 9 -110 9 -66 0 -117 4 -121 10 -3 6 -46 10 -96 10 -64 0 -89 3 -89 13 0 8 -4 7 -10 -3 -6 -10 -10 -11 -10 -2 0 9 -57 12 -250 12 -160 0 -250 -4 -250 -10z"></path><path d="M4715 8920 c19 -5 -15 -8 -93 -9 -70 0 -121 -5 -118 -10 9 -13 -19 -21 -75 -21 -27 0 -49 -4 -49 -10 0 -6 -28 -10 -65 -10 -47 0 -64 -4 -63 -12 2 -9 -14 -14 -47 -16 -27 -2 -54 -7 -59 -13 -6 -5 -31 -9 -57 -9 -32 0 -49 -5 -53 -15 -3 -8 -16 -15 -30 -15 -14 0 -28 -4 -31 -10 -3 -5 -19 -10 -36 -10 -16 0 -29 -4 -29 -10 0 -5 -14 -10 -30 -10 -18 0 -33 -6 -36 -15 -4 -9 -19 -15 -35 -15 -16 0 -29 -4 -29 -10 0 -5 -13 -10 -30 -10 -20 0 -30 -5 -30 -15 0 -8 -9 -15 -20 -15 -11 0 -20 -4 -20 -10 0 -5 -11 -10 -24 -10 -13 0 -26 -7 -30 -15 -3 -8 -15 -15 -26 -15 -11 0 -20 -4 -20 -10 0 -5 -11 -10 -25 -10 -14 0 -25 -4 -25 -9 0 -11 -57 -41 -77 -41 -8 0 -11 -4 -8 -10 4 -6 -5 -10 -19 -10 -16 0 -26 -6 -26 -15 0 -8 -9 -15 -20 -15 -11 0 -20 -4 -20 -10 0 -5 -11 -10 -25 -10 -14 0 -24 -5 -22 -12 1 -7 -8 -14 -20 -16 -13 -2 -23 -8 -23 -13 0 -5 -6 -9 -14 -9 -8 0 -16 -7 -20 -15 -3 -8 -12 -15 -21 -15 -8 0 -15 -4 -15 -10 0 -5 -7 -10 -15 -10 -8 0 -15 -4 -15 -10 0 -5 -6 -10 -14 -10 -8 0 -16 -7 -20 -15 -3 -8 -12 -15 -21 -15 -8 0 -15 -4 -15 -10 0 -5 -7 -10 -15 -10 -8 0 -15 -7 -15 -15 0 -8 -7 -15 -15 -15 -8 0 -15 -4 -15 -10 0 -5 -7 -10 -16 -10 -8 0 -13 -4 -10 -8 5 -8 -28 -42 -40 -42 -4 0 -17 -11 -30 -25 -13 -14 -28 -25 -34 -25 -5 0 -10 -4 -10 -10 0 -5 -7 -10 -15 -10 -8 0 -15 -7 -15 -15 0 -8 -7 -15 -15 -15 -8 0 -15 -4 -15 -10 0 -5 -8 -10 -17 -10 -9 0 -14 -3 -11 -6 4 -3 -20 -32 -53 -64 -32 -32 -59 -62 -59 -65 0 -10 -28 -35 -39 -35 -6 0 -11 -6 -11 -13 0 -7 -11 -24 -25 -39 -14 -15 -25 -30 -25 -33 0 -10 -28 -35 -39 -35 -6 0 -11 -5 -11 -11 0 -6 -15 -26 -34 -44 -19 -18 -36 -41 -38 -51 -2 -11 -9 -18 -16 -17 -6 2 -9 -4 -6 -12 4 -9 0 -15 -10 -15 -9 0 -16 -7 -16 -15 0 -8 -4 -15 -10 -15 -5 0 -10 -9 -10 -20 0 -11 -7 -20 -15 -20 -8 0 -15 -7 -15 -15 0 -8 -4 -15 -10 -15 -5 0 -10 -11 -10 -25 0 -16 -6 -25 -15 -25 -9 0 -15 -9 -15 -25 0 -14 -4 -25 -9 -25 -5 0 -13 -9 -16 -20 -4 -11 -11 -17 -17 -14 -8 5 -9 1 -5 -10 4 -10 1 -19 -8 -22 -8 -4 -15 -17 -15 -30 0 -13 -4 -24 -10 -24 -5 0 -10 -9 -10 -20 0 -11 -7 -23 -15 -26 -8 -4 -15 -15 -15 -25 0 -10 -4 -19 -10 -19 -5 0 -10 -11 -10 -25 0 -16 -6 -25 -15 -25 -9 0 -15 -9 -15 -25 0 -14 -4 -25 -10 -25 -5 0 -10 -11 -10 -25 0 -16 -6 -25 -15 -25 -9 0 -15 -9 -15 -25 0 -14 -4 -25 -10 -25 -5 0 -10 -10 -10 -23 0 -12 -7 -32 -15 -44 -8 -12 -12 -28 -9 -36 3 -8 -2 -21 -10 -30 -9 -9 -16 -25 -16 -35 0 -11 -4 -22 -10 -24 -5 -1 -11 -18 -12 -37 -1 -18 -8 -36 -15 -38 -8 -3 -13 -23 -13 -48 0 -24 -4 -47 -10 -50 -5 -3 -10 -23 -10 -43 0 -48 -10 -83 -21 -76 -5 3 -9 -24 -9 -60 0 -37 -4 -66 -10 -66 -5 0 -10 -24 -10 -54 0 -35 -5 -58 -15 -66 -12 -10 -15 -38 -16 -124 -1 -73 -4 -101 -9 -81 -4 17 -8 -98 -8 -255 0 -157 4 -271 8 -255 5 20 8 -6 9 -76 1 -73 6 -116 16 -135 8 -16 15 -55 15 -86 0 -32 4 -58 10 -58 6 0 10 -29 10 -66 0 -36 4 -63 9 -60 12 8 21 -18 21 -60 0 -19 5 -34 10 -34 6 0 10 -25 10 -56 0 -30 4 -53 9 -50 11 7 21 -18 21 -55 0 -16 5 -29 10 -29 6 0 10 -12 10 -26 0 -14 7 -32 15 -40 8 -9 15 -26 15 -40 0 -13 5 -24 10 -24 6 0 10 -9 10 -20 0 -11 5 -20 10 -20 6 0 10 -16 10 -36 0 -20 4 -33 10 -29 5 3 12 -6 16 -20 3 -14 10 -25 15 -25 5 0 8 -3 8 -7 -5 -28 3 -53 16 -53 9 0 15 -9 15 -25 0 -14 5 -25 10 -25 6 0 10 -11 10 -25 0 -16 6 -25 15 -25 8 0 15 -7 15 -15 0 -8 5 -15 10 -15 6 0 10 -9 10 -20 0 -11 6 -23 14 -26 9 -3 12 -13 9 -22 -4 -9 -2 -13 2 -9 10 9 45 -57 45 -85 0 -11 4 -17 9 -13 5 3 13 -5 16 -17 4 -11 18 -32 31 -45 13 -13 24 -29 24 -34 0 -14 26 -39 39 -39 6 0 11 -6 11 -13 0 -7 9 -19 20 -27 11 -8 20 -20 20 -26 0 -15 66 -84 80 -84 5 0 10 -4 10 -10 0 -5 9 -10 20 -10 11 0 23 -7 26 -15 5 -11 24 -15 80 -15 43 0 74 4 74 10 0 6 18 18 40 27 22 10 40 21 40 26 0 12 27 37 39 37 6 0 11 11 11 25 0 14 5 25 10 25 6 0 10 35 10 85 0 50 -4 85 -10 85 -5 0 -10 7 -10 15 0 8 -11 25 -25 39 -14 14 -25 30 -25 35 0 6 -11 21 -25 35 -14 14 -25 30 -25 36 0 5 -4 10 -9 10 -5 0 -13 9 -16 20 -4 11 -22 35 -41 54 -19 18 -34 40 -34 50 0 9 -4 16 -10 16 -5 0 -10 11 -10 25 0 16 -6 25 -15 25 -9 0 -15 9 -15 25 0 14 -4 25 -10 25 -5 0 -10 11 -10 25 0 16 -6 25 -15 25 -9 0 -15 9 -15 25 0 14 -4 25 -10 25 -5 0 -10 11 -10 25 0 16 -6 25 -16 25 -10 0 -14 6 -10 15 3 8 0 14 -5 12 -6 -1 -13 9 -15 23 -3 14 -9 27 -14 28 -6 2 -10 16 -10 32 0 16 -7 30 -15 34 -9 3 -15 19 -15 41 0 19 -4 35 -10 35 -5 0 -10 16 -10 35 0 23 -5 35 -14 35 -13 0 -21 25 -33 102 -3 21 -9 35 -14 32 -5 -3 -9 17 -9 44 0 35 -4 52 -15 56 -11 4 -15 21 -15 61 0 30 -4 55 -10 55 -6 0 -10 44 -10 111 0 61 -4 108 -9 105 -16 -10 -21 55 -21 273 0 219 5 275 21 249 5 -7 9 37 9 105 0 71 4 117 10 117 6 0 10 22 10 49 0 34 4 51 15 55 10 4 15 20 15 51 0 25 4 45 9 45 5 0 11 17 15 38 14 95 19 112 32 112 9 0 14 12 14 35 0 19 5 35 10 35 6 0 10 9 10 19 0 28 11 52 21 45 5 -3 9 9 9 25 0 17 5 31 10 31 6 0 10 11 10 24 0 13 7 27 16 30 9 4 14 13 10 21 -3 9 1 18 9 21 8 4 15 17 15 29 0 13 5 27 10 30 6 3 10 15 10 26 0 10 7 19 15 19 8 0 15 9 15 20 0 11 5 20 10 20 6 0 10 11 10 24 0 13 7 26 15 30 8 3 15 15 15 26 0 11 5 20 10 20 6 0 10 9 10 19 0 10 11 29 25 42 13 13 25 32 25 42 0 9 5 17 10 17 6 0 10 7 10 15 0 8 7 15 15 15 14 0 19 12 16 33 0 4 3 7 9 7 5 0 10 5 10 11 0 13 75 89 88 89 6 0 13 8 16 18 12 32 33 62 39 55 4 -3 7 1 7 10 0 10 5 17 10 17 6 0 10 4 10 10 0 5 14 23 30 38 17 16 30 32 30 36 0 9 26 36 35 36 4 0 16 11 27 25 11 14 26 25 34 25 8 0 12 5 9 11 -4 6 2 13 14 16 12 3 21 9 21 14 0 5 7 9 16 9 8 0 12 5 9 10 -3 6 3 10 14 10 12 0 21 7 21 15 0 8 7 15 15 15 8 0 15 5 15 10 0 6 7 10 15 10 8 0 14 3 13 8 -4 10 57 72 71 72 6 0 11 5 11 10 0 6 7 10 15 10 8 0 15 5 15 10 0 6 7 10 15 10 9 0 18 7 21 15 4 8 12 15 20 15 8 0 14 5 14 10 0 6 9 10 19 10 10 0 21 7 25 15 3 8 12 15 21 15 8 0 15 5 15 10 0 6 11 10 24 10 13 0 26 7 30 15 3 8 15 15 26 15 11 0 20 5 20 10 0 6 9 10 20 10 11 0 20 4 20 9 0 12 58 41 82 41 11 0 16 5 13 10 -4 6 7 10 24 10 21 0 31 5 31 15 0 10 10 15 30 15 17 0 30 5 30 10 0 6 11 10 24 10 13 0 26 7 30 15 3 8 17 15 31 15 14 0 25 5 25 10 0 6 15 10 34 10 21 0 36 6 40 15 3 9 18 15 36 15 16 0 30 5 30 10 0 6 20 10 45 10 25 0 45 5 45 10 0 6 23 10 50 10 35 0 49 4 48 13 -2 8 14 13 50 15 28 2 52 7 52 13 0 5 50 9 118 9 67 0 111 4 104 9 -26 16 31 21 248 21 224 0 311 -7 275 -21 -11 -4 32 -8 98 -8 71 -1 117 -5 117 -11 0 -5 23 -10 50 -10 36 0 52 -4 56 -15 4 -11 21 -15 55 -15 27 0 49 -4 49 -10 0 -5 20 -10 45 -10 25 0 45 -4 45 -9 0 -5 14 -11 31 -15 17 -3 28 -10 24 -16 -4 -6 10 -10 34 -10 23 0 41 -4 41 -10 0 -5 11 -10 25 -10 14 0 28 -7 31 -15 4 -9 19 -15 40 -15 19 0 34 -4 34 -10 0 -5 11 -10 25 -10 16 0 25 -6 25 -15 0 -8 9 -15 20 -15 11 0 20 -4 20 -10 0 -5 11 -10 25 -10 14 0 25 -4 25 -10 0 -5 9 -10 20 -10 11 0 23 -7 26 -15 4 -8 15 -15 25 -15 10 0 19 -4 19 -10 0 -5 11 -10 25 -10 14 0 28 -7 31 -15 4 -8 17 -15 30 -15 13 0 24 -4 24 -10 0 -5 7 -10 15 -10 8 0 15 -7 15 -15 0 -8 7 -15 15 -15 13 0 43 -21 81 -57 7 -7 17 -13 22 -13 5 0 21 -11 36 -25 15 -14 31 -25 37 -25 5 0 9 -4 9 -10 0 -5 7 -10 15 -10 8 0 15 -7 15 -15 0 -8 7 -15 15 -15 8 0 15 -4 15 -10 0 -5 7 -10 15 -10 8 0 15 -7 15 -15 0 -8 7 -15 15 -15 8 0 15 -4 15 -10 0 -5 7 -10 16 -10 8 0 12 -4 9 -10 -3 -5 -17 -10 -31 -10 -15 0 -23 -4 -19 -11 4 -6 -2 -13 -14 -16 -12 -3 -21 -9 -21 -14 0 -5 -7 -9 -15 -9 -8 0 -15 -7 -15 -15 0 -8 -9 -15 -20 -15 -11 0 -20 -4 -20 -10 0 -5 -5 -10 -10 -10 -6 0 -21 -11 -34 -25 -13 -14 -33 -25 -45 -25 -12 0 -19 -4 -16 -10 3 -5 -1 -10 -9 -10 -9 0 -16 -5 -16 -11 0 -16 -26 -39 -45 -39 -9 0 -13 -5 -10 -11 4 -6 -2 -13 -14 -16 -12 -3 -21 -9 -21 -14 0 -5 -4 -9 -9 -9 -6 0 -22 -11 -37 -25 -15 -14 -35 -25 -45 -25 -11 0 -18 -6 -17 -12 2 -7 -7 -14 -19 -16 -13 -2 -23 -8 -23 -13 0 -5 -7 -9 -15 -9 -8 0 -15 -4 -15 -10 0 -5 -7 -10 -15 -10 -9 0 -26 -11 -39 -25 -13 -14 -28 -25 -35 -25 -6 0 -10 -5 -9 -10 2 -6 -10 -18 -26 -28 -16 -9 -40 -27 -54 -39 -14 -13 -31 -23 -38 -23 -8 0 -14 -4 -14 -10 0 -5 -9 -10 -21 -10 -11 0 -18 -4 -15 -8 7 -12 -31 -42 -55 -42 -11 0 -18 -4 -15 -8 6 -11 -30 -42 -48 -42 -8 0 -16 -7 -20 -15 -3 -8 -12 -15 -21 -15 -8 0 -15 -4 -15 -10 0 -5 -7 -10 -15 -10 -8 0 -15 -4 -15 -10 0 -5 -5 -10 -10 -10 -6 0 -21 -11 -34 -25 -13 -14 -31 -25 -40 -25 -9 0 -16 -7 -16 -15 0 -8 -6 -15 -14 -15 -8 0 -24 -11 -37 -25 -13 -13 -30 -25 -36 -25 -7 0 -13 -4 -13 -10 0 -5 -4 -10 -10 -10 -5 0 -18 -8 -28 -17 -39 -37 -63 -53 -78 -53 -8 0 -13 -4 -10 -8 7 -12 -31 -42 -54 -42 -11 0 -19 -6 -18 -12 2 -7 -7 -14 -19 -16 -13 -2 -23 -8 -23 -13 0 -5 -9 -9 -20 -9 -11 0 -20 -5 -20 -11 0 -16 -26 -39 -44 -39 -9 0 -16 -4 -16 -10 0 -5 -9 -10 -21 -10 -11 0 -18 -4 -15 -8 5 -8 -28 -42 -40 -42 -3 0 -15 -11 -28 -25 -13 -14 -31 -25 -40 -25 -10 0 -14 -5 -11 -11 4 -6 -2 -13 -14 -16 -12 -3 -21 -9 -21 -14 0 -5 -7 -9 -15 -9 -8 0 -15 -4 -15 -10 0 -6 -30 -10 -69 -10 -52 0 -70 -4 -75 -15 -3 -9 -18 -15 -36 -15 -16 0 -30 -4 -30 -10 0 -5 -14 -10 -30 -10 -19 0 -29 -5 -28 -12 2 -8 -9 -14 -24 -16 -16 -2 -28 -8 -28 -13 0 -5 -9 -9 -21 -9 -12 0 -17 -4 -14 -11 4 -6 -2 -13 -14 -16 -12 -3 -21 -9 -21 -14 0 -5 -4 -9 -10 -9 -14 0 -90 -77 -83 -84 4 -3 1 -6 -5 -6 -7 0 -12 -7 -12 -15 0 -8 -7 -15 -16 -15 -8 0 -12 -5 -9 -10 3 -6 -1 -13 -9 -16 -9 -3 -16 -14 -16 -24 0 -28 -11 -51 -21 -44 -5 3 -9 -9 -9 -25 0 -17 -4 -31 -10 -31 -5 0 -10 -14 -10 -31 0 -17 -7 -37 -15 -45 -12 -12 -15 -46 -15 -170 0 -128 3 -156 15 -160 9 -4 15 -19 15 -40 0 -19 5 -34 10 -34 6 0 10 -16 10 -35 0 -22 6 -38 15 -41 8 -4 15 -17 15 -30 0 -13 5 -24 10 -24 6 0 10 -6 10 -12 1 -14 34 -58 45 -58 9 0 35 -27 35 -37 0 -4 15 -15 33 -24 17 -9 31 -22 30 -28 -2 -6 6 -11 17 -11 11 0 20 -4 20 -10 0 -5 7 -10 15 -10 8 0 15 -7 15 -15 0 -9 9 -15 25 -15 14 0 25 -4 25 -10 0 -5 5 -10 12 -10 18 0 88 -33 88 -42 0 -4 20 -8 44 -8 25 0 48 -4 51 -10 3 -6 50 -10 105 -10 55 0 102 4 105 10 3 6 29 10 56 10 30 0 48 4 44 10 -3 5 7 12 22 15 15 4 36 10 45 16 10 5 25 9 33 9 8 0 15 5 15 10 0 6 9 10 19 10 10 0 21 7 25 15 3 8 12 15 21 15 8 0 15 5 15 10 0 6 9 10 20 10 11 0 19 4 17 9 -1 5 26 36 61 69 34 33 62 68 62 76 0 9 4 16 10 16 5 0 12 11 16 25 3 14 9 23 13 20 4 -2 14 18 21 46 8 27 20 55 27 61 7 6 13 30 13 53 0 24 4 45 9 47 6 2 11 22 12 46 2 27 8 42 16 42 7 0 12 4 11 8 -2 4 9 20 25 35 15 16 27 34 27 42 0 8 5 15 10 15 6 0 10 9 10 19 0 10 11 29 25 42 13 13 25 32 25 42 0 9 5 17 10 17 6 0 10 5 10 11 0 14 25 39 39 39 6 0 11 5 11 11 0 6 6 17 13 24 27 31 37 44 37 50 0 10 28 35 39 35 6 0 11 11 11 25 0 14 5 25 10 25 6 0 10 6 10 13 0 8 11 20 25 27 14 7 25 22 25 32 0 21 22 48 39 48 6 0 11 11 11 25 0 15 6 25 15 25 9 0 12 6 9 15 -4 8 -1 15 6 15 18 0 40 27 40 49 0 12 6 21 16 21 8 0 12 5 9 10 -3 6 1 10 9 10 10 0 16 9 16 25 0 16 6 25 15 25 8 0 14 4 13 8 -2 4 9 20 24 35 16 16 25 34 22 42 -4 9 0 15 10 15 9 0 16 3 16 8 0 12 47 62 59 62 6 0 10 3 10 8 -4 24 3 42 16 42 8 0 15 7 15 15 0 8 5 15 10 15 6 0 10 11 10 24 0 13 7 26 15 30 8 3 15 12 15 21 0 8 5 15 10 15 6 0 10 5 10 10 0 6 11 22 25 36 14 14 25 31 25 39 0 8 5 15 10 15 6 0 10 4 10 10 0 5 18 27 40 49 22 22 40 44 40 50 0 6 5 11 10 11 6 0 10 7 10 15 0 8 4 15 10 15 5 0 12 11 16 25 3 14 10 22 15 19 5 -3 9 0 9 6 0 6 11 23 25 38 14 15 25 32 25 39 0 7 4 13 9 13 5 0 12 11 15 25 4 14 11 25 16 25 6 0 10 4 10 10 0 5 16 27 35 47 19 20 35 43 35 50 0 7 5 13 10 13 6 0 10 7 10 15 0 8 5 15 11 15 18 0 39 27 39 50 0 19 2 20 15 6 8 -8 15 -19 15 -25 0 -6 5 -11 10 -11 6 0 10 -7 10 -15 0 -8 4 -15 9 -15 5 0 12 -8 15 -18 4 -11 18 -25 31 -32 14 -7 25 -19 25 -27 0 -7 5 -13 10 -13 6 0 10 -8 10 -19 0 -10 11 -27 25 -37 14 -10 25 -26 25 -34 0 -8 11 -27 25 -42 14 -15 25 -34 25 -43 0 -8 5 -15 10 -15 6 0 10 -7 10 -15 0 -8 7 -15 15 -15 9 0 15 -9 15 -25 0 -14 5 -25 10 -25 6 0 10 -8 10 -19 0 -10 11 -27 25 -37 14 -10 25 -29 25 -41 0 -13 5 -23 10 -23 6 0 10 -9 10 -20 0 -11 7 -23 15 -26 8 -4 15 -17 15 -30 0 -13 5 -24 10 -24 6 0 10 -11 10 -25 0 -14 5 -24 11 -22 6 1 13 -9 15 -23 3 -13 8 -27 12 -30 4 -3 9 -21 11 -40 1 -19 9 -39 17 -43 8 -4 14 -23 14 -42 0 -19 5 -35 10 -35 6 0 10 -18 10 -40 0 -22 5 -40 10 -40 6 0 10 -14 10 -31 0 -17 7 -37 15 -45 8 -9 15 -33 15 -55 0 -21 5 -39 10 -39 6 0 10 -30 11 -67 0 -47 3 -62 9 -48 5 11 9 16 10 10 24 -161 40 -795 20 -795 -6 0 -10 -26 -10 -62 0 -72 -8 -110 -21 -102 -5 3 -9 -24 -9 -60 0 -37 -4 -66 -10 -66 -5 0 -10 -13 -10 -29 0 -37 -10 -62 -21 -55 -5 3 -9 -15 -9 -40 0 -25 -4 -46 -10 -46 -5 0 -10 -11 -10 -25 0 -14 -4 -25 -9 -25 -4 0 -11 -21 -14 -47 -3 -26 -10 -49 -16 -51 -6 -2 -11 -19 -11 -38 0 -19 -4 -34 -10 -34 -5 0 -10 -9 -10 -19 0 -28 -11 -52 -21 -45 -5 3 -9 -4 -9 -15 0 -11 -4 -23 -10 -26 -5 -3 -10 -14 -10 -25 0 -10 -7 -21 -16 -24 -9 -4 -14 -13 -10 -21 3 -9 -1 -18 -9 -21 -8 -4 -15 -15 -15 -25 0 -10 -4 -19 -10 -19 -5 0 -10 -11 -10 -25 0 -14 -6 -25 -13 -25 -8 0 -20 -18 -27 -40 -7 -22 -19 -40 -27 -40 -7 0 -13 -9 -13 -20 0 -11 -4 -20 -10 -20 -5 0 -10 -5 -10 -11 0 -14 -25 -39 -39 -39 -6 0 -11 -11 -11 -25 0 -16 -6 -25 -16 -25 -8 0 -12 -5 -9 -10 3 -6 -1 -13 -9 -16 -9 -3 -16 -15 -16 -25 0 -10 -4 -19 -10 -19 -5 0 -10 -7 -10 -15 0 -8 -7 -15 -15 -15 -9 0 -15 -9 -15 -25 0 -14 -4 -25 -9 -25 -5 0 -12 -16 -15 -35 -4 -20 -11 -33 -17 -30 -5 4 -9 -15 -9 -45 0 -36 4 -52 15 -56 8 -4 15 -17 15 -30 0 -13 5 -24 10 -24 6 0 10 -9 10 -20 0 -11 7 -20 15 -20 8 0 15 -7 15 -15 0 -8 7 -15 15 -15 8 0 15 -4 15 -9 0 -5 11 -12 25 -15 14 -4 23 -11 20 -16 -4 -6 27 -10 80 -10 53 0 84 4 80 10 -3 5 6 12 20 16 14 3 25 10 25 15 0 5 7 9 15 9 8 0 15 5 15 10 0 6 7 10 16 10 8 0 13 4 10 9 -3 5 6 17 19 27 14 10 25 24 25 31 0 6 7 19 16 27 8 9 12 16 8 16 -4 0 7 14 25 30 17 17 31 35 31 41 0 5 11 21 25 35 14 14 25 31 25 39 0 8 5 15 10 15 6 0 10 6 10 14 0 8 5 16 11 18 5 2 11 11 13 20 1 10 12 26 24 36 12 11 22 29 22 41 0 12 6 21 15 21 9 0 15 9 15 23 0 12 11 31 25 41 14 10 25 27 25 37 0 11 5 19 10 19 6 0 10 11 10 24 0 13 7 26 15 30 9 3 15 18 15 36 0 16 5 30 10 30 6 0 10 18 10 40 0 22 5 40 10 40 6 0 10 7 10 16 0 9 7 22 15 28 8 6 16 23 17 39 1 15 6 27 10 27 4 0 8 14 8 30 0 20 5 30 15 30 11 0 15 12 15 45 0 25 4 45 9 45 5 0 11 18 15 40 4 23 11 38 16 35 6 -4 10 10 10 34 0 23 5 41 10 41 6 0 10 23 10 50 0 28 4 50 9 50 4 0 11 30 14 67 4 38 11 69 17 71 5 2 10 34 10 71 0 37 5 72 12 79 16 16 16 758 0 774 -7 7 -12 41 -12 79 0 42 -4 69 -12 71 -6 2 -13 30 -16 61 -2 31 -8 57 -13 57 -5 0 -9 23 -9 50 0 28 -4 50 -10 50 -5 0 -10 16 -10 36 0 19 -7 42 -15 50 -8 9 -15 31 -15 50 0 19 -4 34 -10 34 -5 0 -10 15 -10 34 0 21 -6 36 -15 40 -8 3 -15 14 -15 25 0 11 -4 23 -10 26 -5 3 -10 22 -10 41 0 24 -5 34 -15 34 -10 0 -15 11 -15 35 0 19 -4 35 -10 35 -5 0 -10 11 -10 24 0 13 -4 26 -9 28 -5 2 -11 12 -13 23 -1 11 -6 22 -9 25 -12 11 -39 74 -39 92 0 11 -4 16 -10 13 -5 -3 -12 6 -16 20 -3 14 -10 25 -16 25 -5 0 -7 4 -3 9 3 5 -3 17 -12 27 -9 9 -18 24 -20 33 -1 8 -7 17 -12 19 -6 2 -11 15 -11 28 0 14 -6 24 -14 24 -7 0 -21 15 -29 33 -9 17 -25 42 -36 54 -12 12 -21 28 -21 35 -1 18 -25 48 -39 48 -6 0 -11 7 -11 15 0 8 -4 15 -10 15 -5 0 -10 9 -10 19 0 10 -7 22 -16 25 -8 3 -13 10 -10 15 4 5 -1 16 -9 24 -8 9 -15 18 -15 21 0 10 -80 86 -90 86 -5 0 -10 7 -10 15 0 9 -11 27 -25 41 -14 14 -25 28 -25 33 0 4 -11 14 -24 21 -34 18 -39 37 -16 57 11 10 20 23 20 31 0 7 10 23 23 36 12 12 33 38 47 56 14 18 31 39 38 46 6 7 12 15 12 19 0 10 28 35 39 35 6 0 11 9 11 19 0 10 11 29 25 42 13 13 25 32 25 42 0 9 5 17 10 17 6 0 10 7 10 15 0 8 7 15 15 15 8 0 15 9 15 20 0 34 -34 23 -83 -25 -26 -25 -53 -45 -62 -45 -9 0 -14 -4 -10 -9 3 -5 -4 -12 -15 -16 -11 -3 -20 -11 -20 -16 0 -5 -7 -9 -15 -9 -8 0 -15 -6 -15 -13 0 -6 -15 -18 -32 -26 -18 -8 -43 -25 -55 -38 -12 -13 -27 -23 -33 -23 -5 0 -10 -4 -10 -10 0 -5 -14 -10 -31 -10 -16 0 -28 -3 -25 -8 2 -4 -2 -16 -9 -26 -13 -17 -15 -17 -29 -3 -9 9 -16 20 -16 26 0 6 -8 11 -18 11 -9 0 -26 11 -36 25 -10 14 -25 25 -32 25 -8 0 -14 5 -14 10 0 6 -5 10 -11 10 -7 0 -26 15 -43 33 -17 18 -39 36 -49 40 -10 4 -15 11 -12 17 3 5 -3 10 -14 10 -12 0 -21 5 -21 10 0 6 -7 10 -15 10 -8 0 -15 5 -15 11 0 15 -20 33 -62 52 -21 10 -38 22 -38 27 0 6 -7 10 -15 10 -8 0 -15 5 -15 10 0 6 -9 10 -20 10 -11 0 -20 7 -20 15 0 9 -9 15 -25 15 -14 0 -25 5 -25 10 0 6 -9 10 -20 10 -11 0 -23 7 -26 15 -4 8 -15 15 -25 15 -10 0 -19 3 -19 8 0 4 -18 15 -40 25 -22 9 -40 21 -40 27 0 5 -7 10 -15 10 -8 0 -23 4 -33 9 -9 5 -25 12 -35 15 -10 3 -15 10 -12 16 4 6 -5 10 -19 10 -14 0 -28 5 -31 10 -3 6 -15 10 -26 10 -11 0 -22 7 -25 15 -4 8 -17 15 -30 15 -13 0 -24 5 -24 10 0 6 -13 10 -29 10 -16 0 -31 6 -35 15 -3 8 -17 15 -31 15 -14 0 -25 5 -25 10 0 6 -13 10 -29 10 -17 0 -33 5 -36 10 -3 6 -17 10 -30 10 -32 0 -56 10 -49 21 3 5 -20 9 -50 9 -31 0 -56 4 -56 9 0 6 -21 11 -47 13 -32 2 -47 7 -46 16 2 8 -15 12 -62 12 -37 0 -65 4 -65 10 0 6 -27 10 -60 10 -45 0 -62 4 -66 15 -5 12 -28 15 -123 15 -78 0 -111 3 -101 10 10 6 -76 9 -250 9 -146 -1 -251 -5 -235 -9z"></path><path d="M8885 5365 c-16 -18 -30 -40 -30 -47 -1 -7 -6 -12 -13 -11 -6 2 -9 -4 -6 -12 4 -9 0 -15 -10 -15 -9 0 -16 -8 -16 -19 0 -10 -11 -30 -25 -45 -14 -15 -25 -34 -25 -42 0 -7 -4 -14 -10 -14 -5 0 -10 -7 -10 -15 0 -8 -6 -15 -13 -15 -7 0 -21 -16 -31 -35 -11 -19 -23 -35 -28 -35 -4 0 -8 -6 -8 -12 0 -7 -16 -26 -35 -43 -19 -16 -35 -38 -35 -47 0 -10 -4 -18 -10 -18 -5 0 -10 -7 -10 -15 0 -8 -7 -15 -15 -15 -8 0 -15 -8 -15 -17 -1 -22 -23 -53 -39 -53 -6 0 -11 -9 -11 -20 0 -19 -5 -28 -36 -63 -6 -7 -9 -18 -6 -25 2 -6 -3 -12 -12 -12 -9 0 -16 -6 -16 -14 0 -8 -4 -16 -9 -18 -5 -1 -11 -10 -13 -17 -2 -8 -13 -25 -26 -37 -13 -13 -25 -30 -26 -38 -1 -8 -12 -24 -24 -34 -12 -11 -22 -27 -22 -36 0 -9 -7 -19 -15 -22 -8 -4 -12 -10 -9 -15 3 -5 -2 -12 -10 -15 -9 -3 -16 -15 -16 -25 0 -10 -7 -19 -15 -19 -9 0 -12 -6 -9 -15 4 -8 1 -15 -6 -15 -17 0 -40 -26 -40 -45 0 -8 -7 -18 -15 -21 -8 -4 -15 -12 -15 -20 0 -8 -4 -14 -9 -14 -5 0 -11 -14 -15 -31 -3 -17 -10 -28 -16 -24 -5 3 -10 -3 -10 -14 0 -12 -4 -21 -10 -21 -5 0 -10 -9 -10 -21 0 -11 -6 -27 -12 -34 -28 -31 -38 -44 -38 -51 0 -4 -11 -22 -25 -40 -14 -18 -25 -36 -25 -39 0 -4 -6 -13 -12 -20 -30 -33 -38 -45 -38 -55 0 -5 -4 -10 -10 -10 -5 0 -10 -11 -10 -24 0 -13 -7 -26 -15 -30 -8 -3 -15 -12 -15 -21 0 -9 -11 -27 -25 -41 -14 -14 -22 -31 -19 -39 4 -9 0 -15 -10 -15 -10 0 -16 -9 -16 -25 0 -14 -4 -25 -10 -25 -5 0 -12 -11 -16 -25 -3 -14 -10 -22 -15 -19 -5 3 -9 -8 -9 -25 0 -16 -5 -31 -11 -33 -5 -2 -12 -12 -13 -23 -2 -11 -9 -19 -15 -17 -10 2 -16 -18 -12 -40 0 -5 -3 -8 -8 -8 -5 0 -12 -11 -15 -25 -4 -14 -11 -25 -16 -25 -5 0 -7 -7 -4 -15 4 -9 0 -15 -10 -15 -10 0 -16 -9 -16 -25 0 -14 -4 -25 -10 -25 -5 0 -10 -9 -10 -20 0 -11 -7 -23 -15 -26 -8 -4 -15 -15 -15 -25 0 -10 -4 -19 -9 -19 -5 0 -12 -11 -15 -25 -4 -14 -11 -25 -16 -25 -6 0 -10 -11 -10 -25 0 -14 -4 -25 -10 -25 -5 0 -10 -11 -10 -25 0 -16 -6 -25 -15 -25 -9 0 -15 -9 -15 -25 0 -14 -4 -25 -10 -25 -5 0 -10 -11 -10 -25 0 -14 -4 -25 -10 -25 -5 0 -10 -11 -10 -25 0 -14 -7 -28 -15 -31 -9 -4 -15 -19 -15 -35 0 -16 -4 -29 -10 -29 -5 0 -10 -14 -10 -30 0 -18 -6 -33 -15 -36 -8 -4 -15 -17 -15 -30 0 -13 -4 -24 -10 -24 -5 0 -10 -15 -10 -34 0 -19 -5 -36 -11 -38 -13 -4 -39 -73 -39 -104 0 -12 -7 -24 -15 -28 -9 -3 -15 -19 -15 -41 0 -22 -4 -34 -10 -30 -8 5 -16 -47 -11 -77 0 -5 -3 -8 -8 -8 -5 0 -11 -23 -15 -50 -4 -29 -11 -48 -16 -45 -6 4 -10 -13 -10 -39 0 -25 -4 -46 -10 -46 -5 0 -10 -22 -10 -49 0 -78 -12 -149 -21 -126 -4 11 -8 -68 -8 -175 0 -118 4 -187 9 -175 l9 20 1 -20 c1 -11 6 -54 11 -95 5 -41 12 -97 16 -125 3 -27 10 -53 15 -56 10 -7 25 -63 35 -131 3 -25 10 -38 20 -38 9 0 13 -6 9 -15 -3 -8 1 -21 9 -29 8 -8 15 -26 15 -41 0 -15 4 -24 10 -20 6 4 10 -8 10 -29 0 -25 4 -36 15 -36 9 0 15 -9 15 -25 0 -14 5 -25 10 -25 6 0 10 -11 10 -25 0 -16 6 -25 15 -25 8 0 15 -6 15 -14 0 -20 26 -67 33 -60 3 4 9 -5 13 -20 3 -14 10 -26 15 -26 5 0 9 -11 9 -25 0 -14 5 -25 11 -25 15 0 39 -26 39 -43 0 -7 18 -33 41 -55 22 -23 38 -42 34 -42 -3 0 7 -13 22 -28 15 -16 35 -38 43 -50 8 -12 22 -22 32 -22 10 0 18 -7 18 -15 0 -8 5 -15 11 -15 7 0 38 -27 70 -60 32 -33 61 -60 64 -60 10 0 35 -28 35 -39 0 -6 9 -11 20 -11 11 0 20 -4 20 -10 0 -5 6 -10 13 -10 7 0 24 -11 39 -25 15 -14 34 -25 43 -25 8 0 15 -4 15 -10 0 -5 7 -10 15 -10 9 0 18 -7 21 -15 4 -8 15 -15 25 -15 10 0 19 -4 19 -9 0 -5 10 -11 23 -13 12 -2 21 -9 20 -16 -2 -8 10 -12 32 -12 19 0 35 -4 35 -10 0 -5 11 -10 25 -10 14 0 28 -7 31 -15 4 -9 19 -15 35 -15 16 0 29 -4 29 -10 0 -5 16 -10 35 -10 19 0 35 -4 35 -10 0 -5 11 -10 24 -10 14 0 31 -7 40 -15 9 -9 33 -15 60 -15 25 0 46 -4 46 -10 0 -6 27 -10 60 -10 33 0 60 -4 60 -10 0 -6 80 -10 220 -10 140 0 220 4 220 10 0 6 27 10 60 10 33 0 60 4 60 10 0 6 25 10 56 10 30 0 53 4 50 9 -7 11 17 21 50 21 13 0 24 5 24 10 0 6 14 10 30 10 17 0 30 5 30 10 0 6 11 10 25 10 14 0 28 7 31 15 4 9 19 15 35 15 16 0 29 5 29 10 0 6 13 10 29 10 16 0 31 6 35 15 3 8 17 15 31 15 14 0 25 5 25 10 0 6 12 10 26 10 15 0 23 4 19 11 -4 6 2 13 14 16 12 3 21 9 21 14 0 5 5 9 10 9 6 0 23 11 38 25 15 14 32 25 39 25 7 0 13 5 13 10 0 6 9 10 20 10 11 0 20 5 20 11 0 11 25 39 35 39 3 0 16 11 29 25 13 14 31 25 40 25 10 0 14 5 11 10 -3 6 -2 10 4 10 6 0 21 11 35 25 14 14 30 25 36 25 5 0 10 5 10 11 0 14 26 39 40 39 6 0 9 4 6 9 -3 4 3 16 14 26 11 10 20 23 20 28 0 6 18 27 39 49 22 21 43 48 47 60 8 26 28 48 43 48 6 0 11 9 11 20 0 12 11 33 25 48 14 15 25 32 25 39 0 7 5 13 10 13 6 0 10 7 10 15 0 8 7 15 15 15 9 0 15 9 15 25 0 14 5 25 10 25 6 0 10 14 10 30 0 18 6 33 15 36 9 4 15 19 15 40 0 19 5 34 10 34 6 0 10 9 10 21 0 11 7 27 15 35 8 8 12 21 9 29 -4 9 0 15 10 15 12 0 16 9 16 34 0 19 5 38 10 41 6 3 10 19 10 35 0 36 10 61 21 54 5 -3 9 24 9 60 0 37 4 66 10 66 6 0 10 27 10 60 0 33 4 60 10 60 6 0 10 77 10 210 0 120 -4 210 -9 210 -5 0 -12 28 -15 62 -9 105 -18 158 -26 158 -8 0 -26 74 -37 153 -3 20 -9 37 -14 37 -5 0 -9 14 -9 30 0 18 -6 33 -15 36 -9 4 -15 19 -15 35 0 16 -4 29 -10 29 -5 0 -10 18 -10 39 0 25 -5 41 -15 45 -9 3 -15 19 -15 41 0 19 -4 35 -10 35 -5 0 -10 14 -10 31 0 16 -4 28 -9 24 -6 -3 -13 10 -17 30 -3 19 -10 38 -15 41 -5 3 -9 14 -9 25 0 10 -7 19 -15 19 -9 0 -15 9 -15 25 0 14 -4 25 -10 25 -5 0 -10 11 -10 25 0 14 -4 25 -10 25 -5 0 -10 11 -10 25 0 16 -6 25 -15 25 -9 0 -15 9 -15 25 0 14 -4 25 -10 25 -5 0 -10 11 -10 25 0 14 -4 25 -10 25 -5 0 -12 11 -16 25 -3 14 -10 25 -15 25 -5 0 -9 9 -9 19 0 10 -7 21 -15 25 -8 3 -15 15 -15 26 0 11 -4 20 -10 20 -5 0 -10 11 -10 24 0 13 -6 26 -14 29 -9 4 -12 14 -9 26 4 15 1 21 -11 21 -10 0 -16 9 -16 23 0 12 -7 31 -15 41 -8 10 -12 22 -10 26 3 5 -2 10 -10 14 -8 3 -15 15 -15 26 0 11 -4 20 -10 20 -5 0 -10 8 -10 19 0 10 -11 27 -25 37 -14 10 -25 29 -25 41 0 14 -6 23 -16 23 -10 0 -14 6 -10 15 3 8 -5 25 -18 38 -13 13 -27 33 -30 45 -4 12 -12 22 -17 22 -5 0 -9 11 -9 25 0 14 -4 25 -10 25 -5 0 -10 5 -10 11 0 6 -6 17 -12 24 -30 33 -38 45 -38 55 0 5 -4 10 -10 10 -5 0 -12 11 -16 25 -3 14 -10 25 -15 25 -5 0 -9 9 -9 20 0 11 -4 20 -9 20 -5 0 -12 11 -15 25 -4 14 -11 25 -16 25 -6 0 -10 7 -10 15 0 8 -4 15 -10 15 -5 0 -10 9 -10 20 0 11 -7 23 -15 26 -8 4 -15 15 -15 25 0 10 -4 19 -10 19 -5 0 -10 7 -10 15 0 8 -7 15 -15 15 -9 0 -15 9 -15 21 0 22 -22 49 -40 49 -7 0 -10 7 -6 15 3 9 0 15 -9 15 -8 0 -15 9 -15 19 0 10 -7 22 -16 25 -8 3 -13 10 -10 15 3 5 -1 11 -9 15 -8 3 -15 15 -15 26 0 11 -4 20 -10 20 -5 0 -10 7 -10 16 0 8 -4 13 -9 10 -5 -3 -12 5 -15 19 -4 14 -11 25 -16 25 -6 0 -10 11 -10 25 0 16 -6 25 -16 25 -10 0 -14 6 -10 15 3 9 -13 33 -44 64 -28 28 -50 59 -50 71 0 11 -5 20 -11 20 -17 0 -39 27 -39 49 0 12 -6 21 -15 21 -8 0 -15 7 -15 15 0 8 -4 15 -10 15 -5 0 -10 8 -10 19 0 10 -11 27 -25 37 -14 10 -25 22 -25 27 0 4 -11 19 -25 33 -14 14 -25 31 -25 39 0 8 -4 15 -10 15 -5 0 -10 8 -10 19 0 10 -11 27 -25 37 -14 10 -25 23 -25 27 0 5 -6 15 -12 22 -30 33 -38 45 -38 55 0 5 -7 10 -16 10 -10 0 -14 6 -10 15 3 8 0 14 -6 12 -5 -1 -12 5 -13 14 -4 21 -61 79 -77 79 -7 -1 -26 -16 -43 -35z"></path></g></svg>