<svg xmlns="http://www.w3.org/2000/svg" width="1080.000000pt" height="1080.000000pt" viewBox="0 0 1080.000000 1080.000000" preserveAspectRatio="xMidYMid meet"><metadata>
Created by potrace 1.16, written by Peter Selinger 2001-2019
</metadata><g transform="translate(0.000000,1080.000000) scale(0.100000,-0.100000)" fill="#000000" stroke="none"><path d="M4850 10650 c0 -5 -12 -10 -26 -10 -14 0 -23 -4 -19 -9 3 -6 -4 -15 -15 -21 -11 -6 -20 -20 -20 -32 0 -15 -5 -19 -20 -15 -18 5 -20 0 -20 -60 0 -56 -3 -66 -20 -70 -20 -5 -20 -13 -18 -372 1 -201 4 -297 5 -213 4 201 22 202 25 2 0 -82 1 -156 2 -162 1 -7 -14 -15 -34 -18 -22 -3 -35 -10 -35 -20 0 -12 -20 -16 -100 -20 -80 -4 -100 -8 -100 -20 0 -12 -18 -16 -80 -20 -62 -4 -80 -8 -80 -20 0 -12 -16 -16 -73 -18 -62 -2 -72 -5 -70 -20 3 -14 -8 -18 -67 -22 -53 -4 -70 -9 -70 -20 0 -12 -18 -16 -87 -18 l-88 -3 0 26 c0 14 -4 25 -10 25 -5 0 -10 7 -10 15 0 8 -4 15 -10 15 -5 0 -10 9 -10 20 0 13 -7 20 -20 20 -17 0 -20 7 -20 40 0 33 -3 40 -20 40 -17 0 -20 7 -20 40 0 33 -3 40 -20 40 -16 0 -20 7 -20 30 0 21 -4 28 -14 24 -11 -4 -17 5 -22 30 -4 26 -11 36 -25 36 -15 0 -19 7 -19 40 0 33 -3 40 -20 40 -16 0 -20 7 -20 35 0 29 -5 37 -26 45 -19 7 -24 15 -19 29 4 14 1 19 -12 17 -9 0 -19 7 -21 17 -6 28 -79 97 -102 97 -11 0 -29 9 -40 20 -16 16 -33 20 -80 20 -41 0 -59 -4 -58 -12 2 -7 -16 -16 -41 -22 -25 -5 -53 -18 -63 -28 -10 -10 -26 -18 -37 -18 -10 0 -21 -9 -24 -20 -4 -14 -14 -20 -35 -20 -21 0 -31 -6 -35 -20 -4 -16 -14 -20 -43 -20 -20 0 -34 -3 -31 -7 11 -11 -14 -33 -38 -33 -14 0 -25 -7 -28 -20 -4 -14 -14 -20 -35 -20 -21 0 -31 -6 -35 -20 -4 -14 -14 -20 -35 -20 -21 0 -31 -6 -35 -20 -4 -15 -14 -20 -36 -20 -20 0 -31 -5 -31 -14 0 -15 -21 -26 -50 -26 -10 0 -20 -9 -23 -20 -4 -15 -14 -20 -41 -20 -20 0 -35 -3 -35 -7 4 -25 -4 -33 -35 -33 -25 0 -35 -5 -39 -20 -3 -12 -14 -20 -26 -20 -14 0 -21 -6 -21 -20 0 -13 -7 -20 -19 -20 -15 0 -21 -10 -26 -40 -4 -23 -12 -40 -20 -40 -19 0 -25 -24 -25 -100 0 -81 6 -100 31 -100 15 0 19 -7 19 -40 0 -33 3 -40 20 -40 15 0 20 -7 20 -25 0 -15 6 -25 14 -25 8 0 17 -15 21 -36 4 -24 13 -38 26 -41 14 -4 19 -14 19 -40 0 -26 5 -36 20 -40 14 -4 20 -14 20 -35 0 -17 4 -27 10 -23 6 3 10 -1 10 -9 0 -9 5 -16 10 -16 6 0 10 -9 10 -20 0 -13 7 -20 20 -20 17 0 20 -7 20 -40 0 -33 3 -40 20 -40 17 0 20 -7 20 -40 0 -33 3 -40 20 -40 16 0 20 -7 20 -30 0 -16 5 -30 11 -30 5 0 7 -4 4 -10 -3 -5 0 -10 8 -10 24 0 30 -31 8 -37 -11 -3 -21 -13 -24 -24 -3 -11 -14 -19 -25 -19 -12 0 -19 -6 -18 -17 0 -9 -8 -19 -19 -22 -11 -3 -20 -13 -20 -21 0 -8 -10 -16 -22 -18 -15 -2 -23 -10 -23 -23 0 -12 -7 -19 -20 -19 -13 0 -20 -7 -20 -20 0 -14 -7 -20 -21 -20 -12 0 -23 -8 -26 -19 -3 -11 -13 -21 -24 -24 -10 -3 -19 -12 -19 -20 0 -8 -9 -17 -20 -20 -11 -3 -19 -11 -18 -18 2 -7 -7 -18 -19 -23 -12 -6 -24 -19 -27 -29 -2 -11 -9 -16 -15 -12 -7 3 -11 -3 -11 -15 0 -13 -8 -24 -20 -27 -11 -3 -20 -12 -20 -20 0 -8 -9 -17 -20 -20 -11 -3 -20 -14 -20 -24 0 -12 -7 -19 -20 -19 -13 0 -20 -7 -20 -20 0 -13 -7 -20 -20 -20 -13 0 -20 -7 -20 -20 0 -13 -7 -20 -19 -20 -12 0 -18 -7 -17 -17 0 -10 -7 -19 -16 -21 -13 -2 -18 3 -18 17 0 16 -6 21 -29 21 -29 0 -57 21 -44 33 3 4 -7 7 -24 7 -30 0 -59 21 -46 33 3 4 -5 7 -20 7 -36 0 -57 10 -57 26 0 8 -10 14 -26 14 -17 0 -28 6 -31 20 -4 14 -14 20 -34 20 -18 0 -34 8 -41 20 -7 11 -22 20 -34 20 -23 0 -48 23 -37 33 3 4 -4 7 -16 7 -29 0 -63 18 -56 31 4 5 -7 9 -23 9 -18 0 -36 9 -50 25 -12 14 -33 25 -46 25 -15 0 -26 7 -29 20 -5 19 -14 20 -126 20 -102 0 -121 -2 -121 -15 0 -9 -11 -20 -24 -26 -13 -6 -27 -20 -29 -30 -3 -11 -12 -19 -20 -19 -9 0 -19 -9 -22 -20 -3 -11 -15 -20 -26 -20 -16 0 -19 -7 -19 -40 0 -33 -3 -40 -20 -40 -17 0 -20 -7 -20 -40 0 -32 -4 -40 -18 -40 -13 0 -21 -11 -28 -37 -5 -21 -15 -37 -22 -36 -7 2 -12 -8 -12 -22 0 -18 -5 -25 -20 -25 -17 0 -20 -7 -20 -40 0 -33 -3 -40 -20 -40 -17 0 -20 -7 -20 -40 0 -32 -4 -40 -18 -40 -13 0 -21 -11 -28 -37 -5 -21 -15 -37 -22 -36 -7 2 -12 -7 -12 -21 0 -15 -7 -26 -20 -29 -15 -4 -20 -14 -20 -41 0 -29 -4 -36 -20 -36 -16 0 -20 -7 -20 -35 0 -23 -6 -37 -19 -44 -23 -13 -33 -100 -24 -207 5 -63 9 -78 25 -82 10 -2 18 -13 18 -23 0 -12 9 -19 27 -21 20 -2 28 -8 27 -20 -1 -14 6 -18 37 -18 32 0 39 -4 39 -19 0 -15 8 -21 33 -23 23 -2 32 -8 31 -20 -1 -13 6 -18 26 -18 28 0 55 -21 43 -33 -3 -4 10 -7 30 -7 30 0 37 -4 37 -20 0 -16 7 -20 31 -20 22 0 32 -5 36 -20 3 -12 14 -20 27 -20 28 0 50 -15 42 -29 -5 -7 5 -11 29 -11 28 0 38 -5 42 -20 4 -15 14 -20 39 -20 31 0 39 -8 35 -32 0 -5 8 -8 18 -8 30 0 51 -11 51 -26 0 -8 10 -14 26 -14 24 0 26 -3 20 -31 -3 -17 -6 -36 -6 -41 0 -6 -9 -8 -21 -5 -19 5 -20 2 -19 -36 3 -54 -8 -90 -26 -83 -11 4 -14 -9 -14 -59 0 -63 -14 -91 -31 -64 -5 8 -9 -22 -11 -76 -3 -79 -5 -90 -20 -89 -16 2 -18 -8 -18 -81 0 -74 -2 -83 -20 -88 -18 -5 -20 -14 -20 -101 0 -75 -3 -96 -14 -96 -8 0 -13 -8 -12 -17 1 -17 -29 -18 -454 -23 -396 -4 -455 -7 -455 -20 0 -10 -12 -16 -32 -18 -25 -2 -33 -8 -33 -23 0 -10 -7 -19 -15 -19 -18 0 -20 -16 -2 -23 9 -4 9 -6 0 -6 -10 -1 -13 -119 -13 -555 0 -483 2 -555 15 -560 8 -3 15 -12 15 -21 0 -8 7 -15 15 -15 8 0 15 -9 15 -19 0 -14 8 -21 27 -23 20 -2 28 -8 27 -20 -2 -15 7 -18 61 -18 71 0 125 -9 125 -21 0 -4 -10 -10 -22 -12 -13 -2 128 -4 312 -4 184 1 298 3 253 4 -46 2 -83 8 -83 13 0 10 128 23 190 18 32 -2 45 -7 45 -18 0 -8 9 -17 19 -20 17 -5 19 -14 18 -80 -2 -63 0 -72 10 -55 12 19 12 19 19 -5 4 -14 7 -62 8 -106 1 -71 3 -82 19 -80 15 1 18 -11 23 -89 3 -49 6 -84 7 -77 1 6 9 12 17 12 12 0 15 -14 15 -65 0 -50 3 -65 15 -65 14 0 22 -29 27 -100 2 -19 7 -34 12 -32 5 2 16 -11 24 -28 13 -27 13 -33 1 -41 -8 -5 -9 -9 -4 -9 21 -1 -30 -30 -54 -30 -13 0 -21 -3 -18 -7 13 -12 -16 -33 -46 -33 -17 0 -27 -3 -24 -7 12 -12 -15 -33 -43 -33 -19 0 -29 -6 -33 -20 -4 -14 -14 -20 -35 -20 -21 0 -31 -6 -35 -20 -4 -15 -14 -20 -36 -20 -24 0 -31 -4 -31 -20 0 -16 -7 -20 -35 -20 -19 0 -34 -3 -34 -7 4 -26 -4 -33 -37 -33 -23 0 -33 -4 -28 -11 8 -14 -14 -29 -43 -29 -16 0 -23 -6 -23 -20 0 -16 -7 -20 -35 -20 -28 0 -35 -4 -35 -20 0 -15 -7 -20 -25 -20 -18 0 -25 -5 -25 -20 0 -13 -7 -20 -20 -20 -13 0 -20 -7 -20 -20 0 -13 -7 -20 -20 -20 -13 0 -20 -7 -20 -19 0 -11 -9 -23 -20 -26 -18 -6 -20 -15 -20 -91 0 -54 4 -83 10 -79 5 3 10 -1 10 -9 0 -9 5 -16 10 -16 6 0 10 -11 10 -25 0 -14 9 -35 20 -47 11 -12 20 -30 20 -40 0 -10 6 -18 14 -18 9 0 17 -15 21 -40 5 -30 11 -40 26 -40 15 0 19 -7 19 -36 0 -27 5 -37 20 -41 11 -3 20 -14 20 -24 0 -11 6 -19 14 -19 9 0 17 -15 21 -40 5 -30 11 -40 26 -40 16 0 19 -7 19 -40 0 -33 3 -40 20 -40 16 0 20 -7 20 -36 0 -27 5 -37 20 -41 13 -3 20 -14 20 -29 0 -14 5 -23 12 -22 7 2 17 -14 22 -34 7 -27 15 -38 28 -38 14 0 18 -8 18 -35 0 -29 5 -37 25 -45 14 -5 25 -16 25 -25 0 -8 6 -15 14 -15 8 0 22 -10 30 -22 10 -14 30 -24 58 -27 29 -4 43 -11 43 -21 0 -11 15 -16 62 -18 52 -2 63 0 72 16 7 13 25 21 57 25 27 3 51 11 56 20 4 9 22 18 38 22 17 4 30 13 30 20 0 15 22 25 57 25 15 0 23 3 20 7 -12 11 14 33 39 33 15 0 24 6 24 15 0 10 14 17 40 21 23 4 38 9 35 12 -10 10 18 32 40 32 14 0 25 7 28 20 4 16 14 20 43 20 20 0 34 3 31 7 -13 12 15 33 44 33 18 0 29 5 29 14 0 15 21 26 50 26 10 0 20 9 23 20 4 16 14 20 46 20 33 0 41 -3 41 -19 0 -11 9 -21 21 -24 14 -4 20 -11 16 -20 -3 -9 2 -17 14 -20 10 -3 19 -12 19 -21 0 -9 8 -16 20 -16 14 0 20 -7 20 -21 0 -12 8 -23 20 -26 11 -3 20 -12 20 -20 0 -8 9 -17 20 -20 11 -3 20 -10 20 -16 0 -5 19 -27 42 -49 23 -21 37 -38 32 -38 -5 -1 4 -8 19 -16 15 -8 25 -19 22 -24 -3 -5 5 -12 19 -16 13 -3 26 -14 29 -25 3 -11 14 -19 26 -19 14 0 21 -6 21 -19 0 -13 8 -21 23 -23 14 -2 21 -9 19 -20 -2 -11 5 -18 20 -20 15 -2 22 -9 22 -21 -1 -12 5 -17 22 -17 17 0 24 -6 24 -19 0 -13 8 -21 22 -23 13 -2 24 -11 26 -22 3 -11 0 -16 -7 -12 -7 5 -11 -2 -11 -18 0 -16 -6 -26 -14 -26 -16 0 -26 -21 -26 -56 0 -17 -6 -24 -20 -24 -16 0 -20 -7 -20 -36 0 -27 -5 -37 -19 -41 -13 -3 -22 -17 -26 -44 -4 -24 -12 -39 -21 -39 -8 0 -14 -8 -14 -19 0 -10 -9 -21 -20 -24 -15 -4 -20 -14 -20 -41 0 -29 -4 -36 -19 -36 -15 0 -21 -10 -26 -40 -4 -22 -11 -40 -16 -40 -5 0 -14 -11 -19 -25 -5 -14 -16 -25 -25 -25 -11 0 -15 -11 -15 -40 0 -33 -3 -40 -20 -40 -17 0 -20 -7 -20 -40 0 -22 -4 -40 -10 -40 -5 0 -10 -6 -10 -14 0 -8 -5 -16 -12 -18 -13 -5 -23 -106 -14 -143 4 -14 13 -25 20 -25 9 0 17 -16 21 -40 5 -31 11 -40 27 -40 11 0 22 -8 25 -19 3 -14 15 -21 37 -23 22 -2 31 -8 30 -20 -1 -13 6 -18 25 -18 33 0 56 -14 47 -29 -5 -7 5 -11 29 -11 28 0 38 -5 42 -19 3 -14 15 -21 37 -23 22 -2 31 -8 30 -20 -1 -14 6 -18 33 -18 26 0 36 -5 40 -20 3 -13 14 -20 28 -20 24 0 49 -22 38 -33 -3 -4 5 -7 20 -7 36 0 57 -10 57 -26 0 -9 11 -14 31 -14 22 0 32 -5 36 -20 4 -14 14 -20 35 -20 21 0 31 -6 35 -20 3 -11 13 -20 23 -20 29 0 50 -11 50 -26 0 -8 10 -14 25 -14 14 0 34 -9 45 -20 18 -18 33 -20 135 -20 96 0 115 2 115 15 0 9 12 18 30 21 16 4 28 11 27 17 -1 6 8 16 21 22 12 5 22 18 22 27 0 10 6 18 14 18 7 0 16 9 19 20 3 12 14 20 26 20 18 0 21 6 21 40 0 33 3 40 20 40 17 0 20 7 20 40 0 33 3 40 20 40 13 0 20 7 20 20 0 11 5 20 10 20 6 0 10 7 10 16 0 8 5 12 10 9 6 -4 10 6 10 23 0 21 6 31 20 35 15 4 20 14 20 41 0 28 4 36 18 36 13 0 21 11 28 38 5 20 15 36 22 34 7 -1 12 9 12 22 0 16 7 27 20 31 15 5 20 15 20 41 0 22 5 34 14 34 7 0 16 9 19 20 5 19 12 21 69 18 53 -3 63 -6 62 -20 -2 -15 7 -18 55 -18 63 0 92 -11 70 -26 -9 -6 17 -11 71 -14 73 -4 85 -7 84 -22 -2 -16 8 -18 82 -18 81 0 113 -12 83 -31 -9 -5 28 -9 93 -9 104 0 139 -10 107 -31 -10 -6 -5 -9 16 -9 l30 0 -3 -439 c-3 -434 -3 -439 18 -444 14 -3 20 -13 20 -32 0 -28 14 -47 43 -58 9 -3 17 -11 17 -17 0 -6 6 -18 14 -26 11 -11 16 -11 20 -1 5 9 7 9 12 0 7 -17 1114 -19 1114 -3 0 6 11 10 25 10 18 0 23 4 18 16 -4 10 1 17 16 21 12 3 21 13 21 25 0 15 5 19 20 15 20 -5 20 0 20 464 l0 469 43 0 c31 0 38 3 27 10 -29 19 12 30 116 30 91 0 102 2 100 17 -1 16 10 18 84 21 51 2 79 6 71 11 -29 19 2 31 78 31 69 0 79 2 77 18 -1 14 9 17 62 20 52 2 62 6 60 20 -2 14 6 18 48 20 43 2 53 7 57 24 7 24 33 19 29 -6 -2 -9 4 -16 11 -16 9 0 18 -15 22 -36 4 -24 13 -38 26 -41 14 -4 19 -14 19 -40 0 -26 5 -36 20 -40 15 -4 20 -14 20 -38 0 -25 5 -35 20 -40 11 -3 20 -15 20 -25 0 -9 9 -20 20 -23 15 -4 20 -14 20 -41 0 -29 4 -36 20 -36 16 0 20 -7 20 -35 0 -28 5 -37 24 -45 18 -7 23 -14 19 -29 -4 -14 -1 -21 10 -21 13 0 33 -43 29 -62 -1 -5 7 -8 18 -8 16 0 20 -7 20 -35 0 -29 5 -37 26 -45 19 -8 25 -16 21 -29 -3 -14 -1 -18 10 -14 9 4 16 -2 20 -16 3 -12 13 -21 25 -21 11 0 22 -9 25 -20 3 -11 14 -20 24 -20 11 0 28 -9 39 -20 25 -25 130 -30 130 -6 0 10 17 17 55 21 31 4 53 10 51 13 -12 11 18 32 46 32 16 0 27 4 23 9 -7 13 27 31 56 31 12 0 19 3 16 7 -13 12 16 33 46 33 17 0 27 3 24 7 -13 12 16 33 46 33 17 0 27 3 24 7 -13 12 16 33 46 33 17 0 27 3 24 7 -13 12 16 33 46 33 17 0 27 3 24 7 -12 12 15 33 43 33 20 0 27 5 26 18 -1 13 9 19 39 23 22 3 36 7 31 8 -20 3 19 31 44 31 20 0 27 5 26 18 -1 12 8 18 34 22 22 3 35 10 35 20 0 9 11 16 28 18 19 2 27 9 27 23 0 10 7 19 15 19 8 0 15 9 15 20 0 13 7 20 19 20 25 0 31 26 31 153 0 73 -4 107 -11 107 -16 0 -38 31 -39 53 0 9 -7 17 -15 17 -8 0 -17 14 -21 36 -4 24 -13 38 -25 41 -14 4 -19 15 -19 40 0 26 -5 36 -20 40 -15 4 -20 14 -20 40 0 26 -5 36 -20 40 -11 3 -20 14 -20 24 0 11 -6 19 -14 19 -9 0 -17 15 -21 40 -5 30 -11 40 -26 40 -16 0 -19 7 -19 40 0 33 -3 40 -20 40 -16 0 -20 7 -20 30 0 21 -4 28 -14 24 -11 -4 -17 5 -22 30 -3 20 -12 36 -20 36 -15 0 -19 6 -28 43 -6 23 -3 30 13 34 10 3 21 13 24 24 3 11 14 19 26 19 14 0 19 5 14 16 -4 10 1 17 16 21 12 3 21 13 21 24 0 12 7 19 20 19 12 0 20 7 20 16 0 9 9 18 20 21 11 3 20 11 20 17 0 7 11 22 25 34 14 12 25 26 25 32 0 5 6 10 14 10 8 0 18 9 21 20 3 11 15 20 26 20 10 0 18 3 18 8 -4 22 3 32 21 32 11 0 19 3 19 8 -4 22 3 32 21 32 11 0 19 3 19 8 -4 22 3 32 21 32 13 0 20 7 20 20 0 13 7 20 20 20 13 0 20 7 20 20 0 13 7 20 20 20 13 0 20 7 20 20 0 13 7 20 20 20 13 0 20 7 20 20 0 13 7 20 20 20 11 0 20 7 20 15 0 8 7 15 16 15 10 0 14 -6 10 -15 -4 -11 2 -15 25 -15 22 0 32 -5 36 -20 3 -11 13 -20 23 -20 29 0 50 -11 50 -26 0 -9 11 -14 31 -14 22 0 32 -5 36 -20 4 -15 14 -20 39 -20 31 0 39 -8 35 -32 0 -5 8 -8 18 -8 30 0 51 -11 51 -26 0 -8 9 -14 21 -14 28 0 61 -19 54 -31 -4 -5 7 -9 23 -9 29 0 58 -21 45 -33 -3 -4 7 -7 24 -7 29 0 59 -21 47 -32 -3 -3 11 -9 31 -12 21 -4 35 -13 35 -21 0 -9 15 -17 39 -21 27 -4 41 -12 44 -25 5 -17 15 -19 86 -19 68 0 82 3 90 19 6 10 23 21 39 24 19 4 31 14 35 28 4 14 11 20 21 16 10 -4 16 1 18 16 2 14 10 21 21 21 12 -1 17 5 17 22 0 17 6 24 20 24 17 0 20 7 20 40 0 33 3 40 20 40 17 0 20 7 20 40 0 32 4 40 18 40 13 0 21 11 28 38 5 20 15 36 22 34 7 -1 12 9 12 23 0 18 5 25 20 25 17 0 20 7 20 40 0 33 3 40 20 40 16 0 20 7 20 36 0 27 5 37 20 41 11 3 20 14 20 24 0 11 4 19 10 19 5 0 7 7 4 15 -4 9 0 15 10 15 10 0 16 9 16 24 0 15 7 26 20 29 15 4 20 14 20 40 0 25 5 36 19 40 12 3 21 17 25 41 4 20 14 40 22 43 11 4 14 29 14 120 0 106 -1 115 -20 120 -11 3 -20 14 -20 24 0 12 -7 19 -20 19 -13 0 -20 7 -20 19 0 14 -8 21 -27 23 -17 2 -28 9 -28 18 0 10 -13 17 -35 20 -26 4 -35 10 -34 22 1 14 -6 18 -28 18 -21 0 -31 6 -35 20 -4 14 -14 20 -35 20 -21 0 -31 6 -35 19 -3 14 -15 21 -37 23 -22 2 -31 8 -30 20 1 14 -6 18 -33 18 -26 0 -36 5 -40 20 -4 14 -14 20 -35 20 -21 0 -31 6 -35 20 -4 14 -14 20 -35 20 -21 0 -31 6 -35 20 -4 14 -14 20 -35 20 -21 0 -31 6 -35 20 -3 11 -13 20 -23 20 -29 0 -50 11 -50 26 0 8 -10 14 -26 14 -25 0 -26 2 -19 37 7 41 25 59 38 40 4 -7 7 15 6 48 -2 76 8 116 27 108 11 -4 14 8 14 58 0 78 8 109 26 109 10 0 14 16 14 64 0 55 3 64 20 69 18 5 20 14 20 80 0 66 2 75 20 80 17 4 20 14 20 61 0 51 2 56 23 57 16 1 18 2 5 6 -10 2 -18 8 -18 13 0 4 8 10 18 12 30 7 202 -4 202 -13 0 -4 -39 -10 -87 -12 -49 -1 90 -3 307 -3 217 -1 383 1 368 3 -63 10 -4 33 83 33 29 0 36 4 35 17 0 12 7 19 22 21 12 2 22 9 22 17 0 7 7 16 16 19 9 4 14 13 10 21 -3 9 1 18 9 21 13 5 15 81 15 574 0 496 -2 569 -15 574 -8 3 -15 12 -15 20 0 8 -10 16 -22 18 -14 2 -23 10 -22 20 2 24 -163 32 -572 25 -328 -5 -390 -1 -354 23 12 8 11 10 -7 10 -22 0 -23 4 -23 84 0 79 -1 84 -20 79 -19 -5 -20 0 -20 92 0 88 -2 97 -20 102 -17 5 -20 14 -20 69 0 48 -4 64 -14 64 -17 0 -26 31 -26 93 0 40 -3 50 -20 54 -17 4 -20 14 -20 53 0 46 -17 80 -41 80 -5 0 -9 9 -9 20 0 11 7 20 16 20 8 0 12 5 8 11 -8 14 14 29 44 29 12 0 22 6 22 14 0 16 21 26 56 26 13 0 23 3 23 8 -4 23 4 32 30 32 20 0 30 6 34 20 4 15 14 20 42 20 24 0 34 4 29 11 -9 15 15 29 50 29 16 0 26 3 23 7 -12 12 15 33 43 33 20 0 27 5 26 18 -1 12 8 18 30 20 22 2 34 9 37 23 4 14 14 19 40 19 27 0 34 4 33 18 -1 12 8 18 30 20 22 2 34 9 37 23 4 13 14 19 35 19 22 0 29 5 28 17 0 10 9 19 24 23 19 4 27 15 34 43 5 20 15 37 23 37 20 0 19 196 -1 203 -8 3 -18 23 -22 43 -4 24 -13 38 -25 41 -14 4 -19 15 -19 40 0 26 -5 36 -20 40 -15 4 -20 14 -20 42 0 27 -3 32 -10 21 -8 -13 -10 -12 -10 3 0 9 -4 17 -10 17 -5 0 -10 9 -10 20 0 11 -6 20 -14 20 -9 0 -17 15 -21 40 -5 30 -11 40 -26 40 -16 0 -19 7 -19 40 0 33 -3 40 -20 40 -16 0 -20 7 -20 36 0 27 -5 37 -20 41 -11 3 -20 13 -20 23 0 10 -9 20 -20 23 -15 4 -20 14 -20 41 0 29 -4 36 -20 36 -17 0 -20 7 -20 40 0 33 -3 40 -20 40 -16 0 -20 7 -20 30 0 20 -4 28 -13 24 -8 -3 -17 8 -25 28 -6 18 -22 38 -34 43 -13 6 -23 17 -23 25 0 20 -76 29 -179 22 -65 -4 -80 -8 -84 -24 -2 -10 -12 -18 -22 -18 -28 0 -50 -11 -50 -25 0 -15 -22 -25 -57 -25 -15 0 -23 -3 -20 -7 13 -12 -16 -33 -45 -33 -16 0 -27 -4 -23 -9 7 -13 -27 -31 -56 -31 -12 0 -19 -3 -16 -7 12 -11 -14 -33 -39 -33 -14 0 -24 -6 -24 -14 0 -15 -21 -26 -51 -26 -10 0 -19 -6 -19 -14 0 -15 -21 -26 -51 -26 -10 0 -19 -6 -19 -14 0 -16 -21 -26 -55 -26 -16 0 -22 -5 -21 -17 1 -13 -8 -19 -34 -23 -22 -3 -35 -10 -35 -20 0 -9 -11 -16 -28 -18 -30 -4 -61 14 -51 29 3 5 -2 9 -10 9 -9 0 -16 9 -16 20 0 13 -7 20 -20 20 -13 0 -20 7 -20 20 0 13 -7 20 -20 20 -13 0 -20 7 -20 20 0 12 -7 20 -16 20 -9 0 -18 9 -21 20 -3 11 -12 20 -20 20 -8 0 -17 9 -20 20 -3 11 -12 20 -19 20 -8 0 -17 7 -21 16 -8 21 -46 59 -67 67 -9 4 -16 15 -16 26 0 10 -9 21 -20 24 -11 3 -20 12 -20 21 0 9 -8 16 -20 16 -13 0 -20 7 -20 20 0 13 -7 20 -20 20 -13 0 -20 7 -20 19 0 13 -8 21 -22 23 -13 2 -23 10 -23 18 0 8 -9 18 -20 21 -11 3 -19 13 -19 22 1 12 -6 17 -22 17 -17 0 -24 6 -24 20 0 11 -7 20 -15 20 -22 0 -18 21 5 27 13 3 20 14 20 29 0 17 6 24 20 24 17 0 20 7 20 40 0 33 3 40 20 40 17 0 20 7 20 40 0 33 3 40 20 40 13 0 20 7 20 20 0 11 5 20 11 20 5 0 7 5 4 10 -3 6 1 13 9 16 9 3 16 16 16 29 0 14 7 25 20 28 15 4 20 14 20 41 0 29 4 36 19 36 15 0 21 10 26 39 4 22 13 42 21 45 8 3 14 14 14 25 0 10 9 21 20 24 15 4 20 14 20 36 0 21 6 34 18 38 24 9 32 24 26 49 -3 12 -1 25 5 28 6 4 11 16 11 28 0 17 2 18 15 8 13 -11 15 -4 14 51 0 35 -3 58 -6 52 -10 -27 -22 -10 -34 47 -9 48 -15 60 -30 60 -12 0 -19 7 -19 20 0 13 -7 20 -19 20 -21 0 -45 23 -34 33 3 4 -8 7 -26 7 -24 0 -34 5 -38 20 -4 14 -14 20 -35 20 -21 0 -31 6 -35 20 -4 14 -14 20 -35 20 -21 0 -31 6 -35 20 -4 14 -14 20 -33 20 -28 0 -55 21 -43 33 3 4 -8 7 -26 7 -24 0 -34 5 -38 20 -3 11 -13 20 -23 20 -29 0 -50 11 -50 26 0 9 -11 14 -29 14 -29 0 -57 21 -44 33 3 4 -7 7 -24 7 -30 0 -59 21 -46 33 3 4 -4 7 -16 7 -29 0 -63 18 -56 31 4 5 -5 9 -19 9 -14 0 -35 9 -46 20 -11 11 -29 20 -39 20 -11 0 -27 10 -35 22 -15 21 -24 23 -117 23 -85 0 -102 -3 -110 -17 -6 -10 -15 -18 -21 -18 -12 0 -58 -47 -57 -58 3 -20 -3 -32 -16 -32 -8 0 -15 -7 -15 -15 0 -9 -7 -18 -15 -21 -8 -4 -12 -11 -8 -17 4 -7 0 -8 -11 -4 -14 6 -17 2 -14 -26 2 -27 -1 -33 -19 -35 -19 -3 -23 -10 -23 -43 0 -28 -4 -39 -15 -39 -8 0 -15 -7 -15 -15 0 -7 -6 -18 -14 -22 -8 -4 -16 -12 -18 -18 -2 -5 -6 -9 -10 -7 -5 1 -8 -11 -8 -27 0 -20 -6 -30 -20 -34 -15 -4 -20 -14 -20 -41 0 -29 -4 -36 -20 -36 -19 0 -26 -19 -21 -58 1 -8 -7 -16 -18 -19 -12 -3 -21 -14 -21 -24 0 -11 -4 -19 -10 -19 -5 0 -7 -7 -4 -15 4 -9 0 -15 -10 -15 -10 0 -16 -9 -16 -25 0 -15 -6 -25 -14 -25 -15 0 -29 -34 -26 -62 1 -14 -6 -18 -29 -18 -33 0 -48 14 -29 27 8 5 -11 10 -47 13 -50 4 -60 8 -57 23 2 15 -6 17 -58 17 -53 0 -60 2 -60 20 0 17 -8 19 -77 22 -67 3 -78 5 -77 21 2 15 -8 17 -75 17 -82 0 -118 12 -91 30 10 6 -20 10 -95 12 -98 3 -110 5 -109 21 2 14 -6 17 -42 17 l-43 0 6 303 c3 166 3 368 -2 448 -6 137 -8 146 -26 142 -14 -4 -19 0 -19 15 0 12 -9 23 -21 27 -12 4 -18 12 -15 21 4 10 -2 14 -19 14 -14 0 -25 5 -25 10 0 7 -190 10 -550 10 -360 0 -550 -3 -550 -10z m939 -2646 c34 -7 41 -20 14 -27 -10 -3 29 -5 87 -6 105 -1 138 -9 126 -30 -5 -8 12 -11 56 -11 66 0 95 -10 84 -29 -5 -8 12 -11 54 -11 53 0 63 -3 67 -20 4 -16 14 -20 48 -20 40 0 73 -19 58 -33 -3 -4 15 -7 41 -7 39 0 49 -4 53 -20 4 -15 14 -20 38 -20 32 0 61 -20 48 -33 -3 -4 8 -7 25 -7 21 0 36 -7 44 -20 7 -11 21 -20 30 -20 10 0 27 -9 38 -20 11 -11 29 -20 41 -20 12 0 23 -8 26 -19 3 -11 17 -22 31 -26 15 -4 35 -15 45 -26 10 -10 24 -19 31 -19 8 0 16 -9 19 -20 3 -14 14 -20 31 -20 19 0 26 -5 26 -19 0 -14 8 -21 28 -23 19 -2 27 -8 26 -20 -1 -13 5 -18 22 -18 17 0 24 -6 24 -19 0 -13 8 -21 23 -23 12 -2 22 -10 22 -18 0 -8 11 -17 25 -20 14 -3 25 -12 25 -20 0 -8 9 -17 20 -20 11 -3 20 -12 20 -20 0 -8 11 -17 25 -20 14 -3 25 -12 25 -20 0 -8 9 -17 20 -20 11 -3 20 -12 20 -20 0 -8 8 -19 19 -25 10 -5 19 -14 19 -20 0 -5 7 -16 14 -23 7 -8 11 -18 8 -23 -4 -5 3 -9 14 -9 14 0 21 -6 21 -20 0 -13 7 -20 20 -20 13 0 20 -7 20 -19 0 -11 9 -21 21 -24 15 -4 20 -11 17 -25 -4 -13 -1 -19 11 -18 10 1 19 -12 25 -36 7 -27 15 -38 28 -38 11 0 18 -7 18 -19 0 -10 9 -21 20 -24 15 -4 20 -14 20 -41 0 -29 4 -36 20 -36 13 0 20 -7 20 -20 0 -11 6 -20 14 -20 16 0 26 -21 26 -55 0 -14 7 -25 20 -28 15 -4 20 -14 20 -42 0 -28 5 -38 20 -42 15 -4 20 -14 20 -40 0 -26 5 -36 20 -40 16 -4 20 -14 20 -44 0 -32 3 -39 20 -39 18 0 20 -7 20 -56 0 -47 3 -57 20 -61 16 -4 20 -14 20 -49 0 -33 3 -42 14 -38 16 6 26 -35 26 -107 0 -42 3 -49 20 -49 18 0 20 -7 20 -80 0 -64 3 -80 15 -80 8 0 16 -4 16 -10 1 -5 3 -14 4 -20 1 -5 4 -88 5 -182 1 -95 5 -157 9 -138 12 64 21 6 21 -128 0 -135 -7 -183 -21 -160 -5 7 -9 -50 -9 -133 0 -166 -6 -213 -26 -205 -11 4 -14 -12 -14 -79 0 -78 -2 -85 -20 -85 -17 0 -20 -7 -20 -52 0 -69 -9 -101 -26 -94 -11 4 -14 -6 -14 -43 0 -40 -3 -50 -20 -54 -17 -4 -20 -14 -20 -57 0 -43 -3 -53 -20 -57 -16 -4 -20 -14 -20 -44 0 -32 -3 -39 -20 -39 -17 0 -20 -7 -20 -39 0 -30 -4 -40 -20 -44 -15 -4 -20 -14 -20 -40 0 -25 -5 -36 -19 -40 -12 -3 -21 -17 -25 -41 -4 -22 -13 -36 -21 -36 -9 0 -15 -10 -15 -25 0 -18 -5 -25 -20 -25 -16 0 -20 -7 -20 -36 0 -27 -5 -37 -20 -41 -11 -3 -20 -14 -20 -24 0 -12 -7 -19 -20 -19 -13 0 -20 -7 -20 -20 0 -11 -5 -20 -11 -20 -5 0 -8 -4 -4 -9 3 -6 -4 -15 -15 -21 -11 -6 -19 -14 -19 -18 3 -20 -3 -32 -16 -32 -8 0 -15 -9 -15 -20 0 -13 -7 -20 -20 -20 -13 0 -20 -7 -20 -20 0 -13 -7 -20 -20 -20 -13 0 -20 -7 -20 -20 0 -11 -7 -20 -15 -20 -8 0 -12 -6 -9 -14 3 -9 -3 -17 -15 -21 -12 -3 -21 -13 -21 -22 0 -8 -9 -17 -19 -20 -11 -3 -21 -13 -24 -24 -3 -11 -14 -19 -25 -19 -13 0 -19 -6 -18 -17 0 -11 -8 -19 -24 -23 -14 -3 -25 -12 -25 -20 0 -8 -10 -16 -22 -18 -15 -2 -23 -10 -23 -23 0 -12 -7 -19 -20 -19 -13 0 -20 -7 -20 -20 0 -15 -7 -20 -25 -20 -18 0 -25 -5 -25 -20 0 -16 -7 -20 -30 -20 -23 0 -30 -4 -30 -20 0 -15 -7 -20 -25 -20 -18 0 -25 -5 -25 -20 0 -15 -7 -20 -26 -20 -17 0 -28 -6 -31 -19 -3 -11 -17 -21 -33 -24 -16 -4 -30 -14 -33 -26 -4 -15 -13 -21 -34 -21 -17 0 -33 -8 -41 -20 -7 -11 -23 -20 -37 -20 -15 0 -25 -6 -25 -15 0 -10 -14 -17 -40 -21 -22 -4 -40 -12 -40 -19 0 -15 -22 -25 -56 -25 -14 0 -24 -6 -24 -14 0 -18 -22 -26 -67 -26 -20 0 -33 -3 -30 -7 15 -14 -18 -33 -59 -33 -31 0 -44 -4 -44 -14 0 -19 -22 -26 -82 -26 -28 0 -48 -3 -45 -7 4 -3 2 -12 -4 -20 -8 -9 -36 -13 -86 -13 -52 0 -72 -3 -67 -11 13 -21 -21 -29 -131 -29 -72 0 -105 -4 -95 -10 8 -5 11 -13 6 -17 -10 -10 -608 -17 -693 -8 -63 7 -82 20 -40 28 12 2 -32 5 -98 6 -119 1 -154 9 -141 30 5 8 -14 11 -62 11 -46 0 -73 5 -81 13 -6 8 -8 17 -4 20 3 4 -22 7 -56 7 -54 0 -64 3 -68 20 -4 15 -14 20 -38 20 -43 0 -65 9 -65 26 0 10 -13 14 -46 14 -37 0 -47 4 -51 20 -4 15 -14 20 -38 20 -32 0 -61 20 -48 33 3 4 -11 7 -31 7 -29 0 -39 5 -43 19 -3 12 -17 21 -39 26 -20 3 -34 12 -34 20 0 9 -10 15 -24 15 -24 0 -51 22 -40 33 3 3 -11 9 -31 13 -25 4 -39 13 -42 25 -3 12 -14 19 -29 19 -17 0 -24 6 -24 20 0 15 -7 20 -26 20 -17 0 -28 6 -31 20 -3 13 -14 20 -29 20 -17 0 -24 6 -24 19 0 13 -8 21 -22 23 -15 2 -22 9 -22 21 1 12 -6 17 -23 17 -16 0 -27 7 -30 20 -3 13 -14 20 -29 20 -17 0 -24 6 -24 19 0 13 -8 21 -22 23 -13 2 -23 10 -23 18 0 8 -9 18 -20 21 -11 3 -19 13 -19 22 1 11 -6 17 -18 17 -11 0 -22 8 -25 20 -3 11 -12 20 -19 20 -8 0 -14 9 -14 20 0 13 -7 20 -20 20 -13 0 -20 7 -20 20 0 11 -7 23 -16 27 -8 3 -13 12 -10 19 3 8 -1 14 -9 14 -8 0 -15 9 -15 20 0 13 -7 20 -20 20 -13 0 -20 7 -20 20 0 13 -7 20 -20 20 -13 0 -20 7 -20 20 0 11 -6 20 -14 20 -9 0 -17 15 -21 40 -5 30 -11 40 -26 40 -12 0 -19 7 -19 20 0 11 -7 20 -15 20 -8 0 -16 5 -16 10 -1 6 -3 15 -4 20 -1 6 -3 19 -4 30 -1 13 -8 20 -21 20 -17 0 -20 7 -20 39 0 30 -4 40 -20 44 -12 3 -20 14 -20 26 0 14 -6 21 -20 21 -17 0 -20 7 -20 39 0 31 -4 40 -21 44 -11 3 -19 11 -18 19 4 33 -2 69 -11 63 -13 -8 -30 37 -30 81 0 27 -4 34 -20 34 -18 0 -20 7 -20 56 0 47 -3 57 -20 61 -17 5 -20 14 -20 60 0 46 -3 56 -20 60 -18 5 -20 14 -20 82 0 51 -3 71 -10 61 -18 -29 -25 4 -28 143 -2 85 -7 135 -12 127 -5 -8 -13 -11 -17 -6 -4 4 -8 133 -8 286 0 153 4 282 8 286 4 5 12 2 17 -6 6 -10 10 30 10 113 0 96 4 132 14 142 7 8 16 11 20 8 3 -4 6 28 6 70 0 70 2 77 20 77 18 0 20 7 20 54 0 61 15 110 30 101 6 -4 10 12 10 39 0 39 3 46 20 46 15 0 20 7 20 29 0 49 12 91 26 91 10 0 14 13 14 40 0 32 4 40 19 40 14 0 20 10 25 39 3 22 11 41 17 43 7 2 17 19 23 38 7 19 17 34 24 32 7 -1 12 10 12 28 0 23 4 30 20 30 16 0 20 7 20 36 0 27 5 37 20 41 11 3 20 14 20 24 0 12 7 19 20 19 13 0 20 7 21 20 1 11 3 25 4 30 1 6 3 15 4 20 0 6 8 10 16 10 8 0 15 9 15 20 0 13 7 20 20 20 13 0 20 7 20 20 0 13 7 20 20 20 11 0 19 3 18 8 -5 17 22 72 36 72 10 0 13 6 9 16 -4 10 1 17 16 21 12 3 21 13 21 24 0 12 7 19 20 19 13 0 20 7 20 20 0 13 7 20 20 20 13 0 20 7 20 20 0 13 7 20 20 20 13 0 20 7 20 20 0 14 7 20 24 20 17 0 23 5 22 17 0 12 7 19 22 21 14 2 22 10 22 23 0 14 7 19 29 19 21 0 28 5 27 18 -1 12 7 18 27 20 19 2 27 9 27 23 0 12 7 19 19 19 10 0 21 9 24 20 3 14 14 20 31 20 17 0 26 5 26 16 0 8 13 20 29 25 16 6 31 19 34 30 3 13 14 19 31 19 16 0 26 6 26 15 0 8 14 17 34 20 22 5 36 14 39 26 4 13 14 19 35 19 21 0 31 6 35 20 4 15 14 20 40 20 26 0 36 5 40 20 4 15 14 20 40 20 26 0 36 5 40 20 4 16 14 20 50 20 36 0 46 4 50 20 4 16 14 20 50 20 36 0 46 4 50 20 4 17 14 20 60 20 46 0 55 3 60 20 4 18 14 20 75 20 61 0 70 2 75 20 5 18 14 20 101 20 78 0 94 3 90 14 -4 9 3 16 18 19 37 7 762 8 797 1z"></path></g></svg>