<svg xmlns="http://www.w3.org/2000/svg" width="1080.000000pt" height="1080.000000pt" viewBox="0 0 1080.000000 1080.000000" preserveAspectRatio="xMidYMid meet"><metadata>
Created by potrace 1.16, written by Peter Selinger 2001-2019
</metadata><g transform="translate(0.000000,1080.000000) scale(0.100000,-0.100000)" fill="#000000" stroke="none"><path d="M5696 10120 c-43 -13 -92 -66 -136 -145 -21 -38 -266 -509 -545 -1045 -279 -536 -515 -983 -523 -993 -9 -10 -17 -25 -18 -33 -1 -8 -276 -540 -610 -1181 -758 -1457 -758 -1456 -771 -1548 -3 -28 -11 -45 -19 -45 -8 0 -14 -11 -14 -25 0 -14 5 -25 10 -25 6 0 10 7 10 15 0 8 5 15 10 15 6 0 10 -20 10 -45 0 -33 4 -45 15 -45 9 0 15 -9 15 -25 0 -14 5 -25 10 -25 6 0 14 -8 17 -17 4 -9 14 -24 22 -32 21 -22 2476 -4170 2476 -4185 0 -21 97 -156 121 -169 17 -9 46 -11 96 -6 68 6 73 8 112 50 23 25 46 53 53 64 14 22 97 193 118 240 33 76 68 152 81 178 8 16 14 34 14 42 0 7 7 18 15 25 8 7 15 23 15 36 0 12 4 25 9 29 5 3 12 19 16 35 4 17 11 30 16 30 5 0 9 8 9 18 0 10 7 27 15 38 8 10 15 26 15 35 0 9 7 22 15 29 8 7 15 22 15 34 0 11 7 30 15 40 8 11 15 28 15 38 0 10 5 18 10 18 6 0 10 7 10 16 0 9 6 28 14 42 21 39 71 151 118 262 6 14 14 32 19 40 5 8 12 22 15 30 3 8 11 29 19 45 7 17 20 48 29 70 10 22 21 48 26 57 6 10 10 24 10 32 0 7 7 19 15 26 8 7 15 19 15 27 0 8 14 41 30 75 17 33 30 66 30 74 0 8 5 14 10 14 6 0 10 11 10 24 0 13 7 29 15 36 8 7 15 22 15 33 0 11 6 28 13 36 8 9 20 32 27 51 7 19 22 43 32 54 19 18 19 19 -4 43 -21 22 -23 23 -35 7 -10 -13 -10 -20 -2 -25 22 -13 -1 -26 -43 -23 -24 1 -130 14 -237 28 -289 39 -255 46 -392 -87 -64 -63 -132 -119 -150 -126 -19 -8 -48 -20 -66 -27 -17 -8 -40 -14 -50 -14 -11 0 -23 -3 -26 -7 -4 -3 -44 -16 -90 -27 -82 -21 -84 -21 -133 -2 -27 10 -57 22 -66 27 -10 5 -25 9 -34 9 -9 0 -28 6 -42 14 -15 8 -34 17 -42 21 -58 23 -145 91 -220 172 -67 72 -180 214 -180 228 0 3 -13 24 -30 47 -16 22 -30 45 -30 49 0 5 -21 43 -47 85 -25 42 -64 123 -85 178 -21 56 -42 110 -47 121 -47 107 -97 273 -121 397 -5 26 -13 56 -19 67 -6 11 -11 35 -11 53 0 19 -5 39 -11 45 -6 6 -15 39 -20 74 -5 35 -16 100 -24 144 -9 44 -20 116 -24 161 -5 44 -13 90 -20 102 -6 11 -11 39 -11 61 0 22 -7 73 -16 113 -23 109 -24 1091 0 1258 9 63 16 140 16 170 0 30 7 77 15 104 8 27 15 70 15 96 0 26 5 60 10 76 6 16 14 58 19 94 5 36 17 94 26 130 9 36 19 88 24 115 4 28 12 60 19 72 7 12 12 35 12 51 0 16 7 43 15 58 8 16 15 39 15 51 0 12 5 25 10 28 6 3 10 18 10 33 0 15 7 40 15 56 8 15 15 38 15 50 0 11 7 30 15 40 8 11 15 28 15 37 0 10 6 30 14 46 27 52 46 101 46 117 0 9 5 16 10 16 6 0 10 8 10 18 0 9 7 26 15 36 8 11 15 26 15 35 0 8 6 22 13 30 8 9 22 36 31 61 10 25 29 59 42 77 13 17 24 34 24 36 0 10 88 136 115 164 43 44 55 61 55 73 0 5 7 10 15 10 8 0 15 7 15 15 0 8 7 15 16 15 8 0 12 5 9 10 -3 6 2 13 12 17 10 4 28 17 40 30 12 13 28 23 35 23 10 0 9 -3 -1 -9 -16 -10 -26 -51 -12 -51 9 0 81 76 81 85 0 3 -9 1 -21 -5 -11 -6 -25 -9 -32 -6 -7 3 -3 8 10 11 12 4 24 13 27 21 3 8 15 14 26 14 12 0 19 4 16 8 -6 10 91 65 119 68 12 1 49 14 84 28 l63 25 41 -21 c23 -12 65 -25 92 -28 32 -3 49 -10 47 -18 -1 -8 10 -12 32 -12 19 0 38 -4 41 -10 3 -5 15 -10 26 -10 11 0 22 -7 25 -15 4 -8 13 -15 20 -15 8 0 17 -7 20 -15 4 -8 15 -15 25 -15 10 0 19 -7 19 -15 0 -8 5 -15 11 -15 5 0 33 -23 62 -51 28 -28 71 -62 95 -76 24 -14 48 -36 53 -49 4 -13 14 -24 22 -24 7 0 141 22 297 49 157 27 297 47 313 44 20 -4 27 -1 27 11 0 10 -6 13 -15 10 -11 -5 -15 1 -15 19 0 14 -187 472 -415 1017 -426 1018 -462 1096 -577 1241 -67 85 -178 120 -282 89z"></path><path d="M2728 9328 c-8 -24 11 -803 23 -903 6 -55 14 -143 18 -195 4 -52 13 -108 19 -123 7 -16 12 -52 12 -80 0 -28 8 -87 17 -129 13 -60 20 -78 33 -78 10 0 75 61 145 135 70 74 130 135 134 135 3 0 40 -45 81 -101 71 -96 84 -106 260 -233 135 -97 233 -158 361 -225 97 -50 185 -91 197 -91 17 0 44 46 157 266 75 146 135 267 133 268 -1 2 -68 25 -147 51 -147 49 -255 103 -431 217 -79 52 -240 203 -240 226 0 5 34 42 76 81 42 39 103 103 136 143 l61 72 -39 17 c-281 126 -576 277 -774 395 -58 34 -127 85 -155 113 -50 52 -69 61 -77 39z"></path><path d="M8995 8470 c-11 -5 -103 -25 -205 -45 -195 -37 -554 -76 -929 -100 -117 -7 -217 -17 -221 -22 -5 -4 23 -91 62 -193 42 -111 65 -186 59 -188 -6 -2 -11 -9 -11 -15 0 -12 -45 -37 -66 -37 -6 0 -14 -7 -18 -15 -3 -8 -15 -15 -26 -15 -11 0 -20 -4 -20 -10 0 -5 -9 -10 -20 -10 -11 0 -23 -7 -26 -15 -4 -8 -18 -15 -33 -15 -25 1 -25 1 -7 15 26 19 21 19 -39 -5 -41 -16 -45 -19 -22 -20 15 0 27 -4 27 -10 0 -5 -14 -10 -31 -10 -16 0 -28 -4 -25 -9 6 -10 -16 -21 -41 -21 -8 0 -21 -7 -29 -15 -9 -8 -26 -15 -39 -15 -13 0 -27 -4 -30 -10 -3 -5 -27 -10 -53 -10 -46 1 -47 1 -22 16 l25 15 -25 -7 c-14 -3 -38 -12 -55 -19 l-30 -13 40 -1 c53 -2 27 -21 -28 -21 -21 0 -36 -4 -33 -9 8 -12 -18 -21 -64 -21 -28 0 -39 -5 -42 -17 -2 -13 -59 -27 -308 -73 -266 -49 -306 -54 -311 -41 -5 14 -27 15 -150 13 -220 -4 -753 15 -757 27 -7 21 -50 12 -58 -11 -4 -13 -17 -36 -29 -53 -29 -38 -165 -277 -188 -330 -10 -22 -22 -48 -27 -57 -14 -26 -12 -94 3 -106 19 -16 1206 -19 1234 -4 11 6 51 14 89 17 38 4 85 12 104 18 19 6 37 12 40 12 3 1 12 4 20 8 29 11 512 107 541 107 16 0 37 5 47 10 9 6 162 77 339 159 l322 149 35 -92 c20 -50 58 -149 85 -221 27 -71 53 -131 58 -132 5 -2 87 77 183 174 194 197 223 228 295 323 28 36 52 67 55 70 23 23 118 183 218 371 119 221 122 229 160 382 38 153 38 157 18 156 -12 0 -30 -4 -41 -9z"></path><path d="M7278 7002 c-2 -7 -451 -98 -517 -105 -8 -1 -24 12 -35 30 -25 38 -51 44 -43 11 3 -13 15 -48 27 -78 39 -93 57 -154 67 -220 3 -19 10 -41 16 -48 10 -13 17 -42 38 -162 6 -36 15 -73 20 -82 5 -10 9 -32 9 -50 1 -18 7 -51 15 -73 8 -22 15 -61 15 -87 0 -26 5 -59 11 -75 7 -15 15 -80 19 -143 8 -120 35 -289 49 -303 17 -17 905 -9 960 9 11 4 11 7 -2 17 -9 6 -91 183 -183 392 -229 527 -262 602 -291 664 -14 30 -41 91 -59 135 -62 147 -78 176 -96 176 -9 0 -18 -4 -20 -8z"></path><path d="M8740 5756 l0 -314 -37 9 c-21 5 -91 9 -155 9 -100 0 -117 -2 -112 -15 5 -13 -21 -15 -203 -15 -115 0 -446 -3 -736 -7 l-526 -6 6 21 c7 28 -13 29 -22 2 -8 -25 33 -25 -1103 -4 -480 9 -878 14 -886 11 -7 -3 -25 -54 -41 -114 -38 -145 -38 -242 1 -372 l28 -94 1903 5 1903 5 -1 -191 c0 -105 -4 -245 -8 -311 -4 -66 -6 -122 -4 -124 2 -2 11 3 20 11 29 25 1461 886 1480 890 28 5 29 46 1 58 -13 5 -30 14 -38 20 -28 18 -145 86 -160 93 -8 4 -28 16 -45 26 -16 11 -48 30 -70 42 -22 12 -51 28 -65 36 -14 8 -38 23 -55 33 -16 11 -37 23 -45 27 -8 4 -42 23 -75 43 -33 20 -67 39 -75 43 -8 4 -28 16 -45 27 -16 11 -37 23 -45 27 -8 4 -42 23 -75 43 -33 20 -67 40 -75 44 -8 4 -24 12 -35 19 -11 7 -47 28 -80 47 -33 19 -69 40 -80 47 -11 7 -27 15 -35 19 -8 4 -42 24 -75 44 -33 20 -67 39 -75 43 -8 4 -28 16 -45 27 -16 11 -37 23 -45 27 -8 4 -43 24 -78 45 -34 21 -69 38 -77 38 -13 0 -15 -43 -15 -314z"></path><path d="M2210 6024 c0 -22 -9 -35 -33 -50 -17 -12 -286 -175 -597 -361 -816 -491 -771 -463 -768 -482 3 -15 231 -144 1144 -648 131 -73 247 -135 257 -139 16 -6 17 13 17 300 l0 306 163 0 c293 0 537 12 537 26 0 7 -5 14 -11 16 -5 2 -11 18 -11 35 -1 22 -5 30 -14 26 -11 -4 -14 14 -14 90 0 53 4 98 9 101 5 3 12 22 15 42 4 19 10 42 13 50 4 12 -46 14 -346 14 l-351 0 0 308 c0 169 4 321 9 339 7 24 6 35 -5 44 -11 9 -14 6 -14 -17z"></path><path d="M6946 4669 c-3 -17 -6 -68 -6 -113 0 -122 -64 -555 -115 -779 -35 -152 -55 -216 -83 -270 -20 -40 -38 -75 -40 -79 -2 -3 11 -9 28 -13 37 -8 465 -74 466 -72 0 1 145 300 322 664 177 364 322 666 322 671 0 19 -54 22 -466 22 l-421 0 -7 -31z"></path><path d="M5470 3309 c-135 -9 -255 -18 -267 -18 -34 -1 -30 -57 8 -128 62 -114 222 -388 238 -406 12 -15 24 -17 56 -12 183 30 248 34 580 35 339 0 357 -1 585 -32 129 -17 238 -35 241 -40 3 -5 19 -10 35 -12 16 -2 54 -13 84 -24 30 -12 72 -24 93 -28 20 -3 40 -10 43 -15 3 -5 17 -9 32 -9 15 0 37 -6 48 -14 11 -8 33 -16 49 -18 32 -3 47 -28 18 -28 -10 0 13 -14 52 -30 75 -32 95 -38 55 -15 l-25 14 38 1 c20 0 37 -4 37 -10 0 -5 11 -10 25 -10 14 0 28 -7 31 -15 4 -8 17 -15 30 -15 14 0 24 -6 24 -14 0 -9 12 -16 28 -18 15 -2 26 -8 24 -15 -1 -7 7 -13 19 -13 11 0 35 -11 52 -23 18 -13 47 -30 65 -37 17 -7 32 -19 32 -26 0 -8 -32 -93 -70 -190 -39 -97 -68 -179 -65 -182 9 -9 119 -21 295 -32 91 -6 183 -14 205 -20 22 -5 72 -10 112 -10 40 0 94 -5 120 -10 26 -6 93 -15 148 -20 101 -9 202 -25 265 -40 19 -5 73 -14 120 -21 47 -6 95 -16 108 -22 49 -23 45 4 -33 228 -70 201 -128 335 -147 343 -4 2 -8 12 -8 22 0 9 -7 23 -15 30 -8 7 -15 19 -15 26 0 8 -4 14 -10 14 -5 0 -10 6 -10 14 0 8 -6 21 -12 28 -23 24 -78 108 -78 118 0 6 -3 10 -7 10 -5 0 -19 18 -33 40 -13 22 -28 40 -32 40 -4 0 -8 6 -8 13 0 6 -12 26 -28 42 -15 17 -46 55 -69 85 -23 30 -56 71 -75 91 -18 20 -59 66 -90 101 -32 35 -100 98 -152 139 -54 42 -95 82 -96 92 -1 56 -37 -28 -171 -400 -7 -20 -13 -18 -154 54 -177 91 -547 219 -685 237 -19 3 -145 32 -280 65 -240 58 -251 60 -550 85 -349 30 -468 30 -810 5z"></path><path d="M3825 2760 c-157 -82 -295 -161 -331 -189 -33 -27 -114 -109 -180 -184 -65 -74 -123 -136 -128 -136 -5 -1 -67 60 -139 135 -86 89 -133 132 -140 125 -16 -16 -84 -762 -106 -1151 -11 -195 -17 -357 -15 -359 9 -9 57 21 171 106 140 104 388 243 671 373 111 51 202 98 202 104 0 6 -26 36 -58 66 -32 30 -90 86 -130 123 -48 46 -72 76 -72 91 0 16 34 53 118 128 114 102 218 171 377 251 121 61 345 149 361 143 12 -5 15 -2 10 10 -15 38 -320 504 -330 504 -6 0 -132 -63 -281 -140z"></path></g></svg>